<svg width="24" height="24" viewBox="0 0 24 24" fill="none" xmlns="http://www.w3.org/2000/svg">
<path fill-rule="evenodd" clip-rule="evenodd" d="M2 5C2 4.44772 2.44772 4 3 4H5.5C6.16304 4 6.79893 4.26339 7.26777 4.73223C7.73661 5.20107 8 5.83696 8 6.5V7.5C8 8.04404 7.82267 8.5698 7.50001 9C7.82267 9.4302 8 9.95596 8 10.5V11.5C8 12.163 7.73661 12.7989 7.26777 13.2678C6.79893 13.7366 6.16304 14 5.5 14H3C2.44772 14 2 13.5523 2 13C2 12.4477 2.44772 12 3 12H5.5C5.63261 12 5.75979 11.9473 5.85355 11.8536C5.94732 11.7598 6 11.6326 6 11.5V10.5C6 10.3674 5.94732 10.2402 5.85355 10.1464C5.75979 10.0527 5.63261 10 5.5 10H4C3.44772 10 3 9.55228 3 9C3 8.44772 3.44772 8 4 8H5.5C5.63261 8 5.75979 7.94732 5.85355 7.85355C5.94732 7.75979 6 7.63261 6 7.5V6.5C6 6.36739 5.94732 6.24021 5.85355 6.14645C5.75979 6.05268 5.63261 6 5.5 6H3C2.44772 6 2 5.55228 2 5ZM9.58579 4.58579C9.96086 4.21071 10.4696 4 11 4H13C13.5304 4 14.0391 4.21071 14.4142 4.58579C14.7893 4.96086 15 5.46957 15 6C15 6.55228 14.5523 7 14 7C13.4477 7 13 6.55228 13 6L11 6V8H13C13.5304 8 14.0391 8.21071 14.4142 8.58579C14.7893 8.96086 15 9.46957 15 10V12C15 12.5304 14.7893 13.0391 14.4142 13.4142C14.0391 13.7893 13.5304 14 13 14H11C10.4696 14 9.96086 13.7893 9.58579 13.4142C9.21071 13.0391 9 12.5304 9 12V6C9 5.46957 9.21071 4.96086 9.58579 4.58579ZM11 10V12H13V10H11ZM16.8787 4.87868C17.4413 4.31607 18.2043 4 19 4C19.7957 4 20.5587 4.31607 21.1213 4.87868C21.6839 5.44129 22 6.20435 22 7V11C22 11.7957 21.6839 12.5587 21.1213 13.1213C20.5587 13.6839 19.7957 14 19 14C18.2043 14 17.4413 13.6839 16.8787 13.1213C16.3161 12.5587 16 11.7957 16 11V7C16 6.20435 16.3161 5.44129 16.8787 4.87868ZM19 6C18.7348 6 18.4804 6.10536 18.2929 6.29289C18.1054 6.48043 18 6.73478 18 7V11C18 11.2652 18.1054 11.5196 18.2929 11.7071C18.4804 11.8946 18.7348 12 19 12C19.2652 12 19.5196 11.8946 19.7071 11.7071C19.8946 11.5196 20 11.2652 20 11V7C20 6.73478 19.8946 6.48043 19.7071 6.29289C19.5196 6.10536 19.2652 6 19 6Z" fill="var(--svg-base)"/>
<path fill-rule="evenodd" clip-rule="evenodd" d="M3 15C3.55228 15 4 15.4477 4 16C4 16.0009 3.99998 16.0052 4.00306 16.0153C4.00645 16.0264 4.01483 16.0485 4.03508 16.0814C4.07753 16.1506 4.16411 16.2546 4.32629 16.3824C4.65651 16.6426 5.19631 16.9207 5.95246 17.1727C7.4543 17.6733 9.59257 18 12 18C14.4074 18 16.5457 17.6733 18.0475 17.1727C18.8037 16.9207 19.3435 16.6426 19.6737 16.3824C19.8359 16.2546 19.9225 16.1506 19.9649 16.0814C19.9852 16.0485 19.9935 16.0264 19.9969 16.0153C20 16.0052 20 16.001 20 16.0001C20 15.4478 20.4477 15 21 15C21.5523 15 22 15.4477 22 16C22 16.852 21.481 17.5045 20.9116 17.9532C20.3309 18.4109 19.5526 18.7792 18.68 19.0701C16.9243 19.6552 14.5626 20 12 20C9.43743 20 7.07571 19.6552 5.32004 19.0701C4.44744 18.7792 3.66912 18.4109 3.0884 17.9532C2.51896 17.5045 2 16.852 2 16C2 15.4477 2.44772 15 3 15Z" fill="var(--svg-base)"/>
</svg>
