<svg width="24" height="24" viewBox="0 0 24 24" fill="none" xmlns="http://www.w3.org/2000/svg">
<path d="M12 7C9.40863 7 7.01421 7.46466 5.23018 8.25741C4.33942 8.65323 3.55661 9.15049 2.98295 9.75327C2.40437 10.3612 2 11.1222 2 12C2 12.8778 2.40437 13.6388 2.98295 14.2467C3.55661 14.8495 4.33942 15.3468 5.23018 15.7426C6.4736 16.2951 8.01353 16.6883 9.70999 16.8758L8.29289 18.2929C7.90237 18.6834 7.90237 19.3166 8.29289 19.7071C8.68342 20.0976 9.31658 20.0976 9.70711 19.7071L12.7071 16.7071C13.0976 16.3166 13.0976 15.6834 12.7071 15.2929L9.70711 12.2929C9.31658 11.9024 8.68342 11.9024 8.29289 12.2929C7.90237 12.6834 7.90237 13.3166 8.29289 13.7071L9.40809 14.8223C8.10169 14.6376 6.95164 14.319 6.04232 13.9149C5.30433 13.587 4.76902 13.2224 4.43173 12.868C4.09938 12.5187 4 12.2272 4 12C4 11.7728 4.09938 11.4813 4.43173 11.132C4.76902 10.7776 5.30433 10.413 6.04232 10.0851C7.51579 9.43034 9.62137 9 12 9C14.3786 9 16.4842 9.43034 17.9577 10.0851C18.6957 10.413 19.231 10.7776 19.5683 11.132C19.9006 11.4813 20 11.7728 20 12C20 12.2822 19.8414 12.6775 19.2737 13.1399C18.7105 13.5987 17.8435 14.0338 16.7149 14.3695C16.1855 14.5269 15.884 15.0837 16.0415 15.6131C16.1989 16.1425 16.7557 16.444 17.2851 16.2865C18.5705 15.9042 19.7035 15.3693 20.5368 14.6906C21.3656 14.0155 22 13.1058 22 12C22 11.1222 21.5956 10.3612 21.017 9.75327C20.4434 9.15049 19.6606 8.65323 18.7698 8.25741C16.9858 7.46466 14.5914 7 12 7Z" fill="var(--svg-base)"/>
</svg>
