<svg width="24" height="24" viewBox="0 0 24 24" fill="none" xmlns="http://www.w3.org/2000/svg">
<path d="M20.9241 3.61722C20.8757 3.50014 20.8041 3.3904 20.7092 3.29502L20.705 3.29078C20.5242 3.11106 20.2751 3 20 3H16C15.4477 3 15 3.44772 15 4C15 4.55228 15.4477 5 16 5H17.5858L13.2929 9.29289C12.9024 9.68342 12.9024 10.3166 13.2929 10.7071C13.6834 11.0976 14.3166 11.0976 14.7071 10.7071L19 6.41421V8C19 8.55228 19.4477 9 20 9C20.5523 9 21 8.55228 21 8V4.00069L21 3.997C20.9996 3.8625 20.9727 3.73425 20.9241 3.61722Z" fill="var(--svg-base)"/>
<path d="M3.07588 3.61722C3.12432 3.50014 3.19595 3.3904 3.29078 3.29502L3.29502 3.29078C3.47581 3.11106 3.72494 3 4 3H8C8.55228 3 9 3.44772 9 4C9 4.55228 8.55228 5 8 5H6.41421L10.7071 9.29289C11.0976 9.68342 11.0976 10.3166 10.7071 10.7071C10.3166 11.0976 9.68342 11.0976 9.29289 10.7071L5 6.41421V8C5 8.55228 4.55228 9 4 9C3.44771 9 3 8.55228 3 8V4.00069L3 3.997C3.0004 3.8625 3.02735 3.73425 3.07588 3.61722Z" fill="var(--svg-base)"/>
<path d="M14.7071 13.2929C14.3166 12.9024 13.6834 12.9024 13.2929 13.2929C12.9024 13.6834 12.9024 14.3166 13.2929 14.7071L17.5858 19H16C15.4477 19 15 19.4477 15 20C15 20.5523 15.4477 21 16 21H19.9993L20.003 21C20.1375 20.9996 20.2657 20.9727 20.3828 20.9241C20.498 20.8764 20.6062 20.8063 20.7006 20.7136C20.7049 20.7093 20.7093 20.7049 20.7136 20.7006C20.8901 20.5208 20.9992 20.2746 21 20.003L21 20V16C21 15.4477 20.5523 15 20 15C19.4477 15 19 15.4477 19 16V17.5858L14.7071 13.2929Z" fill="var(--svg-base)"/>
<path d="M9.29289 13.2929C9.68342 12.9024 10.3166 12.9024 10.7071 13.2929C11.0976 13.6834 11.0976 14.3166 10.7071 14.7071L6.41421 19H8C8.55228 19 9 19.4477 9 20C9 20.5523 8.55228 21 8 21H4.00069L3.997 21C3.8625 20.9996 3.73425 20.9727 3.61722 20.9241C3.50195 20.8764 3.3938 20.8063 3.29945 20.7136C3.29506 20.7093 3.29071 20.7049 3.2864 20.7006C3.1099 20.5208 3.0008 20.2746 3 20.003L3 20V16C3 15.4477 3.44771 15 4 15C4.55228 15 5 15.4477 5 16V17.5858L9.29289 13.2929Z" fill="var(--svg-base)"/>
</svg>
