<svg width="24" height="24" viewBox="0 0 24 24" fill="none" xmlns="http://www.w3.org/2000/svg">
<path d="M9.92412 14.6172C9.87568 14.5001 9.80405 14.3904 9.70922 14.295L9.70498 14.2908C9.52419 14.1111 9.27506 14 9 14H5C4.44772 14 4 14.4477 4 15C4 15.5523 4.44772 16 5 16H6.58579L2.29289 20.2929C1.90237 20.6834 1.90237 21.3166 2.29289 21.7071C2.68342 22.0976 3.31658 22.0976 3.70711 21.7071L8 17.4142V19C8 19.5523 8.44772 20 9 20C9.55228 20 10 19.5523 10 19V15.0007L10 14.997C9.9996 14.8625 9.97265 14.7343 9.92412 14.6172Z" fill="var(--svg-base)"/>
<path d="M14.0759 14.6172C14.1243 14.5001 14.196 14.3904 14.2908 14.295L14.295 14.2908C14.4758 14.1111 14.7249 14 15 14H19C19.5523 14 20 14.4477 20 15C20 15.5523 19.5523 16 19 16H17.4142L21.7071 20.2929C22.0976 20.6834 22.0976 21.3166 21.7071 21.7071C21.3166 22.0976 20.6834 22.0976 20.2929 21.7071L16 17.4142V19C16 19.5523 15.5523 20 15 20C14.4477 20 14 19.5523 14 19V15.0007L14 14.997C14.0004 14.8625 14.0273 14.7343 14.0759 14.6172Z" fill="var(--svg-base)"/>
<path d="M14.0759 9.38278C14.1243 9.49986 14.196 9.6096 14.2908 9.70498L14.295 9.70922C14.4758 9.88894 14.7249 10 15 10H19C19.5523 10 20 9.55228 20 9C20 8.44772 19.5523 8 19 8H17.4142L21.7071 3.70711C22.0976 3.31658 22.0976 2.68342 21.7071 2.29289C21.3166 1.90237 20.6834 1.90237 20.2929 2.29289L16 6.58579V5C16 4.44772 15.5523 4 15 4C14.4477 4 14 4.44772 14 5V8.99931L14 9.003C14.0004 9.1375 14.0273 9.26575 14.0759 9.38278Z" fill="var(--svg-base)"/>
<path d="M9.92412 9.38278C9.87568 9.49986 9.80405 9.6096 9.70922 9.70498L9.70498 9.70922C9.52419 9.88894 9.27506 10 9 10H5C4.44772 10 4 9.55228 4 9C4 8.44772 4.44772 8 5 8H6.58579L2.29289 3.70711C1.90237 3.31658 1.90237 2.68342 2.29289 2.29289C2.68342 1.90237 3.31658 1.90237 3.70711 2.29289L8 6.58579V5C8 4.44772 8.44772 4 9 4C9.55228 4 10 4.44772 10 5V8.99931L10 9.003C9.9996 9.1375 9.97265 9.26575 9.92412 9.38278Z" fill="var(--svg-base)"/>
</svg>
