<svg width="24" height="24" viewBox="0 0 24 24" fill="none" xmlns="http://www.w3.org/2000/svg">
<path fill-rule="evenodd" clip-rule="evenodd" d="M5.92893 4.92893C7.8043 3.05357 10.3478 2 13 2C15.6522 2 18.1957 3.05357 20.0711 4.92893C21.9464 6.8043 23 9.34784 23 12C23 13.3132 22.7413 14.6136 22.2388 15.8268C21.7362 17.0401 20.9997 18.1425 20.0711 19.0711C19.1425 19.9997 18.0401 20.7362 16.8268 21.2388C15.6136 21.7413 14.3132 22 13 22C11.6868 22 10.3864 21.7413 9.17317 21.2388C7.95991 20.7362 6.85752 19.9997 5.92893 19.0711C5.00035 18.1425 4.26375 17.0401 3.7612 15.8268C3.25866 14.6136 3 13.3132 3 12C3 9.34784 4.05357 6.8043 5.92893 4.92893ZM13 4C10.8783 4 8.84344 4.84285 7.34315 6.34315C5.84285 7.84344 5 9.87827 5 12C5 13.0506 5.20693 14.0909 5.60896 15.0615C6.011 16.0321 6.60028 16.914 7.34315 17.6569C8.08601 18.3997 8.96793 18.989 9.93853 19.391C10.9091 19.7931 11.9494 20 13 20C14.0506 20 15.0909 19.7931 16.0615 19.391C17.0321 18.989 17.914 18.3997 18.6569 17.6569C19.3997 16.914 19.989 16.0321 20.391 15.0615C20.7931 14.0909 21 13.0506 21 12C21 9.87827 20.1571 7.84344 18.6569 6.34315C17.1566 4.84285 15.1217 4 13 4Z" fill="var(--svg-base)"/>
<path fill-rule="evenodd" clip-rule="evenodd" d="M13 6C13.5523 6 14 6.44772 14 7V11.5858L16.7071 14.2929C17.0976 14.6834 17.0976 15.3166 16.7071 15.7071C16.3166 16.0976 15.6834 16.0976 15.2929 15.7071L12.2929 12.7071C12.1054 12.5196 12 12.2652 12 12V7C12 6.44772 12.4477 6 13 6Z" fill="var(--svg-base)"/>
</svg>
