<svg width="24" height="24" viewBox="0 0 24 24" fill="none" xmlns="http://www.w3.org/2000/svg">
<path fill-rule="evenodd" clip-rule="evenodd" d="M8.70711 2.29289C8.31658 1.90237 7.68342 1.90237 7.29289 2.29289C6.90237 2.68342 6.90237 3.31658 7.29289 3.70711L9.58579 6H5C4.20435 6 3.44129 6.31607 2.87868 6.87868C2.31607 7.44129 2 8.20435 2 9V18C2 18.7957 2.31607 19.5587 2.87868 20.1213C3.44129 20.6839 4.20435 21 5 21H19C19.7957 21 20.5587 20.6839 21.1213 20.1213C21.6839 19.5587 22 18.7957 22 18V9C22 8.20435 21.6839 7.44129 21.1213 6.87868C20.5587 6.31607 19.7957 6 19 6H14.4142L16.7071 3.70711C17.0976 3.31658 17.0976 2.68342 16.7071 2.29289C16.3166 1.90237 15.6834 1.90237 15.2929 2.29289L12 5.58579L8.70711 2.29289ZM4.29289 8.29289C4.48043 8.10536 4.73478 8 5 8H19C19.2652 8 19.5196 8.10536 19.7071 8.29289C19.8946 8.48043 20 8.73478 20 9V18C20 18.2652 19.8946 18.5196 19.7071 18.7071C19.5196 18.8946 19.2652 19 19 19H5C4.73478 19 4.48043 18.8946 4.29289 18.7071C4.10536 18.5196 4 18.2652 4 18V9C4 8.73478 4.10536 8.48043 4.29289 8.29289Z" fill="var(--svg-base)"/>
</svg>
