<svg width="24" height="24" viewBox="0 0 24 24" fill="none" xmlns="http://www.w3.org/2000/svg">
<path fill-rule="evenodd" clip-rule="evenodd" d="M6 5C5.73478 5 5.48043 5.10536 5.29289 5.29289C5.10536 5.48043 5 5.73478 5 6V8C5 8.55228 4.55228 9 4 9C3.44772 9 3 8.55228 3 8V6C3 5.20435 3.31607 4.44129 3.87868 3.87868C4.44129 3.31607 5.20435 3 6 3H8C8.55228 3 9 3.44772 9 4C9 4.55228 8.55228 5 8 5H6Z" fill="var(--svg-base)"/>
<path fill-rule="evenodd" clip-rule="evenodd" d="M4 15C4.55228 15 5 15.4477 5 16V18C5 18.2652 5.10536 18.5196 5.29289 18.7071C5.48043 18.8946 5.73478 19 6 19H8C8.55228 19 9 19.4477 9 20C9 20.5523 8.55228 21 8 21H6C5.20435 21 4.44129 20.6839 3.87868 20.1213C3.31607 19.5587 3 18.7956 3 18V16C3 15.4477 3.44772 15 4 15Z" fill="var(--svg-base)"/>
<path fill-rule="evenodd" clip-rule="evenodd" d="M15 4C15 3.44772 15.4477 3 16 3H18C18.7956 3 19.5587 3.31607 20.1213 3.87868C20.6839 4.44129 21 5.20435 21 6V8C21 8.55228 20.5523 9 20 9C19.4477 9 19 8.55228 19 8V6C19 5.73478 18.8946 5.48043 18.7071 5.29289C18.5196 5.10536 18.2652 5 18 5H16C15.4477 5 15 4.55228 15 4Z" fill="var(--svg-base)"/>
<path fill-rule="evenodd" clip-rule="evenodd" d="M20 15C20.5523 15 21 15.4477 21 16V18C21 18.7957 20.6839 19.5587 20.1213 20.1213C19.5587 20.6839 18.7957 21 18 21H16C15.4477 21 15 20.5523 15 20C15 19.4477 15.4477 19 16 19H18C18.2652 19 18.5196 18.8946 18.7071 18.7071C18.8946 18.5196 19 18.2652 19 18V16C19 15.4477 19.4477 15 20 15Z" fill="var(--svg-base)"/>
</svg>
