<svg width="24" height="24" viewBox="0 0 24 24" fill="none" xmlns="http://www.w3.org/2000/svg">
<path fill-rule="evenodd" clip-rule="evenodd" d="M10 5.48594L6.78935 9.61391C6.5999 9.8575 6.30859 9.99997 6 9.99997H4V14H6C6.30859 14 6.5999 14.1424 6.78935 14.386L10 18.514V5.48594ZM9.53226 3.19914C9.93016 3.03707 10.3729 3.02267 10.7805 3.15853C11.1881 3.29439 11.5336 3.57156 11.7547 3.93995C11.9584 4.27942 12.044 4.67571 12 5.06729V18.9327C12.044 19.3242 11.9584 19.7205 11.7547 20.06C11.5336 20.4284 11.1881 20.7056 10.7805 20.8414C10.3729 20.9773 9.93016 20.9629 9.53226 20.8008C9.16889 20.6528 8.86481 20.3905 8.66499 20.0552L5.51092 16H4C3.46957 16 2.96086 15.7893 2.58579 15.4142C2.21071 15.0391 2 14.5304 2 14V9.99997C2 9.46954 2.21071 8.96083 2.58579 8.58576C2.96086 8.21069 3.46957 7.99997 4 7.99997H5.51092L8.665 3.94473C8.86481 3.6094 9.16889 3.34715 9.53226 3.19914Z" fill="var(--svg-base)"/>
<path fill-rule="evenodd" clip-rule="evenodd" d="M15.2929 9.29287C15.6834 8.90234 16.3166 8.90234 16.7071 9.29287L18 10.5858L19.2929 9.29287C19.6834 8.90234 20.3166 8.90234 20.7071 9.29287C21.0976 9.68339 21.0976 10.3166 20.7071 10.7071L19.4142 12L20.7071 13.2929C21.0976 13.6834 21.0976 14.3166 20.7071 14.7071C20.3166 15.0976 19.6834 15.0976 19.2929 14.7071L18 13.4142L16.7071 14.7071C16.3166 15.0976 15.6834 15.0976 15.2929 14.7071C14.9024 14.3166 14.9024 13.6834 15.2929 13.2929L16.5858 12L15.2929 10.7071C14.9024 10.3166 14.9024 9.68339 15.2929 9.29287Z" fill="var(--svg-base)"/>
</svg>
