<svg width="24" height="24" viewBox="0 0 24 24" fill="none" xmlns="http://www.w3.org/2000/svg">
<path fill-rule="evenodd" clip-rule="evenodd" d="M4.85039 4.85039C6.74659 2.95419 9.31839 1.88892 12 1.88892C14.6817 1.88892 17.2535 2.95419 19.1497 4.85039C21.0459 6.74659 22.1111 9.31839 22.1111 12C22.1111 13.3278 21.8496 14.6426 21.3415 15.8694C20.8333 17.0961 20.0886 18.2108 19.1497 19.1497C18.2108 20.0886 17.0961 20.8333 15.8694 21.3415C14.6426 21.8496 13.3278 22.1111 12 22.1111C10.6722 22.1111 9.35741 21.8496 8.13067 21.3415C6.90394 20.8333 5.78929 20.0886 4.85039 19.1497C3.91149 18.2108 3.16671 17.0961 2.65858 15.8694C2.15045 14.6426 1.88892 13.3278 1.88892 12C1.88892 9.31839 2.95419 6.74659 4.85039 4.85039ZM12 4.11114C9.90776 4.11114 7.90119 4.94229 6.42174 6.42174C4.94229 7.90119 4.11114 9.90776 4.11114 12C4.11114 13.036 4.31519 14.0618 4.71164 15.019C5.1081 15.9761 5.68919 16.8458 6.42174 17.5783C7.15429 18.3109 8.02396 18.892 8.98108 19.2884C9.9382 19.6849 10.964 19.8889 12 19.8889C13.036 19.8889 14.0618 19.6849 15.019 19.2884C15.9761 18.892 16.8458 18.3109 17.5783 17.5783C18.3109 16.8458 18.892 15.9761 19.2884 15.019C19.6849 14.0619 19.8889 13.036 19.8889 12C19.8889 9.90776 19.0578 7.90119 17.5783 6.42174C16.0989 4.94229 14.0923 4.11114 12 4.11114Z" fill="var(--svg-base)"/>
<path d="M14.1875 8.50003H9.81253C9.46443 8.50003 9.13059 8.63831 8.88445 8.88445C8.63831 9.13059 8.50003 9.46443 8.50003 9.81253V14.1875C8.50003 14.5356 8.63831 14.8695 8.88445 15.1156C9.13059 15.3617 9.46443 15.5 9.81253 15.5H14.1875C14.5356 15.5 14.8695 15.3617 15.1156 15.1156C15.3617 14.8695 15.5 14.5356 15.5 14.1875V9.81253C15.5 9.46443 15.3617 9.13059 15.1156 8.88445C14.8695 8.63831 14.5356 8.50003 14.1875 8.50003Z" fill="var(--svg-base)"/>
<path fill-rule="evenodd" clip-rule="evenodd" d="M4.85039 4.85039C6.74659 2.95419 9.31839 1.88892 12 1.88892C14.6817 1.88892 17.2535 2.95419 19.1497 4.85039C21.0459 6.74659 22.1111 9.31839 22.1111 12C22.1111 13.3278 21.8496 14.6426 21.3415 15.8694C20.8333 17.0961 20.0886 18.2108 19.1497 19.1497C18.2108 20.0886 17.0961 20.8333 15.8694 21.3415C14.6426 21.8496 13.3278 22.1111 12 22.1111C10.6722 22.1111 9.35741 21.8496 8.13067 21.3415C6.90394 20.8333 5.78929 20.0886 4.85039 19.1497C3.91149 18.2108 3.16671 17.0961 2.65858 15.8694C2.15045 14.6426 1.88892 13.3278 1.88892 12C1.88892 9.31839 2.95419 6.74659 4.85039 4.85039ZM12 4.11114C9.90776 4.11114 7.90119 4.94229 6.42174 6.42174C4.94229 7.90119 4.11114 9.90776 4.11114 12C4.11114 13.036 4.31519 14.0618 4.71164 15.019C5.1081 15.9761 5.68919 16.8458 6.42174 17.5783C7.15429 18.3109 8.02396 18.892 8.98108 19.2884C9.9382 19.6849 10.964 19.8889 12 19.8889C13.036 19.8889 14.0618 19.6849 15.019 19.2884C15.9761 18.892 16.8458 18.3109 17.5783 17.5783C18.3109 16.8458 18.892 15.9761 19.2884 15.019C19.6849 14.0619 19.8889 13.036 19.8889 12C19.8889 9.90776 19.0578 7.90119 17.5783 6.42174C16.0989 4.94229 14.0923 4.11114 12 4.11114Z" stroke="var(--svg-base)"/>
<path d="M14.1875 8.50003H9.81253C9.46443 8.50003 9.13059 8.63831 8.88445 8.88445C8.63831 9.13059 8.50003 9.46443 8.50003 9.81253V14.1875C8.50003 14.5356 8.63831 14.8695 8.88445 15.1156C9.13059 15.3617 9.46443 15.5 9.81253 15.5H14.1875C14.5356 15.5 14.8695 15.3617 15.1156 15.1156C15.3617 14.8695 15.5 14.5356 15.5 14.1875V9.81253C15.5 9.46443 15.3617 9.13059 15.1156 8.88445C14.8695 8.63831 14.5356 8.50003 14.1875 8.50003Z" stroke="var(--svg-base)"/>
</svg>
