<svg width="24" height="24" viewBox="0 0 24 24" fill="none" xmlns="http://www.w3.org/2000/svg">
<path fill-rule="evenodd" clip-rule="evenodd" d="M4.85039 4.85039C6.74659 2.95419 9.31839 1.88892 12 1.88892C14.6817 1.88892 17.2535 2.95419 19.1497 4.85039C21.0459 6.74659 22.1111 9.31839 22.1111 12C22.1111 13.3278 21.8496 14.6426 21.3415 15.8694C20.8333 17.0961 20.0886 18.2108 19.1497 19.1497C18.2108 20.0886 17.0961 20.8333 15.8694 21.3415C14.6426 21.8496 13.3278 22.1111 12 22.1111C10.6722 22.1111 9.35741 21.8496 8.13067 21.3415C6.90394 20.8333 5.78929 20.0886 4.85039 19.1497C3.91149 18.2108 3.16671 17.0961 2.65858 15.8694C2.15045 14.6426 1.88892 13.3278 1.88892 12C1.88892 9.31839 2.95419 6.74659 4.85039 4.85039ZM12 4.11114C9.90776 4.11114 7.90119 4.94229 6.42174 6.42174C4.94229 7.90119 4.11114 9.90776 4.11114 12C4.11114 13.036 4.31519 14.0618 4.71164 15.019C5.1081 15.9761 5.68919 16.8458 6.42174 17.5783C7.15429 18.3109 8.02396 18.892 8.98108 19.2884C9.9382 19.6849 10.964 19.8889 12 19.8889C13.036 19.8889 14.0618 19.6849 15.019 19.2884C15.9761 18.892 16.8458 18.3109 17.5783 17.5783C18.3109 16.8458 18.892 15.9761 19.2884 15.019C19.6849 14.0619 19.8889 13.036 19.8889 12C19.8889 9.90776 19.0578 7.90119 17.5783 6.42174C16.0989 4.94229 14.0923 4.11114 12 4.11114Z" fill="var(--svg-base)"/>
<path d="M9.00003 8.57146C9.00003 8.4199 9.05271 8.27456 9.14647 8.16739C9.24024 8.06023 9.36742 8.00003 9.50003 8.00003H10.5C10.6326 8.00003 10.7598 8.06023 10.8536 8.16739C10.9473 8.27456 11 8.4199 11 8.57146V15.4286C11 15.5802 10.9473 15.7255 10.8536 15.8327C10.7598 15.9398 10.6326 16 10.5 16H9.50003C9.36742 16 9.24024 15.9398 9.14647 15.8327C9.05271 15.7255 9.00003 15.5802 9.00003 15.4286V8.57146Z" fill="var(--svg-base)"/>
<path d="M13 8.57146C13 8.4199 13.0527 8.27456 13.1465 8.16739C13.2402 8.06023 13.3674 8.00003 13.5 8.00003H14.5C14.6326 8.00003 14.7598 8.06023 14.8536 8.16739C14.9473 8.27456 15 8.4199 15 8.57146V15.4286C15 15.5802 14.9473 15.7255 14.8536 15.8327C14.7598 15.9398 14.6326 16 14.5 16H13.5C13.3674 16 13.2402 15.9398 13.1465 15.8327C13.0527 15.7255 13 15.5802 13 15.4286V8.57146Z" fill="var(--svg-base)"/>
</svg>
