<svg width="24" height="24" viewBox="0 0 24 24" fill="none" xmlns="http://www.w3.org/2000/svg">
<path fill-rule="evenodd" clip-rule="evenodd" d="M14.9285 2.62858C15.1336 3.14135 14.8842 3.72334 14.3714 3.92848L9.19341 6.00002H19C19.5304 6.00002 20.0391 6.21074 20.4142 6.58581C20.7893 6.96088 21 7.46959 21 8.00002V19C21 19.5305 20.7893 20.0392 20.4142 20.4142C20.0391 20.7893 19.5304 21 19 21H5C4.46957 21 3.96086 20.7893 3.58579 20.4142C3.21071 20.0392 3 19.5305 3 19V7.67702C3.00025 7.27738 3.12023 6.88634 3.34446 6.55552C3.56859 6.22484 3.88662 5.96886 4.25756 5.82057L13.6286 2.07157C14.1413 1.86642 14.7233 2.11581 14.9285 2.62858ZM19 8.00002V11H8V10C8 9.44775 7.55228 9.00003 7 9.00003C6.44772 9.00003 6 9.44775 6 10V11H5V8.00002H19ZM5 13V19H19V13H5Z" fill="var(--svg-base)"/>
<path fill-rule="evenodd" clip-rule="evenodd" d="M17 15C17.5523 15 18 15.4477 18 16V16.01C18 16.5623 17.5523 17.01 17 17.01C16.4477 17.01 16 16.5623 16 16.01V16C16 15.4477 16.4477 15 17 15Z" fill="var(--svg-base)"/>
<path fill-rule="evenodd" clip-rule="evenodd" d="M13 15C13.5523 15 14 15.4477 14 16V16.01C14 16.5623 13.5523 17.01 13 17.01C12.4477 17.01 12 16.5623 12 16.01V16C12 15.4477 12.4477 15 13 15Z" fill="var(--svg-base)"/>
</svg>
