<svg width="24" height="24" viewBox="0 0 24 24" fill="none" xmlns="http://www.w3.org/2000/svg">
<path fill-rule="evenodd" clip-rule="evenodd" d="M14.2 7.39997C14.5314 6.95815 15.1582 6.8686 15.6 7.19997C16.3452 7.75886 16.95 8.48356 17.3666 9.31669C17.7831 10.1498 18 11.0685 18 12C18 12.9314 17.7831 13.8501 17.3666 14.6833C16.95 15.5164 16.3452 16.2411 15.6 16.8C15.1582 17.1313 14.5314 17.0418 14.2 16.6C13.8686 16.1581 13.9582 15.5313 14.4 15.2C14.8968 14.8274 15.3 14.3442 15.5777 13.7888C15.8554 13.2334 16 12.621 16 12C16 11.379 15.8554 10.7665 15.5777 10.2111C15.3 9.6557 14.8968 9.17256 14.4 8.79997C13.9582 8.4686 13.8686 7.8418 14.2 7.39997Z" fill="var(--svg-base)"/>
<path fill-rule="evenodd" clip-rule="evenodd" d="M16.9222 4.37143C17.2694 3.94188 17.899 3.87506 18.3285 4.2222C19.4885 5.15958 20.4241 6.34456 21.0668 7.69033C21.7096 9.0361 22.0431 10.5086 22.0431 12C22.0431 13.4913 21.7096 14.9638 21.0668 16.3096C20.4241 17.6554 19.4885 18.8404 18.3285 19.7778C17.899 20.1249 17.2694 20.0581 16.9222 19.6285C16.5751 19.199 16.6419 18.5693 17.0715 18.2222C17.9994 17.4723 18.7479 16.5243 19.2621 15.4477C19.7763 14.3711 20.0431 13.1931 20.0431 12C20.0431 10.8069 19.7763 9.62888 19.2621 8.55226C18.7479 7.47564 17.9994 6.52766 17.0715 5.77775C16.6419 5.43062 16.5751 4.80099 16.9222 4.37143Z" fill="var(--svg-base)"/>
<path fill-rule="evenodd" clip-rule="evenodd" d="M10 5.48594L6.78935 9.61391C6.5999 9.8575 6.30859 9.99997 6 9.99997H4V14H6C6.30859 14 6.5999 14.1424 6.78935 14.386L10 18.514V5.48594ZM9.53226 3.19914C9.93016 3.03707 10.3729 3.02267 10.7805 3.15853C11.1881 3.29439 11.5336 3.57156 11.7547 3.93995C11.9584 4.27942 12.044 4.67571 12 5.06729V18.9327C12.044 19.3242 11.9584 19.7205 11.7547 20.06C11.5336 20.4284 11.1881 20.7056 10.7805 20.8414C10.3729 20.9773 9.93016 20.9629 9.53226 20.8008C9.16889 20.6528 8.86481 20.3905 8.66499 20.0552L5.51092 16H4C3.46957 16 2.96086 15.7893 2.58579 15.4142C2.21071 15.0391 2 14.5304 2 14V9.99997C2 9.46954 2.21071 8.96083 2.58579 8.58576C2.96086 8.21069 3.46957 7.99997 4 7.99997H5.51092L8.665 3.94473C8.86481 3.6094 9.16889 3.34715 9.53226 3.19914Z" fill="var(--svg-base)"/>
</svg>
