<svg width="24" height="24" viewBox="0 0 24 24" fill="none" xmlns="http://www.w3.org/2000/svg">
<path fill-rule="evenodd" clip-rule="evenodd" d="M8.75 2.25C8.75 1.69772 9.19772 1.25 9.75 1.25H14.25C14.8023 1.25 15.25 1.69772 15.25 2.25C15.25 2.80228 14.8023 3.25 14.25 3.25H9.75C9.19772 3.25 8.75 2.80228 8.75 2.25Z" fill="var(--svg-base)"/>
<path fill-rule="evenodd" clip-rule="evenodd" d="M3.09097 15.997C3.06542 15.999 3.0396 16 3.01355 16C2.46127 16 2.01355 15.5523 2.01355 15V12C2.01355 11.4477 2.46127 11 3.01355 11C3.0396 11 3.06542 11.001 3.09097 11.003C4.18057 7.10734 7.7566 4.25 12 4.25C17.1086 4.25 21.25 8.39137 21.25 13.5C21.25 18.6086 17.1086 22.75 12 22.75C7.7566 22.75 4.18057 19.8927 3.09097 15.997ZM4.75 13.5C4.75 9.49594 7.99594 6.25 12 6.25C16.0041 6.25 19.25 9.49594 19.25 13.5C19.25 17.5041 16.0041 20.75 12 20.75C7.99594 20.75 4.75 17.5041 4.75 13.5Z" fill="var(--svg-base)"/>
<path d="M13.0036 9.73577C13.0036 9.18349 12.5559 8.73577 12.0036 8.73577C11.4514 8.73577 11.0036 9.18349 11.0036 9.73577V12.9902H7.63234C7.08006 12.9902 6.63234 13.4379 6.63234 13.9902C6.63234 14.5424 7.08006 14.9902 7.63234 14.9902H11.875C11.9281 14.9902 11.9803 14.986 12.0312 14.978C12.5707 14.9635 13.0036 14.5215 13.0036 13.9784V9.73577Z" fill="var(--svg-base)"/>
</svg>
