<svg width="24" height="24" viewBox="0 0 24 24" fill="none" xmlns="http://www.w3.org/2000/svg">
<path d="M12.75 10.7839C12.75 10.3697 12.4142 10.0339 12 10.0339C11.5858 10.0339 11.25 10.3697 11.25 10.7839V13.0339H9C8.58579 13.0339 8.25 13.3697 8.25 13.7839C8.25 14.1981 8.58579 14.5339 9 14.5339H11.25V16.7839C11.25 17.1981 11.5858 17.5339 12 17.5339C12.4142 17.5339 12.75 17.1981 12.75 16.7839V14.5339H15C15.4142 14.5339 15.75 14.1981 15.75 13.7839C15.75 13.3697 15.4142 13.0339 15 13.0339H12.75V10.7839Z" fill="var(--svg-base)"/>
<path fill-rule="evenodd" clip-rule="evenodd" d="M7 5V6H5C4.20435 6 3.44129 6.31607 2.87868 6.87868C2.31607 7.44129 2 8.20435 2 9V18C2 18.7957 2.31607 19.5587 2.87868 20.1213C3.44129 20.6839 4.20435 21 5 21H19C19.7957 21 20.5587 20.6839 21.1213 20.1213C21.6839 19.5587 22 18.7957 22 18V9C22 8.20435 21.6839 7.44129 21.1213 6.87868C20.5587 6.31607 19.7957 6 19 6H17V5C17 4.20435 16.6839 3.44129 16.1213 2.87868C15.5587 2.31607 14.7956 2 14 2H10C9.20435 2 8.44129 2.31607 7.87868 2.87868C7.31607 3.44129 7 4.20435 7 5ZM10 4C9.73478 4 9.48043 4.10536 9.29289 4.29289C9.10536 4.48043 9 4.73478 9 5V6H15V5C15 4.73478 14.8946 4.48043 14.7071 4.29289C14.5196 4.10536 14.2652 4 14 4H10ZM19 8C19.2652 8 19.5196 8.10536 19.7071 8.29289C19.8946 8.48043 20 8.73478 20 9V18C20 18.2652 19.8946 18.5196 19.7071 18.7071C19.5196 18.8946 19.2652 19 19 19H5C4.73478 19 4.48043 18.8946 4.29289 18.7071C4.10536 18.5196 4 18.2652 4 18V9C4 8.73478 4.10536 8.48043 4.29289 8.29289C4.48043 8.10536 4.73478 8 5 8H19Z" fill="var(--svg-base)"/>
</svg>
