<svg width="24" height="24" viewBox="0 0 24 24" fill="none" xmlns="http://www.w3.org/2000/svg">
<path fill-rule="evenodd" clip-rule="evenodd" d="M12.8299 4.47594C13.6707 3.63518 14.811 3.16284 16 3.16284C17.189 3.16284 18.3294 3.63518 19.1701 4.47594C20.0109 5.31669 20.4832 6.45701 20.4832 7.64602C20.4832 8.83504 20.0109 9.97535 19.1701 10.8161C18.3294 11.6569 17.189 12.1292 16 12.1292C14.811 12.1292 13.6707 11.6569 12.8299 10.8161C11.9892 9.97535 11.5168 8.83504 11.5168 7.64602C11.5168 6.45701 11.9892 5.31669 12.8299 4.47594ZM16 5.16284C15.3414 5.16284 14.7098 5.42446 14.2442 5.89015C13.7785 6.35584 13.5168 6.98744 13.5168 7.64602C13.5168 8.3046 13.7785 8.93621 14.2442 9.4019C14.7098 9.86758 15.3414 10.1292 16 10.1292C16.6586 10.1292 17.2902 9.86758 17.7559 9.4019C18.2216 8.93621 18.4832 8.3046 18.4832 7.64602C18.4832 6.98744 18.2216 6.35584 17.7559 5.89015C17.2902 5.42446 16.6586 5.16284 16 5.16284Z" fill="var(--svg-base)"/>
<path fill-rule="evenodd" clip-rule="evenodd" d="M14.2584 15.6123C13.5999 15.6123 12.9683 15.8739 12.5026 16.3396C12.0369 16.8053 11.7753 17.4369 11.7753 18.0955V19.8371C11.7753 20.3894 11.3276 20.8371 10.7753 20.8371C10.223 20.8371 9.77527 20.3894 9.77527 19.8371V18.0955C9.77527 16.9065 10.2476 15.7662 11.0884 14.9254C11.9291 14.0846 13.0694 13.6123 14.2584 13.6123H17.7416C18.9306 13.6123 20.071 14.0846 20.9117 14.9254C21.7525 15.7662 22.2248 16.9065 22.2248 18.0955V19.8371C22.2248 20.3894 21.7771 20.8371 21.2248 20.8371C20.6725 20.8371 20.2248 20.3894 20.2248 19.8371V18.0955C20.2248 17.4369 19.9632 16.8053 19.4975 16.3396C19.0318 15.8739 18.4002 15.6123 17.7416 15.6123H14.2584Z" fill="var(--svg-base)"/>
<path fill-rule="evenodd" clip-rule="evenodd" d="M9.03033 11.9697C9.32322 12.2626 9.32322 12.7374 9.03033 13.0303L6.03033 16.0303C5.73744 16.3232 5.26256 16.3232 4.96967 16.0303L1.96967 13.0303C1.67678 12.7374 1.67678 12.2626 1.96967 11.9697C2.26256 11.6768 2.73744 11.6768 3.03033 11.9697L4.75 13.6893L4.75 8.5C4.75 8.08579 5.08579 7.75 5.5 7.75C5.91421 7.75 6.25 8.08579 6.25 8.5L6.25 13.6893L7.96967 11.9697C8.26256 11.6768 8.73744 11.6768 9.03033 11.9697Z" fill="var(--svg-base)"/>
</svg>
