<svg width="24" height="24" viewBox="0 0 24 24" fill="none" xmlns="http://www.w3.org/2000/svg">
<path fill-rule="evenodd" clip-rule="evenodd" d="M4.5 15.7226V7.49576C4.5 4.55755 7.33471 2.5 10.389 2.5H13.611C16.6653 2.5 19.5 4.55755 19.5 7.49576V15.7226C20.3796 16.116 21 16.9906 21 18.0222V18.9778C21 20.3849 19.8458 21.5 18.4538 21.5H5.54619C4.15507 21.5 3 20.3852 3 18.9778V18.0222C3 16.99 3.62075 16.1158 4.5 15.7226ZM6.5 7.49576C6.5 6.02045 8.04313 4.5 10.389 4.5H13.611C15.9569 4.5 17.5 6.02045 17.5 7.49576V15.5H6.5V7.49576ZM5.54511 17.5C5.22927 17.5006 5 17.7487 5 18.0222V18.9778C5 19.2512 5.23004 19.5 5.54619 19.5H18.4538C18.7703 19.5 19 19.2515 19 18.9778V18.0222C19 17.7488 18.7708 17.5006 18.4549 17.5H5.54511Z" fill="var(--svg-base)"/>
</svg>
