<svg width="24" height="24" viewBox="0 0 24 24" fill="none" xmlns="http://www.w3.org/2000/svg">
<path fill-rule="evenodd" clip-rule="evenodd" d="M2.87868 4.87868C3.44129 4.31607 4.20435 4 5 4H19C19.7957 4 20.5587 4.31607 21.1213 4.87868C21.6839 5.44129 22 6.20435 22 7V17C22 17.7957 21.6839 18.5587 21.1213 19.1213C20.5587 19.6839 19.7957 20 19 20H5C4.20435 20 3.44129 19.6839 2.87868 19.1213C2.31607 18.5587 2 17.7956 2 17V7C2 6.20435 2.31607 5.44129 2.87868 4.87868ZM5 6C4.73478 6 4.48043 6.10536 4.29289 6.29289C4.10536 6.48043 4 6.73478 4 7V8.25H6C6.41421 8.25 6.75 8.58579 6.75 9V15C6.75 15.4142 6.41421 15.75 6 15.75H4V17C4 17.2652 4.10536 17.5196 4.29289 17.7071C4.48043 17.8946 4.73478 18 5 18H11.25V15.6742C10.5349 15.5283 9.87214 15.1754 9.34835 14.6517C8.64509 13.9484 8.25 12.9946 8.25 12C8.25 11.0054 8.64509 10.0516 9.34835 9.34835C9.87214 8.82456 10.5349 8.47173 11.25 8.32575V6H5ZM12.75 6V8.32575C13.4651 8.47173 14.1279 8.82456 14.6517 9.34835C15.3549 10.0516 15.75 11.0054 15.75 12C15.75 12.9946 15.3549 13.9484 14.6517 14.6517C14.1279 15.1754 13.4651 15.5283 12.75 15.6742V18H19C19.2652 18 19.5196 17.8946 19.7071 17.7071C19.8946 17.5196 20 17.2652 20 17V15.75H18C17.5858 15.75 17.25 15.4142 17.25 15V9C17.25 8.58579 17.5858 8.25 18 8.25H20V7C20 6.73478 19.8946 6.48043 19.7071 6.29289C19.5196 6.10536 19.2652 6 19 6H12.75ZM4 9.75V14.25H5.25V9.75H4ZM18.75 14.25H20V9.75H18.75V14.25ZM10.409 10.409C10.6486 10.1695 10.9366 9.9895 11.25 9.87868V14.1213C10.9366 14.0105 10.6486 13.8305 10.409 13.591C9.98705 13.169 9.75 12.5967 9.75 12C9.75 11.4033 9.98705 10.831 10.409 10.409ZM13.591 10.409C13.3514 10.1695 13.0634 9.9895 12.75 9.87868V14.1213C13.0634 14.0105 13.3514 13.8305 13.591 13.591C14.0129 13.169 14.25 12.5967 14.25 12C14.25 11.4033 14.0129 10.831 13.591 10.409Z" fill="var(--svg-base)"/>
</svg>
