<svg width="24" height="24" viewBox="0 0 24 24" fill="none" xmlns="http://www.w3.org/2000/svg">
<path fill-rule="evenodd" clip-rule="evenodd" d="M10.5697 2.04289C11.0063 1.79694 11.4989 1.66772 12 1.66772C12.5011 1.66772 12.9937 1.79694 13.4303 2.04289C13.8668 2.28884 14.2326 2.64321 14.4923 3.07177L14.4949 3.07617L22.6009 16.6122L22.6093 16.6264C22.8633 17.0669 22.9976 17.5663 22.9989 18.0748C23.0002 18.5834 22.8683 19.0834 22.6165 19.5252C22.3646 19.967 22.0016 20.3352 21.5634 20.5932C21.1251 20.8512 20.627 20.99 20.1185 20.9959L20.107 20.996L3.88175 20.9959C3.37303 20.9902 2.87466 20.8514 2.43623 20.5933C1.9978 20.3352 1.63458 19.9668 1.38269 19.5248C1.13081 19.0827 0.999043 18.5825 1.0005 18.0737C1.00196 17.565 1.13659 17.0655 1.391 16.6249L1.39909 16.6111L9.48906 3.10389C9.49507 3.09308 9.50129 3.08238 9.50771 3.07177C9.76736 2.64321 10.1331 2.28884 10.5697 2.04289ZM12 3.66772C11.8428 3.66772 11.6883 3.70825 11.5514 3.7854C11.4208 3.85897 11.3104 3.96347 11.2298 4.08958C11.2269 4.09467 11.2239 4.09973 11.2209 4.10477L3.11973 17.6307C3.04203 17.7675 3.00094 17.9221 3.00049 18.0794C3.00004 18.239 3.04136 18.3959 3.12037 18.5346C3.19938 18.6732 3.3133 18.7888 3.45082 18.8697C3.58702 18.9499 3.74166 18.9934 3.89964 18.9959H20.1002C20.258 18.9933 20.4125 18.9498 20.5486 18.8697C20.6861 18.7888 20.8 18.6733 20.879 18.5347C20.958 18.3961 20.9993 18.2393 20.9989 18.0798C20.9985 17.9225 20.9576 17.7681 20.88 17.6313L12.7817 4.10812L12.7806 4.1063C12.6992 3.97269 12.5849 3.86219 12.4486 3.7854C12.3117 3.70825 12.1572 3.66772 12 3.66772Z" fill="var(--svg-base)"/>
<path d="M12.752 14.3999H11.468L11 7.49994H13.22L12.752 14.3999Z" fill="var(--svg-base)"/>
<path d="M11 16.3299C11 16.9659 11.432 17.3979 12.104 17.3979C12.764 17.3979 13.196 16.9659 13.196 16.3299C13.196 15.6939 12.764 15.2499 12.104 15.2499C11.432 15.2499 11 15.6939 11 16.3299Z" fill="var(--svg-base)"/>
</svg>
