<svg width="24" height="24" viewBox="0 0 24 24" fill="none" xmlns="http://www.w3.org/2000/svg">
<path d="M11.2929 19.7071C11.2929 19.7071 11.2929 19.7071 11.2929 19.7071C11.3888 19.803 11.4993 19.8753 11.6172 19.9241C11.7351 19.973 11.8644 20 12 20C12.1356 20 12.2649 19.973 12.3828 19.9241C12.3881 19.9219 12.3935 19.9196 12.3988 19.9173" fill="var(--svg-base)"/>
<path d="M12.7071 19.7071C12.7072 19.707 12.707 19.7072 12.7071 19.7071L18.7071 13.7071C19.0976 13.3166 19.0976 12.6834 18.7071 12.2929C18.3166 11.9024 17.6834 11.9024 17.2929 12.2929L13 16.5858L13 5C13 4.44772 12.5523 4 12 4C11.4477 4 11 4.44772 11 5L11 16.5858L6.70711 12.2929C6.31658 11.9024 5.68342 11.9024 5.29289 12.2929C4.90237 12.6834 4.90237 13.3166 5.29289 13.7071L11.2929 19.7071" fill="var(--svg-base)"/>
</svg>
