<svg width="24" height="24" viewBox="0 0 24 24" fill="none" xmlns="http://www.w3.org/2000/svg">
<path d="M12.7071 4.29289C12.6112 4.19702 12.5007 4.12468 12.3828 4.07588C12.2649 4.02699 12.1356 4 12 4C11.8644 4 11.7351 4.02699 11.6172 4.07588C11.6119 4.07809 11.6065 4.08035 11.6012 4.08266" fill="var(--svg-base)"/>
<path d="M11.2929 4.29289L5.29289 10.2929C4.90237 10.6834 4.90237 11.3166 5.29289 11.7071C5.68342 12.0976 6.31658 12.0976 6.70711 11.7071L11 7.41421V19C11 19.5523 11.4477 20 12 20C12.5523 20 13 19.5523 13 19V7.41421L17.2929 11.7071C17.6834 12.0976 18.3166 12.0976 18.7071 11.7071C19.0976 11.3166 19.0976 10.6834 18.7071 10.2929L12.7071 4.29289" fill="var(--svg-base)"/>
</svg>
