<svg width="24" height="24" viewBox="0 0 24 24" fill="none" xmlns="http://www.w3.org/2000/svg">
<path fill-rule="evenodd" clip-rule="evenodd" d="M5 5C4.73478 5 4.48043 5.10536 4.29289 5.29289C4.10536 5.48043 4 5.73478 4 6V18C4 18.2652 4.10536 18.5196 4.29289 18.7071C4.48043 18.8946 4.73478 19 5 19H19C19.2652 19 19.5196 18.8946 19.7071 18.7071C19.8946 18.5196 20 18.2652 20 18V6C20 5.73478 19.8946 5.48043 19.7071 5.29289C19.5196 5.10536 19.2652 5 19 5H5ZM2.87868 3.87868C3.44129 3.31607 4.20435 3 5 3H19C19.7957 3 20.5587 3.31607 21.1213 3.87868C21.6839 4.44129 22 5.20435 22 6V18C22 18.7957 21.6839 19.5587 21.1213 20.1213C20.5587 20.6839 19.7957 21 19 21H5C4.20435 21 3.44129 20.6839 2.87868 20.1213C2.31607 19.5587 2 18.7956 2 18V6C2 5.20435 2.31607 4.44129 2.87868 3.87868Z" fill="var(--svg-base)"/>
<path fill-rule="evenodd" clip-rule="evenodd" d="M6.25 8C6.25 7.58579 6.58579 7.25 7 7.25H17C17.4142 7.25 17.75 7.58579 17.75 8C17.75 8.41421 17.4142 8.75 17 8.75H7C6.58579 8.75 6.25 8.41421 6.25 8Z" fill="var(--svg-base)"/>
<path fill-rule="evenodd" clip-rule="evenodd" d="M6.25 12C6.25 11.5858 6.58579 11.25 7 11.25H17C17.4142 11.25 17.75 11.5858 17.75 12C17.75 12.4142 17.4142 12.75 17 12.75H7C6.58579 12.75 6.25 12.4142 6.25 12Z" fill="var(--svg-base)"/>
<path fill-rule="evenodd" clip-rule="evenodd" d="M6.25 16C6.25 15.5858 6.58579 15.25 7 15.25H17C17.4142 15.25 17.75 15.5858 17.75 16C17.75 16.4142 17.4142 16.75 17 16.75H7C6.58579 16.75 6.25 16.4142 6.25 16Z" fill="var(--svg-base)"/>
</svg>
