<svg width="24" height="24" viewBox="0 0 24 24" fill="none" xmlns="http://www.w3.org/2000/svg">
<path fill-rule="evenodd" clip-rule="evenodd" d="M16 2C16.5523 2 17 2.44772 17 3V7C17 7.55228 16.5523 8 16 8C15.4477 8 15 7.55228 15 7V3C15 2.44772 15.4477 2 16 2Z" fill="var(--svg-base)"/>
<path fill-rule="evenodd" clip-rule="evenodd" d="M8 2C8.55228 2 9 2.44772 9 3V7C9 7.55228 8.55228 8 8 8C7.44772 8 7 7.55228 7 7V3C7 2.44772 7.44772 2 8 2Z" fill="var(--svg-base)"/>
<path fill-rule="evenodd" clip-rule="evenodd" d="M6 6C5.73478 6 5.48043 6.10536 5.29289 6.29289C5.10536 6.48043 5 6.73478 5 7V19C5 19.2652 5.10536 19.5196 5.29289 19.7071C5.48043 19.8946 5.73478 20 6 20H18C18.2652 20 18.5196 19.8946 18.7071 19.7071C18.8946 19.5196 19 19.2652 19 19V7C19 6.73478 18.8946 6.48043 18.7071 6.29289C18.5196 6.10536 18.2652 6 18 6H6ZM3.87868 4.87868C4.44129 4.31607 5.20435 4 6 4H18C18.7956 4 19.5587 4.31607 20.1213 4.87868C20.6839 5.44129 21 6.20435 21 7V19C21 19.7957 20.6839 20.5587 20.1213 21.1213C19.5587 21.6839 18.7957 22 18 22H6C5.20435 22 4.44129 21.6839 3.87868 21.1213C3.31607 20.5587 3 19.7957 3 19V7C3 6.20435 3.31607 5.44129 3.87868 4.87868Z" fill="var(--svg-base)"/>
<path fill-rule="evenodd" clip-rule="evenodd" d="M3 11C3 10.4477 3.44772 10 4 10H20C20.5523 10 21 10.4477 21 11C21 11.5523 20.5523 12 20 12H4C3.44772 12 3 11.5523 3 11Z" fill="var(--svg-base)"/>
<path fill-rule="evenodd" clip-rule="evenodd" d="M6 14C6 13.4477 6.44772 13 7 13H7.013C7.56528 13 8.013 13.4477 8.013 14C8.013 14.5523 7.56528 15 7.013 15H7C6.44772 15 6 14.5523 6 14Z" fill="var(--svg-base)"/>
<path fill-rule="evenodd" clip-rule="evenodd" d="M9.01 14C9.01 13.4477 9.45772 13 10.01 13H10.015C10.5673 13 11.015 13.4477 11.015 14C11.015 14.5523 10.5673 15 10.015 15H10.01C9.45772 15 9.01 14.5523 9.01 14Z" fill="var(--svg-base)"/>
<path fill-rule="evenodd" clip-rule="evenodd" d="M12.01 14C12.01 13.4477 12.4577 13 13.01 13H13.015C13.5673 13 14.015 13.4477 14.015 14C14.015 14.5523 13.5673 15 13.015 15H13.01C12.4577 15 12.01 14.5523 12.01 14Z" fill="var(--svg-base)"/>
<path fill-rule="evenodd" clip-rule="evenodd" d="M15.015 14C15.015 13.4477 15.4627 13 16.015 13H16.02C16.5723 13 17.02 13.4477 17.02 14C17.02 14.5523 16.5723 15 16.02 15H16.015C15.4627 15 15.015 14.5523 15.015 14Z" fill="var(--svg-base)"/>
<path fill-rule="evenodd" clip-rule="evenodd" d="M12.015 17C12.015 16.4477 12.4627 16 13.015 16H13.02C13.5723 16 14.02 16.4477 14.02 17C14.02 17.5523 13.5723 18 13.02 18H13.015C12.4627 18 12.015 17.5523 12.015 17Z" fill="var(--svg-base)"/>
<path fill-rule="evenodd" clip-rule="evenodd" d="M6.01 17C6.01 16.4477 6.45772 16 7.01 16H7.015C7.56728 16 8.015 16.4477 8.015 17C8.015 17.5523 7.56728 18 7.015 18H7.01C6.45772 18 6.01 17.5523 6.01 17Z" fill="var(--svg-base)"/>
<path fill-rule="evenodd" clip-rule="evenodd" d="M9.01 17C9.01 16.4477 9.45772 16 10.01 16H10.015C10.5673 16 11.015 16.4477 11.015 17C11.015 17.5523 10.5673 18 10.015 18H10.01C9.45772 18 9.01 17.5523 9.01 17Z" fill="var(--svg-base)"/>
</svg>
