<svg width="24" height="24" viewBox="0 0 24 24" fill="none" xmlns="http://www.w3.org/2000/svg">
<path fill-rule="evenodd" clip-rule="evenodd" d="M4.92893 4.92893C6.8043 3.05357 9.34784 2 12 2C14.6522 2 17.1957 3.05357 19.0711 4.92893C20.9464 6.8043 22 9.34784 22 12C22 13.3132 21.7413 14.6136 21.2388 15.8268C20.7362 17.0401 19.9997 18.1425 19.0711 19.0711C18.1425 19.9997 17.0401 20.7362 15.8268 21.2388C14.6136 21.7413 13.3132 22 12 22C10.6868 22 9.38642 21.7413 8.17317 21.2388C6.95991 20.7362 5.85752 19.9997 4.92893 19.0711C4.00035 18.1425 3.26375 17.0401 2.7612 15.8268C2.25866 14.6136 2 13.3132 2 12C2 9.34784 3.05357 6.8043 4.92893 4.92893ZM12 4C9.87827 4 7.84344 4.84285 6.34315 6.34315C4.84285 7.84344 4 9.87827 4 12C4 13.0506 4.20693 14.0909 4.60896 15.0615C5.011 16.0321 5.60028 16.914 6.34315 17.6569C7.08601 18.3997 7.96793 18.989 8.93853 19.391C9.90914 19.7931 10.9494 20 12 20C13.0506 20 14.0909 19.7931 15.0615 19.391C16.0321 18.989 16.914 18.3997 17.6569 17.6569C18.3997 16.914 18.989 16.0321 19.391 15.0615C19.7931 14.0909 20 13.0506 20 12C20 9.87827 19.1571 7.84344 17.6569 6.34315C16.1566 4.84285 14.1217 4 12 4ZM11.4142 10H15C15.5523 10 16 9.55228 16 9C16 8.44772 15.5523 8 15 8H9C8.86441 8 8.73512 8.02699 8.61722 8.07588C8.50014 8.12432 8.3904 8.19595 8.29502 8.29078C8.2936 8.29219 8.29219 8.2936 8.29078 8.29502C8.19595 8.3904 8.12432 8.50014 8.07588 8.61722C8.02699 8.73512 8 8.86441 8 9V15C8 15.5523 8.44772 16 9 16C9.55228 16 10 15.5523 10 15V11.4142L14.2929 15.7071C14.6834 16.0976 15.3166 16.0976 15.7071 15.7071C16.0976 15.3166 16.0976 14.6834 15.7071 14.2929L11.4142 10Z" fill="var(--svg-base)"/>
</svg>
