<svg width="24" height="24" viewBox="0 0 24 24" fill="none" xmlns="http://www.w3.org/2000/svg">
<path fill-rule="evenodd" clip-rule="evenodd" d="M3.70711 2.29289C3.31658 1.90237 2.68342 1.90237 2.29289 2.29289C1.90237 2.68342 1.90237 3.31658 2.29289 3.70711L2.87556 4.28978C2.70431 4.65002 2.6084 5.05253 2.6084 5.47675V14.3656L2.6084 14.3681C2.60958 14.8579 2.74006 15.3387 2.98664 15.7619C3.23322 16.1852 3.58716 16.5358 4.0127 16.7784C4.49249 17.0519 5.10318 16.8847 5.3767 16.4049C5.65022 15.9251 5.48301 15.3144 5.00321 15.0409C4.88357 14.9727 4.78406 14.8741 4.71474 14.7551C4.64557 14.6364 4.6089 14.5016 4.6084 14.3642V6.02261L6.85777 8.27198C6.59766 8.76052 6.45801 9.30969 6.45801 9.8733V17.6992C6.45801 18.1469 6.54625 18.5902 6.71768 19.0038C6.8891 19.4174 7.14035 19.7931 7.45704 20.1096C7.77372 20.4261 8.14965 20.6771 8.56333 20.8483C8.97701 21.0195 9.42037 21.1077 9.86809 21.1077H17.6993C18.147 21.1077 18.5904 21.0195 19.0041 20.8483C19.1038 20.807 19.2014 20.7611 19.2965 20.7107L20.2929 21.7071C20.6834 22.0976 21.3166 22.0976 21.7071 21.7071C22.0976 21.3166 22.0976 20.6834 21.7071 20.2929L3.70711 2.29289ZM17.6935 19.1077L8.45801 9.87222L8.45801 17.6992C8.45801 17.8841 8.49444 18.0671 8.56525 18.238C8.63606 18.4088 8.73987 18.5641 8.87077 18.6949C9.00168 18.8257 9.15713 18.9295 9.32826 19.0004C9.49938 19.0712 9.68282 19.1077 9.86809 19.1077H17.6935Z" fill="#001838"/>
<path d="M7.84052 4.40544C8.02811 4.59337 8.28274 4.69897 8.54827 4.69897H14.2751C14.421 4.69897 14.4673 4.73096 14.4903 4.74769C14.535 4.78013 14.616 4.8608 14.7344 5.07387C15.0029 5.55654 15.6117 5.73023 16.0944 5.46182C16.5771 5.19341 16.7508 4.58453 16.4824 4.10186C16.2968 3.76826 16.0445 3.40448 15.6652 3.12915C15.2642 2.8381 14.7958 2.69897 14.2751 2.69897H8.54827C7.65781 2.69897 7.21144 3.77521 7.84052 4.40544Z" fill="#001838"/>
<path d="M21.1094 15.2811C21.1094 16.1725 20.0313 16.6184 19.4016 15.9876C19.2145 15.8001 19.1094 15.546 19.1094 15.2811V9.8733C19.1094 9.68843 19.0729 9.50536 19.0021 9.33453C18.9313 9.1637 18.8275 9.00843 18.6966 8.87761C18.5657 8.74679 18.4103 8.64298 18.2391 8.57215C18.068 8.50131 17.8846 8.46484 17.6993 8.46484H12.3073C12.0418 8.46484 11.7871 8.35924 11.5995 8.17131C10.9705 7.54108 11.4168 6.46484 12.3073 6.46484H17.6993C18.147 6.46484 18.5904 6.55297 19.0041 6.72421C19.4177 6.89544 19.7937 7.14645 20.1103 7.46292C20.427 7.77939 20.6783 8.15514 20.8497 8.56872C21.0211 8.9823 21.1094 9.4256 21.1094 9.8733V15.2811Z" fill="#001838"/>
</svg>
