<svg width="24" height="24" viewBox="0 0 24 24" fill="none" xmlns="http://www.w3.org/2000/svg">
<path fill-rule="evenodd" clip-rule="evenodd" d="M9.667 8C9.22488 8 8.80088 8.17563 8.48825 8.48825C8.17563 8.80088 8 9.22488 8 9.667V18.333C8 18.5519 8.04312 18.7687 8.12689 18.9709C8.21067 19.1732 8.33346 19.3569 8.48825 19.5117C8.64305 19.6665 8.82682 19.7893 9.02907 19.8731C9.23132 19.9569 9.44808 20 9.667 20H18.333C18.5519 20 18.7687 19.9569 18.9709 19.8731C19.1732 19.7893 19.3569 19.6665 19.5117 19.5117C19.6665 19.3569 19.7893 19.1732 19.8731 18.9709C19.9569 18.7687 20 18.5519 20 18.333V9.667C20 9.44808 19.9569 9.23132 19.8731 9.02907C19.7893 8.82682 19.6665 8.64305 19.5117 8.48825C19.3569 8.33346 19.1732 8.21067 18.9709 8.12689C18.7687 8.04312 18.5519 8 18.333 8H9.667ZM7.07404 7.07404C7.76174 6.38634 8.69445 6 9.667 6H18.333C18.8146 6 19.2914 6.09485 19.7363 6.27913C20.1812 6.46342 20.5854 6.73353 20.926 7.07404C21.2665 7.41455 21.5366 7.8188 21.7209 8.2637C21.9052 8.7086 22 9.18544 22 9.667V18.333C22 18.8146 21.9052 19.2914 21.7209 19.7363C21.5366 20.1812 21.2665 20.5855 20.926 20.926C20.5855 21.2665 20.1812 21.5366 19.7363 21.7209C19.2914 21.9052 18.8146 22 18.333 22H9.667C9.18544 22 8.7086 21.9052 8.2637 21.7209C7.8188 21.5366 7.41455 21.2665 7.07404 20.926C6.73353 20.5854 6.46342 20.1812 6.27913 19.7363C6.09485 19.2914 6 18.8146 6 18.333V9.667C6 8.69445 6.38634 7.76174 7.07404 7.07404Z" fill="#001838"/>
<path fill-rule="evenodd" clip-rule="evenodd" d="M5 4C4.45228 4 4 4.45228 4 5V14.9986C4.0006 15.1752 4.04772 15.3485 4.13662 15.5011C4.2257 15.654 4.35355 15.7806 4.50726 15.8683C4.98705 16.1418 5.15427 16.7525 4.88075 17.2323C4.60722 17.7121 3.99654 17.8793 3.51674 17.6057C3.05714 17.3437 2.67485 16.965 2.40853 16.5079C2.1422 16.0508 2.00128 15.5315 2 15.0024L2 15V5C2 3.34772 3.34772 2 5 2H15C15.5624 2 16.063 2.14982 16.4904 2.46011C16.8962 2.75468 17.1694 3.14623 17.374 3.514C17.6424 3.99667 17.4687 4.60554 16.986 4.87396C16.5033 5.14237 15.8945 4.96868 15.626 4.486C15.4886 4.23877 15.3868 4.13032 15.3156 4.07864C15.266 4.04268 15.1876 4 15 4H5Z" fill="#001838"/>
</svg>
