<svg width="24" height="24" viewBox="0 0 24 24" fill="none" xmlns="http://www.w3.org/2000/svg">
<path fill-rule="evenodd" clip-rule="evenodd" d="M8 2C7.20435 2 6.44129 2.31607 5.87868 2.87868C5.31607 3.44129 5 4.20435 5 5V19C5 19.7957 5.31607 20.5587 5.87868 21.1213C6.44129 21.6839 7.20435 22 8 22H16C16.7957 22 17.5587 21.6839 18.1213 21.1213C18.6839 20.5587 19 19.7957 19 19V5C19 4.20435 18.6839 3.44129 18.1213 2.87868C17.5587 2.31607 16.7956 2 16 2H8ZM7.29289 4.29289C7.48043 4.10536 7.73478 4 8 4H10C10 4.55228 10.4477 5 11 5H13C13.5523 5 14 4.55228 14 4H16C16.2652 4 16.5196 4.10536 16.7071 4.29289C16.8946 4.48043 17 4.73478 17 5V19C17 19.2652 16.8946 19.5196 16.7071 19.7071C16.5196 19.8946 16.2652 20 16 20H8C7.73478 20 7.48043 19.8946 7.29289 19.7071C7.10536 19.5196 7 19.2652 7 19V5C7 4.73478 7.10536 4.48043 7.29289 4.29289Z" fill="var(--svg-base)"/>
<path fill-rule="evenodd" clip-rule="evenodd" d="M12 16C12.5523 16 13 16.4477 13 17V17.01C13 17.5623 12.5523 18.01 12 18.01C11.4477 18.01 11 17.5623 11 17.01V17C11 16.4477 11.4477 16 12 16Z" fill="var(--svg-base)"/>
</svg>
