<svg width="24" height="24" viewBox="0 0 24 24" fill="none" xmlns="http://www.w3.org/2000/svg">
<path fill-rule="evenodd" clip-rule="evenodd" d="M2.29289 2.29289C2.68342 1.90237 3.31658 1.90237 3.70711 2.29289L21.7071 20.2929C22.0976 20.6834 22.0976 21.3166 21.7071 21.7071C21.3166 22.0976 20.6834 22.0976 20.2929 21.7071L2.29289 3.70711C1.90237 3.31658 1.90237 2.68342 2.29289 2.29289Z" fill="var(--svg-base)"/>
<path fill-rule="evenodd" clip-rule="evenodd" d="M11.292 9.87976C11.6826 10.2702 11.6827 10.9034 11.2922 11.294C11.1047 11.4816 10.9994 11.7359 10.9994 12.0012C10.9995 12.2664 11.1049 12.5207 11.2925 12.7083C11.4801 12.8958 11.7344 13.0011 11.9997 13.001C12.2649 13.001 12.5192 12.8956 12.7068 12.708C13.0972 12.3174 13.7304 12.3173 14.121 12.7078C14.5116 13.0982 14.5117 13.7314 14.1212 14.122C13.5587 14.6847 12.7957 15.0009 12 15.001C11.2044 15.0012 10.4412 14.6852 9.87851 14.1227C9.31579 13.5602 8.99959 12.7972 8.99944 12.0015C8.9993 11.2059 9.31524 10.4427 9.87776 9.88001C10.2682 9.48941 10.9014 9.4893 11.292 9.87976Z" fill="var(--svg-base)"/>
<path fill-rule="evenodd" clip-rule="evenodd" d="M8.17013 6.79942C8.46094 7.26893 8.31608 7.8853 7.84657 8.17612C6.53417 8.98902 5.30515 10.247 4.17707 12C6.39041 15.4411 9.00116 17 12 17H12.0066C13.4714 17.0097 14.9088 16.6022 16.1506 15.8252C16.6188 15.5323 17.2358 15.6744 17.5287 16.1426C17.8217 16.6108 17.6796 17.2278 17.2114 17.5207C15.6487 18.4985 13.8401 19.0115 11.9967 19C7.94267 18.9988 4.66152 16.7128 2.14251 12.5145C1.9525 12.1978 1.9525 11.8022 2.14251 11.4855C3.47221 9.26933 5.01482 7.57753 6.79342 6.47586C7.26294 6.18504 7.87931 6.3299 8.17013 6.79942Z" fill="var(--svg-base)"/>
<path fill-rule="evenodd" clip-rule="evenodd" d="M18.0251 15.4051C17.7234 14.918 17.8477 14.4101 18.3359 13.9648C18.8573 13.3266 18.6166 13.7153 19.8229 12.0001C17.6096 8.55907 14.9988 7.00015 12 7.00015H11.9934C10.6445 7.00015 10.5348 7.2069 10.1953 7.17188C9.89917 7.14132 9.62159 7.151 9.32865 6.68281C9.03572 6.21461 9.18805 5.62106 9.65625 5.32813C9.99392 5.11686 10.293 5.11719 12.0033 5.00015C16.0573 5.00138 19.3385 7.28731 21.8575 11.4857C22.0475 11.8023 22.0475 12.198 21.8575 12.5147C20.7479 14.364 20.2165 14.8479 19.5109 15.6389C18.9851 16.0433 18.316 15.8746 18.0251 15.4051Z" fill="var(--svg-base)"/>
</svg>
