<svg width="24" height="24" viewBox="0 0 24 24" fill="none" xmlns="http://www.w3.org/2000/svg">
<path fill-rule="evenodd" clip-rule="evenodd" d="M11.9999 6.99995C12.5522 6.99995 12.9999 7.44766 12.9999 7.99995V11.5857L14.707 13.2928C15.0975 13.6834 15.0975 14.3165 14.707 14.7071C14.3165 15.0976 13.6833 15.0976 13.2928 14.7071L11.2928 12.7071C11.1052 12.5195 10.9999 12.2652 10.9999 11.9999V7.99995C10.9999 7.44766 11.4476 6.99995 11.9999 6.99995Z" fill="var(--svg-base)"/>
<path fill-rule="evenodd" clip-rule="evenodd" d="M17.2636 5.88443C15.7826 4.59201 13.8777 3.89006 11.9122 3.91251C9.94669 3.93496 8.05825 4.68023 6.60716 6.00614C5.15608 7.33205 4.24393 9.14578 4.04473 11.1013C3.98877 11.6507 3.49799 12.0508 2.94854 11.9948C2.3991 11.9388 1.99906 11.4481 2.05503 10.8986C2.30402 8.45423 3.44421 6.18707 5.25807 4.52968C7.07192 2.8723 9.43247 1.9407 11.8893 1.91264C14.3462 1.88458 16.7274 2.76201 18.5787 4.37754C20.4299 5.99306 21.6216 8.23358 21.9263 10.6716C22.2311 13.1097 21.6276 15.5746 20.231 17.5961C18.8344 19.6176 16.7424 21.0542 14.3542 21.6318C11.966 22.2093 9.44882 21.8875 7.2828 20.7276C6.0101 20.046 4.91101 19.1032 4.04988 17.9733V19.9999C4.04988 20.5522 3.60217 20.9999 3.04988 20.9999C2.4976 20.9999 2.04988 20.5522 2.04988 19.9999V14.9999C2.04988 14.4477 2.4976 13.9999 3.04988 13.9999H3.52655C3.54208 13.9996 3.55758 13.9996 3.57304 13.9999H8.04988C8.60217 13.9999 9.04988 14.4477 9.04988 14.9999C9.04988 15.5522 8.60217 15.9999 8.04988 15.9999H5.12686C5.86637 17.2439 6.93482 18.2725 8.22695 18.9645C9.95977 19.8924 11.9735 20.1499 13.8841 19.6878C15.7946 19.2258 17.4682 18.0765 18.5855 16.4593C19.7028 14.8421 20.1856 12.8702 19.9418 10.9197C19.698 8.96926 18.7446 7.17684 17.2636 5.88443Z" fill="var(--svg-base)"/>
</svg>
