<svg width="24" height="24" viewBox="0 0 24 24" fill="none" xmlns="http://www.w3.org/2000/svg">
<path fill-rule="evenodd" clip-rule="evenodd" d="M4.92893 4.92894C6.8043 3.05358 9.34784 2.00001 12 2.00001C14.6522 2.00001 17.1957 3.05358 19.0711 4.92894C20.9464 6.80431 22 9.34785 22 12C22 13.3132 21.7413 14.6136 21.2388 15.8268C20.7362 17.0401 19.9997 18.1425 19.0711 19.0711C18.1425 19.9997 17.0401 20.7363 15.8268 21.2388C14.6136 21.7414 13.3132 22 12 22C10.6868 22 9.38642 21.7414 8.17317 21.2388C6.95991 20.7363 5.85752 19.9997 4.92893 19.0711C4.00035 18.1425 3.26375 17.0401 2.7612 15.8268C2.25866 14.6136 2 13.3132 2 12C2 9.34785 3.05357 6.80431 4.92893 4.92894ZM12 4.00001C9.87827 4.00001 7.84344 4.84287 6.34315 6.34316C4.84285 7.84345 4 9.87828 4 12C4 13.0506 4.20693 14.0909 4.60896 15.0615C5.011 16.0321 5.60028 16.914 6.34315 17.6569C7.08601 18.3997 7.96793 18.989 8.93853 19.3911C9.90914 19.7931 10.9494 20 12 20C13.0506 20 14.0909 19.7931 15.0615 19.3911C16.0321 18.989 16.914 18.3997 17.6569 17.6569C18.3997 16.914 18.989 16.0321 19.391 15.0615C19.7931 14.0909 20 13.0506 20 12C20 9.87828 19.1571 7.84345 17.6569 6.34316C16.1566 4.84287 14.1217 4.00001 12 4.00001Z" fill="var(--svg-base)"/>
<path fill-rule="evenodd" clip-rule="evenodd" d="M2.6 9.00001C2.6 8.44773 3.04772 8.00001 3.6 8.00001H20.4C20.9523 8.00001 21.4 8.44773 21.4 9.00001C21.4 9.5523 20.9523 10 20.4 10H3.6C3.04772 10 2.6 9.5523 2.6 9.00001Z" fill="var(--svg-base)"/>
<path fill-rule="evenodd" clip-rule="evenodd" d="M2.6 15C2.6 14.4477 3.04772 14 3.6 14H20.4C20.9523 14 21.4 14.4477 21.4 15C21.4 15.5523 20.9523 16 20.4 16H3.6C3.04772 16 2.6 15.5523 2.6 15Z" fill="var(--svg-base)"/>
<path fill-rule="evenodd" clip-rule="evenodd" d="M12.0294 2.15165C12.4979 2.44403 12.6408 3.06089 12.3484 3.52942C10.7628 6.07023 9.9222 9.00506 9.9222 12C9.9222 14.995 10.7628 17.9298 12.3484 20.4706C12.6408 20.9391 12.4979 21.556 12.0294 21.8484C11.5609 22.1408 10.944 21.998 10.6516 21.5294C8.86788 18.671 7.9222 15.3693 7.9222 12C7.9222 8.63069 8.86788 5.32901 10.6516 2.4706C10.944 2.00206 11.5609 1.85926 12.0294 2.15165Z" fill="var(--svg-base)"/>
<path fill-rule="evenodd" clip-rule="evenodd" d="M11.9706 2.15165C12.4391 1.85926 13.056 2.00206 13.3484 2.4706C15.1321 5.32901 16.0778 8.63069 16.0778 12C16.0778 15.3693 15.1321 18.671 13.3484 21.5294C13.056 21.998 12.4391 22.1408 11.9706 21.8484C11.502 21.556 11.3592 20.9391 11.6516 20.4706C13.2372 17.9298 14.0778 14.995 14.0778 12C14.0778 9.00506 13.2372 6.07023 11.6516 3.52942C11.3592 3.06089 11.502 2.44403 11.9706 2.15165Z" fill="var(--svg-base)"/>
</svg>
