<svg width="24" height="24" viewBox="0 0 24 24" fill="none" xmlns="http://www.w3.org/2000/svg">
<path fill-rule="evenodd" clip-rule="evenodd" d="M4 12C4 13.0506 4.20693 14.0909 4.60896 15.0615C5.011 16.0321 5.60028 16.914 6.34315 17.6569C7.08602 18.3997 7.96793 18.989 8.93853 19.391C9.90914 19.7931 10.9494 20 12 20C13.0506 20 14.0909 19.7931 15.0615 19.391C16.0321 18.989 16.914 18.3997 17.6569 17.6569C18.3997 16.914 18.989 16.0321 19.391 15.0615C19.7931 14.0909 20 13.0506 20 12C20 9.87827 19.1571 7.84344 17.6569 6.34315C16.1566 4.84285 14.1217 4 12 4C9.87827 4 7.84344 4.84285 6.34315 6.34315C4.84285 7.84344 4 9.87827 4 12ZM2.7612 15.8268C2.25866 14.6136 2 13.3132 2 12C2 9.34784 3.05357 6.8043 4.92893 4.92893C6.8043 3.05357 9.34784 2 12 2C14.6522 2 17.1957 3.05357 19.0711 4.92893C20.9464 6.8043 22 9.34784 22 12C22 13.3132 21.7413 14.6136 21.2388 15.8268C20.7362 17.0401 19.9997 18.1425 19.0711 19.0711C18.1425 19.9997 17.0401 20.7362 15.8268 21.2388C14.6136 21.7413 13.3132 22 12 22C10.6868 22 9.38642 21.7413 8.17317 21.2388C6.95991 20.7362 5.85752 19.9997 4.92893 19.0711C4.00035 18.1425 3.26375 17.0401 2.7612 15.8268Z" fill="var(--svg-base)"/>
<path d="M12.9031 7.83325C14.6235 7.83325 15.75 8.87099 15.75 10.4538C15.75 12.1519 14.6235 13.2525 12.9031 13.2525H10.8243V16.1666H9.08334V7.83325H12.9031ZM10.8243 12.0156H12.432C13.3639 12.0156 13.8862 11.481 13.8862 10.5377C13.8862 9.60474 13.3639 9.05967 12.432 9.05967H10.8243V12.0156Z" fill="var(--svg-base)"/>
</svg>
