<svg width="24" height="24" viewBox="0 0 24 24" fill="none" xmlns="http://www.w3.org/2000/svg">
<path fill-rule="evenodd" clip-rule="evenodd" d="M2 6C2 3.79086 3.79086 2 6 2H18C20.2091 2 22 3.79086 22 6V18C22 20.2091 20.2091 22 18 22H6C3.79086 22 2 20.2091 2 18V6ZM6 4C4.89543 4 4 4.89543 4 6V18C4 19.1046 4.89543 20 6 20H18C19.1046 20 20 19.1046 20 18V6C20 4.89543 19.1046 4 18 4H6Z" fill="var(--svg-base)"/>
<path d="M13.0837 7C15.1482 7 16.5 8.24528 16.5 10.1447C16.5 12.1824 15.1482 13.5031 13.0837 13.5031H10.5891V17H8.5V7H13.0837ZM10.5891 12.0189H12.5184C13.6367 12.0189 14.2634 11.3774 14.2634 10.2453C14.2634 9.12579 13.6367 8.4717 12.5184 8.4717H10.5891V12.0189Z" fill="var(--svg-base)"/>
</svg>
