<svg width="24" height="24" viewBox="0 0 24 24" fill="none" xmlns="http://www.w3.org/2000/svg">
<path fill-rule="evenodd" clip-rule="evenodd" d="M15.0349 3.96305C15.4994 3.77066 15.9972 3.67163 16.5 3.67163C17.0028 3.67163 17.5006 3.77066 17.9651 3.96305C18.4296 4.15545 18.8516 4.43745 19.2071 4.79295C19.5626 5.14845 19.8446 5.5705 20.037 6.03498C20.2294 6.49947 20.3284 6.9973 20.3284 7.50006C20.3284 8.00281 20.2294 8.50064 20.037 8.96513C19.8446 9.42962 19.5626 9.85166 19.2071 10.2072L8.70711 20.7072C8.51957 20.8947 8.26522 21.0001 8 21.0001H4C3.44772 21.0001 3 20.5523 3 20.0001V16.0001C3 15.7348 3.10536 15.4805 3.29289 15.293L13.7929 4.79295C14.1484 4.43745 14.5704 4.15545 15.0349 3.96305ZM16.5 5.67163C16.2599 5.67163 16.0221 5.71892 15.8003 5.81081C15.5785 5.9027 15.3769 6.03738 15.2071 6.20717L5 16.4143V19.0001H7.58579L17.7929 8.79295C17.9627 8.62317 18.0974 8.4216 18.1892 8.19977C18.2811 7.97793 18.3284 7.74017 18.3284 7.50006C18.3284 7.25994 18.2811 7.02218 18.1892 6.80035C18.0974 6.57852 17.9627 6.37695 17.7929 6.20717C17.6231 6.03738 17.4215 5.9027 17.1997 5.81081C16.9779 5.71892 16.7401 5.67163 16.5 5.67163Z" fill="var(--svg-base)"/>
<path fill-rule="evenodd" clip-rule="evenodd" d="M12.7929 5.79295C13.1834 5.40243 13.8166 5.40243 14.2071 5.79295L18.2071 9.79295C18.5976 10.1835 18.5976 10.8166 18.2071 11.2072C17.8166 11.5977 17.1834 11.5977 16.7929 11.2072L12.7929 7.20717C12.4024 6.81664 12.4024 6.18348 12.7929 5.79295Z" fill="var(--svg-base)"/>
</svg>
