<svg width="24" height="24" viewBox="0 0 24 24" fill="none" xmlns="http://www.w3.org/2000/svg">
<path fill-rule="evenodd" clip-rule="evenodd" d="M18.5041 9.37008C17.2037 6.10604 13.6777 4.34435 10.2568 5.22153C9.02629 5.53812 7.90511 6.18369 7.01353 7.089C6.12187 7.9944 5.49349 9.12545 5.19579 10.3608C4.89808 11.5962 4.94228 12.8893 5.32364 14.1015C5.705 15.3137 6.40914 16.3992 7.36053 17.2416C8.31193 18.084 9.4747 18.6515 10.7241 18.8833C11.9736 19.1151 13.2625 19.0024 14.4528 18.5573C15.643 18.1123 16.6897 17.3516 17.4804 16.3568C18.2712 15.3621 18.7763 14.1709 18.9416 12.9109C19.0134 12.3633 19.5155 11.9776 20.0631 12.0495C20.6107 12.1213 20.9964 12.6234 20.9246 13.171C20.7121 14.7909 20.0627 16.3225 19.046 17.6014C18.0293 18.8804 16.6836 19.8584 15.1533 20.4307C13.623 21.0029 11.9657 21.1478 10.3593 20.8498C8.7529 20.5518 7.25792 19.8221 6.03469 18.739C4.81147 17.6559 3.90615 16.2602 3.41583 14.7017C2.92551 13.1432 2.86868 11.4806 3.25145 9.89228C3.63421 8.30393 4.44212 6.84973 5.58854 5.68565C6.73496 4.52156 8.17663 3.6915 9.75895 3.28449C14.136 2.16188 18.6825 4.41401 20.3621 8.62986C20.5665 9.14293 20.3162 9.72456 19.8032 9.92896C19.2901 10.1334 18.7085 9.88314 18.5041 9.37008Z" fill="var(--svg-base)"/>
<path fill-rule="evenodd" clip-rule="evenodd" d="M20.0001 2.99997C20.5523 2.99997 21.0001 3.44768 21.0001 3.99997V8.99997C21.0001 9.55225 20.5523 9.99997 20.0001 9.99997H15.0001C14.4478 9.99997 14.0001 9.55225 14.0001 8.99997C14.0001 8.44768 14.4478 7.99997 15.0001 7.99997H19.0001V3.99997C19.0001 3.44768 19.4478 2.99997 20.0001 2.99997Z" fill="var(--svg-base)"/>
</svg>
