<svg width="24" height="24" viewBox="0 0 24 24" fill="none" xmlns="http://www.w3.org/2000/svg">
<path fill-rule="evenodd" clip-rule="evenodd" d="M4.92893 4.92893C6.8043 3.05357 9.34784 2 12 2C14.6522 2 17.1957 3.05357 19.0711 4.92893C20.9464 6.8043 22 9.34784 22 12C22 13.3132 21.7413 14.6136 21.2388 15.8268C20.7362 17.0401 19.9997 18.1425 19.0711 19.0711C18.1425 19.9997 17.0401 20.7362 15.8268 21.2388C14.6136 21.7413 13.3132 22 12 22C10.6868 22 9.38642 21.7413 8.17317 21.2388C6.95991 20.7362 5.85752 19.9997 4.92893 19.0711C4.00035 18.1425 3.26375 17.0401 2.7612 15.8268C2.25866 14.6136 2 13.3132 2 12C2 9.34784 3.05357 6.8043 4.92893 4.92893ZM12 4C9.87827 4 7.84344 4.84285 6.34315 6.34315C4.84285 7.84344 4 9.87827 4 12C4 13.0506 4.20693 14.0909 4.60896 15.0615C5.011 16.0321 5.60028 16.914 6.34315 17.6569C7.08601 18.3997 7.96793 18.989 8.93853 19.391C9.90914 19.7931 10.9494 20 12 20C13.0506 20 14.0909 19.7931 15.0615 19.391C16.0321 18.989 16.914 18.3997 17.6569 17.6569C18.3997 16.914 18.989 16.0321 19.391 15.0615C19.7931 14.0909 20 13.0506 20 12C20 9.87827 19.1571 7.84344 17.6569 6.34315C16.1566 4.84285 14.1217 4 12 4Z" fill="var(--svg-base)"/>
<path fill-rule="evenodd" clip-rule="evenodd" d="M15.1034 11.4215C14.4837 9.86603 12.8024 9.02374 11.1673 9.44296C10.58 9.59406 10.0449 9.90215 9.61944 10.3342C9.19389 10.7663 8.89399 11.3061 8.75191 11.8957C8.60983 12.4853 8.63092 13.1024 8.81293 13.681C8.99493 14.2595 9.33099 14.7775 9.78505 15.1796C10.2391 15.5816 10.794 15.8525 11.3903 15.9631C11.9866 16.0737 12.6018 16.0199 13.1698 15.8075C13.7379 15.5951 14.2374 15.2321 14.6148 14.7573C14.8726 14.4331 15.3444 14.3792 15.6686 14.637C15.9929 14.8947 16.0468 15.3665 15.789 15.6908C15.2421 16.3787 14.5183 16.9047 13.6952 17.2125C12.8721 17.5203 11.9808 17.5982 11.1167 17.4379C10.2527 17.2776 9.4486 16.8852 8.79067 16.3026C8.13274 15.72 7.6458 14.9694 7.38207 14.1311C7.11834 13.2928 7.08778 12.3986 7.29365 11.5443C7.49953 10.69 7.93408 9.9078 8.5507 9.28168C9.16732 8.65556 9.94274 8.2091 10.7938 7.99019C13.1461 7.38688 15.5928 8.597 16.4968 10.8663C16.6501 11.2511 16.4625 11.6874 16.0777 11.8407C15.6929 11.994 15.2567 11.8063 15.1034 11.4215Z" fill="var(--svg-base)"/>
<path fill-rule="evenodd" clip-rule="evenodd" d="M16.09 7.01905C16.5043 7.01905 16.84 7.35484 16.84 7.76905V11.144C16.84 11.5582 16.5043 11.894 16.09 11.894H12.7151C12.3009 11.894 11.9651 11.5582 11.9651 11.144C11.9651 10.7298 12.3009 10.394 12.7151 10.394H15.34V7.76905C15.34 7.35484 15.6758 7.01905 16.09 7.01905Z" fill="var(--svg-base)"/>
</svg>
