<svg width="24" height="24" viewBox="0 0 24 24" fill="none" xmlns="http://www.w3.org/2000/svg">
<path fill-rule="evenodd" clip-rule="evenodd" d="M12 9.90905C10.8452 9.90905 9.90909 10.8452 9.90909 12C9.90909 13.1547 10.8452 14.0909 12 14.0909C13.1548 14.0909 14.0909 13.1547 14.0909 12C14.0909 10.8452 13.1548 9.90905 12 9.90905ZM8.0909 12C8.0909 9.84103 9.84106 8.09087 12 8.09087C14.1589 8.09087 15.9091 9.84103 15.9091 12C15.9091 14.1589 14.1589 15.909 12 15.909C9.84106 15.909 8.0909 14.1589 8.0909 12Z" fill="var(--svg-base)"/>
<path fill-rule="evenodd" clip-rule="evenodd" d="M12.7938 4.64465C12.6296 4.34404 12.3769 4.20569 12.1637 4.20071C12.0762 4.19867 11.9886 4.19811 11.9011 4.19905C11.6872 4.20133 11.4318 4.33744 11.2644 4.63782L10.8125 5.4483C10.5547 5.91064 10.1478 6.22833 9.71531 6.40544C9.28281 6.58255 8.76989 6.64154 8.26186 6.49277L7.36881 6.23126C7.03938 6.1348 6.76212 6.2164 6.60777 6.36449C6.54341 6.42624 6.48013 6.48909 6.41794 6.55302C6.2689 6.70625 6.18539 6.98266 6.27923 7.31254L6.53394 8.20791C6.67882 8.71719 6.61597 9.22994 6.43518 9.66148C6.25432 10.0932 5.93274 10.4978 5.46786 10.7517L4.6514 11.1976C4.35007 11.3622 4.21175 11.6158 4.20726 11.8294C4.20535 11.9204 4.20506 12.0115 4.20637 12.1025C4.20943 12.3149 4.34443 12.568 4.64146 12.7354L5.46184 13.1979C5.92077 13.4566 6.23593 13.8622 6.41209 14.2926C6.58941 14.7258 6.64854 15.2397 6.49949 15.7487L6.23906 16.638C6.14238 16.9682 6.22452 17.2459 6.3732 17.4002C6.43468 17.4641 6.49726 17.5268 6.56089 17.5885C6.71417 17.737 6.99013 17.82 7.31937 17.7264L8.21674 17.4711C8.72602 17.3262 9.23878 17.3891 9.67032 17.5698C10.102 17.7507 10.5066 18.0723 10.7605 18.5372L11.2065 19.3536C11.3711 19.655 11.6247 19.7933 11.8382 19.7978C11.9275 19.7996 12.0168 19.8 12.1061 19.7987C12.3195 19.7958 12.5738 19.6597 12.7407 19.3602L13.1942 18.5468C13.452 18.0845 13.8589 17.7668 14.2914 17.5897C14.7239 17.4125 15.2368 17.3536 15.7448 17.5023L16.6357 17.7632C16.9658 17.8599 17.2436 17.7777 17.3979 17.629C17.4617 17.5676 17.5244 17.505 17.5861 17.4413C17.7346 17.2881 17.8177 17.0121 17.724 16.6829L17.4687 15.7855C17.3238 15.2762 17.3867 14.7635 17.5675 14.3319C17.7483 13.9002 18.0699 13.4956 18.5348 13.2417L19.3512 12.7958C19.6526 12.6312 19.7909 12.3776 19.7954 12.164C19.7973 12.0747 19.7976 11.9854 19.7964 11.8961C19.7934 11.6828 19.6573 11.4285 19.3578 11.2615L18.5444 10.808C18.0821 10.5503 17.7644 10.1433 17.5873 9.71084C17.4102 9.27834 17.3512 8.76542 17.4999 8.25739L17.7615 7.36434C17.8579 7.03491 17.7763 6.75766 17.6282 6.6033C17.5665 6.53894 17.5036 6.47566 17.4397 6.41348C17.2865 6.26444 17.0101 6.18092 16.6802 6.27476L15.7848 6.52948C15.2755 6.67435 14.7628 6.61151 14.3312 6.43071C13.8995 6.24985 13.4949 5.92827 13.241 5.4634L12.7938 4.64465ZM12.2104 2.20126C13.2627 2.22585 14.1065 2.87568 14.5491 3.68593L14.9963 4.50468C15.0041 4.51895 15.0322 4.55596 15.104 4.58605C15.1758 4.61613 15.2219 4.61025 15.2376 4.6058L16.1329 4.35109C17.0223 4.09808 18.0787 4.245 18.8342 4.9798C18.9146 5.05805 18.9937 5.13768 19.0714 5.21866C19.8017 5.97979 19.9409 7.03825 19.6809 7.9264L19.4193 8.81944C19.4149 8.83478 19.4085 8.88073 19.4381 8.9529C19.4676 9.02507 19.5044 9.05339 19.5183 9.06118L20.3317 9.51468C21.1389 9.96466 21.7817 10.8151 21.7962 11.8686C21.7977 11.9811 21.7973 12.0935 21.7949 12.206C21.7728 13.2608 21.1221 14.1074 20.31 14.551L19.4935 14.9969C19.4792 15.0047 19.4422 15.0329 19.4121 15.1047C19.3821 15.1765 19.3879 15.2226 19.3924 15.2382L19.6477 16.1356C19.9002 17.0234 19.7544 18.0777 19.0224 18.8331C18.9448 18.9132 18.8659 18.9919 18.7856 19.0693C18.0244 19.8027 16.9636 19.9432 16.0736 19.6826L15.1828 19.4217C15.1675 19.4172 15.1215 19.4109 15.0493 19.4405C14.9772 19.47 14.9488 19.5068 14.9411 19.5207L14.4876 20.3341C14.0376 21.1412 13.1871 21.7841 12.1336 21.7985C12.0212 21.8001 11.9087 21.7997 11.7963 21.7973C10.7414 21.7752 9.89481 21.1244 9.45124 20.3123L9.00529 19.4959C8.9975 19.4816 8.96935 19.4446 8.89752 19.4145C8.82571 19.3844 8.77961 19.3903 8.76399 19.3948L7.86661 19.65C6.97885 19.9026 5.92456 19.7568 5.16915 19.0248C5.08907 18.9472 5.01032 18.8682 4.93295 18.7879C4.19953 18.0268 4.05906 16.9659 4.31966 16.076L4.58009 15.1866C4.58485 15.1704 4.59109 15.1234 4.56111 15.0501C4.53136 14.9774 4.49434 14.9484 4.47969 14.9401L3.65931 14.4777C2.8585 14.0262 2.22169 13.1791 2.20658 12.1314C2.20492 12.0167 2.2053 11.9021 2.2077 11.7874C2.22984 10.7326 2.88059 9.88598 3.69269 9.4424L4.50915 8.99645C4.52341 8.98866 4.56042 8.96051 4.59052 8.88868C4.6206 8.81688 4.61471 8.77078 4.61027 8.75515L4.35556 7.85978C4.10255 6.9704 4.24946 5.91401 4.98426 5.15855C5.06251 5.0781 5.14215 4.99901 5.22313 4.92131C5.98426 4.19106 7.04272 4.05179 7.93086 4.31186L8.82391 4.57337C8.83925 4.57787 8.8852 4.58417 8.95737 4.55462C9.02953 4.52507 9.05786 4.48834 9.06564 4.47439L9.51751 3.6639C9.96881 2.85443 10.8229 2.21046 11.8797 2.19916C11.9899 2.19798 12.1002 2.19868 12.2104 2.20126Z" fill="var(--svg-base)"/>
</svg>
