<svg width="24" height="24" viewBox="0 0 24 24" fill="none" xmlns="http://www.w3.org/2000/svg">
<path fill-rule="evenodd" clip-rule="evenodd" d="M11 5C10.7348 5 10.4804 5.10536 10.2929 5.29289C10.1054 5.48043 10 5.73478 10 6V8C10 8.55228 9.55228 9 9 9C8.44772 9 8 8.55228 8 8V6C8 5.20435 8.31607 4.44129 8.87868 3.87868C9.44129 3.31607 10.2044 3 11 3H18C18.7957 3 19.5587 3.31607 20.1213 3.87868C20.6839 4.44129 21 5.20435 21 6V18C21 18.7957 20.6839 19.5587 20.1213 20.1213C19.5587 20.6839 18.7957 21 18 21H11C10.2043 21 9.44129 20.6839 8.87868 20.1213C8.31607 19.5587 8 18.7957 8 18V16C8 15.4477 8.44772 15 9 15C9.55228 15 10 15.4477 10 16V18C10 18.2652 10.1054 18.5196 10.2929 18.7071C10.4804 18.8946 10.7348 19 11 19H18C18.2652 19 18.5196 18.8946 18.7071 18.7071C18.8946 18.5196 19 18.2652 19 18V6C19 5.73478 18.8946 5.48043 18.7071 5.29289C18.5196 5.10536 18.2652 5 18 5H11Z" fill="var(--svg-base)"/>
<path d="M13.7071 8.29289C13.3166 7.90237 12.6834 7.90237 12.2929 8.29289C11.9024 8.68342 11.9024 9.31658 12.2929 9.70711L13.5858 11H3C2.44772 11 2 11.4477 2 12C2 12.5523 2.44772 13 3 13H13.5858L12.2929 14.2929C11.9024 14.6834 11.9024 15.3166 12.2929 15.7071C12.6834 16.0976 13.3166 16.0976 13.7071 15.7071L16.7018 12.7124C16.7205 12.694 16.7385 12.6748 16.7558 12.6549C16.8885 12.502 16.9672 12.3184 16.9917 12.1292C17.0002 12.0636 17.0022 11.9978 16.9977 11.9325C16.9818 11.6978 16.8833 11.471 16.7111 11.2969L16.7071 11.2929L13.7071 8.29289Z" fill="var(--svg-base)"/>
</svg>
