<svg width="24" height="24" viewBox="0 0 24 24" fill="none" xmlns="http://www.w3.org/2000/svg">
<path fill-rule="evenodd" clip-rule="evenodd" d="M13 19.0048C12.7348 19.0048 12.4804 18.8994 12.2929 18.7119C12.1054 18.5243 12 18.27 12 18.0048V17.0048C12 15.6787 11.4732 14.4069 10.5355 13.4692C9.83715 12.7708 8.95344 12.3004 8 12.1058L8 7.00476C8 6.47433 8.21071 5.96562 8.58579 5.59055C8.96086 5.21547 9.46957 5.00476 10 5.00476H17C17.0283 5.00476 17.0566 5.00356 17.0848 5.00116C17.1715 4.99378 17.323 5.01833 17.5155 5.2109C17.7146 5.40999 17.911 5.75104 18.0229 6.21812L18.9966 11.0869C18.9773 11.322 18.8752 11.5438 18.7071 11.7119C18.5196 11.8994 18.2652 12.0048 18 12.0048H15C14.4477 12.0048 14 12.4525 14 13.0048L14 18.0048C14 18.27 13.8946 18.5243 13.7071 18.7119C13.5196 18.8994 13.2652 19.0048 13 19.0048ZM7.6 3.80474C7.54354 3.72947 7.48152 3.65786 7.41421 3.59055C7.03914 3.21547 6.53043 3.00476 6 3.00476H4C3.46957 3.00476 2.96086 3.21547 2.58579 3.59055C2.21071 3.96562 2 4.47433 2 5.00476L2 12.0048C2 12.5352 2.21071 13.0439 2.58579 13.419C2.96086 13.794 3.46957 14.0048 4 14.0048H7C7.79565 14.0048 8.55871 14.3208 9.12132 14.8834C9.68393 15.446 10 16.2091 10 17.0048V18.0048C10 18.8004 10.3161 19.5635 10.8787 20.1261C11.4413 20.6887 12.2044 21.0048 13 21.0048C13.7956 21.0048 14.5587 20.6887 15.1213 20.1261C15.6839 19.5635 16 18.8004 16 18.0048V14.0048H18C18.7957 14.0048 19.5587 13.6887 20.1213 13.1261C20.6839 12.5635 21 11.8004 21 11.0048C21 10.9389 20.9935 10.8732 20.9806 10.8086L19.9806 5.80864C19.9784 5.7979 19.9761 5.78719 19.9736 5.77652C19.7973 5.02429 19.45 4.31693 18.9298 3.79669C18.4118 3.27872 17.7232 2.95561 16.9633 3.00476L10 3.00476C9.12953 3.00476 8.28831 3.28849 7.6 3.80474ZM6 12.0048H4L4 5.00476H6L6 12.0048Z" fill="var(--svg-base)"/>
</svg>
