<svg width="24" height="24" viewBox="0 0 24 24" fill="none" xmlns="http://www.w3.org/2000/svg">
<path fill-rule="evenodd" clip-rule="evenodd" d="M9.94871 4.31625C10.1234 3.79231 9.8402 3.22599 9.31625 3.05134C8.79231 2.8767 8.22599 3.15986 8.05134 3.6838L6.94594 7H3.83368C3.49724 6.99996 3.16477 7.07267 2.85907 7.21315C2.55336 7.35363 2.28165 7.55855 2.06257 7.81387C1.84348 8.06919 1.68219 8.36886 1.58977 8.69235C1.49735 9.01584 1.47597 9.35548 1.52711 9.688L2.99132 18.032C3.1184 18.8583 3.53708 19.6119 4.17159 20.1563C4.8061 20.7007 5.61453 21 6.45059 21H17.5482C18.3845 21.0002 19.1932 20.7011 19.828 20.1566C20.4627 19.6122 20.8816 18.8585 21.0087 18.032L22.4729 9.688C22.524 9.35548 22.5026 9.01584 22.4102 8.69235C22.3178 8.36886 22.1565 8.06919 21.9374 7.81387C21.7183 7.55855 21.4466 7.35363 21.1409 7.21315C20.8352 7.07267 20.5028 6.99996 20.1663 7H17.0541L15.9487 3.6838C15.7741 3.15986 15.2077 2.8767 14.6838 3.05134C14.1599 3.22599 13.8767 3.79231 14.0513 4.31625L14.9459 7H9.05413L9.94871 4.31625ZM9.51596 14.0112C9.51596 14.6743 9.77936 15.3102 10.2482 15.779C10.717 16.2478 11.3529 16.5112 12.016 16.5112C12.679 16.5112 13.3149 16.2478 13.7837 15.779C14.2526 15.3102 14.516 14.6743 14.516 14.0112C14.516 13.3482 14.2526 12.7123 13.7837 12.2435C13.3149 11.7746 12.679 11.5112 12.016 11.5112C11.3529 11.5112 10.717 11.7746 10.2482 12.2435C9.77936 12.7123 9.51596 13.3482 9.51596 14.0112Z" fill="var(--svg-base)"/>
</svg>
