<svg width="24" height="24" viewBox="0 0 24 24" fill="none" xmlns="http://www.w3.org/2000/svg">
<path d="M20.5303 15.2197C20.2374 14.9268 19.7626 14.9268 19.4697 15.2197C19.1768 15.5126 19.1768 15.9874 19.4697 16.2803L20.4393 17.25H17.75C17.3358 17.25 17 17.5858 17 18C17 18.4142 17.3358 18.75 17.75 18.75H20.4393L19.4697 19.7197C19.1768 20.0126 19.1768 20.4874 19.4697 20.7803C19.7626 21.0732 20.2374 21.0732 20.5303 20.7803L22.7803 18.5303C23.0732 18.2374 23.0732 17.7626 22.7803 17.4697L20.5303 15.2197Z" fill="var(--svg-base)"/>
<path fill-rule="evenodd" clip-rule="evenodd" d="M22 14V10H2V16C2 17.0609 2.42143 18.0783 3.17157 18.8284C3.92172 19.5786 4.93913 20 6 20H16V17C16 15.3431 17.3431 14 19 14H22ZM7 14H7.01C7.27522 14 7.52957 14.1054 7.71711 14.2929C7.90464 14.4804 8.01 14.7348 8.01 15C8.01 15.2652 7.90464 15.5196 7.71711 15.7071C7.52957 15.8946 7.27522 16 7.01 16C6.87868 16.0007 6.74851 15.9754 6.62694 15.9258C6.50536 15.8761 6.39475 15.803 6.30143 15.7106C6.20811 15.6182 6.1339 15.5084 6.08303 15.3873C6.03217 15.2662 6.00566 15.1363 6.005 15.005C6.00367 14.7398 6.10776 14.4849 6.29436 14.2964C6.38675 14.2031 6.49662 14.1289 6.6177 14.078C6.73877 14.0272 6.86868 14.0007 7 14ZM11 14H13C13.2652 14 13.5196 14.1054 13.7071 14.2929C13.8946 14.4804 14 14.7348 14 15C14 15.2652 13.8946 15.5196 13.7071 15.7071C13.5196 15.8946 13.2652 16 13 16H11C10.7348 16 10.4804 15.8946 10.2929 15.7071C10.1054 15.5196 10 15.2652 10 15C10 14.7348 10.1054 14.4804 10.2929 14.2929C10.4804 14.1054 10.7348 14 11 14ZM20.8284 5.17157C20.0783 4.42143 19.0609 4 18 4H6C4.93913 4 3.92172 4.42143 3.17157 5.17157C2.42143 5.92172 2 6.93913 2 8H22C22 6.93913 21.5786 5.92172 20.8284 5.17157Z" fill="var(--svg-base)"/>
</svg>
