<svg width="24" height="24" viewBox="0 0 24 24" fill="none" xmlns="http://www.w3.org/2000/svg">
<path d="M10.8541 4.10146C10.6792 3.9705 10.4964 3.84979 10.3067 3.74008C9.64104 3.35521 8.9039 3.11402 8.14167 3.03171C7.37944 2.9494 6.60863 3.02775 5.87778 3.26181C5.14693 3.49588 4.47187 3.8806 3.89511 4.39174C3.31835 4.90289 2.85239 5.52938 2.52656 6.23178C2.20074 6.93418 2.02211 7.69726 2.00193 8.47298C1.98174 9.2487 2.12044 10.0202 2.40928 10.739C2.69813 11.4578 3.13086 12.1083 3.68024 12.6495L12.0093 21L13.7952 19.2094L11.2929 16.7071C10.9024 16.3166 10.9024 15.6834 11.2929 15.2929C11.6834 14.9024 12.3166 14.9024 12.7071 15.2929L15.2076 17.7934L16.292 16.7062L13.7929 14.2071C13.4024 13.8166 13.4024 13.1834 13.7929 12.7929C14.1834 12.4024 14.8166 12.4024 15.2071 12.7929L17.7044 15.2902L18.9554 14.0359L15.8573 10.9378C15.8423 10.9227 15.8276 10.9071 15.8136 10.8911C15.3423 10.3552 14.7327 10.0836 14.1289 10.0836C13.5251 10.0836 12.9155 10.3552 12.4442 10.8911L11.3618 12.1218C10.2167 13.4238 8.29893 13.4238 7.15381 12.1218L6.56603 11.4535C6.19212 11.0283 6 10.476 6 9.92296C6 9.36993 6.19203 8.81776 6.56594 8.3925C6.58006 8.37643 6.5947 8.36082 6.60983 8.34569L10.8541 4.10146Z" fill="var(--svg-base)"/>
<path d="M20.3712 12.6232C20.9007 12.0878 21.318 11.4495 21.5978 10.7465C21.8833 10.0289 22.0195 9.25947 21.9978 8.48622C21.976 7.71297 21.7969 6.95258 21.4715 6.25264C21.1461 5.55271 20.6815 4.92829 20.1068 4.41848C19.5321 3.90867 18.8596 3.52443 18.1314 3.28982C17.4032 3.0552 16.635 2.97527 15.875 3.055C15.3454 3.11056 14.8276 3.2428 14.3373 3.44669L8.05674 9.72721C8.02813 9.76688 8 9.83481 8 9.92296C8 10.0226 8.03598 10.0965 8.06793 10.1328L8.65561 10.801C9.00429 11.1975 9.5113 11.1975 9.85998 10.801L10.9424 9.57023C11.7631 8.63718 12.9057 8.0836 14.1289 8.0836C15.3409 8.0836 16.4739 8.62714 17.2928 9.54483L20.3712 12.6232Z" fill="var(--svg-base)"/>
</svg>
