<svg width="24" height="24" viewBox="0 0 24 24" fill="none" xmlns="http://www.w3.org/2000/svg">
<path d="M12.3714 4.07152C12.133 3.97616 11.867 3.97616 11.6286 4.07152L1.62861 8.07152C1.24895 8.22339 1 8.5911 1 9C1 9.4089 1.24895 9.77661 1.62861 9.92848L11.6286 13.9285C11.867 14.0238 12.133 14.0238 12.3714 13.9285L21 10.477V15C21 15.5523 21.4477 16 22 16C22.5523 16 23 15.5523 23 15V9C23 8.5911 22.751 8.22339 22.3714 8.07152L12.3714 4.07152Z" fill="var(--svg-base)"/>
<path d="M6 16.9442V13.2213L11.6286 15.4727C11.867 15.5681 12.133 15.5681 12.3714 15.4727L18 13.2213V16.9442C18 17.7399 17.3679 18.503 16.2426 19.0656C15.1174 19.6282 13.5913 19.9442 12 19.9442C10.4087 19.9442 8.88258 19.6282 7.75736 19.0656C6.63214 18.503 6 17.7399 6 16.9442Z" fill="var(--svg-base)"/>
</svg>
