<svg width="24" height="24" viewBox="0 0 24 24" fill="none" xmlns="http://www.w3.org/2000/svg">
<path fill-rule="evenodd" clip-rule="evenodd" d="M8.00024 7V6C8.00024 4.93913 8.42167 3.92172 9.17182 3.17157C9.92196 2.42143 10.9394 2 12.0002 2C13.0611 2 14.0785 2.42143 14.8287 3.17157C15.5788 3.92172 16.0002 4.93913 16.0002 6V7H17.6703C18.1028 6.99997 18.5302 7.09345 18.9232 7.27405C19.3162 7.45467 19.6656 7.71814 19.9473 8.0464C20.2289 8.37467 20.4363 8.75997 20.5551 9.17588C20.6739 9.59179 20.7014 10.0286 20.6356 10.4562L19.3807 18.6082C19.2354 19.5527 18.7567 20.414 18.0313 21.0362C17.306 21.6583 16.3816 22.0002 15.426 22H8.57425C7.61878 22 6.69489 21.6579 5.96975 21.0357C5.24466 20.4136 4.76617 19.5523 4.62091 18.608L3.36591 10.456C3.30017 10.0285 3.32765 9.59179 3.44647 9.17588C3.5653 8.75997 3.77265 8.37467 4.05433 8.0464C4.33601 7.71814 4.68534 7.45467 5.07838 7.27405C5.47138 7.09345 5.89878 6.99997 6.33129 7H8.00024ZM10.586 4.58579C10.9611 4.21071 11.4698 4 12.0002 4C12.5307 4 13.0394 4.21071 13.4145 4.58579C13.7895 4.96086 14.0002 5.46957 14.0002 6V7H10.0002V6C10.0002 5.46957 10.211 4.96086 10.586 4.58579Z" fill="var(--svg-base)"/>
</svg>
