<svg width="24" height="24" viewBox="0 0 24 24" fill="none" xmlns="http://www.w3.org/2000/svg">
<path d="M3 3C3 2.44772 3.44772 2 4 2H6C6.55228 2 7 2.44772 7 3V4.06889L20.0713 5.00255C20.3481 5.02232 20.6042 5.15619 20.7784 5.37216C20.9526 5.58812 21.0292 5.86675 20.99 6.14143L19.99 13.1414C19.9196 13.6341 19.4977 14 19 14H7V16H17C17.7957 16 18.5587 16.3161 19.1213 16.8787C19.6839 17.4413 20 18.2043 20 19C20 19.7957 19.6839 20.5587 19.1213 21.1213C18.5587 21.6839 17.7957 22 17 22C16.2043 22 15.4413 21.6839 14.8787 21.1213C14.3161 20.5587 14 19.7957 14 19C14 18.6561 14.0591 18.3182 14.1716 18H8.82843C8.94094 18.3182 9 18.6561 9 19C9 19.7957 8.68393 20.5587 8.12132 21.1213C7.55871 21.6839 6.79565 22 6 22C5.20435 22 4.44129 21.6839 3.87868 21.1213C3.31607 20.5587 3 19.7957 3 19C3 18.2043 3.31607 17.4413 3.87868 16.8787C4.19808 16.5593 4.5821 16.3193 5 16.1716V4H4C3.44772 4 3 3.55228 3 3Z" fill="var(--svg-base)"/>
</svg>
