<svg width="24" height="24" viewBox="0 0 24 24" fill="none" xmlns="http://www.w3.org/2000/svg">
<path fill-rule="evenodd" clip-rule="evenodd" d="M14.2929 5.29289C14.6834 4.90237 15.3166 4.90237 15.7071 5.29289L20.2991 9.88489C21.3904 10.9763 22.0035 12.4566 22.0035 14C22.0035 15.5434 21.3904 17.0236 20.2992 18.1151L18.7071 19.7071C18.3166 20.0976 17.6834 20.0976 17.2929 19.7071C16.9024 19.3166 16.9024 18.6834 17.2929 18.2929L18.8848 16.7009C18.8848 16.701 18.8849 16.7009 18.8848 16.7009C19.6011 15.9846 20.0035 15.013 20.0035 14C20.0035 12.987 19.6011 12.0155 18.8849 11.2991C18.8849 11.2991 18.8849 11.2991 18.8849 11.2991L14.2929 6.70711C13.9024 6.31658 13.9024 5.68342 14.2929 5.29289Z" fill="var(--svg-base)"/>
<path fill-rule="evenodd" clip-rule="evenodd" d="M2.87868 5.87868C3.44129 5.31607 4.20435 5 5 5H9.172C9.96753 5.00017 10.7306 5.31631 11.2931 5.87889L17.0031 11.5889C17.6425 12.2284 18.0017 13.0957 18.0017 14C18.0017 14.9043 17.6425 15.7716 17.0032 16.4111L13.4111 20.0031C12.7716 20.6425 11.9043 21.0017 11 21.0017C10.0957 21.0017 9.22843 20.6425 8.58895 20.0032L2.879 14.2932C2.31642 13.7307 2.00017 12.9677 2 12.1722V8C2 7.20435 2.31607 6.44129 2.87868 5.87868ZM6.99 9C6.43772 9 5.99 9.44772 5.99 10C5.99 10.5523 6.43772 11 6.99 11H7C7.55228 11 8 10.5523 8 10C8 9.44772 7.55228 9 7 9H6.99Z" fill="var(--svg-base)"/>
</svg>
