<svg width="24" height="24" viewBox="0 0 24 24" fill="none" xmlns="http://www.w3.org/2000/svg">
<path fill-rule="evenodd" clip-rule="evenodd" d="M12 22C17.5228 22 22 17.5228 22 12C22 6.47715 17.5228 2 12 2C6.47715 2 2 6.47715 2 12C2 17.5228 6.47715 22 12 22ZM10.4471 12.8946V18.5417H12.7765V12.8946H15.1059L15.1765 10.9182H12.7765V9.43582C12.7765 8.87112 12.9177 8.51818 13.6941 8.51818H15.1059L15.1765 6.61229C15.1765 6.61229 14.4706 6.54171 13.6235 6.54171C11.4353 6.54171 10.4471 7.81229 10.4471 9.15347V10.9182H8.82355V12.8946H10.4471Z" fill="var(--svg-base)"/>
</svg>
