<svg width="24" height="24" viewBox="0 0 24 24" fill="none" xmlns="http://www.w3.org/2000/svg">
<path d="M12 2C6.48 2 2 6.48 2 12C2 17.52 6.48 22 12 22C17.52 22 22 17.53 22 12C22 6.47 17.52 2 12 2ZM17.71 10.94C16.61 10.94 15.6 10.6 14.77 10.02V14.21C14.77 16.3 13.03 18 10.88 18C10.06 18 9.29 17.75 8.66 17.32C7.65 16.63 7 15.49 7 14.21C7 12.11 8.74 10.41 10.88 10.41C11.06 10.41 11.24 10.42 11.41 10.45V12.55C11.24 12.5 11.07 12.47 10.88 12.47C9.91 12.47 9.11 13.25 9.11 14.21C9.11 14.87 9.5 15.45 10.06 15.74C10.31 15.87 10.59 15.94 10.88 15.94C11.84 15.94 12.62 15.2 12.65 14.27L12.66 6H14.77C14.77 6.18 14.79 6.36 14.82 6.53C14.97 7.32 15.45 7.99 16.11 8.41C16.57 8.71 17.12 8.88 17.71 8.88V10.94Z" fill="var(--svg-base)"/>
</svg>
