<svg width="24" height="24" viewBox="0 0 24 24" fill="none" xmlns="http://www.w3.org/2000/svg">
<path d="M10.7606 10.131L10.7612 13.6026L14.0031 11.8728L10.7606 10.131Z" fill="var(--svg-base)"/>
<path fill-rule="evenodd" clip-rule="evenodd" d="M12 22C17.5228 22 22 17.5228 22 12C22 6.47715 17.5228 2 12 2C6.47715 2 2 6.47715 2 12C2 17.5228 6.47715 22 12 22ZM17.4032 8.30343C17.763 8.67831 17.8803 9.52972 17.8803 9.52972C17.8803 9.52972 18 10.5295 18 11.5293V12.4667C18 13.4665 17.8802 14.4663 17.8802 14.4663C17.8802 14.4663 17.7629 15.3178 17.4032 15.6927C16.9917 16.1363 16.5355 16.1819 16.2778 16.2077C16.2497 16.2105 16.2239 16.2131 16.2008 16.2159C14.5214 16.3409 12.0001 16.3448 12.0001 16.3448C12.0001 16.3448 8.88002 16.3154 7.92016 16.2208C7.8745 16.2119 7.81914 16.2051 7.75643 16.1973C7.45225 16.1597 6.97537 16.1006 6.59691 15.6926C6.23707 15.3177 6.12002 14.4662 6.12002 14.4662C6.12002 14.4662 6 13.4665 6 12.4666V11.5292C6 10.5296 6.12002 9.5295 6.12002 9.5295C6.12002 9.5295 6.23714 8.67823 6.59691 8.30335C7.0084 7.85981 7.46447 7.8141 7.72217 7.78827C7.75035 7.78544 7.77615 7.78286 7.79927 7.78001C9.47866 7.65503 11.9975 7.65503 11.9975 7.65503H12.0028C12.0028 7.65503 14.5218 7.65503 16.2009 7.78001C16.224 7.78286 16.2498 7.78545 16.278 7.78827C16.5358 7.81409 16.9919 7.85979 17.4032 8.30343Z" fill="var(--svg-base)"/>
</svg>
