<svg width="24" height="24" viewBox="0 0 24 24" fill="none" xmlns="http://www.w3.org/2000/svg">
<path d="M11.9986 1.98682C6.47 1.98682 2.00269 6.46234 2.00269 11.9827C2.00269 16.2197 4.63535 19.8395 8.354 21.2957C8.26348 20.5059 8.18944 19.2883 8.38688 18.4245C8.56788 17.6429 9.55512 13.4553 9.55512 13.4553C9.55512 13.4553 9.25896 12.8548 9.25896 11.9745C9.25896 10.5841 10.0652 9.5475 11.0689 9.5475C11.9245 9.5475 12.3359 10.1892 12.3359 10.9543C12.3359 11.8099 11.7929 13.0933 11.505 14.2863C11.2664 15.2817 12.0068 16.0962 12.9858 16.0962C14.7629 16.0962 16.1286 14.2205 16.1286 11.522C16.1286 9.1279 14.4091 7.45782 11.9492 7.45782C9.10264 7.45782 7.43256 9.58862 7.43256 11.7935C7.43256 12.6491 7.76164 13.5705 8.173 14.0724C8.25524 14.1711 8.26348 14.2616 8.2388 14.3603C8.16476 14.6729 7.992 15.3558 7.95908 15.4957C7.91796 15.6767 7.811 15.7178 7.62176 15.6273C6.38772 15.0349 5.61437 13.2085 5.61437 11.7441C5.61437 8.59314 7.90148 5.69722 12.2207 5.69722C15.6843 5.69722 18.3828 8.16534 18.3828 11.4726C18.3828 14.9198 16.2108 17.6923 13.1997 17.6923C12.1878 17.6923 11.2334 17.1657 10.9126 16.5405C10.9126 16.5405 10.4108 18.4492 10.2874 18.9181C10.0652 19.7902 9.4564 20.8762 9.04504 21.5425C9.98296 21.8305 10.9702 21.9868 12.0068 21.9868C17.5272 21.9868 22.0027 17.5113 22.0027 11.9909C21.9944 6.46234 17.5189 1.98682 11.9986 1.98682Z" fill="var(--svg-base)"/>
</svg>
