<svg width="24" height="24" viewBox="0 0 24 24" fill="none" xmlns="http://www.w3.org/2000/svg">
<path fill-rule="evenodd" clip-rule="evenodd" d="M12 22C17.5228 22 22 17.5228 22 12C22 6.47715 17.5228 2 12 2C6.47715 2 2 6.47715 2 12C2 17.5228 6.47715 22 12 22ZM8.11111 9.49992C8.72476 9.49992 9.22222 9.00246 9.22222 8.38881C9.22222 7.77516 8.72476 7.2777 8.11111 7.2777C7.49746 7.2777 7 7.77516 7 8.38881C7 9.00246 7.49746 9.49992 8.11111 9.49992ZM9.22222 10.611V16.7221H7V10.611H9.22222ZM13.4157 10.4564C13.7526 10.288 14.1234 10.1984 14.5 10.1944C15.163 10.1944 15.7989 10.4578 16.2678 10.9266C16.7366 11.3954 17 12.0313 17 12.6944V16.7221H14.7778V12.8333C14.7778 12.5386 14.6607 12.256 14.4523 12.0476C14.244 11.8392 13.9614 11.7221 13.6667 11.7221C13.372 11.7221 13.0894 11.8392 12.881 12.0476C12.6726 12.256 12.5556 12.5386 12.5556 12.8333V16.7221H10.3333V10.611H12.5556V11.1666C12.7847 10.8677 13.0789 10.6248 13.4157 10.4564Z" fill="var(--svg-base)"/>
</svg>
