<svg width="24" height="24" viewBox="0 0 24 24" fill="none" xmlns="http://www.w3.org/2000/svg">
<path fill-rule="evenodd" clip-rule="evenodd" d="M12 22C17.5228 22 22 17.5228 22 12C22 6.47715 17.5228 2 12 2C6.47715 2 2 6.47715 2 12C2 17.5228 6.47715 22 12 22ZM9.25084 17.1803L12.6291 7.5166H15.0663L11.6881 17.1803H9.25084ZM15.0628 17.2944C16.1536 17.2944 17.0366 16.401 17.0366 15.2974C17.0366 14.1935 16.1504 13.3005 15.0628 13.3005C13.9722 13.3005 13.0893 14.1938 13.0893 15.2974C13.0893 16.4013 13.9722 17.2944 15.0628 17.2944ZM6.78977 9.49628C8.33401 9.72736 9.55428 8.69971 9.87825 7.5166H12.2539C11.3439 10.2827 9.70095 12.1037 6.03656 11.6519L6.78977 9.49628Z" fill="var(--svg-base)"/>
</svg>
