<svg width="24" height="24" viewBox="0 0 24 24" fill="none" xmlns="http://www.w3.org/2000/svg">
<path fill-rule="evenodd" clip-rule="evenodd" d="M19.0859 4.9115C17.2061 3.03964 14.7059 2.00827 12.042 2.00732C6.55283 2.00732 2.08547 6.44953 2.08356 11.9098C2.08261 13.6553 2.54147 15.3591 3.41288 16.8606L2 21.9927L7.27909 20.6157C8.7335 21.4049 10.3713 21.8204 12.0377 21.8209H12.042C17.5302 21.8209 21.9981 17.3782 22 11.9179C22.0009 9.27158 20.9662 6.78335 19.0859 4.9115ZM16.5819 13.984C16.3332 13.86 15.1099 13.2617 14.8816 13.1791C14.6534 13.0964 14.4877 13.0552 14.322 13.303C14.1563 13.5509 13.6793 14.1084 13.5342 14.2731C13.389 14.4384 13.2438 14.4588 12.9951 14.3348C12.7463 14.2109 11.9446 13.9498 10.9939 13.1069C10.2543 12.4506 9.75483 11.6406 9.60972 11.3927C9.46456 11.1448 9.59444 11.0109 9.71856 10.8879C9.83028 10.7768 9.96733 10.5988 10.0919 10.4544C10.2166 10.31 10.2577 10.2065 10.3407 10.0417C10.4238 9.87649 10.3823 9.73219 10.3202 9.60821C10.2581 9.48428 9.76061 8.26627 9.55289 7.77103C9.35089 7.28859 9.14561 7.35412 8.99328 7.34605C8.84811 7.33892 8.68244 7.3375 8.51628 7.3375C8.35011 7.3375 8.08078 7.39923 7.85256 7.6471C7.62433 7.89495 6.98162 8.49373 6.98162 9.71125C6.98162 10.9288 7.87311 12.1059 7.99772 12.2712C8.12233 12.4364 9.75244 14.9356 12.2483 16.0078C12.8418 16.2627 13.3054 16.4152 13.6669 16.5291C14.2628 16.7177 14.8052 16.6911 15.234 16.6274C15.712 16.5562 16.7061 16.0286 16.9133 15.4507C17.1206 14.8728 17.1206 14.3771 17.0585 14.2741C16.9964 14.171 16.8303 14.1088 16.5815 13.9849L16.5819 13.984Z" fill="var(--svg-base)"/>
</svg>
