<svg width="24" height="24" viewBox="0 0 24 24" fill="none" xmlns="http://www.w3.org/2000/svg">
<path d="M13.5849 12.6485C13.7104 12.6939 14.3832 13.023 14.5201 13.0912C14.5467 13.1044 14.5714 13.117 14.5945 13.1281C14.6901 13.174 14.7547 13.2051 14.7822 13.2507C14.8163 13.3074 14.8163 13.5801 14.7023 13.8979C14.5884 14.2158 14.0416 14.5059 13.7787 14.5451C13.5429 14.5801 13.2446 14.5947 12.9168 14.491C12.718 14.4283 12.463 14.3445 12.1366 14.2043C10.8543 13.6534 9.98757 12.4179 9.823 12.1833C9.81138 12.1667 9.80327 12.1551 9.79875 12.1492L9.7979 12.148C9.72628 12.0531 9.23989 11.4081 9.23989 10.7412C9.23989 10.1144 9.54961 9.78574 9.69218 9.63447C9.70192 9.62413 9.71088 9.61462 9.71891 9.60591C9.84443 9.46957 9.99256 9.43562 10.084 9.43562C10.1753 9.43562 10.2665 9.4364 10.3463 9.44032C10.3562 9.44085 10.3665 9.44081 10.3772 9.44077C10.4567 9.44045 10.5561 9.44006 10.6541 9.67406C10.6937 9.76859 10.7526 9.91099 10.8139 10.0595C10.9294 10.3389 11.0538 10.64 11.0761 10.6845C11.1103 10.7527 11.1331 10.8321 11.0874 10.923C11.0802 10.9372 11.0737 10.9505 11.0674 10.9633C11.0335 11.032 11.0084 11.0829 10.9506 11.1499C10.9273 11.1769 10.9033 11.2059 10.8793 11.235C10.8325 11.2915 10.7858 11.348 10.7452 11.3884C10.6769 11.456 10.6055 11.5297 10.6853 11.666C10.7652 11.8023 11.0399 12.2478 11.4467 12.6088C11.8839 12.9964 12.2638 13.1604 12.4565 13.2435C12.4943 13.2598 12.5249 13.273 12.5473 13.2842C12.6841 13.3523 12.764 13.3411 12.8438 13.2502C12.9236 13.1596 13.186 12.853 13.2771 12.7167C13.3682 12.5803 13.4594 12.603 13.5849 12.6485Z" fill="var(--svg-base)"/>
<path fill-rule="evenodd" clip-rule="evenodd" d="M12 22C17.5228 22 22 17.5228 22 12C22 6.47715 17.5228 2 12 2C6.47715 2 2 6.47715 2 12C2 17.5228 6.47715 22 12 22ZM12.0231 6.50403C13.4882 6.50455 14.8633 7.0718 15.8972 8.10132C16.9314 9.13084 17.5005 10.4994 17.5 11.9548C17.499 14.958 15.0416 17.4015 12.0231 17.4015H12.0207C11.1042 17.4012 10.2034 17.1727 9.4035 16.7386L6.5 17.496L7.27709 14.6733C6.79781 13.8475 6.54543 12.9104 6.54596 11.9504C6.54701 8.94724 9.00406 6.50403 12.0231 6.50403Z" fill="var(--svg-base)"/>
</svg>
