<svg width="24" height="24" viewBox="0 0 24 24" fill="none" xmlns="http://www.w3.org/2000/svg">
<path fill-rule="evenodd" clip-rule="evenodd" d="M12 22C17.5228 22 22 17.5228 22 12C22 6.47715 17.5228 2 12 2C6.47715 2 2 6.47715 2 12C2 17.5228 6.47715 22 12 22ZM18.4006 7.29419C17.4278 6.21508 15.9931 5.80428 14.6687 6.08632C14.3621 6.15172 14.168 6.4542 14.2334 6.75872C14.2988 7.06528 14.5992 7.25944 14.9058 7.19404C15.848 6.99375 16.8678 7.28601 17.5586 8.05242C18.2494 8.81884 18.4374 9.8632 18.1411 10.7788C18.045 11.0772 18.2085 11.396 18.5069 11.4921C18.8053 11.5881 19.1241 11.4246 19.2202 11.1283V11.1263C19.6371 9.84072 19.3735 8.37125 18.4006 7.29419ZM10.8229 17.1207C8.37036 17.3639 6.25302 16.2541 6.09361 14.6457C5.93419 13.0352 7.79402 11.5351 10.2445 11.2919C12.697 11.0487 14.8144 12.1584 14.9717 13.7669C15.1332 15.3774 13.2734 16.8795 10.8229 17.1207ZM15.7259 11.7762L15.7207 11.7747C15.515 11.7122 15.3753 11.6697 15.4827 11.3981C15.7198 10.8034 15.7443 10.2904 15.4868 9.92254C15.0065 9.23584 13.6903 9.27262 12.182 9.90415C12.182 9.90415 11.7078 10.1106 11.8305 9.73656C12.0614 8.99058 12.0267 8.36723 11.667 8.00549C10.8495 7.18594 8.67284 8.03614 6.80688 9.90211C5.41099 11.298 4.59961 12.7797 4.59961 14.0612C4.59961 16.5096 7.74088 17.9995 10.8127 17.9995C14.8409 17.9995 17.5203 15.6594 17.5203 13.8016C17.5224 12.6775 16.5761 12.0399 15.7259 11.7762ZM15.0916 8.05649C15.7354 7.91752 16.4344 8.11781 16.9085 8.64306C17.3827 9.1683 17.5094 9.88362 17.3071 10.5111C17.2233 10.7686 16.9494 10.9076 16.6919 10.8258C16.4344 10.742 16.2954 10.4661 16.3772 10.2106C16.4773 9.90406 16.414 9.55458 16.183 9.29706C15.9521 9.04159 15.6087 8.94349 15.294 9.01093C15.0324 9.06816 14.7728 8.90057 14.7156 8.63692C14.6604 8.37328 14.828 8.11168 15.0916 8.05649ZM10.9579 14.2059C10.872 14.3531 10.6819 14.4226 10.5348 14.3612C10.3876 14.302 10.3427 14.1364 10.4265 13.9934C10.5123 13.8503 10.6942 13.7808 10.8393 13.838C10.9865 13.8912 11.0396 14.0567 10.9579 14.2059ZM10.1751 15.2074C9.93801 15.5855 9.42912 15.751 9.04693 15.5773C8.67088 15.4056 8.55847 14.9662 8.79555 14.5963C9.03058 14.2284 9.52109 14.0649 9.90123 14.2243C10.2855 14.3898 10.4081 14.8252 10.1751 15.2074ZM11.0662 12.53C9.89918 12.2255 8.58095 12.808 8.0741 13.836C7.55702 14.8844 8.05775 16.0494 9.23496 16.4295C10.4571 16.824 11.8959 16.219 12.3967 15.0888C12.8913 13.9811 12.274 12.8427 11.0662 12.53Z" fill="var(--svg-base)"/>
</svg>
