<svg width="24" height="24" viewBox="0 0 24 24" fill="none" xmlns="http://www.w3.org/2000/svg">
<path fill-rule="evenodd" clip-rule="evenodd" d="M12 22C17.5228 22 22 17.5228 22 12C22 6.47715 17.5228 2 12 2C6.47715 2 2 6.47715 2 12C2 17.5228 6.47715 22 12 22ZM9.23976 18.259C9.17121 17.6609 9.11513 16.7388 9.26466 16.0845C9.40174 15.4926 10.1494 12.3212 10.1494 12.3212C10.1494 12.3212 9.92513 11.8663 9.92513 11.1996C9.92513 10.1466 10.5357 9.36158 11.2959 9.36158C11.9439 9.36158 12.2554 9.84759 12.2554 10.427C12.2554 10.8443 12.0849 11.3959 11.9052 11.9771C11.8059 12.2984 11.7038 12.6288 11.6261 12.9505C11.4454 13.7044 12.0062 14.3212 12.7477 14.3212C14.0935 14.3212 15.1278 12.9006 15.1278 10.8569C15.1278 9.0438 13.8256 7.77898 11.9626 7.77898C9.80674 7.77898 8.54192 9.39272 8.54192 11.0626C8.54192 11.7106 8.79114 12.4084 9.10268 12.7885C9.16497 12.8632 9.17121 12.9318 9.15252 13.0066C9.11967 13.1452 9.06118 13.3801 9.01334 13.5722C8.97951 13.708 8.951 13.8225 8.94067 13.8664C8.90953 14.0035 8.82853 14.0346 8.68521 13.9661C7.75061 13.5175 7.16492 12.1343 7.16492 11.0252C7.16492 8.6388 8.89705 6.4456 12.1682 6.4456C14.7913 6.4456 16.835 8.31481 16.835 10.8196C16.835 13.4302 15.1901 15.53 12.9096 15.53C12.1433 15.53 11.4205 15.1312 11.1775 14.6577L10.704 16.4584C10.5358 17.1187 10.0749 17.9409 9.76334 18.4456L9.23976 18.259Z" fill="var(--svg-base)"/>
</svg>
