<svg width="24" height="24" viewBox="0 0 24 24" fill="none" xmlns="http://www.w3.org/2000/svg">
<path d="M12 13.875C10.9665 13.875 10.125 13.0335 10.125 12C10.125 10.9657 10.9665 10.125 12 10.125C13.0335 10.125 13.875 10.9657 13.875 12C13.875 13.0335 13.0335 13.875 12 13.875Z" fill="var(--svg-base)"/>
<path fill-rule="evenodd" clip-rule="evenodd" d="M16.875 14.25C16.875 15.6975 15.6975 16.875 14.25 16.875H9.75C8.3025 16.875 7.125 15.6975 7.125 14.25V9.75C7.125 8.3025 8.3025 7.125 9.75 7.125H14.25C15.6975 7.125 16.875 8.3025 16.875 9.75V14.25ZM12 9C10.3433 9 9 10.3433 9 12C9 13.6568 10.3433 15 12 15C13.6568 15 15 13.6568 15 12C15 10.3433 13.6568 9 12 9ZM15.6248 8.775C15.6248 8.99578 15.4458 9.17475 15.225 9.17475C15.0042 9.17475 14.8253 8.99578 14.8253 8.775C14.8253 8.55422 15.0042 8.37525 15.225 8.37525C15.4458 8.37525 15.6248 8.55422 15.6248 8.775Z" fill="var(--svg-base)"/>
<path fill-rule="evenodd" clip-rule="evenodd" d="M12 22C17.5228 22 22 17.5228 22 12C22 6.47715 17.5228 2 12 2C6.47715 2 2 6.47715 2 12C2 17.5228 6.47715 22 12 22ZM18 9.75C18 7.67925 16.3208 6 14.25 6H9.75C7.67925 6 6 7.67925 6 9.75V14.25C6 16.3208 7.67925 18 9.75 18H14.25C16.3208 18 18 16.3208 18 14.25V9.75Z" fill="var(--svg-base)"/>
</svg>
