<svg width="24" height="24" viewBox="0 0 24 24" fill="none" xmlns="http://www.w3.org/2000/svg">
<path d="M22.8268 7.45175C22.8268 7.45175 22.6109 5.8841 21.9484 5.19386C21.1082 4.28762 20.1665 4.28323 19.7346 4.23013C16.643 4 12.0049 4 12.0049 4H11.9953C11.9953 4 7.35744 4 4.26527 4.23013C3.83344 4.28323 2.89193 4.28776 2.05144 5.19372C1.38903 5.88396 1.17338 7.45134 1.17338 7.45134C1.17338 7.45134 0.952393 9.29276 0.952393 11.1332V12.8592C0.952393 14.7002 1.17338 16.541 1.17338 16.541C1.17338 16.541 1.38889 18.1088 2.05144 18.7991C2.89193 19.7052 3.99604 19.6766 4.48785 19.7715C6.25519 19.9458 12.0001 20 12.0001 20C12.0001 20 16.6423 19.9927 19.7345 19.7626C20.1663 19.7096 21.108 19.7052 21.9483 18.7993C22.6107 18.109 22.8266 16.5412 22.8266 16.5412C22.8266 16.5412 23.0472 14.7004 23.0472 12.8595V11.1335C23.0472 9.29262 22.8265 7.45175 22.8265 7.45175M9.71894 14.9508L9.71788 8.55888L15.688 11.7658L9.71894 14.9508Z" fill="var(--svg-base)"/>
</svg>
