<svg width="24" height="24" viewBox="0 0 24 24" fill="none" xmlns="http://www.w3.org/2000/svg">
<path d="M8.875 12C8.875 13.7225 10.2775 15.125 12 15.125C13.7225 15.125 15.125 13.7225 15.125 12C15.125 10.2762 13.7225 8.875 12 8.875C10.2775 8.875 8.875 10.2762 8.875 12Z" fill="var(--svg-base)"/>
<path fill-rule="evenodd" clip-rule="evenodd" d="M8.25 2H15.75C19.2013 2 22 4.79875 22 8.25V15.75C22 19.2013 19.2013 22 15.75 22H8.25C4.79875 22 2 19.2013 2 15.75V8.25C2 4.79875 4.79875 2 8.25 2ZM18.0413 6.62499C18.0413 6.99295 17.743 7.29124 17.375 7.29124C17.007 7.29124 16.7088 6.99295 16.7088 6.62499C16.7088 6.25703 17.007 5.95874 17.375 5.95874C17.743 5.95874 18.0413 6.25703 18.0413 6.62499ZM7 12C7 9.23875 9.23875 7 12 7C14.7612 7 17 9.23875 17 12C17 14.7612 14.7612 17 12 17C9.23875 17 7 14.7612 7 12Z" fill="var(--svg-base)"/>
</svg>
