<svg width="24" height="24" viewBox="0 0 24 24" fill="none" xmlns="http://www.w3.org/2000/svg">
<path d="M6.97665 3.07396C7.86131 2.92325 8.76853 2.97297 9.63142 3.21944C10.4943 3.4659 11.2909 3.90284 11.9624 4.49805L11.9994 4.53103L12.0334 4.50105C12.6743 3.9387 13.4278 3.51947 14.2436 3.27131C15.0594 3.02316 15.9187 2.95179 16.7643 3.06197L17.0102 3.09794C18.076 3.28193 19.0722 3.75068 19.8933 4.45455C20.7144 5.15841 21.3299 6.07119 21.6745 7.09622C22.0191 8.12126 22.0801 9.22039 21.8509 10.2772C21.6217 11.3341 21.1109 12.3093 20.3726 13.0996L20.1927 13.2844L20.1447 13.3254L12.6981 20.6997C12.5262 20.8697 12.2986 20.9718 12.0573 20.9868C11.8159 21.0019 11.5773 20.929 11.3857 20.7816L11.2917 20.6997L3.80207 13.2824C3.00864 12.5106 2.44438 11.5342 2.17176 10.4615C1.89914 9.38878 1.92881 8.26154 2.25748 7.20463C2.58615 6.14773 3.201 5.2024 4.03393 4.47334C4.86686 3.74427 5.88536 3.25994 6.97665 3.07396Z" fill="var(--svg-base)"/>
</svg>
