<svg width="24" height="24" viewBox="0 0 24 24" fill="none" xmlns="http://www.w3.org/2000/svg">
<path fill-rule="evenodd" clip-rule="evenodd" d="M13.4938 3.4355C13.2723 3.24176 12.958 3.19545 12.69 3.31706C12.4221 3.43868 12.25 3.70575 12.25 4.00001V7.37287C5.64486 8.74319 3.22311 14.7512 2.26289 19.8563L2.26179 19.8623C2.25294 19.9116 2.22201 20.0958 2.31541 20.3047C2.44572 20.5962 2.71584 20.7307 2.94634 20.7479C3.11737 20.7607 3.24583 20.711 3.28406 20.6958C3.33805 20.6742 3.37878 20.6508 3.40023 20.6379C3.47005 20.5957 3.52769 20.5453 3.54692 20.5285L3.54859 20.527C3.60454 20.4782 3.67693 20.4089 3.75167 20.3365C3.80171 20.288 3.85719 20.2338 3.91848 20.1739C4.05439 20.0412 4.21897 19.8804 4.41594 19.6922C4.98189 19.1513 5.78141 18.4163 6.71959 17.6762C7.6599 16.9345 8.72524 16.1991 9.82114 15.6495C10.6498 15.2338 11.4703 14.9374 12.25 14.8125V17.9956C12.25 18.2899 12.4221 18.5569 12.69 18.6785C12.958 18.8002 13.2723 18.7538 13.4938 18.5601L21.4938 11.5623C21.6566 11.4199 21.75 11.2141 21.75 10.9978C21.75 10.7815 21.6566 10.5757 21.4938 10.4333L13.4938 3.4355Z" fill="var(--svg-base)"/>
</svg>
