<svg width="24" height="24" viewBox="0 0 24 24" fill="none" xmlns="http://www.w3.org/2000/svg">
<path fill-rule="evenodd" clip-rule="evenodd" d="M14.48 8.025C13.82 7.365 12.93 6.995 12 6.995C11.07 6.995 10.18 7.365 9.53 8.025C8.87 8.685 8.5 9.575 8.5 10.495C8.5 11.425 8.87 12.315 9.53 12.975C10.18 13.635 11.07 13.995 12 13.995C12.93 13.995 13.82 13.635 14.48 12.975C15.13 12.315 15.5 11.425 15.5 10.495C15.5 9.575 15.13 8.685 14.48 8.025ZM21.24 8.175C20.73 6.955 20.01 5.865 19.07 4.925C18.14 3.995 17.05 3.265 15.83 2.765C13.39 1.745 10.61 1.745 8.17 2.765C6.96 3.265 5.86 3.995 4.93 4.925C4 5.855 3.27 6.955 2.76 8.175C2.26 9.395 2 10.675 2 11.995C2 13.315 2.26 14.605 2.76 15.825C3.27 17.045 4 18.135 4.93 19.075C5.86 20.005 6.95 20.735 8.17 21.235C9.39 21.745 10.68 21.995 12 21.995C13.32 21.995 14.61 21.745 15.83 21.235C17.05 20.735 18.141 20.005 19.07 19.075C20.01 18.135 20.73 17.045 21.24 15.825C21.74 14.605 22 13.325 22 11.995C22 10.675 21.74 9.395 21.24 8.175ZM19.39 15.065C19.01 15.985 18.47 16.805 17.78 17.525C17.75 17.475 17.71 17.425 17.66 17.375C16.16 15.875 14.12 15.035 12 15.035C9.88 15.035 7.84 15.875 6.34 17.375C6.29 17.425 6.25 17.475 6.22 17.525C5.53 16.815 4.99 15.985 4.61 15.065C4.21 14.085 4 13.055 4 11.995C4 10.945 4.21 9.915 4.61 8.935C5.01 7.965 5.6 7.085 6.34 6.345C7.09 5.595 7.96 5.015 8.94 4.605C9.92 4.205 10.95 3.995 12 3.995C13.06 3.995 14.09 4.205 15.06 4.605C16.04 5.015 16.91 5.595 17.66 6.345C18.4 7.085 18.99 7.965 19.39 8.935C19.8 9.915 20 10.945 20 11.995C20 13.055 19.8 14.085 19.39 15.065Z" fill="var(--svg-base)"/>
</svg>
