<svg width="24" height="24" viewBox="0 0 24 24" fill="none" xmlns="http://www.w3.org/2000/svg">
<path fill-rule="evenodd" clip-rule="evenodd" d="M22.9634 19.6056C22.6592 18.5845 22.1049 17.6434 21.3343 16.8771C20.1208 15.6636 18.4728 14.9795 16.7516 14.9795C16.166 14.9795 15.5889 15.0595 15.036 15.2122C14.8411 15.2742 14.7593 15.3805 14.9457 15.5677C15.996 16.6834 16.7378 18.0526 17.0958 19.5453C17.1681 19.8569 17.1604 20.1736 17.0761 20.4705C17.0373 20.6069 17.1389 20.7416 17.2804 20.7416H22.1049C22.6962 20.7416 23.1321 20.1727 22.9634 19.606V19.6056ZM19.3338 7.69883C18.6927 7.05339 17.8192 6.69624 16.9113 6.69624C16.0033 6.69624 15.1341 7.05339 14.493 7.69883C14.2305 7.96131 14.0154 8.26252 13.8561 8.58955C13.6281 9.03706 13.5033 9.5319 13.4947 10.044C13.4904 10.0698 13.4904 10.0913 13.4904 10.1171C13.4904 11.025 13.8518 11.8942 14.493 12.5354C15.1341 13.1765 16.0033 13.538 16.9113 13.538C17.8192 13.538 18.6927 13.1765 19.3338 12.5354C19.975 11.8942 20.3364 11.025 20.3364 10.1171C20.3364 9.20917 19.975 8.33997 19.3338 7.69883ZM5.84358 5.1945C6.60822 4.42987 7.64567 4 8.72743 4C9.8092 4 10.8466 4.42987 11.6113 5.1945C12.3759 5.95914 12.8058 6.99659 12.8058 8.07835C12.8058 9.16012 12.3764 10.1976 11.6113 10.9622C10.8466 11.7268 9.8092 12.1567 8.72743 12.1567C7.64567 12.1567 6.60822 11.7268 5.84358 10.9622C5.07895 10.1976 4.64908 9.16012 4.64908 8.07835C4.64908 6.99659 5.07895 5.95914 5.84358 5.1945ZM15.255 20.7429C15.7671 20.7429 16.169 20.2958 16.0494 19.7979C15.7193 18.4231 15.0154 17.1533 13.9994 16.1374C12.5502 14.6881 10.5846 13.874 8.53509 13.874C6.48559 13.874 4.51999 14.6881 3.07075 16.1374C2.05525 17.1533 1.35128 18.4231 1.02125 19.7979C0.901623 20.2958 1.30352 20.7429 1.81557 20.7429H15.255Z" fill="var(--svg-base)"/>
</svg>
