<svg width="24" height="24" viewBox="0 0 24 24" fill="none" xmlns="http://www.w3.org/2000/svg">
<path fill-rule="evenodd" clip-rule="evenodd" d="M8.78507 3.42688C9.69833 2.51349 10.9374 2 12.2295 2C13.5215 2 14.7606 2.51349 15.6739 3.42688C16.5871 4.34027 17.1006 5.57954 17.1006 6.87176C17.1006 8.16397 16.5877 9.40324 15.6739 10.3166C14.7606 11.23 13.5215 11.7435 12.2295 11.7435C10.9374 11.7435 9.69833 11.23 8.78507 10.3166C7.8718 9.40324 7.35838 8.16397 7.35838 6.87176C7.35838 5.57954 7.8718 4.34027 8.78507 3.42688ZM20.0259 22C20.6375 22 21.1175 21.4659 20.9746 20.8712C20.5804 19.229 19.7396 17.7122 18.5262 16.4986C16.7953 14.7674 14.4476 13.7949 11.9997 13.7949C9.55186 13.7949 7.2042 14.7674 5.47326 16.4986C4.26037 17.7122 3.41956 19.229 3.02538 20.8712C2.8825 21.4659 3.36252 22 3.9741 22H20.0259Z" fill="var(--svg-base)"/>
</svg>
