<svg width="24" height="24" viewBox="0 0 24 24" fill="none" xmlns="http://www.w3.org/2000/svg">
<path fill-rule="evenodd" clip-rule="evenodd" d="M20.9597 8.19193C20.4395 7.67171 19.7332 7.37933 18.9927 7.37933C18.2523 7.37933 17.5498 7.67171 17.0296 8.19193C16.9195 8.30205 16.8169 8.42356 16.7296 8.54887C16.3955 9.01592 16.2132 9.57791 16.2132 10.1589C16.2132 10.3222 16.2284 10.4816 16.2588 10.6373C16.3537 11.1955 16.6195 11.7157 17.0296 12.122C17.5498 12.6461 18.2561 12.9384 18.9927 12.9384C19.7332 12.9384 20.4395 12.6461 20.9597 12.122C21.4799 11.6018 21.7723 10.8955 21.7723 10.1589C21.7723 9.42222 21.4799 8.71215 20.9597 8.19193ZM23.4431 18.7899C23.7924 18.7899 24.0658 18.4862 23.9861 18.1444C23.7582 17.2103 23.2798 16.3445 22.5887 15.6496C21.6014 14.6624 20.261 14.108 18.8636 14.108C18.283 14.108 17.7135 14.2044 17.1746 14.3859C17.0368 14.4323 17.0087 14.6119 17.1181 14.7079C17.2525 14.8256 17.3846 14.9487 17.5118 15.0763C18.4915 16.0594 19.1944 17.3052 19.5456 18.6487C19.5673 18.7318 19.6409 18.7899 19.7267 18.7899H23.4431ZM2.22808 10.1589C2.22808 10.8955 2.52047 11.6018 3.04068 12.122C3.5609 12.6461 4.26718 12.9384 5.00764 12.9384C5.74809 12.9384 6.45058 12.6461 6.97079 12.122C7.38089 11.7157 7.64669 11.1955 7.74162 10.6373C7.772 10.4816 7.78719 10.3222 7.78719 10.1589C7.78719 9.57791 7.60493 9.01592 7.27077 8.54887C7.18344 8.42356 7.08091 8.30205 6.97079 8.19193C6.45058 7.67171 5.74429 7.37933 5.00764 7.37933C4.26718 7.37933 3.5609 7.67171 3.04068 8.19193C2.52047 8.71215 2.22808 9.42222 2.22808 10.1589ZM4.27326 18.7899C4.35907 18.7899 4.43274 18.7318 4.45438 18.6487C4.80563 17.3052 5.50849 16.0597 6.48817 15.0763C6.61575 14.9487 6.74752 14.8256 6.88194 14.7079C6.9913 14.6122 6.9632 14.4326 6.82536 14.3859C6.28654 14.2044 5.71695 14.108 5.13636 14.108C3.73899 14.108 2.39858 14.6624 1.4113 15.6496C0.720213 16.3445 0.241765 17.2103 0.0139327 18.1444C-0.0658086 18.4862 0.20759 18.7899 0.556933 18.7899H4.27326ZM9.61668 6.0579C10.2941 5.38048 11.2126 5 12.1703 5C13.128 5 14.0469 5.38048 14.7239 6.0579C15.4013 6.73532 15.7818 7.65387 15.7818 8.61152C15.7818 9.56918 15.4013 10.4881 14.7239 11.1651C14.0465 11.8426 13.128 12.223 12.1703 12.223C11.2126 12.223 10.2937 11.8426 9.61668 11.1651C8.93926 10.4877 8.55878 9.56918 8.55878 8.61152C8.55878 7.65387 8.93926 6.73494 9.61668 6.0579ZM17.9504 19.8258C18.4038 19.8258 18.7596 19.4298 18.6537 18.9889C18.3616 17.7715 17.7381 16.6472 16.8386 15.7472C15.5555 14.4642 13.8149 13.7431 12.0002 13.7431C10.1855 13.7431 8.44487 14.4642 7.16179 15.7472C6.26223 16.6468 5.63873 17.7715 5.34673 18.9889C5.24079 19.4298 5.59696 19.8258 6.04997 19.8258H17.9504Z" fill="var(--svg-base)"/>
</svg>
