<svg width="24" height="24" viewBox="0 0 24 24" fill="none" xmlns="http://www.w3.org/2000/svg">
<path fill-rule="evenodd" clip-rule="evenodd" d="M9.87892 11.8787C10.4415 11.3161 11.2046 11 12.0002 11C12.7959 11 13.559 11.3161 14.1216 11.8787C14.6842 12.4413 15.0002 13.2043 15.0002 14C15.0002 14.7957 14.6842 15.5587 14.1216 16.1213C13.559 16.6839 12.7959 17 12.0002 17C11.2046 17 10.4415 16.6839 9.87892 16.1213C9.31632 15.5587 9.00024 14.7957 9.00024 14C9.00024 13.2043 9.31632 12.4413 9.87892 11.8787ZM12.0002 13C11.735 13 11.4807 13.1054 11.2931 13.2929C11.1056 13.4804 11.0002 13.7348 11.0002 14C11.0002 14.2652 11.1056 14.5196 11.2931 14.7071C11.4807 14.8946 11.735 15 12.0002 15C12.2655 15 12.5198 14.8946 12.7074 14.7071C12.8949 14.5196 13.0002 14.2652 13.0002 14C13.0002 13.7348 12.8949 13.4804 12.7074 13.2929C12.5198 13.1054 12.2655 13 12.0002 13Z" fill="var(--svg-base)"/>
<path fill-rule="evenodd" clip-rule="evenodd" d="M9.3165 3.05134C9.84044 3.22599 10.1236 3.79231 9.94895 4.31625L9.05437 7H14.9462L14.0516 4.31625C13.8769 3.79231 14.1601 3.22599 14.684 3.05134C15.208 2.8767 15.7743 3.15986 15.949 3.6838L17.0544 7H19.0002C19.4327 6.99997 19.8601 7.09345 20.2531 7.27405C20.6462 7.45467 20.9955 7.71814 21.2772 8.0464C21.5589 8.37467 21.7662 8.75997 21.885 9.17588C22.0039 9.59179 22.0313 10.0285 21.9656 10.456L21.9622 10.4768L20.7089 17.6192C20.5615 18.5594 20.0838 19.4164 19.3613 20.0362C18.6359 20.6583 17.7115 21.0002 16.7559 21H7.24417C6.2887 21 5.36481 20.6579 4.63967 20.0357C3.9174 19.416 3.43985 18.5592 3.29257 17.6192L2.03926 10.4768L2.03584 10.456C1.97009 10.0285 1.99757 9.59179 2.11639 9.17588C2.23522 8.75997 2.44258 8.37467 2.72425 8.0464C3.00593 7.71814 3.35526 7.45467 3.7483 7.27405C4.1413 7.09345 4.56871 6.99997 5.00122 7H6.94619L8.05159 3.6838C8.22624 3.15986 8.79256 2.8767 9.3165 3.05134ZM6.27952 9H5.0011C4.85691 8.99998 4.71443 9.03115 4.58342 9.09135C4.4524 9.15156 4.33596 9.23938 4.24207 9.3488C4.14818 9.45822 4.07906 9.58666 4.03945 9.72529C4.00064 9.86112 3.99106 10.0036 4.0113 10.1433L5.26417 17.2832L5.2676 17.304C5.34021 17.7762 5.57945 18.2068 5.94202 18.5179C6.30457 18.8289 6.7665 19 7.24422 19H16.7562C17.2341 19.0001 17.6965 18.8292 18.0592 18.5181C18.4219 18.207 18.6612 17.7763 18.7338 17.304L18.7373 17.2832L19.9901 10.1433C20.0104 10.0036 20.0008 9.86112 19.962 9.72529C19.9224 9.58665 19.8533 9.45822 19.7594 9.3488C19.6655 9.23938 19.549 9.15156 19.418 9.09135C19.287 9.03115 19.1445 8.99998 19.0003 9H17.721L17.949 9.6838C18.1236 10.2077 17.8404 10.7741 17.3165 10.9487C16.7926 11.1234 16.2262 10.8402 16.0516 10.3163L15.6128 9H8.38771L7.94895 10.3163C7.77431 10.8402 7.20799 11.1234 6.68404 10.9487C6.1601 10.7741 5.87694 10.2077 6.05159 9.6838L6.27952 9Z" fill="var(--svg-base)"/>
</svg>
