<svg width="24" height="24" viewBox="0 0 24 24" fill="none" xmlns="http://www.w3.org/2000/svg">
<path fill-rule="evenodd" clip-rule="evenodd" d="M12.0002 11C12.5525 11 13.0002 11.4477 13.0002 12V12.01C13.0002 12.5623 12.5525 13.01 12.0002 13.01C11.448 13.01 11.0002 12.5623 11.0002 12.01V12C11.0002 11.4477 11.448 11 12.0002 11Z" fill="var(--svg-base)"/>
<path fill-rule="evenodd" clip-rule="evenodd" d="M7.00024 5V6H5.00024C4.20459 6 3.44153 6.31607 2.87892 6.87868C2.31631 7.44129 2.00024 8.20435 2.00024 9V12.9772C1.99992 12.9919 1.99992 13.0066 2.00024 13.0213V18C2.00024 18.7957 2.31631 19.5587 2.87892 20.1213C3.44153 20.6839 4.20459 21 5.00024 21H19.0002C19.7959 21 20.559 20.6839 21.1216 20.1213C21.6842 19.5587 22.0002 18.7957 22.0002 18V13.0187C22.0005 13.0057 22.0005 12.9928 22.0002 12.9798V9C22.0002 8.20435 21.6842 7.44129 21.1216 6.87868C20.559 6.31607 19.7959 6 19.0002 6H17.0002V5C17.0002 4.20435 16.6842 3.44129 16.1216 2.87868C15.559 2.31607 14.7959 2 14.0002 2H10.0002C9.20459 2 8.44153 2.31607 7.87892 2.87868C7.31632 3.44129 7.00024 4.20435 7.00024 5ZM10.0002 4C9.73503 4 9.48067 4.10536 9.29314 4.29289C9.1056 4.48043 9.00024 4.73478 9.00024 5V6H15.0002V5C15.0002 4.73478 14.8949 4.48043 14.7074 4.29289C14.5198 4.10536 14.2655 4 14.0002 4H10.0002ZM20.0002 12.3731V9C20.0002 8.73478 19.8949 8.48043 19.7073 8.29289C19.5198 8.10536 19.2655 8 19.0002 8H5.00024C4.73503 8 4.48067 8.10536 4.29314 8.29289C4.1056 8.48043 4.00024 8.73478 4.00024 9V12.3731C6.50449 13.5356 9.23442 14.1394 12.0002 14.1394C14.766 14.1394 17.496 13.5356 20.0002 12.3731ZM4.00024 14.5559V18C4.00024 18.2652 4.1056 18.5196 4.29314 18.7071C4.48067 18.8946 4.73503 19 5.00024 19H19.0002C19.2655 19 19.5198 18.8946 19.7073 18.7071C19.8949 18.5196 20.0002 18.2652 20.0002 18V14.5559C17.4674 15.5995 14.7499 16.1394 12.0002 16.1394C9.2506 16.1394 6.53304 15.5995 4.00024 14.5559Z" fill="var(--svg-base)"/>
</svg>
