<svg width="24" height="24" viewBox="0 0 24 24" fill="none" xmlns="http://www.w3.org/2000/svg">
<path fill-rule="evenodd" clip-rule="evenodd" d="M16.7071 7.29289C16.9749 7.56073 17.0685 7.95689 16.9487 8.31623L14.9487 14.3162C14.8491 14.6148 14.6148 14.8491 14.3162 14.9487L8.31623 16.9487C7.95689 17.0685 7.56073 16.9749 7.29289 16.7071C7.02506 16.4393 6.93154 16.0431 7.05132 15.6838L9.05132 9.68377C9.15085 9.38517 9.38517 9.15085 9.68377 9.05132L15.6838 7.05132C16.0431 6.93154 16.4393 7.02506 16.7071 7.29289ZM10.7906 10.7906L9.58114 14.4189L13.2094 13.2094L14.4189 9.58114L10.7906 10.7906Z" fill="var(--svg-base)"/>
<path fill-rule="evenodd" clip-rule="evenodd" d="M12 2C10.6868 2 9.38642 2.25866 8.17317 2.7612C6.95991 3.26375 5.85752 4.00035 4.92893 4.92893C4.00035 5.85752 3.26375 6.95991 2.7612 8.17317C2.25866 9.38642 2 10.6868 2 12C2 13.3132 2.25866 14.6136 2.7612 15.8268C3.26375 17.0401 4.00035 18.1425 4.92893 19.0711C5.85752 19.9997 6.95991 20.7362 8.17317 21.2388C9.38642 21.7413 10.6868 22 12 22C13.3132 22 14.6136 21.7413 15.8268 21.2388C17.0401 20.7362 18.1425 19.9997 19.0711 19.0711C19.9997 18.1425 20.7362 17.0401 21.2388 15.8268C21.7413 14.6136 22 13.3132 22 12C22 10.6868 21.7413 9.38642 21.2388 8.17317C20.7362 6.95991 19.9997 5.85752 19.0711 4.92893C18.1425 4.00035 17.0401 3.26375 15.8268 2.7612C14.6136 2.25866 13.3132 2 12 2ZM11 4.06275V5C11 5.55228 11.4477 6 12 6C12.5523 6 13 5.55228 13 5V4.06275C13.707 4.15182 14.4004 4.33513 15.0615 4.60896C16.0321 5.011 16.914 5.60028 17.6569 6.34315C18.3997 7.08602 18.989 7.96793 19.391 8.93853C19.6649 9.59962 19.8482 10.293 19.9373 11H19C18.4477 11 18 11.4477 18 12C18 12.5523 18.4477 13 19 13H19.9373C19.8482 13.707 19.6649 14.4004 19.391 15.0615C18.989 16.0321 18.3997 16.914 17.6569 17.6569C16.914 18.3997 16.0321 18.989 15.0615 19.391C14.4004 19.6649 13.707 19.8482 13 19.9373V19C13 18.4477 12.5523 18 12 18C11.4477 18 11 18.4477 11 19V19.9373C10.293 19.8482 9.59962 19.6649 8.93853 19.391C7.96793 18.989 7.08601 18.3997 6.34315 17.6569C5.60028 16.914 5.011 16.0321 4.60896 15.0615C4.33513 14.4004 4.15182 13.707 4.06275 13H5C5.55228 13 6 12.5523 6 12C6 11.4477 5.55228 11 5 11H4.06275C4.15182 10.293 4.33513 9.59962 4.60896 8.93853C5.011 7.96793 5.60028 7.08601 6.34315 6.34315C7.08601 5.60028 7.96793 5.011 8.93853 4.60896C9.59962 4.33513 10.293 4.15182 11 4.06275Z" fill="var(--svg-base)"/>
</svg>
