<svg width="24" height="24" viewBox="0 0 24 24" fill="none" xmlns="http://www.w3.org/2000/svg">
<path fill-rule="evenodd" clip-rule="evenodd" d="M2 8C2 6.93913 2.42143 5.92172 3.17157 5.17157C3.92172 4.42143 4.93913 4 6 4H18C19.0609 4 20.0783 4.42143 20.8284 5.17157C21.5786 5.92172 22 6.93913 22 8V12.5C22 13.0523 21.5523 13.5 21 13.5C20.4477 13.5 20 13.0523 20 12.5V11H4V16C4 16.5304 4.21071 17.0391 4.58579 17.4142C4.96086 17.7893 5.46957 18 6 18H12C12.5523 18 13 18.4477 13 19C13 19.5523 12.5523 20 12 20H6C4.93913 20 3.92172 19.5786 3.17157 18.8284C2.42143 18.0783 2 17.0609 2 16V8ZM4.58579 6.58579C4.96086 6.21071 5.46957 6 6 6H18C18.5304 6 19.0391 6.21071 19.4142 6.58579C19.7893 6.96086 20 7.46957 20 8V9H4V8C4 7.46957 4.21071 6.96086 4.58579 6.58579Z" fill="var(--svg-base)"/>
<path d="M19.7071 15.2929C19.3166 14.9024 18.6834 14.9024 18.2929 15.2929C17.9024 15.6834 17.9024 16.3166 18.2929 16.7071L19.5858 18H16C15.4477 18 15 18.4477 15 19C15 19.5523 15.4477 20 16 20H19.5858L18.2929 21.2929C17.9024 21.6834 17.9024 22.3166 18.2929 22.7071C18.6834 23.0976 19.3166 23.0976 19.7071 22.7071L22.7071 19.7071C23.0976 19.3166 23.0976 18.6834 22.7071 18.2929L19.7071 15.2929Z" fill="var(--svg-base)"/>
<path fill-rule="evenodd" clip-rule="evenodd" d="M6.005 15C6.005 14.4477 6.45272 14 7.005 14H7.01C7.56228 14 8.01 14.4477 8.01 15C8.01 15.5523 7.56228 16 7.01 16H7.005C6.45272 16 6.005 15.5523 6.005 15Z" fill="var(--svg-base)"/>
<path fill-rule="evenodd" clip-rule="evenodd" d="M10 15C10 14.4477 10.4477 14 11 14H13C13.5523 14 14 14.4477 14 15C14 15.5523 13.5523 16 13 16H11C10.4477 16 10 15.5523 10 15Z" fill="var(--svg-base)"/>
</svg>
