<svg width="24" height="24" viewBox="0 0 24 24" fill="none" xmlns="http://www.w3.org/2000/svg">
<path fill-rule="evenodd" clip-rule="evenodd" d="M3.70711 2.29289C3.31658 1.90237 2.68342 1.90237 2.29289 2.29289C1.90237 2.68342 1.90237 3.31658 2.29289 3.70711L3.19188 4.6061C3.08193 4.68914 2.97723 4.78013 2.87868 4.87868C2.31607 5.44129 2 6.20435 2 7V10C2 10.5523 2.44772 11 3 11C3.26522 11 3.51957 11.1054 3.70711 11.2929C3.89464 11.4804 4 11.7348 4 12C4 12.2652 3.89464 12.5196 3.70711 12.7071C3.51957 12.8946 3.26522 13 3 13C2.44772 13 2 13.4477 2 14V17C2 17.7956 2.31607 18.5587 2.87868 19.1213C3.44129 19.6839 4.20435 20 5 20H18.5858L20.2929 21.7071C20.6834 22.0976 21.3166 22.0976 21.7071 21.7071C22.0976 21.3166 22.0976 20.6834 21.7071 20.2929L3.70711 2.29289ZM16.5858 18L16 17.4142V18H16.5858ZM14.6491 16.0633L4.6493 6.06351C4.51673 6.11316 4.39492 6.19087 4.29289 6.29289C4.10536 6.48043 4 6.73478 4 7V9.17157C4.4179 9.31933 4.80192 9.55928 5.12132 9.87868C5.68393 10.4413 6 11.2044 6 12C6 12.7956 5.68393 13.5587 5.12132 14.1213C4.80192 14.4407 4.4179 14.6807 4 14.8284V17C4 17.2652 4.10536 17.5196 4.29289 17.7071C4.48043 17.8946 4.73478 18 5 18H14V17C14 16.5712 14.2699 16.2054 14.6491 16.0633Z" fill="var(--svg-base)"/>
<path d="M8 5C8 4.44772 8.44772 4 9 4H19C19.7957 4 20.5587 4.31607 21.1213 4.87868C21.6839 5.44129 22 6.20435 22 7V10C22 10.5523 21.5523 11 21 11C20.7348 11 20.4804 11.1054 20.2929 11.2929C20.1054 11.4804 20 11.7348 20 12C20 12.2652 20.1054 12.5196 20.2929 12.7071C20.4804 12.8946 20.7348 13 21 13C21.5523 13 22 13.4477 22 14V17C22 17.5523 21.5523 18 21 18C20.4477 18 20 17.5523 20 17V14.8284C19.5821 14.6807 19.1981 14.4407 18.8787 14.1213C18.3161 13.5587 18 12.7957 18 12C18 11.2043 18.3161 10.4413 18.8787 9.87868C19.1981 9.55928 19.5821 9.31933 20 9.17157V7C20 6.73478 19.8946 6.48043 19.7071 6.29289C19.5196 6.10536 19.2652 6 19 6H16V7C16 7.55228 15.5523 8 15 8C14.4477 8 14 7.55228 14 7V6H9C8.44772 6 8 5.55228 8 5Z" fill="var(--svg-base)"/>
</svg>
