<svg width="24" height="24" viewBox="0 0 24 24" fill="none" xmlns="http://www.w3.org/2000/svg">
<path fill-rule="evenodd" clip-rule="evenodd" d="M20.135 13.3509L12.704 20.7106C12.3143 21.0965 11.6863 21.0965 11.2966 20.7106L3.79959 13.2855C3.20753 12.7085 2.74109 12.0153 2.42956 11.2495C2.11744 10.4822 1.96757 9.65868 1.98939 8.83066C2.0112 8.00264 2.20422 7.1881 2.55629 6.43834C2.90836 5.68858 3.41186 5.01984 4.03508 4.47423C4.6583 3.92862 5.38775 3.51796 6.17747 3.26811C6.9672 3.01826 7.80011 2.93464 8.62374 3.0225C9.44738 3.11036 10.2439 3.3678 10.9632 3.77862C11.3372 3.99227 11.6861 4.24499 12.0044 4.53187C12.3224 4.24846 12.6704 3.99898 13.0432 3.7882C13.7619 3.38174 14.5568 3.12802 15.3782 3.0429C16.1995 2.95779 17.0295 3.04312 17.8164 3.29355C18.6032 3.54398 19.3299 3.95412 19.9509 4.49831C20.5719 5.0425 21.0739 5.70902 21.4255 6.45615C21.7771 7.20328 21.9707 8.01494 21.9942 8.84033C22.0177 9.66572 21.8705 10.4871 21.562 11.253C21.2534 12.0189 20.7901 12.7129 20.201 13.2915C20.1797 13.3124 20.1576 13.3323 20.135 13.3509ZM8.4116 5.01121C7.86251 4.95264 7.30724 5.00839 6.78075 5.17496C6.25427 5.34152 5.76797 5.6153 5.35249 5.97904C4.93701 6.34278 4.60134 6.7886 4.36663 7.28844C4.13191 7.78828 4.00323 8.33131 3.98869 8.88332C3.97415 9.43533 4.07406 9.98438 4.28214 10.4959C4.49022 11.0074 4.80195 11.4703 5.1977 11.8554L5.20402 11.8615L12.0003 18.5926L13.0947 17.5087L11.7931 16.2072C11.4026 15.8166 11.4026 15.1835 11.7931 14.7929C12.1837 14.4024 12.8168 14.4024 13.2074 14.7929L14.5157 16.1013L15.6068 15.0208L14.2931 13.7072C13.9026 13.3166 13.9026 12.6835 14.2931 12.2929C14.6837 11.9024 15.3168 11.9024 15.7074 12.2929L17.0278 13.6134L18.1188 12.5329L16.5431 10.9572C16.1339 10.548 15.5789 10.3181 15.0002 10.3181C14.4215 10.3181 13.8665 10.548 13.4573 10.9572L12.4573 11.9572C11.3768 13.0377 9.62363 13.0377 8.54311 11.9572L8.00011 11.4142C7.62517 11.0391 7.41443 10.5304 7.41443 10.0001C7.41443 9.46972 7.62506 8.96111 8 8.58605L10.6141 5.972C10.4159 5.79942 10.2006 5.64634 9.9712 5.5153C9.4917 5.24142 8.96069 5.06979 8.4116 5.01121ZM19.7069 10.5056C19.6334 10.6881 19.5467 10.8644 19.4477 11.0333L17.9573 9.54294C17.173 8.75868 16.1093 8.31808 15.0002 8.31808C13.8911 8.31808 12.8274 8.75868 12.0431 9.54295L11.0431 10.5429C10.7436 10.8424 10.2568 10.8424 9.95732 10.5429L9.41443 10.0001L12.6388 6.77573C12.6982 6.72646 12.7522 6.67 12.7996 6.60703C13.1304 6.16705 13.5485 5.80009 14.0276 5.52912C14.5068 5.25814 15.0368 5.08899 15.5843 5.03225C16.1319 4.9755 16.6852 5.03239 17.2098 5.19935C17.7343 5.3663 18.2188 5.63973 18.6328 6.00252C19.0468 6.36531 19.3815 6.80966 19.6159 7.30775C19.8503 7.80583 19.9794 8.34694 19.995 8.8972C20.0107 9.44746 19.9126 9.99503 19.7069 10.5056Z" fill="var(--svg-base)"/>
</svg>
