<svg width="24" height="24" viewBox="0 0 24 24" fill="none" xmlns="http://www.w3.org/2000/svg">
<path fill-rule="evenodd" clip-rule="evenodd" d="M12.3714 4.07152C12.133 3.97616 11.867 3.97616 11.6286 4.07152L1.62861 8.07152C1.24895 8.22339 1 8.5911 1 9C1 9.4089 1.24895 9.77661 1.62861 9.92848L5 11.277V16C5 17.3662 6.06101 18.3912 7.31015 19.0157C8.60606 19.6637 10.2935 20 12 20C13.7065 20 15.3939 19.6637 16.6899 19.0157C17.939 18.3912 19 17.3662 19 16V11.277L21 10.477V15C21 15.5523 21.4477 16 22 16C22.5523 16 23 15.5523 23 15V9C23 8.5911 22.751 8.22339 22.3714 8.07152L12.3714 4.07152ZM17.6502 9.66288C17.6358 9.66825 17.6216 9.67394 17.6076 9.67993L12 11.923L6.39243 9.67994C6.37838 9.67394 6.36416 9.66825 6.34978 9.66288L4.69258 9L12 6.07703L19.3074 9L17.6502 9.66288ZM7 12.077L11.6286 13.9285C11.867 14.0238 12.133 14.0238 12.3714 13.9285L17 12.077V16C17 16.2251 16.7967 16.7262 15.7954 17.2269C14.8409 17.7042 13.4761 18 12 18C10.5239 18 9.15909 17.7042 8.20457 17.2269C7.20327 16.7262 7 16.2251 7 16V12.077Z" fill="var(--svg-base)"/>
</svg>
