<svg width="24" height="24" viewBox="0 0 24 24" fill="none" xmlns="http://www.w3.org/2000/svg">
<path fill-rule="evenodd" clip-rule="evenodd" d="M3 3C3 2.44772 3.44772 2 4 2H6C6.55228 2 7 2.44772 7 3V4.06889L20.0713 5.00255C20.3481 5.02232 20.6042 5.15619 20.7784 5.37216C20.9526 5.58812 21.0292 5.86675 20.99 6.14143L19.99 13.1414C19.9196 13.6341 19.4977 14 19 14H7V16H17C17.7957 16 18.5587 16.3161 19.1213 16.8787C19.6839 17.4413 20 18.2043 20 19C20 19.7957 19.6839 20.5587 19.1213 21.1213C18.5587 21.6839 17.7957 22 17 22C16.2043 22 15.4413 21.6839 14.8787 21.1213C14.3161 20.5587 14 19.7957 14 19C14 18.6561 14.0591 18.3182 14.1716 18H8.82843C8.94094 18.3182 9 18.6561 9 19C9 19.7957 8.68393 20.5587 8.12132 21.1213C7.55871 21.6839 6.79565 22 6 22C5.20435 22 4.44129 21.6839 3.87868 21.1213C3.31607 20.5587 3 19.7957 3 19C3 18.2043 3.31607 17.4413 3.87868 16.8787C4.19808 16.5593 4.5821 16.3193 5 16.1716V4H4C3.44772 4 3 3.55228 3 3ZM6 18C5.73478 18 5.48043 18.1054 5.29289 18.2929C5.10536 18.4804 5 18.7348 5 19C5 19.2652 5.10536 19.5196 5.29289 19.7071C5.48043 19.8946 5.73478 20 6 20C6.26522 20 6.51957 19.8946 6.70711 19.7071C6.89464 19.5196 7 19.2652 7 19C7 18.7348 6.89464 18.4804 6.70711 18.2929C6.51957 18.1054 6.26522 18 6 18ZM17 18C16.7348 18 16.4804 18.1054 16.2929 18.2929C16.1054 18.4804 16 18.7348 16 19C16 19.2652 16.1054 19.5196 16.2929 19.7071C16.4804 19.8946 16.7348 20 17 20C17.2652 20 17.5196 19.8946 17.7071 19.7071C17.8946 19.5196 18 19.2652 18 19C18 18.7348 17.8946 18.4804 17.7071 18.2929C17.5196 18.1054 17.2652 18 17 18ZM7 12V6.07399L18.8583 6.92101L18.1327 12H7Z" fill="var(--svg-base)"/>
</svg>
