<svg width="24" height="24" viewBox="0 0 24 24" fill="none" xmlns="http://www.w3.org/2000/svg">
<path fill-rule="evenodd" clip-rule="evenodd" d="M7.99988 7V6C7.99988 4.93913 8.4213 3.92172 9.17145 3.17157C9.9216 2.42143 10.939 2 11.9999 2C13.0607 2 14.0782 2.42143 14.8283 3.17157C15.5785 3.92172 15.9999 4.93913 15.9999 6V7H17.6693C18.1018 6.99997 18.5292 7.09345 18.9222 7.27405C19.3153 7.45467 19.6646 7.71814 19.9463 8.0464C20.228 8.37467 20.4353 8.75997 20.5541 9.17588C20.673 9.59179 20.7004 10.0286 20.6347 10.4562L19.3797 18.6082C19.2344 19.5527 18.7557 20.414 18.0304 21.0362C17.305 21.6583 16.3806 22.0002 15.425 22H8.57327C7.6178 22 6.69391 21.6579 5.96878 21.0357C5.24368 20.4136 4.7652 19.5523 4.61994 18.608L3.36494 10.456C3.29919 10.0285 3.32667 9.59179 3.44549 9.17588C3.56432 8.75997 3.77168 8.37467 4.05335 8.0464C4.33503 7.71814 4.68436 7.45467 5.0774 7.27405C5.4704 7.09345 5.89781 6.99997 6.33032 7H7.99988ZM10.5857 4.58579C10.9607 4.21071 11.4694 4 11.9999 4C12.5303 4 13.039 4.21071 13.4141 4.58579C13.7892 4.96086 13.9999 5.46957 13.9999 6V7H9.99988V6C9.99988 5.46957 10.2106 4.96086 10.5857 4.58579ZM7.99988 9V11C7.99988 11.5523 8.44759 12 8.99988 12C9.55216 12 9.99988 11.5523 9.99988 11V9H13.9999V11C13.9999 11.5523 14.4476 12 14.9999 12C15.5522 12 15.9999 11.5523 15.9999 11V9H17.6694C17.8136 8.99998 17.9561 9.03115 18.0871 9.09135C18.2181 9.15156 18.3346 9.23938 18.4285 9.3488C18.5224 9.45822 18.5915 9.58665 18.6311 9.72529C18.6707 9.86388 18.6798 10.0095 18.6579 10.152L17.4029 18.304C17.3303 18.7763 17.091 19.207 16.7283 19.5181C16.3656 19.8292 15.9032 20.0001 15.4253 20H8.57332C8.0956 20 7.63367 19.8289 7.27112 19.5179C6.90855 19.2068 6.66929 18.776 6.59667 18.3038L5.34168 10.1519C5.31979 10.0094 5.32895 9.86389 5.36855 9.72529C5.40816 9.58666 5.47728 9.45822 5.57117 9.3488C5.66506 9.23938 5.78151 9.15156 5.91252 9.09135C6.04353 9.03115 6.18601 8.99998 6.3302 9H7.99988Z" fill="var(--svg-base)"/>
</svg>
