<svg width="24" height="24" viewBox="0 0 24 24" fill="none" xmlns="http://www.w3.org/2000/svg">
<path d="M6.98999 9C6.43771 9 5.98999 9.44772 5.98999 10C5.98999 10.5523 6.43771 11 6.98999 11H6.99999C7.55228 11 7.99999 10.5523 7.99999 10C7.99999 9.44772 7.55228 9 6.99999 9H6.98999Z" fill="var(--svg-base)"/>
<path fill-rule="evenodd" clip-rule="evenodd" d="M2.87868 5.87868C3.44129 5.31607 4.20435 5 5 5H9.172C9.96753 5.00017 10.7306 5.31631 11.2931 5.87889L17.0031 11.5889C17.6425 12.2284 18.0017 13.0957 18.0017 14C18.0017 14.9043 17.6425 15.7716 17.0032 16.4111L13.4111 20.0031C12.7716 20.6425 11.9043 21.0017 11 21.0017C10.0957 21.0017 9.22843 20.6425 8.58895 20.0032L2.879 14.2932C2.31642 13.7307 2.00017 12.9677 2 12.1722V8C2 7.20435 2.31607 6.44129 2.87868 5.87868ZM5 7C4.73478 7 4.48043 7.10536 4.29289 7.29289C4.10536 7.48043 4 7.73478 4 8V12.1718C4.00011 12.4369 4.1055 12.6913 4.293 12.8788L10.0031 18.5888C10.2675 18.8532 10.6261 19.0017 11 19.0017C11.3739 19.0017 11.7325 18.8532 11.9969 18.5888L15.5888 14.9969C15.8532 14.7325 16.0017 14.3739 16.0017 14C16.0017 13.6261 15.8532 13.2675 15.5888 13.0031L9.87889 7.29311C9.69145 7.10561 9.43712 7.00011 9.172 7H5Z" fill="var(--svg-base)"/>
<path d="M14.2929 5.29289C14.6834 4.90237 15.3166 4.90237 15.7071 5.29289L20.2991 9.88489C21.3904 10.9763 22.0035 12.4566 22.0035 14C22.0035 15.5434 21.3904 17.0236 20.2992 18.1151L18.7071 19.7071C18.3166 20.0976 17.6834 20.0976 17.2929 19.7071C16.9024 19.3166 16.9024 18.6834 17.2929 18.2929L18.8848 16.7009C19.6011 15.9846 20.0035 15.013 20.0035 14C20.0035 12.987 19.6011 12.0155 18.8849 11.2991L14.2929 6.70711C13.9024 6.31658 13.9024 5.68342 14.2929 5.29289Z" fill="var(--svg-base)"/>
</svg>
