<svg width="24" height="24" viewBox="0 0 24 24" fill="none" xmlns="http://www.w3.org/2000/svg">
<path d="M11.293 7.29311C11.4652 7.12093 11.6943 7.0175 11.9373 7.00222C12.1803 6.98694 12.4206 7.06085 12.613 7.21011L12.707 7.29311L18.707 13.2931L18.79 13.3871L18.844 13.4641L18.898 13.5601L18.915 13.5961L18.942 13.6631L18.974 13.7711L18.984 13.8241L18.994 13.8841L18.998 13.9411L19 14.0001L18.998 14.0591L18.993 14.1171L18.984 14.1771L18.974 14.2291L18.942 14.3371L18.915 14.4041L18.845 14.5361L18.78 14.6261L18.707 14.7071L18.613 14.7901L18.536 14.8441L18.44 14.8981L18.404 14.9151L18.337 14.9421L18.229 14.9741L18.176 14.9841L18.116 14.9941L18.059 14.9981L18 15.0001H5.99999C5.14799 15.0001 4.70299 14.0141 5.21699 13.3771L5.29299 13.2931L11.293 7.29311Z" fill="var(--svg-base)"/>
</svg>
