<svg width="24" height="24" viewBox="0 0 24 24" fill="none" xmlns="http://www.w3.org/2000/svg">
<path d="M13.883 5.00695L13.941 5.00195H14.059L14.117 5.00695L14.177 5.01595L14.229 5.02595L14.337 5.05795L14.404 5.08495L14.536 5.15495L14.626 5.21995L14.707 5.29295L14.79 5.38695L14.844 5.46395L14.898 5.55995L14.915 5.59595L14.942 5.66295L14.974 5.77095L14.984 5.82395L14.994 5.88395L14.998 5.94095L15 5.99995V18C15 18.852 14.014 19.297 13.377 18.783L13.293 18.707L7.29298 12.707C7.12081 12.5348 7.01738 12.3057 7.00209 12.0626C6.98681 11.8196 7.06073 11.5794 7.20998 11.387L7.29298 11.293L13.293 5.29295L13.387 5.20995L13.464 5.15595L13.56 5.10195L13.596 5.08495L13.663 5.05795L13.771 5.02595L13.824 5.01595L13.884 5.00595L13.883 5.00695Z" fill="var(--svg-base)"/>
</svg>
