<svg width="24" height="24" viewBox="0 0 24 24" fill="none" xmlns="http://www.w3.org/2000/svg">
<path fill-rule="evenodd" clip-rule="evenodd" d="M8.75003 2.25C8.75003 1.69772 9.19775 1.25 9.75003 1.25H14.25C14.8023 1.25 15.25 1.69772 15.25 2.25C15.25 2.80228 14.8023 3.25 14.25 3.25H9.75003C9.19775 3.25 8.75003 2.80228 8.75003 2.25Z" fill="var(--svg-base)"/>
<path fill-rule="evenodd" clip-rule="evenodd" d="M3.0904 15.9949C3.05706 15.9983 3.02324 16 2.98901 16C2.43673 16 1.98901 15.5523 1.98901 15V12C1.98901 11.4477 2.43673 11 2.98901 11C3.02324 11 3.05706 11.0017 3.0904 11.0051C4.1793 7.10838 7.75586 4.25 12 4.25C17.1087 4.25 21.25 8.39137 21.25 13.5C21.25 18.6086 17.1087 22.75 12 22.75C7.75586 22.75 4.1793 19.8916 3.0904 15.9949ZM13.0179 9.74245C13.0179 9.19016 12.5702 8.74245 12.0179 8.74245C11.4656 8.74245 11.0179 9.19016 11.0179 9.74245V12.9968H7.64656C7.09428 12.9968 6.64656 13.4446 6.64656 13.9968C6.64656 14.5491 7.09428 14.9968 7.64656 14.9968H11.8892C11.9423 14.9968 11.9945 14.9927 12.0454 14.9847C12.5849 14.9701 13.0179 14.5282 13.0179 13.9851V9.74245Z" fill="var(--svg-base)"/>
</svg>
