<svg width="24" height="24" viewBox="0 0 24 24" fill="none" xmlns="http://www.w3.org/2000/svg">
<path fill-rule="evenodd" clip-rule="evenodd" d="M7 6V5C7 4.20435 7.31607 3.44129 7.87868 2.87868C8.44129 2.31607 9.20435 2 10 2H14C14.7956 2 15.5587 2.31607 16.1213 2.87868C16.6839 3.44129 17 4.20435 17 5V6H19C19.7957 6 20.5587 6.31607 21.1213 6.87868C21.6839 7.44129 22 8.20435 22 9V18C22 18.7957 21.6839 19.5587 21.1213 20.1213C20.5587 20.6839 19.7957 21 19 21H5C4.20435 21 3.44129 20.6839 2.87868 20.1213C2.31607 19.5587 2 18.7957 2 18V9C2 8.20435 2.31607 7.44129 2.87868 6.87868C3.44129 6.31607 4.20435 6 5 6H7ZM9.29289 4.29289C9.48043 4.10536 9.73478 4 10 4H14C14.2652 4 14.5196 4.10536 14.7071 4.29289C14.8946 4.48043 15 4.73478 15 5V6H9V5C9 4.73478 9.10536 4.48043 9.29289 4.29289ZM12.75 10.7839C12.75 10.3697 12.4142 10.0339 12 10.0339C11.5858 10.0339 11.25 10.3697 11.25 10.7839V13.0339H9C8.58579 13.0339 8.25 13.3697 8.25 13.7839C8.25 14.1981 8.58579 14.5339 9 14.5339H11.25V16.7839C11.25 17.1981 11.5858 17.5339 12 17.5339C12.4142 17.5339 12.75 17.1981 12.75 16.7839V14.5339H15C15.4142 14.5339 15.75 14.1981 15.75 13.7839C15.75 13.3697 15.4142 13.0339 15 13.0339H12.75V10.7839Z" fill="var(--svg-base)"/>
</svg>
