<svg width="24" height="24" viewBox="0 0 24 24" fill="none" xmlns="http://www.w3.org/2000/svg">
<path d="M12.8299 4.47594C13.6707 3.63518 14.811 3.16284 16 3.16284C17.189 3.16284 18.3294 3.63518 19.1701 4.47594C20.0109 5.31669 20.4832 6.45701 20.4832 7.64602C20.4832 8.83504 20.0109 9.97535 19.1701 10.8161C18.3294 11.6569 17.189 12.1292 16 12.1292C14.811 12.1292 13.6707 11.6569 12.8299 10.8161C11.9892 9.97535 11.5168 8.83504 11.5168 7.64602C11.5168 6.45701 11.9892 5.31669 12.8299 4.47594Z" fill="var(--svg-base)"/>
<path d="M11.0884 14.9254C11.9291 14.0846 13.0694 13.6123 14.2584 13.6123H17.7416C18.9306 13.6123 20.071 14.0846 20.9117 14.9254C21.7525 15.7662 22.2248 16.9065 22.2248 18.0955V19.8371C22.2248 20.3894 21.7771 20.8371 21.2248 20.8371H10.7753C10.223 20.8371 9.77527 20.3894 9.77527 19.8371V18.0955C9.77527 16.9065 10.2476 15.7662 11.0884 14.9254Z" fill="var(--svg-base)"/>
<path d="M4.46967 8.46967C4.76256 8.17678 5.23744 8.17678 5.53033 8.46967C5.82322 8.76256 5.82322 9.23744 5.53033 9.53033L3.81066 11.25H9C9.41421 11.25 9.75 11.5858 9.75 12C9.75 12.4142 9.41421 12.75 9 12.75H3.81066L5.53033 14.4697C5.82322 14.7626 5.82322 15.2374 5.53033 15.5303C5.23744 15.8232 4.76256 15.8232 4.46967 15.5303L1.46967 12.5303C1.17678 12.2374 1.17678 11.7626 1.46967 11.4697L4.46967 8.46967Z" fill="var(--svg-base)"/>
</svg>
