<svg width="24" height="24" viewBox="0 0 24 24" fill="none" xmlns="http://www.w3.org/2000/svg">
<path d="M16 3.16284C14.811 3.16284 13.6707 3.63518 12.8299 4.47594C11.9892 5.31669 11.5168 6.45701 11.5168 7.64602C11.5168 8.83504 11.9892 9.97535 12.8299 10.8161C13.6707 11.6569 14.811 12.1292 16 12.1292C17.189 12.1292 18.3294 11.6569 19.1701 10.8161C20.0109 9.97535 20.4832 8.83504 20.4832 7.64602C20.4832 6.45701 20.0109 5.31669 19.1701 4.47594C18.3294 3.63518 17.189 3.16284 16 3.16284Z" fill="var(--svg-base)"/>
<path d="M14.2584 13.6123C13.0694 13.6123 11.9291 14.0846 11.0884 14.9254C10.2476 15.7662 9.77527 16.9065 9.77527 18.0955V19.8371C9.77527 20.3894 10.223 20.8371 10.7753 20.8371H21.2248C21.7771 20.8371 22.2248 20.3894 22.2248 19.8371V18.0955C22.2248 16.9065 21.7525 15.7662 20.9117 14.9254C20.071 14.0846 18.9306 13.6123 17.7416 13.6123H14.2584Z" fill="var(--svg-base)"/>
<path fill-rule="evenodd" clip-rule="evenodd" d="M9.03033 11.9697C9.32322 12.2626 9.32322 12.7374 9.03033 13.0303L6.03033 16.0303C5.73744 16.3232 5.26256 16.3232 4.96967 16.0303L1.96967 13.0303C1.67678 12.7374 1.67678 12.2626 1.96967 11.9697C2.26256 11.6768 2.73744 11.6768 3.03033 11.9697L4.75 13.6893L4.75 8.5C4.75 8.08579 5.08579 7.75 5.5 7.75C5.91421 7.75 6.25 8.08579 6.25 8.5L6.25 13.6893L7.96967 11.9697C8.26256 11.6768 8.73744 11.6768 9.03033 11.9697Z" fill="var(--svg-base)"/>
</svg>
