<svg width="24" height="24" viewBox="0 0 24 24" fill="none" xmlns="http://www.w3.org/2000/svg">
<path d="M16 3.16284C14.811 3.16284 13.6707 3.63518 12.8299 4.47594C11.9892 5.31669 11.5168 6.45701 11.5168 7.64602C11.5168 8.83504 11.9892 9.97535 12.8299 10.8161C13.6707 11.6569 14.811 12.1292 16 12.1292C17.189 12.1292 18.3294 11.6569 19.1701 10.8161C20.0109 9.97535 20.4832 8.83504 20.4832 7.64602C20.4832 6.45701 20.0109 5.31669 19.1701 4.47594C18.3294 3.63518 17.189 3.16284 16 3.16284Z" fill="var(--svg-base)"/>
<path d="M14.2584 13.6123C13.0694 13.6123 11.9291 14.0846 11.0884 14.9254C10.2476 15.7662 9.77527 16.9065 9.77527 18.0955V19.8371C9.77527 20.3894 10.223 20.8371 10.7753 20.8371H21.2248C21.7771 20.8371 22.2248 20.3894 22.2248 19.8371V18.0955C22.2248 16.9065 21.7525 15.7662 20.9117 14.9254C20.071 14.0846 18.9306 13.6123 17.7416 13.6123H14.2584Z" fill="var(--svg-base)"/>
<path fill-rule="evenodd" clip-rule="evenodd" d="M1.96967 12.0303C1.67678 11.7374 1.67678 11.2626 1.96967 10.9697L4.96967 7.96967C5.26256 7.67678 5.73744 7.67678 6.03033 7.96967L9.03033 10.9697C9.32322 11.2626 9.32322 11.7374 9.03033 12.0303C8.73744 12.3232 8.26256 12.3232 7.96967 12.0303L6.25 10.3107V15.5C6.25 15.9142 5.91421 16.25 5.5 16.25C5.08579 16.25 4.75 15.9142 4.75 15.5L4.75 10.3107L3.03033 12.0303C2.73744 12.3232 2.26256 12.3232 1.96967 12.0303Z" fill="var(--svg-base)"/>
</svg>
