<svg width="24" height="24" viewBox="0 0 24 24" fill="none" xmlns="http://www.w3.org/2000/svg">
<path d="M10.389 2.5C7.33471 2.5 4.5 4.55755 4.5 7.49576V13.5023C4.5 14.0546 4.94772 14.5023 5.5 14.5023H18.5C19.0523 14.5023 19.5 14.0546 19.5 13.5023V7.49576C19.5 4.55755 16.6653 2.5 13.611 2.5H10.389Z" fill="var(--svg-base)"/>
<path d="M5.54619 15.75C4.28964 15.75 3.25 16.7558 3.25 18.0222V18.9778C3.25 20.2434 4.28944 21.25 5.54619 21.25H18.4538C19.7114 21.25 20.75 20.2432 20.75 18.9778V18.0222C20.75 16.7568 19.7114 15.75 18.4538 15.75H5.54619Z" fill="var(--svg-base)"/>
</svg>
