<svg width="24" height="24" viewBox="0 0 24 24" fill="none" xmlns="http://www.w3.org/2000/svg">
<path d="M11.25 4H5C4.20435 4 3.44129 4.31607 2.87868 4.87868C2.31607 5.44129 2 6.20435 2 7V8.25H4.43373C4.84794 8.25 5.18373 8.58579 5.18373 9V15C5.18373 15.4142 4.84794 15.75 4.43373 15.75H2V17C2 17.7956 2.31607 18.5587 2.87868 19.1213C3.44129 19.6839 4.20435 20 5 20H11.25V15.6742C10.5349 15.5283 9.87214 15.1754 9.34835 14.6517C8.64509 13.9484 8.25 12.9946 8.25 12C8.25 11.0054 8.64509 10.0516 9.34835 9.34835C9.87214 8.82456 10.5349 8.47173 11.25 8.32575V4Z" fill="var(--svg-base)"/>
<path d="M12.75 20H19C19.7957 20 20.5587 19.6839 21.1213 19.1213C21.6839 18.5587 22 17.7957 22 17V15.75H19.557C19.1428 15.75 18.807 15.4142 18.807 15V9C18.807 8.58579 19.1428 8.25 19.557 8.25H22V7C22 6.20435 21.6839 5.44129 21.1213 4.87868C20.5587 4.31607 19.7957 4 19 4H12.75V8.32575C13.4651 8.47173 14.1279 8.82456 14.6517 9.34835C15.3549 10.0516 15.75 11.0054 15.75 12C15.75 12.9946 15.3549 13.9484 14.6517 14.6517C14.1279 15.1754 13.4651 15.5283 12.75 15.6742V20Z" fill="var(--svg-base)"/>
<path d="M11.25 9.87868C10.9366 9.9895 10.6486 10.1695 10.409 10.409C9.98705 10.831 9.75 11.4033 9.75 12C9.75 12.5967 9.98705 13.169 10.409 13.591C10.6486 13.8305 10.9366 14.0105 11.25 14.1213V9.87868Z" fill="var(--svg-base)"/>
<path d="M12.75 9.87868C13.0634 9.9895 13.3514 10.1695 13.591 10.409C14.0129 10.831 14.25 11.4033 14.25 12C14.25 12.5967 14.0129 13.169 13.591 13.591C13.3514 13.8305 13.0634 14.0105 12.75 14.1213V9.87868Z" fill="var(--svg-base)"/>
<path d="M20.307 9.75H22V14.25H20.307V9.75Z" fill="var(--svg-base)"/>
<path d="M2 14.25H3.68373V9.75H2V14.25Z" fill="var(--svg-base)"/>
</svg>
