<svg width="24" height="24" viewBox="0 0 24 24" fill="none" xmlns="http://www.w3.org/2000/svg">
<path d="M4 2C3.46957 2 2.96086 2.21071 2.58579 2.58579C2.21071 2.96086 2 3.46957 2 4V8C2 8.53043 2.21071 9.03914 2.58579 9.41421C2.96086 9.78929 3.46957 10 4 10H8C8.53043 10 9.03914 9.78929 9.41421 9.41421C9.78929 9.03914 10 8.53043 10 8V4C10 3.46957 9.78929 2.96086 9.41421 2.58579C9.03914 2.21071 8.53043 2 8 2H4Z" fill="var(--svg-base)"/>
<path d="M16 14C15.4696 14 14.9609 14.2107 14.5858 14.5858C14.2107 14.9609 14 15.4696 14 16V20C14 20.5304 14.2107 21.0391 14.5858 21.4142C14.9609 21.7893 15.4696 22 16 22H20C20.5304 22 21.0391 21.7893 21.4142 21.4142C21.7893 21.0391 22 20.5304 22 20V16C22 15.4696 21.7893 14.9609 21.4142 14.5858C21.0391 14.2107 20.5304 14 20 14H16Z" fill="var(--svg-base)"/>
<path d="M16.7071 2.29289C17.0976 2.68342 17.0976 3.31658 16.7071 3.70711L15.4142 5H19C19.7957 5 20.5587 5.31607 21.1213 5.87868C21.6839 6.44129 22 7.20435 22 8V11C22 11.5523 21.5523 12 21 12C20.4477 12 20 11.5523 20 11V8C20 7.73478 19.8946 7.48043 19.7071 7.29289C19.5196 7.10536 19.2652 7 19 7H15.4142L16.7071 8.29289C17.0976 8.68342 17.0976 9.31658 16.7071 9.70711C16.3166 10.0976 15.6834 10.0976 15.2929 9.70711L12.2929 6.70711C11.9024 6.31658 11.9024 5.68342 12.2929 5.29289L15.2929 2.29289C15.6834 1.90237 16.3166 1.90237 16.7071 2.29289Z" fill="var(--svg-base)"/>
<path d="M4 13C4 12.4477 3.55228 12 3 12C2.44772 12 2 12.4477 2 13V16C2 16.7956 2.31607 17.5587 2.87868 18.1213C3.44129 18.6839 4.20435 19 5 19H8.58579L7.29289 20.2929C6.90237 20.6834 6.90237 21.3166 7.29289 21.7071C7.68342 22.0976 8.31658 22.0976 8.70711 21.7071L11.7071 18.7071C12.0976 18.3166 12.0976 17.6834 11.7071 17.2929L8.70711 14.2929C8.31658 13.9024 7.68342 13.9024 7.29289 14.2929C6.90237 14.6834 6.90237 15.3166 7.29289 15.7071L8.58579 17H5C4.73478 17 4.48043 16.8946 4.29289 16.7071C4.10536 16.5196 4 16.2652 4 16V13Z" fill="var(--svg-base)"/>
</svg>
