<svg width="24" height="24" viewBox="0 0 24 24" fill="none" xmlns="http://www.w3.org/2000/svg">
<path d="M13.2499 20.7928C12.8869 20.7909 12.5246 20.76 12.1665 20.7003C10.7249 20.4382 9.41998 19.6813 8.47668 18.5602C7.53338 17.439 7.01085 16.0239 6.99916 14.5587V14.517L2.76057 13.4786C2.31318 13.369 1.99854 12.9679 1.99854 12.5073V9.29126C1.99854 8.73898 2.44625 8.29126 2.99854 8.29126H8.57203C8.92932 8.29126 9.25947 8.48189 9.43809 8.79133L10.3329 10.3415L11.2277 8.79133C11.4064 8.48189 11.7365 8.29126 12.0938 8.29126H13.425C13.4529 8.29192 13.4808 8.2947 13.5083 8.29959C13.5358 8.30449 13.5637 8.30727 13.5917 8.30793C14.7561 8.37259 15.8794 8.76103 16.835 9.42953C17.7907 10.098 18.5407 11.02 19.0007 12.0917C19.343 12.0222 19.6961 12.0252 20.0372 12.1005C20.3783 12.1758 20.6999 12.3218 20.9811 12.529C21.2624 12.7361 21.4971 13 21.6702 13.3034C21.8432 13.6069 21.9508 13.9432 21.9859 14.2908C22.021 14.6383 21.9829 14.9894 21.874 15.3213C21.7651 15.6532 21.5879 15.9587 21.3538 16.2179C21.1196 16.4772 20.8338 16.6845 20.5146 16.8265C20.1954 16.9685 19.8501 17.042 19.5007 17.0424C19.3328 17.042 19.1653 17.0253 19.0007 16.9924C18.8435 17.356 18.6538 17.7047 18.4339 18.0342C17.9807 18.6987 17.4072 19.2725 16.7429 19.726C15.7115 20.4231 14.4948 20.7947 13.2499 20.7928ZM19.5007 12.8752C19.4255 12.8766 19.3504 12.8822 19.2757 12.8918C19.5757 13.9715 19.5757 15.1126 19.2757 16.1923H19.2932C19.362 16.2016 19.4313 16.2072 19.5007 16.2089C19.9428 16.2089 20.3668 16.0333 20.6794 15.7207C20.992 15.4081 21.1676 14.9841 21.1676 14.542C21.1676 14.1 20.992 13.676 20.6794 13.3634C20.3668 13.0508 19.9428 12.8752 19.5007 12.8752Z" fill="var(--svg-base)"/>
<path d="M9.08273 6.20759C9.19326 6.20759 9.29925 6.16369 9.3774 6.08554C9.45555 6.00739 9.49945 5.90139 9.49945 5.79087V4.12399C9.49945 4.01347 9.45555 3.90748 9.3774 3.82933C9.29925 3.75118 9.19326 3.70728 9.08273 3.70728C8.97221 3.70728 8.86622 3.75118 8.78807 3.82933C8.70992 3.90748 8.66602 4.01347 8.66602 4.12399V5.79087C8.66602 5.90139 8.70992 6.00739 8.78807 6.08554C8.86622 6.16369 8.97221 6.20759 9.08273 6.20759Z" fill="var(--svg-base)"/>
<path d="M11.288 6.67425L12.4665 5.49577C12.5424 5.41718 12.5844 5.31191 12.5834 5.20265C12.5825 5.09339 12.5387 4.98887 12.4614 4.91161C12.3841 4.83434 12.2796 4.79052 12.1704 4.78957C12.0611 4.78862 11.9558 4.83062 11.8772 4.90653L10.6988 6.08501C10.6229 6.1636 10.5809 6.26887 10.5818 6.37813C10.5828 6.48739 10.6266 6.59191 10.7038 6.66917C10.7811 6.74644 10.8856 6.79026 10.9949 6.79121C11.1041 6.79216 11.2094 6.75016 11.288 6.67425Z" fill="var(--svg-base)"/>
<path d="M6.87651 6.67425C6.95511 6.75016 7.06037 6.79216 7.16963 6.79121C7.2789 6.79026 7.38342 6.74644 7.46068 6.66917C7.53794 6.59191 7.58177 6.48739 7.58272 6.37813C7.58367 6.26887 7.54166 6.1636 7.46575 6.08501L6.28727 4.90653C6.20868 4.83062 6.10342 4.78862 5.99415 4.78957C5.88489 4.79052 5.78037 4.83434 5.70311 4.91161C5.62585 4.98887 5.58202 5.09339 5.58107 5.20265C5.58012 5.31191 5.62212 5.41718 5.69803 5.49577L6.87651 6.67425Z" fill="var(--svg-base)"/>
</svg>
