<svg width="24" height="24" viewBox="0 0 24 24" fill="none" xmlns="http://www.w3.org/2000/svg">
<path fill-rule="evenodd" clip-rule="evenodd" d="M16.3605 3.5335C15.9906 3.19041 15.5046 2.99984 15 3H9L8.85 3.005C8.34685 3.04284 7.87659 3.26947 7.5335 3.63945C7.19041 4.00943 6.99984 4.49542 7 5C7 5.26522 6.89464 5.51957 6.70711 5.70711C6.51957 5.89464 6.26522 6 6 6H5L4.824 6.005C4.06011 6.04989 3.34224 6.38499 2.81728 6.94174C2.29233 7.49849 1.99996 8.23479 2 9V18L2.005 18.176C2.04989 18.9399 2.38499 19.6578 2.94174 20.1827C3.49849 20.7077 4.23479 21 5 21H16V17C16 15.3431 17.3431 14 19 14H22V9L21.995 8.824C21.9501 8.06011 21.615 7.34224 21.0583 6.81728C20.5015 6.29233 19.7652 5.99996 19 6H18L17.883 5.993C17.6397 5.96434 17.4155 5.84741 17.2527 5.66437C17.09 5.48134 17 5.24493 17 5L16.995 4.85C16.9572 4.34684 16.7305 3.87659 16.3605 3.5335ZM9.98813 10.7744C10.5396 10.2759 11.2566 9.99994 12 10C12.587 9.99995 13.1611 10.1721 13.6511 10.4951C14.1412 10.8181 14.5258 11.2778 14.7572 11.8172C14.9887 12.3566 15.0568 12.9521 14.9531 13.5298C14.8494 14.1076 14.5786 14.6422 14.174 15.0675C13.7695 15.4928 13.2491 15.7901 12.6773 15.9226C12.1055 16.0551 11.5074 16.0169 10.957 15.8128C10.4067 15.6087 9.92832 15.2476 9.58117 14.7743C9.23402 14.301 9.03335 13.7362 9.004 13.15L9 13L9.004 12.85L9.015 12.698C9.08984 11.9584 9.43662 11.2729 9.98813 10.7744Z" fill="var(--svg-base)"/>
<path d="M20.75 15.75C20.75 15.3358 20.4142 15 20 15C19.5858 15 19.25 15.3358 19.25 15.75V17.25H17.75C17.3358 17.25 17 17.5858 17 18C17 18.4142 17.3358 18.75 17.75 18.75H19.25V20.25C19.25 20.6642 19.5858 21 20 21C20.4142 21 20.75 20.6642 20.75 20.25V18.75H22.25C22.6642 18.75 23 18.4142 23 18C23 17.5858 22.6642 17.25 22.25 17.25H20.75V15.75Z" fill="var(--svg-base)"/>
</svg>
