<svg width="24" height="24" viewBox="0 0 24 24" fill="none" xmlns="http://www.w3.org/2000/svg">
<path d="M8.70711 2.29289C8.31658 1.90237 7.68342 1.90237 7.29289 2.29289C6.90237 2.68342 6.90237 3.31658 7.29289 3.70711L9.58579 6H4.22222C3.63285 6 3.06762 6.24313 2.65087 6.67591C2.23413 7.10868 2 7.69565 2 8.30769V18.6923C2 19.3043 2.23413 19.8913 2.65087 20.3241C3.06762 20.7569 3.63285 21 4.22222 21H19.7778C20.3671 21 20.9324 20.7569 21.3491 20.3241C21.7659 19.8913 22 19.3043 22 18.6923V8.30769C22 7.69565 21.7659 7.10868 21.3491 6.67591C20.9324 6.24313 20.3671 6 19.7778 6H14.4142L16.7071 3.70711C17.0976 3.31658 17.0976 2.68342 16.7071 2.29289C16.3166 1.90237 15.6834 1.90237 15.2929 2.29289L12 5.58579L8.70711 2.29289Z" fill="var(--svg-base)"/>
</svg>
