<svg width="24" height="24" viewBox="0 0 24 24" fill="none" xmlns="http://www.w3.org/2000/svg">
<path d="M10.7805 3.15853C10.3729 3.02267 9.93016 3.03707 9.53226 3.19914C9.16889 3.34715 8.86481 3.6094 8.665 3.94473L5.51092 7.99997H4C3.46957 7.99997 2.96086 8.21069 2.58579 8.58576C2.21071 8.96083 2 9.46954 2 9.99997V14C2 14.5304 2.21071 15.0391 2.58579 15.4142C2.96086 15.7893 3.46957 16 4 16H5.51092L8.66499 20.0552C8.86481 20.3905 9.16889 20.6528 9.53226 20.8008C9.93016 20.9629 10.3729 20.9773 10.7805 20.8414C11.1881 20.7056 11.5336 20.4284 11.7547 20.06C11.9584 19.7205 12.044 19.3242 12 18.9327V5.06729C12.044 4.67571 11.9584 4.27942 11.7547 3.93995C11.5336 3.57156 11.1881 3.29439 10.7805 3.15853Z" fill="var(--svg-base)"/>
<path fill-rule="evenodd" clip-rule="evenodd" d="M15.2929 9.29289C15.6834 8.90237 16.3166 8.90237 16.7071 9.29289L18 10.5858L19.2929 9.29289C19.6834 8.90237 20.3166 8.90237 20.7071 9.29289C21.0976 9.68342 21.0976 10.3166 20.7071 10.7071L19.4142 12L20.7071 13.2929C21.0976 13.6834 21.0976 14.3166 20.7071 14.7071C20.3166 15.0976 19.6834 15.0976 19.2929 14.7071L18 13.4142L16.7071 14.7071C16.3166 15.0976 15.6834 15.0976 15.2929 14.7071C14.9024 14.3166 14.9024 13.6834 15.2929 13.2929L16.5858 12L15.2929 10.7071C14.9024 10.3166 14.9024 9.68342 15.2929 9.29289Z" fill="var(--svg-base)"/>
</svg>
