<svg width="24" height="24" viewBox="0 0 24 24" fill="none" xmlns="http://www.w3.org/2000/svg">
<path fill-rule="evenodd" clip-rule="evenodd" d="M2.7612 15.8268C2.25866 14.6136 2 13.3132 2 12C2 9.34784 3.05357 6.8043 4.92893 4.92893C6.8043 3.05357 9.34784 2 12 2C14.6522 2 17.1957 3.05357 19.0711 4.92893C20.9464 6.8043 22 9.34784 22 12C22 13.3132 21.7413 14.6136 21.2388 15.8268C20.7362 17.0401 19.9997 18.1425 19.0711 19.0711C18.1425 19.9997 17.0401 20.7362 15.8268 21.2388C14.6136 21.7413 13.3132 22 12 22C10.6868 22 9.38642 21.7413 8.17317 21.2388C6.95991 20.7362 5.85752 19.9997 4.92893 19.0711C4.00035 18.1425 3.26375 17.0401 2.7612 15.8268ZM9.66713 15.3776V8.62274C9.66711 8.54762 9.68713 8.47386 9.72513 8.40906C9.76313 8.34426 9.81773 8.29077 9.8833 8.25412C9.94886 8.21746 10.023 8.19896 10.0981 8.20053C10.1732 8.2021 10.2466 8.22368 10.3105 8.26304L15.7989 11.6405C15.8603 11.6782 15.9111 11.7311 15.9463 11.7941C15.9815 11.8571 16 11.928 16 12.0002C16 12.0723 15.9815 12.1433 15.9463 12.2062C15.9111 12.2692 15.8603 12.3221 15.7989 12.3599L10.3105 15.7373C10.2466 15.7766 10.1732 15.7982 10.0981 15.7998C10.023 15.8014 9.94886 15.7829 9.8833 15.7462C9.81773 15.7096 9.76313 15.6561 9.72513 15.5913C9.68713 15.5265 9.66711 15.4527 9.66713 15.3776Z" fill="var(--svg-base)"/>
</svg>
