<svg width="24" height="24" viewBox="0 0 24 24" fill="none" xmlns="http://www.w3.org/2000/svg">
<path fill-rule="evenodd" clip-rule="evenodd" d="M2 12C2 13.3132 2.25866 14.6136 2.7612 15.8268C3.26375 17.0401 4.00035 18.1425 4.92893 19.0711C5.85752 19.9997 6.95991 20.7362 8.17316 21.2388C9.38642 21.7413 10.6868 22 12 22C13.3132 22 14.6136 21.7413 15.8268 21.2388C17.0401 20.7362 18.1425 19.9997 19.0711 19.0711C19.9997 18.1425 20.7362 17.0401 21.2388 15.8268C21.7413 14.6136 22 13.3132 22 12C22 9.34784 20.9464 6.8043 19.0711 4.92893C17.1957 3.05357 14.6522 2 12 2C9.34783 2 6.8043 3.05357 4.92893 4.92893C3.05357 6.8043 2 9.34784 2 12ZM8.25 8.14286C8.25 7.97236 8.31585 7.80885 8.43306 7.68829C8.55027 7.56773 8.70924 7.5 8.875 7.5H10.125C10.2908 7.5 10.4497 7.56773 10.5669 7.68829C10.6842 7.80885 10.75 7.97236 10.75 8.14286V15.8571C10.75 16.0276 10.6842 16.1912 10.5669 16.3117C10.4497 16.4323 10.2908 16.5 10.125 16.5H8.875C8.70924 16.5 8.55027 16.4323 8.43306 16.3117C8.31585 16.1912 8.25 16.0276 8.25 15.8571V8.14286ZM13.4331 7.68829C13.3158 7.80885 13.25 7.97236 13.25 8.14286V15.8571C13.25 16.0276 13.3158 16.1912 13.4331 16.3117C13.5503 16.4323 13.7092 16.5 13.875 16.5H15.125C15.2908 16.5 15.4497 16.4323 15.5669 16.3117C15.6842 16.1912 15.75 16.0276 15.75 15.8571V8.14286C15.75 7.97236 15.6842 7.80885 15.5669 7.68829C15.4497 7.56773 15.2908 7.5 15.125 7.5H13.875C13.7092 7.5 13.5503 7.56773 13.4331 7.68829Z" fill="var(--svg-base)"/>
</svg>
