<svg width="24" height="24" viewBox="0 0 24 24" fill="none" xmlns="http://www.w3.org/2000/svg">
<path d="M7 4.25C6.53587 4.25 6.09075 4.43438 5.76256 4.76256C5.43438 5.09075 5.25 5.53587 5.25 6V18C5.25 18.4641 5.43437 18.9092 5.76256 19.2374C6.09075 19.5656 6.53587 19.75 7 19.75H9C9.46413 19.75 9.90925 19.5656 10.2374 19.2374C10.5656 18.9092 10.75 18.4641 10.75 18V6C10.75 5.53587 10.5656 5.09075 10.2374 4.76256C9.90925 4.43438 9.46413 4.25 9 4.25H7Z" fill="var(--svg-base)"/>
<path d="M15 4.25C14.5359 4.25 14.0908 4.43438 13.7626 4.76256C13.4344 5.09075 13.25 5.53587 13.25 6V18C13.25 18.4641 13.4344 18.9092 13.7626 19.2374C14.0908 19.5656 14.5359 19.75 15 19.75H17C17.4641 19.75 17.9092 19.5656 18.2374 19.2374C18.5656 18.9092 18.75 18.4641 18.75 18V6C18.75 5.53587 18.5656 5.09075 18.2374 4.76256C17.9092 4.43437 17.4641 4.25 17 4.25H15Z" fill="var(--svg-base)"/>
</svg>
