<svg width="24" height="24" viewBox="0 0 24 24" fill="none" xmlns="http://www.w3.org/2000/svg">
<path fill-rule="evenodd" clip-rule="evenodd" d="M14.3881 3.9214C14.8938 3.70845 15.1335 3.12767 14.9251 2.62C14.7167 2.11234 14.1381 1.86747 13.6286 2.07131L4.25756 5.82031C3.88662 5.96861 3.56859 6.22459 3.34446 6.55527C3.12023 6.88609 3.00025 7.27712 3 7.67677V18.9998C3 19.5302 3.21071 20.0389 3.58579 20.414C3.96086 20.7891 4.46957 20.9998 5 20.9998H19C19.5304 20.9998 20.0391 20.7891 20.4142 20.414C20.7893 20.0389 21 19.5302 21 18.9998V7.99977C21 7.68297 20.9248 7.3739 20.7844 7.09653C20.7627 7.05356 20.7382 7.01273 20.7112 6.97418C20.6899 6.93224 20.6656 6.89151 20.6381 6.85232C20.5718 6.75765 20.497 6.66832 20.4142 6.58555C20.0391 6.21048 19.5304 5.99977 19 5.99977H9.45194L14.3881 3.9214ZM18.9923 7.99977H4.99109V11.0098H6V10C6 9.44772 6.44772 9 7 9C7.55228 9 8 9.44772 8 10V11.0098H18.9923V7.99977ZM13 15C13.5523 15 14 15.4477 14 16V16.01C14 16.5623 13.5523 17.01 13 17.01C12.4477 17.01 12 16.5623 12 16.01V16C12 15.4477 12.4477 15 13 15ZM17 15C17.5523 15 18 15.4477 18 16V16.01C18 16.5623 17.5523 17.01 17 17.01C16.4477 17.01 16 16.5623 16 16.01V16C16 15.4477 16.4477 15 17 15Z" fill="var(--svg-base)"/>
</svg>
