<svg width="24" height="24" viewBox="0 0 24 24" fill="none" xmlns="http://www.w3.org/2000/svg">
<path fill-rule="evenodd" clip-rule="evenodd" d="M12 2C9.34784 2 6.8043 3.05357 4.92893 4.92893C3.05357 6.8043 2 9.34784 2 12C2 13.3132 2.25866 14.6136 2.7612 15.8268C3.26375 17.0401 4.00035 18.1425 4.92893 19.0711C5.85752 19.9997 6.95991 20.7362 8.17317 21.2388C9.38642 21.7413 10.6868 22 12 22C13.3132 22 14.6136 21.7413 15.8268 21.2388C17.0401 20.7362 18.1425 19.9997 19.0711 19.0711C19.9997 18.1425 20.7362 17.0401 21.2388 15.8268C21.7413 14.6136 22 13.3132 22 12C22 9.34784 20.9464 6.8043 19.0711 4.92893C17.1957 3.05357 14.6522 2 12 2ZM11.3581 14.07H12.6421L13.1101 7.17004H10.8901L11.3581 14.07ZM10.9021 15.762C10.9021 16.398 11.3341 16.83 12.0061 16.83C12.6661 16.83 13.0981 16.398 13.0981 15.762C13.0981 15.126 12.6661 14.682 12.0061 14.682C11.3341 14.682 10.9021 15.126 10.9021 15.762Z" fill="var(--svg-base)"/>
</svg>
