<svg width="24" height="24" viewBox="0 0 24 24" fill="none" xmlns="http://www.w3.org/2000/svg">
<path fill-rule="evenodd" clip-rule="evenodd" d="M10.5697 2.04289C11.0063 1.79694 11.4989 1.66772 12 1.66772C12.5011 1.66772 12.9937 1.79694 13.4303 2.04289C13.8668 2.28884 14.2326 2.64321 14.4923 3.07177L14.4949 3.07617L22.6009 16.6122L22.6093 16.6264C22.8633 17.0669 22.9976 17.5663 22.9989 18.0748C23.0002 18.5834 22.8683 19.0834 22.6165 19.5252C22.3646 19.967 22.0016 20.3352 21.5634 20.5932C21.1251 20.8512 20.627 20.99 20.1185 20.9959L20.107 20.996L3.88175 20.9959C3.37303 20.9902 2.87466 20.8514 2.43623 20.5933C1.9978 20.3352 1.63458 19.9668 1.38269 19.5248C1.13081 19.0827 0.999043 18.5825 1.0005 18.0737C1.00196 17.565 1.13659 17.0655 1.391 16.6249L1.39909 16.6111L9.48906 3.10389C9.49507 3.09308 9.50129 3.08238 9.50771 3.07177C9.76736 2.64321 10.1331 2.28884 10.5697 2.04289ZM11.468 14.4H12.752L13.22 7.5H11L11.468 14.4ZM12.104 17.398C11.432 17.398 11 16.966 11 16.33C11 15.694 11.432 15.25 12.104 15.25C12.764 15.25 13.196 15.694 13.196 16.33C13.196 16.966 12.764 17.398 12.104 17.398Z" fill="var(--svg-base)"/>
</svg>
