<svg width="24" height="24" viewBox="0 0 24 24" fill="none" xmlns="http://www.w3.org/2000/svg">
<path fill-rule="evenodd" clip-rule="evenodd" d="M2.53401 3.65901C2.11205 4.08097 1.875 4.65326 1.875 5.25V18.75C1.875 19.3467 2.11205 19.919 2.53401 20.341C2.95597 20.7629 3.52826 21 4.125 21H19.875C20.4717 21 21.044 20.7629 21.466 20.341C21.8879 19.919 22.125 19.3467 22.125 18.75V5.25C22.125 4.65326 21.8879 4.08097 21.466 3.65901C21.044 3.23705 20.4717 3 19.875 3H4.125C3.52826 3 2.95597 3.23705 2.53401 3.65901ZM7 7.25C6.58579 7.25 6.25 7.58579 6.25 8C6.25 8.41421 6.58579 8.75 7 8.75H17C17.4142 8.75 17.75 8.41421 17.75 8C17.75 7.58579 17.4142 7.25 17 7.25H7ZM7 11.25C6.58579 11.25 6.25 11.5858 6.25 12C6.25 12.4142 6.58579 12.75 7 12.75H17C17.4142 12.75 17.75 12.4142 17.75 12C17.75 11.5858 17.4142 11.25 17 11.25H7ZM7 15.25C6.58579 15.25 6.25 15.5858 6.25 16C6.25 16.4142 6.58579 16.75 7 16.75H17C17.4142 16.75 17.75 16.4142 17.75 16C17.75 15.5858 17.4142 15.25 17 15.25H7Z" fill="var(--svg-base)"/>
</svg>
