<svg width="24" height="24" viewBox="0 0 24 24" fill="none" xmlns="http://www.w3.org/2000/svg">
<path fill-rule="evenodd" clip-rule="evenodd" d="M6 6C5.73478 6 5.48043 6.10536 5.29289 6.29289C5.10536 6.48043 5 6.73478 5 7V19C5 19.2652 5.10536 19.5196 5.29289 19.7071C5.48043 19.8946 5.73478 20 6 20H18C18.2652 20 18.5196 19.8946 18.7071 19.7071C18.8946 19.5196 19 19.2652 19 19V7C19 6.73478 18.8946 6.48043 18.7071 6.29289C18.5196 6.10536 18.2652 6 18 6H6ZM3.87868 4.87868C4.44129 4.31607 5.20435 4 6 4H18C18.7956 4 19.5587 4.31607 20.1213 4.87868C20.6839 5.44129 21 6.20435 21 7V19C21 19.7957 20.6839 20.5587 20.1213 21.1213C19.5587 21.6839 18.7957 22 18 22H6C5.20435 22 4.44129 21.6839 3.87868 21.1213C3.31607 20.5587 3 19.7957 3 19V7C3 6.20435 3.31607 5.44129 3.87868 4.87868Z" fill="var(--svg-base)"/>
<path fill-rule="evenodd" clip-rule="evenodd" d="M17 3C17 2.44772 16.5523 2 16 2C15.4477 2 15 2.44772 15 3V4H9V3C9 2.44772 8.55228 2 8 2C7.44772 2 7 2.44772 7 3V4H6C5.20435 4 4.44129 4.31607 3.87868 4.87868C3.31607 5.44129 3 6.20435 3 7V19C3 19.8202 3.32917 20.5636 3.86261 21.1051C3.86794 21.1105 3.8733 21.1159 3.87868 21.1213C3.88406 21.1267 3.88946 21.1321 3.89487 21.1374C4.43644 21.6708 5.17978 22 6 22H18C19.6569 22 21 20.6569 21 19V7C21 6.20435 20.6839 5.44129 20.1213 4.87868C19.5587 4.31607 18.7956 4 18 4H17V3ZM19 10V7C19 6.73478 18.8946 6.48043 18.7071 6.29289C18.5196 6.10536 18.2652 6 18 6H17V7C17 7.55228 16.5523 8 16 8C15.4477 8 15 7.55228 15 7V6H9V7C9 7.55228 8.55228 8 8 8C7.44772 8 7 7.55228 7 7V6H6C5.73478 6 5.48043 6.10536 5.29289 6.29289C5.10536 6.48043 5 6.73478 5 7V10H19ZM10 15C10 14.4477 10.4477 14 11 14H12C12.5523 14 13 14.4477 13 15V18C13 18.5523 12.5523 19 12 19C11.4477 19 11 18.5523 11 18V16C10.4477 16 10 15.5523 10 15Z" fill="var(--svg-base)"/>
</svg>
