<svg width="24" height="24" viewBox="0 0 24 24" fill="none" xmlns="http://www.w3.org/2000/svg">
<path fill-rule="evenodd" clip-rule="evenodd" d="M17 3C17 2.44772 16.5523 2 16 2C15.4477 2 15 2.44772 15 3V4H9V3C9 2.44772 8.55228 2 8 2C7.44772 2 7 2.44772 7 3V4H6C5.20435 4 4.44129 4.31607 3.87868 4.87868C3.31607 5.44129 3 6.20435 3 7V10V19C3 19.8202 3.32917 20.5636 3.86261 21.1051C3.86794 21.1105 3.8733 21.1159 3.87868 21.1213C3.88406 21.1267 3.88946 21.1321 3.89487 21.1374C4.43644 21.6708 5.17978 22 6 22H18C19.6569 22 21 20.6569 21 19V10V7C21 6.20435 20.6839 5.44129 20.1213 4.87868C19.5587 4.31607 18.7956 4 18 4H17V3ZM19 10V7C19 6.73478 18.8946 6.48043 18.7071 6.29289C18.5196 6.10536 18.2652 6 18 6H17V7C17 7.55228 16.5523 8 16 8C15.4477 8 15 7.55228 15 7V6H9V7C9 7.55228 8.55228 8 8 8C7.44772 8 7 7.55228 7 7V6H6C5.73478 6 5.48043 6.10536 5.29289 6.29289C5.10536 6.48043 5 6.73478 5 7V10H19ZM6 14C6 13.4477 6.44772 13 7 13H7.013C7.56528 13 8.013 13.4477 8.013 14C8.013 14.5523 7.56528 15 7.013 15H7C6.44772 15 6 14.5523 6 14ZM10.01 13C9.45773 13 9.01001 13.4477 9.01001 14C9.01001 14.5523 9.45773 15 10.01 15H10.015C10.5673 15 11.015 14.5523 11.015 14C11.015 13.4477 10.5673 13 10.015 13H10.01ZM12.01 14C12.01 13.4477 12.4577 13 13.01 13H13.015C13.5673 13 14.015 13.4477 14.015 14C14.015 14.5523 13.5673 15 13.015 15H13.01C12.4577 15 12.01 14.5523 12.01 14ZM16.015 13C15.4627 13 15.015 13.4477 15.015 14C15.015 14.5523 15.4627 15 16.015 15H16.02C16.5723 15 17.02 14.5523 17.02 14C17.02 13.4477 16.5723 13 16.02 13H16.015ZM12.015 17C12.015 16.4477 12.4627 16 13.015 16H13.02C13.5723 16 14.02 16.4477 14.02 17C14.02 17.5523 13.5723 18 13.02 18H13.015C12.4627 18 12.015 17.5523 12.015 17ZM7.01001 16C6.45773 16 6.01001 16.4477 6.01001 17C6.01001 17.5523 6.45773 18 7.01001 18H7.01501C7.56729 18 8.01501 17.5523 8.01501 17C8.01501 16.4477 7.56729 16 7.01501 16H7.01001ZM9.01001 17C9.01001 16.4477 9.45773 16 10.01 16H10.015C10.5673 16 11.015 16.4477 11.015 17C11.015 17.5523 10.5673 18 10.015 18H10.01C9.45773 18 9.01001 17.5523 9.01001 17Z" fill="var(--svg-base)"/>
</svg>
