<svg width="24" height="24" viewBox="0 0 24 24" fill="none" xmlns="http://www.w3.org/2000/svg">
<path fill-rule="evenodd" clip-rule="evenodd" d="M16 2C16.5523 2 17 2.44772 17 3V4H18C18.7956 4 19.5587 4.31607 20.1213 4.87868C20.6839 5.44129 21 6.20435 21 7V14L17 14C15.3431 14 14 15.3431 14 17V22H6C5.17978 22 4.43644 21.6708 3.89487 21.1374L3.87868 21.1213L3.86261 21.1051C3.32917 20.5636 3 19.8202 3 19V7C3 6.20435 3.31607 5.44129 3.87868 4.87868C4.44129 4.31607 5.20435 4 6 4H7V3C7 2.44772 7.44772 2 8 2C8.55228 2 9 2.44772 9 3V4H15V3C15 2.44772 15.4477 2 16 2ZM19 7V10H5V7C5 6.73478 5.10536 6.48043 5.29289 6.29289C5.48043 6.10536 5.73478 6 6 6H7V7C7 7.55228 7.44772 8 8 8C8.55228 8 9 7.55228 9 7V6H15V7C15 7.55228 15.4477 8 16 8C16.5523 8 17 7.55228 17 7V6H18C18.2652 6 18.5196 6.10536 18.7071 6.29289C18.8946 6.48043 19 6.73478 19 7Z" fill="var(--svg-base)"/>
<path fill-rule="evenodd" clip-rule="evenodd" d="M15 19C15 18.4477 15.4477 18 16 18H22C22.5523 18 23 18.4477 23 19C23 19.5523 22.5523 20 22 20H16C15.4477 20 15 19.5523 15 19Z" fill="var(--svg-base)"/>
<path fill-rule="evenodd" clip-rule="evenodd" d="M19 15C19.5523 15 20 15.4477 20 16V22C20 22.5523 19.5523 23 19 23C18.4477 23 18 22.5523 18 22V16C18 15.4477 18.4477 15 19 15Z" fill="var(--svg-base)"/>
</svg>
