<svg width="24" height="24" viewBox="0 0 24 24" fill="none" xmlns="http://www.w3.org/2000/svg">
<path fill-rule="evenodd" clip-rule="evenodd" d="M8.17317 2.7612C9.38642 2.25866 10.6868 2 12 2C14.6522 2 17.1957 3.05357 19.0711 4.92893C20.9464 6.8043 22 9.34784 22 12C22 14.6522 20.9464 17.1957 19.0711 19.0711C17.1957 20.9464 14.6522 22 12 22C10.6868 22 9.38642 21.7413 8.17317 21.2388C6.95991 20.7362 5.85752 19.9997 4.92893 19.0711C4.00035 18.1425 3.26375 17.0401 2.7612 15.8268C2.25866 14.6136 2 13.3132 2 12C2 10.6868 2.25866 9.38642 2.7612 8.17317C3.26375 6.95991 4.00035 5.85752 4.92893 4.92893C5.85752 4.00035 6.95991 3.26375 8.17317 2.7612ZM8.53033 9.96967C8.23744 9.67678 7.76256 9.67678 7.46967 9.96967C7.17678 10.2626 7.17678 10.7374 7.46967 11.0303L11.4697 15.0303C11.7626 15.3232 12.2374 15.3232 12.5303 15.0303L16.5303 11.0303C16.8232 10.7374 16.8232 10.2626 16.5303 9.96967C16.2374 9.67678 15.7626 9.67678 15.4697 9.96967L12 13.4393L8.53033 9.96967Z" fill="var(--svg-base)"/>
</svg>
