<svg width="24" height="24" viewBox="0 0 24 24" fill="none" xmlns="http://www.w3.org/2000/svg">
<path fill-rule="evenodd" clip-rule="evenodd" d="M2.7612 15.8268C2.25866 14.6136 2 13.3132 2 12C2 10.6868 2.25866 9.38642 2.7612 8.17317C3.26375 6.95991 4.00035 5.85752 4.92893 4.92893C5.85752 4.00035 6.95991 3.26375 8.17316 2.7612C9.38642 2.25866 10.6868 2 12 2C13.3132 2 14.6136 2.25866 15.8268 2.7612C17.0401 3.26375 18.1425 4.00035 19.0711 4.92893C19.9997 5.85752 20.7362 6.95991 21.2388 8.17317C21.7413 9.38642 22 10.6868 22 12C22 13.3132 21.7413 14.6136 21.2388 15.8268C20.7362 17.0401 19.9997 18.1425 19.0711 19.0711C18.1425 19.9997 17.0401 20.7362 15.8268 21.2388C14.6136 21.7413 13.3132 22 12 22C10.6868 22 9.38642 21.7413 8.17316 21.2388C6.95991 20.7362 5.85752 19.9997 4.92893 19.0711C4.00035 18.1425 3.26375 17.0401 2.7612 15.8268ZM12.5303 8.96967C12.2374 8.67678 11.7626 8.67678 11.4697 8.96967L7.46967 12.9697C7.17678 13.2626 7.17678 13.7374 7.46967 14.0303C7.76256 14.3232 8.23744 14.3232 8.53033 14.0303L12 10.5607L15.4697 14.0303C15.7626 14.3232 16.2374 14.3232 16.5303 14.0303C16.8232 13.7374 16.8232 13.2626 16.5303 12.9697L12.5303 8.96967Z" fill="var(--svg-base)"/>
</svg>
