<svg width="24" height="24" viewBox="0 0 24 24" fill="none" xmlns="http://www.w3.org/2000/svg">
<g clip-path="url(#clip0_494_1999)">
<path d="M17 3.33989C18.5083 4.21075 19.7629 5.46042 20.6398 6.96519C21.5167 8.46997 21.9854 10.1777 21.9994 11.9192C22.0135 13.6608 21.5725 15.3758 20.72 16.8946C19.8676 18.4133 18.6332 19.6831 17.1392 20.5782C15.6452 21.4733 13.9434 21.9627 12.2021 21.998C10.4608 22.0332 8.74055 21.6131 7.21155 20.7791C5.68256 19.9452 4.39787 18.7264 3.48467 17.2434C2.57146 15.7604 2.06141 14.0646 2.005 12.3239L2 11.9999L2.005 11.6759C2.061 9.94888 2.56355 8.26585 3.46364 6.79089C4.36373 5.31592 5.63065 4.09934 7.14089 3.25977C8.65113 2.42021 10.3531 1.98629 12.081 2.00033C13.8089 2.01437 15.5036 2.47589 17 3.33989ZM15 7.99989H9L8.883 8.00689C8.63975 8.03555 8.41547 8.15249 8.25272 8.33552C8.08996 8.51856 8.00003 8.75496 8 8.99989L8.007 9.11689C8.03566 9.36014 8.15259 9.58442 8.33563 9.74718C8.51866 9.90994 8.75507 9.99986 9 9.99989H12.584L8.293 14.2929L8.21 14.3869C8.05459 14.5879 7.98151 14.8405 8.0056 15.0934C8.02969 15.3463 8.14916 15.5806 8.33972 15.7486C8.53029 15.9167 8.77767 16.0059 9.03162 15.9981C9.28557 15.9904 9.52704 15.8862 9.707 15.7069L14 11.4139V14.9999L14.007 15.1169C14.0371 15.37 14.1627 15.602 14.3582 15.7656C14.5536 15.9292 14.8042 16.012 15.0586 15.9971C15.313 15.9821 15.5522 15.8706 15.7272 15.6853C15.9021 15.4999 15.9997 15.2548 16 14.9999V8.99989L15.993 8.88289L15.964 8.73389L15.929 8.62889L15.875 8.51589L15.804 8.40489C15.7745 8.36523 15.742 8.3278 15.707 8.29289L15.617 8.21289L15.521 8.14589L15.423 8.09389L15.313 8.04989L15.201 8.01989L15.075 8.00289L15 7.99989Z" fill="var(--svg-base)"/>
</g>
<defs>
<clipPath id="clip0_494_1999">
<rect width="24" height="24" fill="white"/>
</clipPath>
</defs>
</svg>
