<svg width="24" height="24" viewBox="0 0 24 24" fill="none" xmlns="http://www.w3.org/2000/svg">
<path fill-rule="evenodd" clip-rule="evenodd" d="M15.8268 21.2388C14.6136 21.7413 13.3132 22 12 22C9.34784 22 6.8043 20.9464 4.92893 19.0711C3.05357 17.1957 2 14.6522 2 12C2 9.34784 3.05357 6.8043 4.92893 4.92893C6.8043 3.05357 9.34784 2 12 2C13.3132 2 14.6136 2.25866 15.8268 2.7612C17.0401 3.26375 18.1425 4.00035 19.0711 4.92893C19.9997 5.85752 20.7362 6.95991 21.2388 8.17317C21.7413 9.38642 22 10.6868 22 12C22 13.3132 21.7413 14.6136 21.2388 15.8268C20.7362 17.0401 19.9997 18.1425 19.0711 19.0711C18.1425 19.9997 17.0401 20.7362 15.8268 21.2388ZM12.5303 8.53033C12.8232 8.23744 12.8232 7.76256 12.5303 7.46967C12.2374 7.17678 11.7626 7.17678 11.4697 7.46967L7.46967 11.4697C7.17678 11.7626 7.17678 12.2374 7.46967 12.5303L11.4697 16.5303C11.7626 16.8232 12.2374 16.8232 12.5303 16.5303C12.8232 16.2374 12.8232 15.7626 12.5303 15.4697L9.81066 12.75H16C16.4142 12.75 16.75 12.4142 16.75 12C16.75 11.5858 16.4142 11.25 16 11.25H9.81066L12.5303 8.53033Z" fill="var(--svg-base)"/>
</svg>
