<svg width="24" height="24" viewBox="0 0 24 24" fill="none" xmlns="http://www.w3.org/2000/svg">
<g clip-path="url(#clip0_494_1998)">
<path d="M17 3.33989C18.5083 4.21075 19.7629 5.46042 20.6398 6.96519C21.5167 8.46997 21.9854 10.1777 21.9994 11.9192C22.0135 13.6608 21.5725 15.3758 20.72 16.8946C19.8676 18.4133 18.6332 19.6831 17.1392 20.5782C15.6452 21.4733 13.9434 21.9627 12.2021 21.998C10.4608 22.0332 8.74055 21.6131 7.21155 20.7791C5.68256 19.9452 4.39787 18.7264 3.48467 17.2434C2.57146 15.7604 2.06141 14.0646 2.005 12.3239L2 11.9999L2.005 11.6759C2.061 9.94888 2.56355 8.26585 3.46364 6.79089C4.36373 5.31592 5.63065 4.09934 7.14089 3.25977C8.65113 2.42021 10.3531 1.98629 12.081 2.00033C13.8089 2.01437 15.5036 2.47589 17 3.33989ZM15 7.99989H9L8.883 8.00689L8.734 8.03589L8.629 8.07089L8.516 8.12489L8.405 8.19589C8.36534 8.22544 8.32791 8.25786 8.293 8.29289L8.213 8.38289L8.146 8.47889L8.094 8.57689L8.05 8.68689L8.02 8.79889L8.003 8.92489L8 14.9999L8.007 15.1169C8.03566 15.3601 8.15259 15.5844 8.33563 15.7472C8.51866 15.9099 8.75507 15.9999 9 15.9999L9.117 15.9929C9.36025 15.9642 9.58453 15.8473 9.74728 15.6643C9.91004 15.4812 9.99997 15.2448 10 14.9999V11.4149L14.293 15.7069L14.387 15.7899C14.588 15.9453 14.8406 16.0184 15.0935 15.9943C15.3464 15.9702 15.5807 15.8507 15.7488 15.6602C15.9168 15.4696 16.006 15.2222 15.9982 14.9683C15.9905 14.7143 15.8863 14.4728 15.707 14.2929L11.415 9.99989H15L15.117 9.99289C15.3701 9.96279 15.6021 9.83718 15.7657 9.64173C15.9293 9.44627 16.0121 9.19573 15.9972 8.94129C15.9822 8.68685 15.8707 8.44771 15.6854 8.27274C15.5 8.09777 15.2549 8.00018 15 7.99989Z" fill="var(--svg-base)"/>
</g>
<defs>
<clipPath id="clip0_494_1998">
<rect width="24" height="24" fill="white"/>
</clipPath>
</defs>
</svg>
