<svg width="24" height="24" viewBox="0 0 24 24" fill="none" xmlns="http://www.w3.org/2000/svg">
<path fill-rule="evenodd" clip-rule="evenodd" d="M2.7612 15.8268C2.25866 14.6136 2 13.3132 2 12C2 9.34784 3.05357 6.8043 4.92893 4.92893C6.8043 3.05357 9.34784 2 12 2C14.6522 2 17.1957 3.05357 19.0711 4.92893C20.9464 6.8043 22 9.34784 22 12C22 13.3132 21.7413 14.6136 21.2388 15.8268C20.7362 17.0401 19.9997 18.1425 19.0711 19.0711C18.1425 19.9997 17.0401 20.7362 15.8268 21.2388C14.6136 21.7413 13.3132 22 12 22C10.6868 22 9.38642 21.7413 8.17317 21.2388C6.95991 20.7362 5.85752 19.9997 4.92893 19.0711C4.00035 18.1425 3.26375 17.0401 2.7612 15.8268ZM16.5303 11.4697L12.5303 7.46967C12.2374 7.17678 11.7626 7.17678 11.4697 7.46967L7.46967 11.4697C7.17678 11.7626 7.17678 12.2374 7.46967 12.5303C7.76256 12.8232 8.23744 12.8232 8.53033 12.5303L11.25 9.81066V16C11.25 16.4142 11.5858 16.75 12 16.75C12.4142 16.75 12.75 16.4142 12.75 16V9.81066L15.4697 12.5303C15.7626 12.8232 16.2374 12.8232 16.5303 12.5303C16.8232 12.2374 16.8232 11.7626 16.5303 11.4697Z" fill="var(--svg-base)"/>
</svg>
