<svg width="24" height="24" viewBox="0 0 24 24" fill="none" xmlns="http://www.w3.org/2000/svg">
<path d="M3.70711 2.29289C3.31658 1.90237 2.68342 1.90237 2.29289 2.29289C1.90237 2.68342 1.90237 3.31658 2.29289 3.70711L2.87556 4.28978C2.70431 4.65002 2.6084 5.05253 2.6084 5.47675V14.3656L2.6084 14.3681C2.60958 14.8579 2.74006 15.3387 2.98664 15.7619C3.23322 16.1852 3.58716 16.5358 4.0127 16.7784C4.49249 17.0519 5.10318 16.8847 5.3767 16.4049C5.65022 15.9251 5.48301 15.3144 5.00321 15.0409C4.88357 14.9727 4.78406 14.8741 4.71474 14.7551C4.64557 14.6364 4.6089 14.5016 4.6084 14.3642V6.02261L6.9427 8.35692C6.69047 8.83645 6.55518 9.3743 6.55518 9.92609V17.6292C6.55518 18.0718 6.64236 18.5101 6.81175 18.9191C6.98114 19.328 7.22943 19.6996 7.54242 20.0126C7.85541 20.3256 8.22699 20.5739 8.63594 20.7433C9.04489 20.9127 9.4832 20.9999 9.92584 20.9999H17.629C18.0716 20.9999 18.5099 20.9127 18.9189 20.7433C19.0141 20.7039 19.1072 20.6601 19.1981 20.6123L20.2929 21.7071C20.6834 22.0976 21.3166 22.0976 21.7071 21.7071C22.0976 21.3166 22.0976 20.6834 21.7071 20.2929L3.70711 2.29289Z" fill="#001838"/>
<path d="M8.54827 4.69897C8.28274 4.69897 8.02811 4.59337 7.84052 4.40544C7.21144 3.77521 7.6578 2.69897 8.54827 2.69897H14.2751C14.7958 2.69897 15.2642 2.8381 15.6652 3.12915C16.0445 3.40448 16.2968 3.76826 16.4824 4.10186C16.7508 4.58453 16.5771 5.19341 16.0944 5.46182C15.6117 5.73023 15.0029 5.55654 14.7344 5.07387C14.616 4.8608 14.535 4.78013 14.4903 4.74769C14.4673 4.73096 14.421 4.69897 14.2751 4.69897H8.54827Z" fill="#001838"/>
<path d="M11.69 8.26188C11.0609 7.63166 11.5072 6.55542 12.3977 6.55542H17.629C18.0716 6.55542 18.5099 6.6426 18.9189 6.812C19.3278 6.98139 19.6994 7.22967 20.0124 7.54267C20.3254 7.85566 20.5737 8.22724 20.743 8.63619C20.9124 9.04514 20.9996 9.48345 20.9996 9.92609V15.1712C20.9996 16.0625 19.9216 16.5085 19.2919 15.8776L11.69 8.26188Z" fill="#001838"/>
</svg>
