<svg width="24" height="24" viewBox="0 0 24 24" fill="none" xmlns="http://www.w3.org/2000/svg">
<path d="M3 4.33333C3 3.97971 3.14048 3.64057 3.39052 3.39052C3.64057 3.14048 3.97971 3 4.33333 3H9.66667C10.0203 3 10.3594 3.14048 10.6095 3.39052C10.8595 3.64057 11 3.97971 11 4.33333V9.66667C11 10.0203 10.8595 10.3594 10.6095 10.6095C10.3594 10.8595 10.0203 11 9.66667 11H4.33333C3.97971 11 3.64057 10.8595 3.39052 10.6095C3.14048 10.3594 3 10.0203 3 9.66667V4.33333Z" fill="var(--svg-base)"/>
<path d="M13 4.33333C13 3.97971 13.1405 3.64057 13.3905 3.39052C13.6406 3.14048 13.9797 3 14.3333 3H19.6667C20.0203 3 20.3594 3.14048 20.6095 3.39052C20.8595 3.64057 21 3.97971 21 4.33333V9.66667C21 10.0203 20.8595 10.3594 20.6095 10.6095C20.3594 10.8595 20.0203 11 19.6667 11H14.3333C13.9797 11 13.6406 10.8595 13.3905 10.6095C13.1405 10.3594 13 10.0203 13 9.66667V4.33333Z" fill="var(--svg-base)"/>
<path d="M3 14.3333C3 13.9797 3.14048 13.6406 3.39052 13.3905C3.64057 13.1405 3.97971 13 4.33333 13H9.66667C10.0203 13 10.3594 13.1405 10.6095 13.3905C10.8595 13.6406 11 13.9797 11 14.3333V19.6667C11 20.0203 10.8595 20.3594 10.6095 20.6095C10.3594 20.8595 10.0203 21 9.66667 21H4.33333C3.97971 21 3.64057 20.8595 3.39052 20.6095C3.14048 20.3594 3 20.0203 3 19.6667V14.3333Z" fill="var(--svg-base)"/>
<path d="M13 14.3333C13 13.9797 13.1405 13.6406 13.3905 13.3905C13.6406 13.1405 13.9797 13 14.3333 13H19.6667C20.0203 13 20.3594 13.1405 20.6095 13.3905C20.8595 13.6406 21 13.9797 21 14.3333V19.6667C21 20.0203 20.8595 20.3594 20.6095 20.6095C20.3594 20.8595 20.0203 21 19.6667 21H14.3333C13.9797 21 13.6406 20.8595 13.3905 20.6095C13.1405 20.3594 13 20.0203 13 19.6667V14.3333Z" fill="var(--svg-base)"/>
</svg>
