<svg width="24" height="24" viewBox="0 0 24 24" fill="none" xmlns="http://www.w3.org/2000/svg">
<path fill-rule="evenodd" clip-rule="evenodd" d="M2.7612 15.8268C2.25866 14.6136 2 13.3132 2 12C2 9.34784 3.05357 6.8043 4.92893 4.92893C6.8043 3.05357 9.34784 2 12 2C14.6522 2 17.1957 3.05357 19.0711 4.92893C20.9464 6.8043 22 9.34784 22 12C22 13.3132 21.7413 14.6136 21.2388 15.8268C20.7362 17.0401 19.9997 18.1425 19.0711 19.0711C18.1425 19.9997 17.0401 20.7362 15.8268 21.2388C14.6136 21.7413 13.3132 22 12 22C10.6868 22 9.38642 21.7413 8.17317 21.2388C6.95991 20.7362 5.85752 19.9997 4.92893 19.0711C4.00035 18.1425 3.26375 17.0401 2.7612 15.8268ZM10.784 14.02H12.056C12.2413 13.6192 12.7332 13.2849 13.2875 12.9082C14.2764 12.2361 15.464 11.429 15.464 9.868C15.464 8.104 14.168 7 12.092 7C10.184 7 8.65999 8.392 8.29999 10.516L10.4 10.804C10.592 9.388 11.192 8.524 12.056 8.524C12.8 8.524 13.28 9.04 13.28 9.856C13.28 10.765 12.6518 11.36 12.0257 11.9529C11.4038 12.5419 10.784 13.129 10.784 14.02ZM10.316 16.25C10.316 16.886 10.76 17.318 11.42 17.318C12.08 17.318 12.524 16.886 12.524 16.25C12.524 15.614 12.08 15.17 11.42 15.17C10.76 15.17 10.316 15.614 10.316 16.25Z" fill="var(--svg-base)"/>
</svg>
