<svg width="24" height="24" viewBox="0 0 24 24" fill="none" xmlns="http://www.w3.org/2000/svg">
<path fill-rule="evenodd" clip-rule="evenodd" d="M2.29289 2.29289C2.68342 1.90237 3.31658 1.90237 3.70711 2.29289L21.7071 20.2929C22.0976 20.6834 22.0976 21.3166 21.7071 21.7071C21.3166 22.0976 20.6834 22.0976 20.2929 21.7071L2.29289 3.70711C1.90237 3.31658 1.90237 2.68342 2.29289 2.29289Z" fill="var(--svg-base)"/>
<path fill-rule="evenodd" clip-rule="evenodd" d="M6.96038 6.3746C5.12535 7.46579 3.51998 9.18972 2.14251 11.4855C1.9525 11.8022 1.9525 12.1978 2.14251 12.5145C4.66219 16.714 7.94444 19 12 19C14.1291 19 16.0451 18.3699 17.7495 17.1637L15.1061 14.5203C15.0193 14.6273 14.9267 14.7301 14.8284 14.8284C14.0783 15.5786 13.0609 16 12 16C10.9391 16 9.92172 15.5786 9.17157 14.8284C8.42143 14.0783 8 13.0609 8 12C8 10.9391 8.42143 9.92172 9.17157 9.17157C9.26985 9.0733 9.37271 8.98066 9.47966 8.89388L6.96038 6.3746ZM15.9623 12.5481C15.9873 12.3675 16 12.1844 16 12C16 10.9391 15.5786 9.92172 14.8284 9.17157C14.0783 8.42143 13.0609 8 12 8C11.8156 8 11.6325 8.01273 11.4519 8.03771L8.90114 5.48692C9.87851 5.16471 10.9114 5 12 5C16.0556 5 19.3378 7.28603 21.8575 11.4855C22.0475 11.8022 22.0475 12.1978 21.8575 12.5145C21.0732 13.8216 20.2151 14.9434 19.2827 15.8685L15.9623 12.5481ZM10.9092 10.3234C10.3618 10.6802 10 11.2979 10 12C10 13.1046 10.8954 14 12 14C12.7021 14 13.3198 13.6382 13.6766 13.0908L10.9092 10.3234Z" fill="var(--svg-base)"/>
</svg>
