<svg width="24" height="24" viewBox="0 0 24 24" fill="none" xmlns="http://www.w3.org/2000/svg">
<path fill-rule="evenodd" clip-rule="evenodd" d="M9.11076 2.42646C7.54587 2.89879 6.10583 3.75204 4.92893 4.92893C4.03647 5.82139 3.33012 6.86518 2.83486 7.99998H7.38009C7.74778 6.00228 8.35897 4.07444 9.11076 2.42646ZM9.41666 7.99998C9.86905 5.74896 10.6503 3.62197 11.5631 2.00954C11.7084 2.00319 11.854 2 12 2C12.146 2 12.2916 2.00319 12.4369 2.00954C13.3497 3.62197 14.1309 5.74896 14.5833 7.99998H9.41666ZM7.09866 9.99998H2.202C2.06862 10.6534 2 11.3232 2 12C2 12.6734 2.06801 13.3434 2.20204 14H7.09863C7.03403 13.3309 6.99987 12.6617 6.99987 12.0001C6.99987 11.3385 7.03404 10.6692 7.09866 9.99998ZM9.10871 14C9.03779 13.3309 8.99987 12.6611 8.99987 12.0001C8.99987 11.3391 9.0378 10.6691 9.10875 9.99998H14.8913C14.9622 10.6691 15.0001 11.3391 15.0001 12.0001C15.0001 12.6611 14.9622 13.3309 14.8913 14H9.10871ZM7.38003 16H2.83484C3.33458 17.145 4.04471 18.1869 4.92893 19.0711C5.85752 19.9997 6.95991 20.7362 8.17317 21.2388C8.48046 21.3661 8.79334 21.4777 9.11061 21.5735C8.35885 19.9255 7.74769 17.9977 7.38003 16ZM11.5629 21.9904C10.6502 20.378 9.86896 18.251 9.41659 16H14.5834C14.131 18.251 13.3498 20.378 12.4371 21.9904C12.2916 21.9968 12.1459 22 12 22C11.8541 22 11.7084 21.9968 11.5629 21.9904ZM17.0001 12.0001C17.0001 12.6617 16.966 13.3309 16.9014 14H21.798C21.932 13.3434 22 12.6734 22 12C22 11.3232 21.9314 10.6534 21.798 9.99998H16.9013C16.966 10.6692 17.0001 11.3385 17.0001 12.0001ZM16.62 16C16.2523 17.9977 15.6412 19.9255 14.8894 21.5735C15.2067 21.4777 15.5195 21.3661 15.8268 21.2388C17.0401 20.7362 18.1425 19.9997 19.0711 19.0711C19.9553 18.1869 20.6654 17.145 21.1652 16H16.62ZM14.8892 2.42647C15.641 4.07444 16.2522 6.00228 16.6199 7.99998H21.1651C20.6699 6.86518 19.9635 5.82139 19.0711 4.92893C17.8942 3.75204 16.4541 2.89879 14.8892 2.42647Z" fill="var(--svg-base)"/>
</svg>
