<svg width="24" height="24" viewBox="0 0 24 24" fill="none" xmlns="http://www.w3.org/2000/svg">
<path fill-rule="evenodd" clip-rule="evenodd" d="M14.8261 6.01562C14.8261 5.46334 15.2738 5.01562 15.8261 5.01562H18.955C19.4793 5.01562 19.9859 5.21978 20.3624 5.58911C20.7375 5.9571 20.9527 6.45958 20.955 6.98809L20.9608 7.40708C20.9645 7.67797 20.9695 8.06594 20.9752 8.53449C20.9864 9.47146 20.9999 10.7313 21.0089 12.0219C21.018 13.3117 21.0225 14.6355 21.0157 15.6993C21.0123 16.2307 21.0061 16.7018 20.9959 17.0732C20.9865 17.4192 20.9727 17.7427 20.9441 17.9349C20.7504 19.2387 19.5484 20.6501 17.9607 20.7481C17.4095 20.7821 16.9351 20.3628 16.901 19.8116C16.867 19.2603 17.2863 18.7859 17.8376 18.7519C18.2387 18.7271 18.8716 18.2755 18.9658 17.641C18.9658 17.641 18.9663 17.6379 18.9674 17.6279C18.9684 17.6182 18.9697 17.6051 18.9712 17.588C18.9741 17.5535 18.9771 17.5086 18.9802 17.4524C18.9864 17.3398 18.9919 17.1946 18.9967 17.0188C19.0063 16.6676 19.0124 16.2123 19.0157 15.6866C19.0224 14.6361 19.018 13.3227 19.009 12.0359C19 10.7498 18.9865 9.49349 18.9753 8.55852C18.9697 8.09111 18.9646 7.70415 18.961 7.4341L18.9551 7.01563L15.8261 7.01562C15.2738 7.01562 14.8261 6.56791 14.8261 6.01562Z" fill="var(--svg-base)"/>
<path fill-rule="evenodd" clip-rule="evenodd" d="M3.62291 3.76256C3.9511 3.43438 4.39622 3.25 4.86035 3.25H14.8604C15.3245 3.25 15.7696 3.43438 16.0978 3.76256C16.426 4.09075 16.6104 4.53587 16.6104 5V17.5042C16.6104 17.8358 16.742 18.1537 16.9765 18.3881C17.2109 18.6225 17.5288 18.7542 17.8604 18.7542C18.2746 18.7542 18.6104 19.5858 18.6104 20C18.6104 20.4142 18.2746 20.75 17.8604 20.75H6.86035C5.86579 20.75 4.91196 20.3549 4.2087 19.6517C3.50544 18.9484 3.11035 17.9946 3.11035 17V5C3.11035 4.53587 3.29473 4.09075 3.62291 3.76256ZM7.50894 7.21312C7.09473 7.21312 6.75894 7.54891 6.75894 7.96312C6.75894 8.37733 7.09473 8.71312 7.50894 8.71312H11.991C12.4052 8.71312 12.741 8.37733 12.741 7.96312C12.741 7.54891 12.4052 7.21312 11.991 7.21312H7.50894ZM7.50894 11.2882C7.09473 11.2882 6.75894 11.624 6.75894 12.0382C6.75894 12.4524 7.09473 12.7882 7.50894 12.7882H11.991C12.4052 12.7882 12.741 12.4524 12.741 12.0382C12.741 11.624 12.4052 11.2882 11.991 11.2882H7.50894ZM7.50894 15.3167C7.09473 15.3167 6.75894 15.6525 6.75894 16.0667C6.75894 16.4809 7.09473 16.8167 7.50894 16.8167H11.991C12.4052 16.8167 12.741 16.4809 12.741 16.0667C12.741 15.6525 12.4052 15.3167 11.991 15.3167H7.50894Z" fill="var(--svg-base)"/>
</svg>
