<svg width="24" height="24" viewBox="0 0 24 24" fill="none" xmlns="http://www.w3.org/2000/svg">
<path d="M12.5184 12.0189H10.5891V8.4717H12.5184C13.6367 8.4717 14.2634 9.12579 14.2634 10.2453C14.2634 11.3774 13.6367 12.0189 12.5184 12.0189Z" fill="var(--svg-base)"/>
<path fill-rule="evenodd" clip-rule="evenodd" d="M5.33333 2C3.49238 2 2 3.49238 2 5.33333V18.6667C2 20.5076 3.49238 22 5.33333 22H18.6667C20.5076 22 22 20.5076 22 18.6667V5.33333C22 3.49238 20.5076 2 18.6667 2H5.33333ZM16.5 10.1447C16.5 8.24528 15.1482 7 13.0837 7H8.5V17H10.5891V13.5031H13.0837C15.1482 13.5031 16.5 12.1824 16.5 10.1447Z" fill="var(--svg-base)"/>
</svg>
