<svg width="24" height="24" viewBox="0 0 24 24" fill="none" xmlns="http://www.w3.org/2000/svg">
<path fill-rule="evenodd" clip-rule="evenodd" d="M2.7612 15.8268C2.25866 14.6136 2 13.3132 2 12C2 9.34784 3.05357 6.8043 4.92893 4.92893C6.8043 3.05357 9.34784 2 12 2C14.6522 2 17.1957 3.05357 19.0711 4.92893C20.9464 6.8043 22 9.34784 22 12C22 13.3132 21.7413 14.6136 21.2388 15.8268C20.7362 17.0401 19.9997 18.1425 19.0711 19.0711C18.1425 19.9997 17.0401 20.7362 15.8268 21.2388C14.6136 21.7413 13.3132 22 12 22C10.6868 22 9.38642 21.7413 8.17317 21.2388C6.95991 20.7362 5.85752 19.9997 4.92893 19.0711C4.00035 18.1425 3.26375 17.0401 2.7612 15.8268ZM15.7467 10.4538C15.7467 8.87099 14.6202 7.83325 12.8998 7.83325H9.07999V16.1666H10.8209V13.2525H12.8998C14.6202 13.2525 15.7467 12.1519 15.7467 10.4538ZM12.4287 12.0156H10.8209V9.05967H12.4287C13.3606 9.05967 13.8829 9.60474 13.8829 10.5377C13.8829 11.4811 13.3606 12.0156 12.4287 12.0156Z" fill="var(--svg-base)"/>
</svg>
