<svg width="24" height="24" viewBox="0 0 24 24" fill="none" xmlns="http://www.w3.org/2000/svg">
<path fill-rule="evenodd" clip-rule="evenodd" d="M15.2263 4.42475C15.6301 4.25748 16.0629 4.17139 16.5 4.17139C16.9371 4.17139 17.3699 4.25748 17.7737 4.42475C18.1776 4.59202 18.5445 4.83719 18.8536 5.14626C19.1626 5.45533 19.4078 5.82226 19.5751 6.22608C19.7423 6.6299 19.8284 7.06272 19.8284 7.49981C19.8284 7.93691 19.7423 8.36972 19.5751 8.77355C19.4078 9.17737 19.1626 9.54429 18.8536 9.85337L18.5604 10.1465L13.8534 5.43934L14.1464 5.14626C14.4555 4.83719 14.8224 4.59202 15.2263 4.42475ZM12.4392 6.85355L3.64645 15.6463C3.55268 15.74 3.5 15.8672 3.5 15.9998V19.9998C3.5 20.276 3.72386 20.4998 4 20.4998H8C8.13261 20.4998 8.25979 20.4471 8.35355 20.3534L17.1462 11.5607L12.4392 6.85355Z" fill="var(--svg-base)"/>
</svg>
