<svg width="24" height="24" viewBox="0 0 24 24" fill="none" xmlns="http://www.w3.org/2000/svg">
<path d="M5 3.5C4.33696 3.5 3.70107 3.76339 3.23223 4.23223C2.76339 4.70107 2.5 5.33696 2.5 6C2.5 6.01012 2.50031 6.02023 2.50092 6.03033C2.74538 10.053 4.4536 13.847 7.30328 16.6967C10.153 19.5464 13.947 21.2546 17.9697 21.4991C17.9798 21.4997 17.9899 21.5 18 21.5C18.663 21.5 19.2989 21.2366 19.7678 20.7678C20.2366 20.2989 20.5 19.663 20.5 19V15.3385C20.5 14.9296 20.251 14.5619 19.8714 14.41L15.5811 12.6939C15.1253 12.5116 14.6047 12.687 14.3522 13.1079L13.3134 14.8392C11.5625 13.8783 10.1217 12.4375 9.16076 10.6866L10.8921 9.64783C11.313 9.3953 11.4884 8.87466 11.3061 8.41894L9.58996 4.12861C9.4381 3.74895 9.07039 3.5 8.66148 3.5H5Z" fill="var(--svg-base)"/>
</svg>
