<svg width="24" height="24" viewBox="0 0 24 24" fill="none" xmlns="http://www.w3.org/2000/svg">
<path fill-rule="evenodd" clip-rule="evenodd" d="M12 2C9.34784 2 6.8043 3.05357 4.92893 4.92893C3.05357 6.8043 2 9.34784 2 12C2 13.3132 2.25866 14.6136 2.7612 15.8268C3.26375 17.0401 4.00035 18.1425 4.92893 19.0711C5.85752 19.9997 6.95991 20.7362 8.17317 21.2388C9.38642 21.7413 10.6868 22 12 22C13.3132 22 14.6136 21.7413 15.8268 21.2388C17.0401 20.7362 18.1425 19.9997 19.0711 19.0711C19.9997 18.1425 20.7362 17.0401 21.2388 15.8268C21.7413 14.6136 22 13.3132 22 12C22 9.34784 20.9464 6.8043 19.0711 4.92893C17.1957 3.05357 14.6522 2 12 2ZM16.84 7.76906C16.84 7.35484 16.5043 7.01906 16.09 7.01906C15.6758 7.01906 15.34 7.35484 15.34 7.76906V9.15767C14.1613 8.04193 12.4541 7.56438 10.7938 7.99019C9.94274 8.20911 9.16732 8.65557 8.5507 9.28169C7.93408 9.90781 7.49953 10.69 7.29365 11.5443C7.08778 12.3986 7.11834 13.2929 7.38207 14.1311C7.6458 14.9694 8.13274 15.7201 8.79067 16.3026C9.4486 16.8852 10.2527 17.2776 11.1167 17.4379C11.9808 17.5982 12.8721 17.5203 13.6952 17.2125C14.5183 16.9047 15.2421 16.3787 15.789 15.6908C16.0468 15.3665 15.9929 14.8947 15.6686 14.637C15.3444 14.3792 14.8726 14.4331 14.6148 14.7573C14.2374 15.2321 13.7379 15.5951 13.1698 15.8075C12.6018 16.0199 11.9866 16.0737 11.3903 15.9631C10.794 15.8525 10.2391 15.5816 9.78505 15.1796C9.33099 14.7775 8.99493 14.2595 8.81293 13.681C8.63092 13.1024 8.60983 12.4853 8.75191 11.8957C8.89399 11.3061 9.19389 10.7663 9.61944 10.3342C10.0449 9.90215 10.58 9.59406 11.1673 9.44296C12.3921 9.12893 13.6428 9.52277 14.4539 10.394H12.7151C12.3009 10.394 11.9651 10.7298 11.9651 11.144C11.9651 11.5582 12.3009 11.894 12.7151 11.894H15.7862C15.7956 11.8942 15.805 11.8942 15.8145 11.894H16.09C16.5043 11.894 16.84 11.5582 16.84 11.144V7.76906Z" fill="var(--svg-base)"/>
</svg>
