<svg width="24" height="24" viewBox="0 0 24 24" fill="none" xmlns="http://www.w3.org/2000/svg">
<path fill-rule="evenodd" clip-rule="evenodd" d="M12 5C7.94444 5 4.66219 7.28603 2.14251 11.4855C1.9525 11.8022 1.9525 12.1978 2.14251 12.5145C4.66219 16.714 7.94444 19 12 19C16.0556 19 19.3378 16.714 21.8575 12.5145C22.0475 12.1978 22.0475 11.8022 21.8575 11.4855C19.3378 7.28603 16.0556 5 12 5ZM9.17157 9.17157C9.92172 8.42143 10.9391 8 12 8C13.0609 8 14.0783 8.42143 14.8284 9.17157C15.5786 9.92172 16 10.9391 16 12C16 13.0609 15.5786 14.0783 14.8284 14.8284C14.0783 15.5786 13.0609 16 12 16C10.9391 16 9.92172 15.5786 9.17157 14.8284C8.42143 14.0783 8 13.0609 8 12C8 10.9391 8.42143 9.92172 9.17157 9.17157ZM12 14C13.1046 14 14 13.1046 14 12C14 10.8954 13.1046 10 12 10C10.8954 10 10 10.8954 10 12C10 13.1046 10.8954 14 12 14Z" fill="var(--svg-base)"/>
</svg>
