<svg width="24" height="24" viewBox="0 0 24 24" fill="none" xmlns="http://www.w3.org/2000/svg">
<path d="M13.5144 2.75C12.7672 2.75 12.0506 3.04682 11.5223 3.57515C10.994 4.10348 10.6972 4.82006 10.6972 5.56724V6.56438C10.6166 7.37312 10.4428 7.91218 10.2694 8.28447C10.1137 8.61871 9.95304 8.83496 9.79854 9.04285L9.77014 9.08109C9.53767 9.30928 9.44294 9.38866 9.2853 9.48007C9.07915 9.59961 8.77569 9.73237 8.07889 10.0338L8.0485 10.047C7.77401 10.1657 7.59631 10.4362 7.59631 10.7353V17.3701C7.59631 17.7921 7.61067 18.4278 7.62469 19.0225L7.62791 19.1591C7.64093 19.7096 7.65265 20.2054 7.65265 20.4709C7.65265 20.8851 7.98843 21.2209 8.40265 21.2209H17.6204C18.3138 21.2686 18.9523 20.9761 19.443 20.4855C19.9355 19.993 20.2733 19.313 20.4463 18.5749C20.449 18.5632 20.4515 18.5515 20.4537 18.5398L21.4873 12.9387C21.4956 12.8938 21.4997 12.8482 21.4997 12.8026C21.4997 12.0554 21.2029 11.3388 20.6746 10.8105C20.1462 10.2821 19.4297 9.98533 18.6825 9.98533H16.3316V5.56724C16.3316 4.82006 16.0348 4.10348 15.5065 3.57515C14.9782 3.04682 14.2616 2.75 13.5144 2.75Z" fill="var(--svg-base)"/>
<path d="M4.28362 9.98533C3.81057 9.98533 3.3569 10.1732 3.02241 10.5077C2.68792 10.8422 2.5 11.2959 2.5 11.7689L2.5 19.4664C2.5 19.9394 2.68792 20.3931 3.02241 20.7276C3.35691 21.0621 3.81058 21.25 4.28362 21.25H5.84062C6.25483 21.25 6.59062 20.9142 6.59062 20.5V10.7353C6.59062 10.3211 6.25483 9.98533 5.84062 9.98533H4.28362Z" fill="var(--svg-base)"/>
</svg>
