<svg width="24" height="24" viewBox="0 0 24 24" fill="none" xmlns="http://www.w3.org/2000/svg">
<path d="M13.5144 21.25C12.7672 21.25 12.0506 20.9532 11.5223 20.4249C10.994 19.8965 10.6972 19.1799 10.6972 18.4328V17.4356C10.6166 16.6269 10.4428 16.0878 10.2694 15.7155C10.1137 15.3813 9.95304 15.165 9.79854 14.9572L9.77014 14.9189C9.53767 14.6907 9.44294 14.6113 9.2853 14.5199C9.07915 14.4004 8.77569 14.2676 8.07889 13.9662L8.0485 13.953C7.77401 13.8343 7.59631 13.5638 7.59631 13.2647V6.62992C7.59631 6.20795 7.61067 5.5722 7.62469 4.97754L7.62791 4.84093C7.64093 4.29038 7.65265 3.79464 7.65265 3.52907C7.65265 3.11485 7.98843 2.77907 8.40265 2.77907H17.6204C18.3138 2.73142 18.9523 3.02386 19.443 3.51455C19.9355 4.00704 20.2733 4.68697 20.4463 5.42512C20.449 5.43676 20.4515 5.44845 20.4537 5.4602L21.4873 11.0613C21.4956 11.1062 21.4997 11.1518 21.4997 11.1974C21.4997 11.9446 21.2029 12.6612 20.6746 13.1895C20.1462 13.7179 19.4297 14.0147 18.6825 14.0147H16.3316V18.4328C16.3316 19.1799 16.0348 19.8965 15.5065 20.4249C14.9782 20.9532 14.2616 21.25 13.5144 21.25Z" fill="var(--svg-base)"/>
<path d="M4.28362 14.0147C3.81057 14.0147 3.3569 13.8268 3.02241 13.4923C2.68792 13.1578 2.5 12.7041 2.5 12.2311L2.5 4.53362C2.5 4.06057 2.68792 3.6069 3.02241 3.27241C3.35691 2.93792 3.81058 2.75 4.28362 2.75H5.84062C6.25483 2.75 6.59062 3.08579 6.59062 3.5V13.2647C6.59062 13.6789 6.25483 14.0147 5.84062 14.0147H4.28362Z" fill="var(--svg-base)"/>
</svg>
