<svg width="24" height="24" viewBox="0 0 24 24" fill="none" xmlns="http://www.w3.org/2000/svg">
<path fill-rule="evenodd" clip-rule="evenodd" d="M5.57143 19.8571L4.5 7H19.5L18.4286 19.8571C18.4286 20.4255 18.2028 20.9705 17.8009 21.3724C17.3991 21.7742 16.854 22 16.2857 22H7.71429C7.14596 22 6.60092 21.7742 6.19906 21.3724C5.79719 20.9705 5.57143 20.4255 5.57143 19.8571ZM11 11C11 10.4477 10.5523 10 10 10C9.44772 10 9 10.4477 9 11V17C9 17.5523 9.44772 18 10 18C10.5523 18 11 17.5523 11 17V11ZM15 11C15 10.4477 14.5523 10 14 10C13.4477 10 13 10.4477 13 11V17C13 17.5523 13.4477 18 14 18C14.5523 18 15 17.5523 15 17V11Z" fill="var(--svg-base)"/>
<path fill-rule="evenodd" clip-rule="evenodd" d="M8.58579 2.58579C8.96086 2.21071 9.46957 2 10 2H14C14.5304 2 15.0391 2.21071 15.4142 2.58579C15.7893 2.96086 16 3.46957 16 4V6H20C20.5523 6 21 6.44772 21 7C21 7.55228 20.5523 8 20 8H4C3.44772 8 3 7.55228 3 7C3 6.44772 3.44772 6 4 6H8V4C8 3.46957 8.21071 2.96086 8.58579 2.58579ZM10 6H14V4H10V6Z" fill="var(--svg-base)"/>
</svg>
