<svg width="24" height="24" viewBox="0 0 24 24" fill="none" xmlns="http://www.w3.org/2000/svg">
<path d="M3 9.5H7V20.5H3V9.5Z" fill="var(--svg-base)"/>
<path d="M5 7.5C6.10457 7.5 7 6.60457 7 5.5C7 4.39543 6.10457 3.5 5 3.5C3.89543 3.5 3 4.39543 3 5.5C3 6.60457 3.89543 7.5 5 7.5Z" fill="var(--svg-base)"/>
<path d="M16.5 8.75C15.8221 8.75718 15.1547 8.91847 14.5483 9.22166C13.942 9.52485 13.4125 9.96199 13 10.5V9.5H9V20.5H13V13.5C13 12.9696 13.2107 12.4609 13.5858 12.0858C13.9609 11.7107 14.4696 11.5 15 11.5C15.5304 11.5 16.0391 11.7107 16.4142 12.0858C16.7893 12.4609 17 12.9696 17 13.5V20.5H21V13.25C21 12.0565 20.5259 10.9119 19.682 10.068C18.8381 9.22411 17.6935 8.75 16.5 8.75Z" fill="var(--svg-base)"/>
</svg>
