<svg width="24" height="24" viewBox="0 0 24 24" fill="none" xmlns="http://www.w3.org/2000/svg">
<path fill-rule="evenodd" clip-rule="evenodd" d="M13.4527 16.6533L13.4583 2.87499H16.0338C16.2823 4.18523 17.0775 5.30878 18.1797 6.01057C18.1797 6.01057 18.1797 6.01057 18.1797 6.0117C18.9467 6.50093 19.8622 6.78547 20.844 6.78547V7.55137V10.2236C19.0198 10.2236 17.3294 9.65338 15.9494 8.68504V15.6715C15.9494 19.1613 13.0444 22 9.47472 22C8.09475 22 6.816 21.5749 5.76444 20.8528C5.76444 20.8528 5.76331 20.8517 5.76219 20.8506C4.09318 19.7045 3 17.8106 3 15.6704C3 12.1805 5.90502 9.34184 9.47472 9.34184C9.77051 9.34184 10.0618 9.36546 10.3475 9.4037V10.218V12.9138C10.0708 12.8294 9.77951 12.78 9.47472 12.78C7.84395 12.78 6.51797 14.0767 6.51797 15.6704C6.51797 16.7804 7.1624 17.7442 8.10375 18.2279C8.51426 18.4393 8.97987 18.5596 9.47472 18.5596C11.0673 18.5596 12.3674 17.3214 12.4259 15.7783L12.4315 2H15.9494C15.9494 2.29804 15.9787 2.58933 16.0327 2.87274H13.4572L13.4516 16.6511L13.4527 16.6533Z" fill="var(--svg-base)"/>
</svg>
