<svg width="24" height="24" viewBox="0 0 24 24" fill="none" xmlns="http://www.w3.org/2000/svg">
<path fill-rule="evenodd" clip-rule="evenodd" d="M15.5965 4.11656C17.3848 3.73571 19.3221 4.29042 20.6358 5.74758C21.9494 7.20197 22.3055 9.18624 21.7425 10.9221V10.9249C21.6128 11.325 21.1822 11.5458 20.7793 11.4161C20.3764 11.2864 20.1556 10.8559 20.2853 10.453C20.6855 9.21659 20.4316 7.80636 19.4988 6.77145C18.566 5.73654 17.1889 5.34189 15.9166 5.61235C15.5026 5.70066 15.097 5.43848 15.0086 5.02452C14.9203 4.61331 15.1825 4.20487 15.5965 4.11656ZM4.01738 15.6744C4.23265 17.8463 7.09176 19.3448 10.4035 19.0164C13.7124 18.6908 16.2238 16.6624 16.0058 14.4877C15.7933 12.3157 12.9342 10.8172 9.62246 11.1456C6.31351 11.474 3.80212 13.4997 4.01738 15.6744ZM17.0171 11.7975L17.0241 11.7997C18.1722 12.1557 19.45 13.0167 19.4472 14.5346C19.4472 17.0432 15.8292 20.2031 10.3897 20.2031C6.24175 20.2031 2 18.1913 2 14.8851C2 13.1547 3.09562 11.1539 4.98054 9.26897C7.5002 6.74931 10.4393 5.60125 11.5433 6.70791C12.029 7.19639 12.0759 8.03811 11.764 9.04543C11.5984 9.55046 12.2387 9.27173 12.2387 9.27173C14.2754 8.41896 16.0527 8.36929 16.7012 9.29656C17.049 9.79332 17.0159 10.486 16.6957 11.2891C16.5507 11.6558 16.7394 11.7132 17.0171 11.7975ZM18.621 7.5689C17.9807 6.85964 17.0369 6.58919 16.1676 6.77685C15.8116 6.85137 15.5853 7.20461 15.6598 7.56062C15.7371 7.91663 16.0876 8.14293 16.4408 8.06566C16.8658 7.97459 17.3294 8.10706 17.6413 8.45203C17.9531 8.79976 18.0387 9.27167 17.9035 9.68564C17.7931 10.0306 17.9807 10.4032 18.3285 10.5163C18.6762 10.6267 19.046 10.4391 19.1592 10.0913C19.4324 9.24408 19.2613 8.27816 18.621 7.5689ZM10.0144 15.2903C10.2131 15.3731 10.4698 15.2793 10.5857 15.0806C10.6961 14.8791 10.6243 14.6556 10.4256 14.5838C10.2297 14.5066 9.98406 14.6004 9.86815 14.7936C9.755 14.9868 9.81572 15.2103 10.0144 15.2903ZM8.00532 16.9324C8.52139 17.167 9.20857 16.9434 9.5287 16.4329C9.84332 15.9168 9.67773 15.329 9.1589 15.1054C8.64558 14.8902 7.98324 15.111 7.66587 15.6077C7.34573 16.1072 7.49752 16.7006 8.00532 16.9324ZM6.69167 14.5811C7.37609 13.1929 9.15614 12.4064 10.732 12.8176C12.363 13.2398 13.1964 14.777 12.5286 16.2728C11.8524 17.799 9.90955 18.6159 8.25921 18.0832C6.66959 17.5699 5.99345 15.9968 6.69167 14.5811Z" fill="var(--svg-base)"/>
</svg>
