<svg width="24" height="24" viewBox="0 0 24 24" fill="none" xmlns="http://www.w3.org/2000/svg">
<path d="M15.75 2H8.25C4.79875 2 2 4.79875 2 8.25V15.75C2 19.2013 4.79875 22 8.25 22H15.75C19.2013 22 22 19.2013 22 15.75V8.25C22 4.79875 19.2013 2 15.75 2ZM20.125 15.75C20.125 18.1625 18.1625 20.125 15.75 20.125H8.25C5.8375 20.125 3.875 18.1625 3.875 15.75V8.25C3.875 5.8375 5.8375 3.875 8.25 3.875H15.75C18.1625 3.875 20.125 5.8375 20.125 8.25V15.75Z" fill="var(--svg-base)"/>
<path d="M12 7C9.23875 7 7 9.23875 7 12C7 14.7612 9.23875 17 12 17C14.7612 17 17 14.7612 17 12C17 9.23875 14.7612 7 12 7ZM12 15.125C10.2775 15.125 8.875 13.7225 8.875 12C8.875 10.2762 10.2775 8.875 12 8.875C13.7225 8.875 15.125 10.2762 15.125 12C15.125 13.7225 13.7225 15.125 12 15.125Z" fill="var(--svg-base)"/>
<path d="M17.375 7.29125C17.743 7.29125 18.0413 6.99296 18.0413 6.625C18.0413 6.25704 17.743 5.95875 17.375 5.95875C17.007 5.95875 16.7088 6.25704 16.7088 6.625C16.7088 6.99296 17.007 7.29125 17.375 7.29125Z" fill="var(--svg-base)"/>
</svg>
