<svg width="24" height="24" viewBox="0 0 24 24" fill="none" xmlns="http://www.w3.org/2000/svg">
<path d="M8.38836 18.417C8.19092 19.2808 8.26496 20.4984 8.35548 21.2882L9.04681 21.5345C9.45817 20.8681 10.0667 19.7824 10.2888 18.9106L10.9141 16.533C11.2349 17.1582 12.1893 17.6848 13.2012 17.6848C16.2123 17.6848 18.3842 14.9123 18.3842 11.4651C18.3842 8.15781 15.6858 5.6897 12.2222 5.6897C7.90296 5.6897 5.61584 8.58561 5.61584 11.7366C5.61584 13.201 6.3892 15.0274 7.62324 15.6198C7.81248 15.7103 7.91944 15.6691 7.96056 15.4881C7.97419 15.4302 8.01184 15.279 8.05651 15.0997C8.11967 14.846 8.19691 14.5359 8.24028 14.3528C8.26496 14.2541 8.25672 14.1636 8.17448 14.0649C7.76312 13.563 7.43404 12.6416 7.43404 11.786C7.43404 9.58109 9.10412 7.45029 11.9507 7.45029C14.4106 7.45029 16.13 9.12037 16.13 11.5145C16.13 14.2129 14.7644 16.0887 12.9873 16.0887C12.0083 16.0887 11.2678 15.2742 11.5064 14.2788C11.609 13.854 11.7438 13.4178 11.875 12.9935C12.1122 12.2261 12.3374 11.4978 12.3374 10.9468C12.3374 10.1817 11.926 9.53997 11.0704 9.53997C10.0667 9.53997 9.26044 10.5766 9.26044 11.9669C9.26044 12.8473 9.5566 13.4478 9.5566 13.4478C9.5566 13.4478 8.56936 17.6354 8.38836 18.417Z" fill="var(--svg-base)"/>
<path fill-rule="evenodd" clip-rule="evenodd" d="M12 4C7.58172 4 4 7.58172 4 12C4 16.4183 7.58172 20 12 20C16.4183 20 20 16.4183 20 12C20 7.58172 16.4183 4 12 4ZM2 12C2 6.47715 6.47715 2 12 2C17.5228 2 22 6.47715 22 12C22 17.5228 17.5228 22 12 22C6.47715 22 2 17.5228 2 12Z" fill="var(--svg-base)"/>
</svg>
