<svg width="24" height="24" viewBox="0 0 24 24" fill="none" xmlns="http://www.w3.org/2000/svg">
<path d="M9.6204 15.2094V8.79071L15.6059 12.0001L9.6204 15.2094Z" fill="var(--svg-base)"/>
<path fill-rule="evenodd" clip-rule="evenodd" d="M12.0046 3.75854H11.9958L11.9465 3.7586L11.8067 3.75896C11.6852 3.75937 11.5089 3.76019 11.2888 3.76183C10.8486 3.7651 10.2326 3.77165 9.52836 3.78476C8.12478 3.81087 6.35283 3.86332 4.92456 3.96961L4.90059 3.97139L4.87672 3.97433C4.84825 3.97783 4.81251 3.98114 4.77028 3.98504C4.33719 4.02509 3.22181 4.12823 2.2671 5.15321C1.79058 5.65368 1.54066 6.36722 1.41112 6.82025C1.33935 7.07123 1.28986 7.29742 1.25817 7.46095C1.24222 7.54326 1.23051 7.61109 1.22256 7.65993C1.21859 7.68438 1.21554 7.70417 1.21336 7.71874L1.21073 7.73664L1.20989 7.74254L1.20959 7.74471L1.20819 7.75492L1.20706 7.76427L1.20636 7.7702L1.20446 7.78642L1.19765 7.84622C1.19187 7.89783 1.18373 7.97245 1.17403 8.0668C1.15463 8.25539 1.1289 8.52342 1.1032 8.84456C1.05201 9.48425 1 10.3462 1 11.2155V12.7778C1 13.6473 1.05201 14.5092 1.1032 15.1489C1.1289 15.4699 1.15463 15.7379 1.17403 15.9265C1.18374 16.0208 1.19187 16.0954 1.19766 16.147L1.20447 16.2068L1.20636 16.223L1.20714 16.2296L1.20818 16.2382L1.20957 16.2483L1.20988 16.2505L1.21072 16.2564L1.21334 16.2743C1.21552 16.2889 1.21856 16.3087 1.22254 16.3331C1.23048 16.382 1.24218 16.4498 1.25813 16.5322C1.28981 16.6957 1.33929 16.922 1.41105 17.173C1.5406 17.6263 1.79059 18.3402 2.26743 18.8408C3.1943 19.8349 4.47478 19.9615 4.89279 20.0029C4.94816 20.0083 4.9884 20.0123 5.01068 20.0166L5.0561 20.0254L5.10213 20.0299C5.94854 20.1134 7.69138 20.1654 9.17885 20.1971C9.93209 20.2131 10.6347 20.2243 11.1489 20.2313C11.4061 20.2349 11.6163 20.2374 11.7623 20.2391L11.9907 20.2415L12.0028 20.2416L12.0513 20.2414L12.1911 20.2409C12.3127 20.2403 12.4891 20.2392 12.7094 20.2372C13.1499 20.2333 13.7663 20.226 14.4709 20.212C15.8754 20.1843 17.6479 20.1302 19.0756 20.0239L19.0994 20.0221L19.1231 20.0192C19.1515 20.0157 19.1871 20.0125 19.2292 20.0086C19.6623 19.9686 20.7782 19.8657 21.733 18.8406C22.2095 18.3401 22.4595 17.6265 22.5891 17.1734C22.6609 16.9224 22.7104 16.6962 22.7421 16.5326C22.7581 16.4503 22.7698 16.3824 22.7778 16.3336C22.7818 16.3092 22.7848 16.2894 22.787 16.2748L22.7896 16.2569L22.7904 16.251L22.7909 16.2475L22.7922 16.2385L22.7933 16.229L22.794 16.223L22.7959 16.2068L22.8027 16.147C22.8085 16.0954 22.8166 16.0208 22.8263 15.9265C22.8457 15.738 22.8713 15.47 22.897 15.1489C22.9481 14.5093 23 13.6475 23 12.7781V11.2157C23 10.3463 22.9481 9.4845 22.8971 8.84491C22.8714 8.52383 22.8458 8.25587 22.8264 8.06732C22.8167 7.973 22.8086 7.8984 22.8028 7.84681L22.796 7.78703L22.7942 7.77082L22.7934 7.76426L22.7923 7.75535L22.7909 7.74495L22.7906 7.74278L22.7897 7.73687L22.7871 7.71897C22.7849 7.7044 22.7819 7.68461 22.7779 7.66016C22.7699 7.61132 22.7582 7.54348 22.7423 7.46117C22.7105 7.29762 22.661 7.07141 22.5892 6.82041C22.4596 6.36738 22.2097 5.65387 21.7332 5.15343C20.7787 4.12813 19.663 4.02504 19.23 3.98504C19.1877 3.98113 19.152 3.97783 19.1235 3.97433L19.0997 3.9714L19.0757 3.96961C17.6477 3.86332 15.8758 3.81087 14.4722 3.78476C13.768 3.77165 13.1519 3.7651 12.7117 3.76183C12.4916 3.76019 12.3153 3.75937 12.1938 3.75896L12.054 3.7586L12.0046 3.75854ZM3.19662 7.98104C3.20169 7.94984 3.20992 7.90195 3.22163 7.84149C3.24528 7.71947 3.28207 7.55191 3.33405 7.3701C3.45145 6.95953 3.59732 6.65553 3.71635 6.53151L3.7222 6.52541L3.72795 6.51922C4.14915 6.0652 4.55988 6.02079 4.97039 5.9764C5.01211 5.97189 5.05389 5.96737 5.09561 5.96243C6.46268 5.86153 8.178 5.81024 9.56557 5.78442C10.2608 5.77149 10.8692 5.76502 11.3036 5.76178C11.5208 5.76017 11.6944 5.75936 11.8134 5.75896L11.9497 5.75861H12.0508L12.1871 5.75896C12.3061 5.75936 12.4797 5.76017 12.6969 5.76178C13.1313 5.76502 13.7398 5.77149 14.435 5.78442C15.8226 5.81024 17.5378 5.86153 18.9046 5.96243C18.9464 5.96738 18.9882 5.9719 19.03 5.97642C19.4406 6.02081 19.8512 6.06519 20.2721 6.51911L20.2779 6.52543L20.2839 6.53164C20.4029 6.65568 20.5489 6.95976 20.6663 7.37044C20.7184 7.55229 20.7552 7.71989 20.7788 7.84194C20.7906 7.90242 20.7988 7.95032 20.8039 7.98153L20.8089 8.01364L20.8093 8.01728L20.8152 8.06898C20.8204 8.11502 20.8278 8.18362 20.8369 8.27155C20.8549 8.44752 20.8791 8.70029 20.9034 9.00409C20.9521 9.61425 21 10.4187 21 11.2157V12.7781C21 13.575 20.9521 14.3795 20.9033 14.9897C20.8791 15.2935 20.8548 15.5462 20.8368 15.7222C20.8277 15.8101 20.8203 15.8787 20.8151 15.9248L20.8092 15.9764L20.8088 15.9802L20.8038 16.0123C20.7987 16.0435 20.7904 16.0914 20.7787 16.1519C20.755 16.274 20.7182 16.4416 20.6662 16.6234C20.5487 17.0342 20.4028 17.3382 20.2838 17.4623L20.2779 17.4684L20.2721 17.4746C19.851 17.9286 19.4403 17.9729 19.0298 18.0172C18.9881 18.0217 18.9463 18.0262 18.9046 18.0311L11.9907 18.1278C11.9907 18.1278 5.41161 18.0468 4.93882 17.9822C4.46604 17.9175 4.09141 17.8663 3.728 17.4745L3.72223 17.4683L3.71635 17.4622C3.5973 17.3381 3.45142 17.0341 3.33403 16.6234C3.28205 16.4415 3.24528 16.2739 3.22164 16.1519C3.20993 16.0914 3.2017 16.0435 3.19663 16.0123L3.19157 15.98L3.1911 15.976L3.18522 15.9243C3.18006 15.8783 3.17257 15.8097 3.16352 15.7218C3.14542 15.5458 3.12114 15.2931 3.09683 14.9893C3.048 14.3792 3 13.5748 3 12.7778V11.2155C3 10.4188 3.048 9.61431 3.09683 9.0041C3.12114 8.70028 3.14542 8.44747 3.16353 8.27147L3.19662 7.98104Z" fill="var(--svg-base)"/>
</svg>
