<svg xmlns="http://www.w3.org/2000/svg" width="24" height="24" viewBox="0 0 24 24" fill="none">
	<path fill="var(--svg-base)"
		d="M11.394.008c-2.145.107-4.222.79-6.012 1.978-.674.443-1.3.956-1.866 1.53a11.956 11.956 0 0 0-3.444 7.11c-.05.445-.062.654-.068 1.212-.009.7.012 1.09.087 1.686.22 1.722.811 3.376 1.734 4.847a12.306 12.306 0 0 0 2.469 2.832 12.048 12.048 0 0 0 3.902 2.185c.925.31 1.829.494 2.868.583.298.025 1.243.036 1.572.018a11.83 11.83 0 0 0 4.704-1.24 11.346 11.346 0 0 0 1.878-1.161 12.09 12.09 0 0 0 2.26-2.224 11.978 11.978 0 0 0 2.449-5.984c.06-.516.067-.668.067-1.38 0-.712-.008-.864-.067-1.38a11.955 11.955 0 0 0-2.699-6.294A12.035 12.035 0 0 0 15.804.612a11.923 11.923 0 0 0-3.138-.6 26.614 26.614 0 0 0-1.272-.004Zm1.26.51c2.25.127 4.411.915 6.215 2.265a11.523 11.523 0 0 1 4.507 7.525c.088.595.12 1.045.12 1.688.003.352-.01.704-.042 1.054a11.482 11.482 0 0 1-2.332 5.946 12.028 12.028 0 0 1-1.879 1.93 11.507 11.507 0 0 1-5.755 2.48 11.449 11.449 0 0 1-8.363-2.194 11.511 11.511 0 0 1-4.501-7.52 11.409 11.409 0 0 1-.118-2.02C.57 8.99 1.6 6.402 3.414 4.356c.206-.232.735-.76.966-.962a11.55 11.55 0 0 1 3.798-2.242 11.492 11.492 0 0 1 4.476-.635Z" />
	<path fill="var(--svg-base)"
		d="M11.538.745c-2.073.083-4.082.74-5.803 1.896A11.33 11.33 0 0 0 2.64 5.735a11.227 11.227 0 0 0-1.818 7.669 11.271 11.271 0 0 0 4.913 7.955 11.226 11.226 0 0 0 7.668 1.818 11.266 11.266 0 0 0 7.502-4.285 11.238 11.238 0 0 0 2.27-8.296 11.168 11.168 0 0 0-1.328-4.062 11.355 11.355 0 0 0-3.667-3.948 11.208 11.208 0 0 0-6.643-1.84Zm1.332.544a10.84 10.84 0 0 1 2.598.541 10.777 10.777 0 0 1 5.465 4.205c.939 1.4 1.533 3.002 1.734 4.675.056.46.067.656.067 1.29s-.01.83-.068 1.29a10.74 10.74 0 0 1-4.7 7.643c-1.525 1.021-3.22 1.611-5.096 1.778-.294.025-1.14.036-1.452.018a10.617 10.617 0 0 1-4.158-1.088 10.735 10.735 0 0 1-4.243-3.749 10.691 10.691 0 0 1-1.745-5.28 16.012 16.012 0 0 1 0-1.224c.115-1.91.704-3.695 1.736-5.268a10.743 10.743 0 0 1 8.134-4.83c.359-.028.343-.028.948-.024.398.002.628.01.78.023Z" />
	<path fill="var(--svg-base)"
		d="m12.236 2.012-.128.005.008.365.008.365-.03.006a7.97 7.97 0 0 1-.365.013l-.339.006-.007-.026a1.963 1.963 0 0 1-.007-.203c0-.096-.004-.249-.008-.339l-.008-.164h-.202c-.164 0-.205.004-.21.017-.005.017.04 1.855.046 1.861.003.001.098 0 .213-.004l.208-.006-.008-.205-.01-.373-.003-.168.365-.01c.2-.004.367-.006.37-.002.005.004.022.47.026.7l.001.042.204-.006c.07 0 .14-.004.21-.012.008-.006-.02-1.208-.037-1.664l-.008-.206-.08.002c-.043.002-.137.005-.209.006Zm1.282.126c-.014.046-.391 1.812-.386 1.817.01.012 1.382.304 1.39.295a3.66 3.66 0 0 0 .078-.357 20.67 20.67 0 0 0-.488-.108c-.164-.034-.327-.07-.49-.108a2.527 2.527 0 0 1 .083-.365c.005 0 .16.032.342.072.182.04.334.07.336.07l.094-.162c.082-.146.1-.184.085-.184-.01 0-.779-.168-.781-.172.01-.06.021-.12.035-.178.03-.143.041-.176.056-.172.01.002.22.05.468.102l.47.103c.015.005.025-.026.057-.176.021-.1.036-.184.032-.188-.005-.004-1.347-.3-1.372-.303-.002 0-.007.007-.009.014Zm-4.038.178c-.459.098-.753.403-.806.835-.024.2.03.451.136.635.073.125.243.288.365.35.16.083.258.106.455.105a.753.753 0 0 0 .276-.034c.28-.085.456-.218.596-.454a.46.46 0 0 0 .045-.086c-.102-.059-.205-.117-.308-.174-.024-.012-.03-.007-.077.061a.637.637 0 0 1-.42.287c-.325.059-.633-.235-.634-.604 0-.217.114-.401.304-.489a.575.575 0 0 1 .474-.005c.044.017.088.034.1.036.014.005.038-.036.102-.177.096-.21.099-.192-.033-.243a.994.994 0 0 0-.575-.043Zm6.318.58a.539.539 0 0 0-.39.379.484.484 0 0 0 .02.354c.042.089.161.217.342.368.15.128.222.204.236.26.014.048-.003.1-.046.141-.035.033-.045.036-.118.036-.179-.002-.386-.158-.515-.39a1.467 1.467 0 0 0-.047-.082 2.642 2.642 0 0 0-.352.17c0 .019.06.126.117.206.282.397.785.59 1.108.426a.598.598 0 0 0 .269-.34.416.416 0 0 0 .008-.281c-.043-.135-.15-.262-.417-.488-.146-.122-.202-.198-.192-.259.014-.091.075-.136.177-.128.135.01.301.136.423.319l.056.084.164-.098.168-.099a.468.468 0 0 0-.048-.091 1.198 1.198 0 0 0-.159-.197c-.238-.238-.552-.35-.804-.29Zm-8.343.21c-.093.057-.17.11-.171.117 0 .01.322.549.554.925l.023.04-.04-.017c-.425-.17-.851-.336-1.28-.499a1.92 1.92 0 0 0-.325.2c0 .011.938 1.569.959 1.59.006.008.324-.176.35-.202a5.447 5.447 0 0 0-.288-.502c-.1-.164-.2-.33-.296-.496.002 0 .305.117.674.262.369.145.676.264.68.264.014 0 .296-.168.303-.18a59.786 59.786 0 0 0-.959-1.591c-.01-.011-.057.013-.184.09Zm9.853.63a2.07 2.07 0 0 0-.112.156c0 .004.1.084.22.176l.223.168-.9 1.18.04.03c.021.018.097.076.167.132l.13.098.05-.066c.03-.036.23-.3.448-.587.218-.286.402-.52.41-.517.009.003.106.074.216.16.11.084.208.157.216.162.015.01.249-.286.242-.304a49.662 49.662 0 0 0-1.226-.932.691.691 0 0 0-.124.144Zm-5.71.885a7.287 7.287 0 0 0-2.784.743c-.5.243-.97.542-1.4.893l-.105.085-.291.046c-.162.025-.338.055-.393.066l-.102.02-.038.174c-.022.096-.059.282-.084.414l-.045.24-.112.144a7.382 7.382 0 0 0 .09 9.222 7.431 7.431 0 0 0 4.328 2.59c.136.029.215.051.32.097.275.116.927.347 1.074.378.03.007.08-.004.198-.041.283-.092.563-.195.838-.308.198-.08.276-.106.402-.13a7.39 7.39 0 0 0 4.703-3.128 7.36 7.36 0 0 0 1.233-3.466c.022-.218.022-1.1 0-1.32a7.37 7.37 0 0 0-1.453-3.772l-.134-.18-.048-.256a15.75 15.75 0 0 0-.092-.459l-.043-.201-.223-.039-.418-.067a1.967 1.967 0 0 1-.21-.037 9.026 9.026 0 0 1-.163-.127 7.382 7.382 0 0 0-3.782-1.552 8.309 8.309 0 0 0-1.266-.029Zm1.05.438a6.927 6.927 0 0 1 3.16 1.07c.078.05.139.092.136.094a1.523 1.523 0 0 1-.165-.013 38.531 38.531 0 0 0-2.225-.163c-.4-.02-2.117-.028-2.596-.012a34.66 34.66 0 0 0-2.526.17 3.12 3.12 0 0 1-.244.02c-.008-.008.235-.163.432-.275.092-.054.282-.153.42-.22a6.88 6.88 0 0 1 3.608-.67Zm.45 1.493c1.378.047 2.768.18 3.814.366l.25.042c.068 0 .263 1.147.364 2.136.16 1.584.145 3.2-.043 4.548a5.303 5.303 0 0 1-.562 1.734 6.213 6.213 0 0 1-1.189 1.614c-.88.88-2.002 1.552-3.418 2.05-.074.029-.149.053-.225.074-.026 0-.44-.147-.665-.236-1.019-.402-1.855-.896-2.611-1.541a8.945 8.945 0 0 1-.746-.752c-.667-.792-1.102-1.65-1.305-2.565-.08-.355-.157-1.084-.2-1.854a30.56 30.56 0 0 1 0-1.854c.052-.986.141-1.81.291-2.682.077-.45.13-.666.166-.677a4.88 4.88 0 0 1 .229-.042c1.125-.194 2.495-.32 3.948-.365.297-.01 1.59-.005 1.902.004Zm-6.91 1.951a21.329 21.329 0 0 0-.092 3.815c.035.481.107 1.127.163 1.458.11.646.372 1.393.71 2.022a7.588 7.588 0 0 0 2.145 2.5c.052.04-.323-.148-.511-.256a7.534 7.534 0 0 1-1.013-.71c-.194-.16-.668-.631-.836-.832a6.97 6.97 0 0 1-1.58-3.486 5.543 5.543 0 0 1-.067-1.002 5.444 5.444 0 0 1 .053-.932c.106-.792.348-1.56.715-2.27.106-.205.328-.583.338-.574.002.003-.009.123-.026.267Zm11.947.083c.472.826.767 1.771.87 2.778.028.29.028.989 0 1.272a6.951 6.951 0 0 1-.6 2.244 7.037 7.037 0 0 1-2.766 3.094c-.219.132-.532.295-.471.246.023-.018.108-.086.188-.152a7.59 7.59 0 0 0 1.286-1.324 6.836 6.836 0 0 0 1.315-3.13c.175-1.226.222-2.67.133-4.062a23.043 23.043 0 0 0-.11-1.182l-.005-.048.038.06c.022.033.076.125.122.204Z" />
	<path fill="var(--svg-base)"
		d="m12.03 7.116-.172.06a.121.121 0 0 0-.013.026c-.007.023-.043.04-.182.088-.126.044-.174.066-.176.082-.004.02.004.021.12.013.287-.02.287-.02.309-.059.02-.037.064-.05.172-.052l.044-.002-.001.146c0 .082-.005.158-.01.17-.006.018-.089.051-.32.13-.29.099-.313.11-.354.154a.702.702 0 0 0-.091.769c.042.07.116.125.126.094a.717.717 0 0 1 .079-.092c.13-.135.336-.21.775-.284.203-.034.527-.072.535-.064.003.003-.319.118-.715.255-.788.273-.779.269-.842.387-.126.23-.072.623.122.888l.037.054.075-.079c.224-.229.513-.334 1.154-.42.168-.023.5-.058.504-.053.002.002-.396.141-.886.31l-.889.308-.045.064a.87.87 0 0 0-.131.35.547.547 0 0 0 .006.207c.01.059.017.11.014.11-.007.009-.09-.172-.126-.274a1.763 1.763 0 0 1-.054-.195 1.724 1.724 0 0 1-.002-.486l.015-.09-.066-.084c-.184-.24-.265-.523-.212-.756a.374.374 0 0 0 .014-.098c-.077.02-.153.045-.228.073a5.054 5.054 0 0 1-.235.078c-.006 0-.013-.14-.018-.308a9.622 9.622 0 0 0-.012-.313c-.06.016-.118.035-.176.057-.129.046-.18.07-.203.095-.022.025-.072.048-.194.091-.114.04-.166.062-.166.074 0 .016.022.017.16.01.224-.012.25-.018.27-.058.016-.034.028-.04.144-.05l.074-.008v.454l-.29.099c-.33.111-.334.114-.41.271a.748.748 0 0 0-.085.39c-.001.172.017.25.08.342.06.09.067.09.145.014.127-.124.375-.22.746-.288.194-.036.492-.072.545-.065.025.002-.186.078-.684.249-.806.276-.732.239-.791.391a.897.897 0 0 0-.02.419 1 1 0 0 0 .182.358c.082.1.11.116.133.081.039-.054.213-.124.375-.151l.05-.008v.163c0 .147-.002.163-.02.163a10.806 10.806 0 0 1-.952-.14c-.557-.102-.91-.189-1.146-.279-.053-.02-.1-.037-.103-.037-.008 0-.026.052-.028.076-.001.004.084.044.188.086.268.108.461.19.627.27.155.072.168.084.308.27.068.09.31.445.31.455 0 .004-.58.007-1.289.007h-1.29l.006.08c.003.046.009.146.012.222l.008.142h10.41l.008-.058c.004-.03.01-.13.014-.222l.008-.164H14.82l-.035-.051a.46.46 0 0 1-.074-.19c0-.082.029-.134.132-.245.16-.17.257-.331.28-.466.01-.052.019-.051-.148-.02-.158.03-.648.1-.87.126l-.206.022-.04.007v-.14l.052-.02c.07-.026 1.378-.475 1.383-.475.013 0-.001-.031-.055-.125a1.988 1.988 0 0 1-.248-.685 3.858 3.858 0 0 1 .019-.832c.013-.088.027-.171.031-.183.005-.014.001-.023-.008-.023-.009 0-.276.09-.596.2-.318.11-.582.197-.584.194-.004-.003-.01-.272-.013-.595-.006-.408-.013-.591-.022-.591-.007 0-.086.025-.175.055-.122.042-.17.065-.193.092-.024.026-.073.048-.198.092-.105.037-.167.065-.167.074 0 .02.032.02.262.005.141-.008.142-.008.163-.043.021-.04.031-.043.15-.058l.082-.01-.008.806c-.018 1.882-.02 2.031-.042 2a3.501 3.501 0 0 1-.384-.73 1.27 1.27 0 0 1-.07-.531c.004-.115.015-.245.025-.287l.016-.078-.073-.108a1.55 1.55 0 0 1-.205-.405 1.02 1.02 0 0 1-.044-.448c.01-.08.01-.086-.016-.114a.932.932 0 0 1-.15-.263.724.724 0 0 1-.018-.508c.017-.06.022-.093.013-.093-.007 0-.134.042-.283.095l-.27.094-.004-.256c-.002-.194-.006-.257-.018-.256-.007 0-.09.026-.182.059Zm-.839 3.858.215.022a.256.256 0 0 1 .074.076c.028.039.08.1.118.136l.066.065.02-.029a.489.489 0 0 1 .178-.146c.068-.035.19-.082.212-.082.005 0 .01.084.01.188v.188l-.458-.009c-.57-.01-1.196-.038-1.22-.054a.869.869 0 0 1-.018-.184l-.008-.176.038-.005c.105-.013.6-.007.773.01Zm1.808 0c.217.022.526.076.673.115.043.012.044.013.044.07v.057l-.08.009-.274.02a1.098 1.098 0 0 0-.372.071l-.18.058-.284.008-.286.008v-.409l.04-.006c.02-.004.051-.008.068-.01.08-.014.504-.006.65.009Zm-1.636.83c.088.009.283.041.431.07.36.07.491.083.728.073.217-.008.37-.035.522-.09.1-.037.103-.038.216-.024a6 6 0 0 1 .444.095c.18.046.34.085.354.088.013.004-1.006.006-2.265.007-1.26 0-2.29-.001-2.29-.005 0-.018.038-.076.069-.104a.311.311 0 0 1 .186-.077c.065-.008.076-.005.472.081.15.033.19.036.366.036.3 0 .487-.044.553-.133.014-.02.034-.037.04-.037l.174.02Z" />
	<path fill="var(--svg-base)"
		d="M9.41 9.2a3.836 3.836 0 0 0-1.09 1.089c-.099.146-.268.457-.268.49 0 .011.059.015.262.016.265.001.415.017.722.077.062.012.115.02.118.018 0-.048-.004-.095-.01-.143a3.233 3.233 0 0 1 .022-.73c.063-.293.165-.57.28-.769a.4.4 0 0 0 .044-.087.366.366 0 0 0-.08.04Zm-2.534 3.444c0 .114.07.788.108 1.055.197 1.344.984 2.638 2.202 3.612a8.67 8.67 0 0 0 2.182 1.246c.266.107.607.228.615.22a43.822 43.822 0 0 0-1.036-1.257.956.956 0 0 0-.087.024c-.135.04-.216.024-.266-.059-.025-.04-.028-.062-.034-.246l-.006-.202-1.83-2.212a331.066 331.066 0 0 0-1.838-2.212c-.006-.001-.01.013-.01.031Zm1.749.068c.044.054.429.52.855 1.032l.774.934.02-.064a.357.357 0 0 1 .12-.198c.08-.075.146-.11.304-.158a.87.87 0 0 0 .479-.348 1.51 1.51 0 0 1 .12-.145c.017-.017.031-.034.031-.04 0-.004-.205-.257-.457-.561l-.457-.552H8.543l.082.1ZM12 12.62c0 .014 1.252 1.526 1.295 1.565.019.018.079.047.134.065a.717.717 0 0 1 .296.163.53.53 0 0 1 .123.202c0 .007.012.013.028.013.037 0 .379.119.42.146a.162.162 0 0 1 .066.155c-.005.048-.02.077-.099.184-.055.077-.088.133-.084.141.434.53.872 1.056 1.313 1.58.012.004.22-.213.37-.388.152-.175.338-.421.463-.61.084-.127.091-.143.075-.162a757.13 757.13 0 0 1-1.278-1.542l-1.263-1.52h-.93c-.511 0-.929.004-.929.008Zm3.548.006c.006.009.338.41.737.89l.725.876.026-.09a5.33 5.33 0 0 0 .135-.646c.04-.29.097-.874.097-.994v-.05h-.866c-.69 0-.863.004-.854.014Zm-3.591.84c-.125.162-.12.15-.083.18.064.05.104.101.142.18a.343.343 0 0 0 .046.082c.004 0 .011-.016.016-.036a.577.577 0 0 1 .144-.214l.047-.037-.03-.04a2.73 2.73 0 0 0-.18-.237c-.004 0-.05.055-.102.122Zm-.371.323c-.121.023-.179.068-.3.227-.166.218-.313.324-.558.396-.125.037-.17.062-.227.127a.336.336 0 0 0-.081.257c.014.16.135.277.348.332.043.012.082.017.087.012.005-.004-.002-.034-.016-.062a.292.292 0 0 1-.004-.232c.04-.079.095-.116.244-.164.074-.024.154-.054.177-.066.052-.028.129-.107.227-.236a.388.388 0 0 1 .137-.13.26.26 0 0 1 .31.055c.022.025.041.035.053.03.018-.007.02-.025.014-.145-.008-.149-.032-.224-.098-.302a.359.359 0 0 0-.313-.099Z" />
	<path fill="var(--svg-base)"
		d="M12.373 13.794a.33.33 0 0 0-.22.192.467.467 0 0 0-.03.2c-.005.105-.002.142.009.142.008 0 .036-.02.064-.042.058-.05.15-.082.212-.07.092.016.16.069.241.19a.72.72 0 0 0 .172.185c.02.013.102.045.181.073.08.026.164.062.188.078a.259.259 0 0 1 .084.326c-.033.064-.033.076.001.076.04 0 .195-.054.254-.089a.344.344 0 0 0 .14-.434c-.05-.114-.133-.173-.349-.244a.945.945 0 0 1-.511-.377 1.188 1.188 0 0 0-.118-.141.376.376 0 0 0-.318-.065Z" />
	<path fill="var(--svg-base)"
		d="M12.254 14.425a.24.24 0 0 0-.084.075l-.032.049v.721l.066.033a.428.428 0 0 1 .11.082l.042.05.312-.099c.17-.055.33-.11.354-.121a.222.222 0 0 0 .106-.25c-.023-.086-.07-.127-.2-.169a.992.992 0 0 1-.184-.086c-.066-.043-.1-.08-.209-.22a.229.229 0 0 0-.28-.065Zm-.604.015a.309.309 0 0 0-.083.08.668.668 0 0 1-.366.276c-.154.053-.213.116-.213.234 0 .034.009.077.02.096.04.08.072.095.406.203a7.5 7.5 0 0 0 .338.103c.008 0 .037-.023.062-.05a.42.42 0 0 1 .112-.077l.062-.029v-.344c0-.311-.002-.35-.022-.394-.042-.089-.103-.126-.21-.126a.192.192 0 0 0-.106.028Zm-1.575.41c-.085.03-.157.056-.16.06-.009.009.178.282.193.282.006 0 .026-.01.045-.024a.483.483 0 0 1 .235-.072c.035 0 .064-.002.064-.007a.554.554 0 0 0-.072-.072.527.527 0 0 1-.11-.144c-.02-.042-.038-.077-.039-.076l-.156.053Zm3.761.016a.49.49 0 0 1-.104.144.989.989 0 0 0-.076.08c0 .001.037.006.082.009.075.006.145.03.255.09a2.23 2.23 0 0 0 .198-.267c.005-.01-.044-.032-.151-.07a4.659 4.659 0 0 0-.166-.056.236.236 0 0 0-.038.07Zm-.318.338c-.11.026-.21.065-.21.08 0 .009.013.022.03.028a.265.265 0 0 1 .168.24c0 .078-.018.116-.11.24-.116.154-.126.19-.136.416-.008.189-.01.197-.043.253a.321.321 0 0 1-.095.093c-.053.033-.067.036-.152.035-.064-.001-.094.002-.094.012 0 .022.083.139.138.194a.347.347 0 0 0 .235.11.329.329 0 0 0 .253-.08c.095-.084.129-.196.13-.44 0-.2.066-.383.202-.565.11-.148.116-.162.116-.28 0-.087-.005-.11-.032-.162a.385.385 0 0 0-.066-.092.402.402 0 0 0-.334-.082Zm-3.156.029a.346.346 0 0 0-.179.2c-.04.136-.017.225.11.41.163.24.207.372.207.621 0 .19.017.252.09.334a.346.346 0 0 0 .502.017.833.833 0 0 0 .152-.207c0-.01-.016-.013-.059-.007a.273.273 0 0 1-.218-.062c-.078-.068-.095-.116-.095-.285 0-.194-.02-.261-.106-.386-.133-.192-.139-.204-.144-.285-.004-.058 0-.085.02-.122a.326.326 0 0 1 .138-.136c.06-.022.036-.05-.076-.087-.136-.043-.256-.046-.342-.005Z" />
	<path fill="var(--svg-base)"
		d="M12.716 15.463c-.17.056-.31.108-.313.116a1.812 1.812 0 0 0-.017.083.394.394 0 0 1-.044.116c-.02.032-.029.054-.022.066.046.075.399.542.424.56a.261.261 0 0 0 .248.014.25.25 0 0 0 .1-.132.826.826 0 0 0 .012-.147c0-.137.03-.233.108-.347.085-.124.096-.146.096-.216a.204.204 0 0 0-.1-.186c-.087-.05-.139-.043-.492.073Zm-1.8-.064c-.07.039-.108.115-.102.203a.22.22 0 0 0 .053.136c.118.166.144.236.155.426.004.07.01.137.014.15.013.044.054.09.104.115.064.034.177.029.232-.01.046-.033.424-.549.424-.579a.27.27 0 0 0-.03-.08.433.433 0 0 1-.039-.122l-.007-.062-.314-.102c-.352-.114-.407-.123-.49-.075Zm1.091.033c-.147.047-.167.26-.031.33a.23.23 0 0 0 .188-.006c.104-.062.105-.228.004-.301a.218.218 0 0 0-.16-.023Zm-.135.542c-.278.376-.355.484-.365.51a.237.237 0 0 0 .082.262c.072.047.128.05.244.01a.713.713 0 0 1 .448 0c.121.04.182.037.25-.008a.24.24 0 0 0 .081-.267 4.511 4.511 0 0 0-.212-.303l-.2-.268-.048.01a.506.506 0 0 1-.19 0c-.042-.01-.044-.01-.09.054Z" />
	<path fill="var(--svg-base)"
		d="M11.288 16.757c-.087.119-.116.19-.116.289.001.186.127.32.316.338.064.006.098 0 .248-.043.278-.081.44-.08.678.003.194.067.34.045.446-.066a.353.353 0 0 0 .058-.38c-.037-.08-.137-.218-.157-.218-.009 0-.02.023-.023.054a.284.284 0 0 1-.235.23c-.042.004-.084-.005-.206-.043-.196-.062-.236-.062-.448-.001a1.6 1.6 0 0 1-.198.048.281.281 0 0 1-.258-.23c-.011-.08-.035-.076-.105.019Zm2.476-.056a.559.559 0 0 1-.096.195.41.41 0 0 1-.074.07l-.04.028.004.196c.002.121-.002.215-.01.247a.184.184 0 0 1-.128.13c-.044.012-.066.008-.21-.036a3.605 3.605 0 0 1-.217-.073l-.056-.024-.035.025a.548.548 0 0 1-.21.082l-.058.009.325.392c.18.218.329.394.332.394.003 0 .093-.044.2-.098a8.21 8.21 0 0 0 .895-.51l.171-.112-.022-.029a40.695 40.695 0 0 0-.76-.907c-.006 0-.011.01-.011.02Zm-2.747.273a.528.528 0 0 1-.239.078h-.054l.009.17c.005.095.01.173.013.176.005.004.31-.083.32-.093a.225.225 0 0 0-.01-.079.489.489 0 0 1 .015-.256c.01-.034-.002-.032-.054.004Z" />
	<path fill="var(--svg-base)"
		d="M13.049 16.97c.029.1.035.168.02.245a.23.23 0 0 0-.005.09c.018.016.304.099.312.09a.94.94 0 0 0 .014-.174l.004-.165-.076-.006a.51.51 0 0 1-.24-.09c-.02-.025-.038-.02-.03.01ZM4.863 5.083l-.133.14.04.092c.089.207.766 1.75.775 1.769.01.017.035-.004.155-.132.08-.083.144-.158.144-.166 0-.008-.04-.102-.089-.21l-.09-.196.159-.168.267-.282.11-.114.208.08.209.082.146-.154c.08-.084.146-.159.146-.165 0-.008-1.553-.59-1.901-.71a.792.792 0 0 0-.146.134Zm.683.48.273.104-.159.167C5.574 5.926 5.5 6 5.496 6c-.005 0-.232-.49-.25-.544-.003-.006.003-.01.011-.006l.29.112Zm12.952.108a23.19 23.19 0 0 0-.708.606c0 .016.895 1.09.908 1.09.011.002.286-.227.286-.238 0-.004-.142-.176-.314-.383a20.118 20.118 0 0 1-.32-.385.908.908 0 0 1 .136-.126c.137-.115.14-.117.162-.095.012.012.112.131.222.263.112.132.21.241.22.244.018.002.358-.11.372-.124a7.736 7.736 0 0 0-.267-.325 5.354 5.354 0 0 1-.264-.331 2.14 2.14 0 0 1 .135-.118c.111-.094.13-.104.146-.09.01.01.154.179.318.377.166.198.304.36.308.36.015.001.28-.227.28-.24 0-.018-.884-1.078-.9-1.078-.006 0-.33.266-.72.593ZM3.618 6.686a2.72 2.72 0 0 0-.1.202c-.002.01.099.196.225.41.125.213.227.39.225.39-.15.013-.301.025-.452.034-.283.02-.455.037-.463.047a2.426 2.426 0 0 0-.11.2l-.099.188.818.43c.45.236.825.432.833.435.013.003.197-.328.197-.354 0-.008-.235-.136-.523-.287l-.523-.275.441-.044c.244-.024.453-.045.465-.045.01-.001.02-.006.02-.01 0-.007-.094-.18-.208-.388l-.223-.406c-.013-.022.008-.015.133.05.632.335.905.475.912.467.03-.028.19-.355.18-.364a82.4 82.4 0 0 0-1.64-.862c-.007 0-.055.082-.108.182Zm16.14.604c-.275.14-.55.28-.827.418-.007.002.16.357.179.378a4.97 4.97 0 0 0 .269-.129l.265-.133.066.132c.036.072.066.137.066.144 0 .008-.078.151-.174.32l-.172.307.106.214c.06.118.112.215.118.215.004 0 .094-.156.2-.347l.19-.346.053.04c.118.09.263.133.402.12a.683.683 0 0 0 .533-.351.386.386 0 0 0 .05-.205c.01-.195-.012-.252-.262-.757a4.821 4.821 0 0 0-.23-.434c-.009.001-.383.188-.832.414Zm.802.361c.106.216.11.227.11.305 0 .072-.005.089-.036.133-.07.101-.211.144-.31.095-.082-.038-.13-.104-.243-.326l-.101-.202.224-.112a4.41 4.41 0 0 1 .236-.115c.004-.001.058.1.12.222ZM3.308 11.484a.42.42 0 0 0-.213.11c-.11.108-.103.312.01.409l.037.03-.056.04c-.078.059-.104.115-.104.227.001.106.026.166.097.227.108.096.306.133.483.091a.374.374 0 0 0 .188-.092c.068-.06.095-.122.095-.226.001-.077-.004-.098-.031-.145a.333.333 0 0 0-.08-.088l-.049-.034.036-.03a.257.257 0 0 0 .088-.207c0-.138-.071-.236-.208-.29a.723.723 0 0 0-.293-.022Zm.177.22c.123.052.093.225-.041.236-.074.006-.1-.001-.14-.04-.11-.112.027-.26.18-.195Zm.024.469c.094.04.117.127.051.193-.072.072-.22.072-.292 0-.064-.064-.048-.144.037-.186a.279.279 0 0 1 .204-.007Zm16.83-.685a.454.454 0 0 0-.208.13.413.413 0 0 0-.001.5c.094.111.33.153.482.086l.054-.024-.008.034a.295.295 0 0 1-.1.155c-.067.044-.17.038-.272-.015a.292.292 0 0 0-.09-.036.675.675 0 0 0-.116.188c.01.028.132.093.212.113.115.029.26.02.356-.024a.466.466 0 0 0 .213-.21c.087-.17.1-.469.029-.659a.434.434 0 0 0-.22-.223.776.776 0 0 0-.331-.015Zm.254.24c.119.079.102.228-.031.278a.186.186 0 0 1-.212-.042c-.039-.038-.046-.053-.046-.098 0-.066.02-.103.07-.138a.221.221 0 0 1 .22 0ZM2.368 11.53a2.128 2.128 0 0 0-.154.051c-.006.006.038.202.047.212l.091-.021.094-.024s.002.197.002.438v.438h.264v-1.14l-.098.001a.83.83 0 0 0-.246.045Zm19.075.294-.308.356c-.01.015-.009.039.005.106l.02.086h.548v.252h.24v-.252h.156v-.204h-.156v-.684h-.214l-.291.34Zm.265.188v.156h-.276l.133-.156c.073-.086.136-.156.138-.156.003 0 .005.07.005.156ZM9.63 19.988c-.518.11-.839.607-.744 1.15a.95.95 0 0 0 .696.764c.133.039.42.039.562 0a.973.973 0 0 0 .446-.265l.047-.049-.137-.138-.138-.138-.082.066c-.264.212-.583.212-.79.002-.28-.284-.204-.793.142-.964a.372.372 0 0 1 .203-.05.48.48 0 0 1 .193.02.799.799 0 0 1 .263.146.2.2 0 0 0 .053.036 1.4 1.4 0 0 0 .145-.154l.133-.152-.062-.056a.919.919 0 0 0-.454-.221 1.688 1.688 0 0 0-.476.003Zm1.398 1.912h.42v-1.908h-.42V21.9Zm.804-1.512h.576V21.9h.432v-1.512h.576v-.396h-1.584v.396ZM13.584 20c0 .006.164.27.366.586l.366.576v.738h.42v-.745l.361-.565c.2-.311.364-.573.368-.582.004-.012-.04-.016-.238-.016l-.245.001-.222.371c-.122.204-.226.37-.23.372-.004 0-.107-.167-.227-.372l-.221-.37-.248-.002c-.138 0-.25.003-.25.008Z" />
</svg>