<svg width="24" height="24" viewBox="0 0 24 24" fill="none" xmlns="http://www.w3.org/2000/svg">
<path fill-rule="evenodd" clip-rule="evenodd" d="M8.40851 5.0112C7.85975 4.95267 7.30481 5.00838 6.77865 5.17481C6.25248 5.34124 5.7665 5.61479 5.35129 5.97822C4.93608 6.34165 4.60065 6.78708 4.36611 7.28646C4.13156 7.78584 4.00298 8.32836 3.98845 8.87986C3.97392 9.43135 4.07375 9.97988 4.28168 10.4909C4.4896 11.0019 4.80111 11.4644 5.1966 11.8492L5.20292 11.8553L5.20289 11.8554L11.9954 18.5813L18.7879 11.8554C18.8086 11.8349 18.83 11.8154 18.852 11.7971C19.2154 11.4244 19.5028 10.984 19.6975 10.5007C19.9031 9.99053 20.0011 9.44347 19.9854 8.89373C19.9698 8.34399 19.8408 7.80338 19.6066 7.30575C19.3724 6.80812 19.0379 6.36417 18.6242 6.00169C18.2104 5.63921 17.7263 5.366 17.2021 5.19918C16.6778 5.03236 16.1248 4.97552 15.5776 5.03222C15.0304 5.08891 14.5007 5.25793 14.0219 5.52868C13.543 5.79943 13.1252 6.16608 12.7946 6.60567C12.6051 6.85764 12.3079 7.00549 11.9926 7.00461C11.6773 7.00374 11.3809 6.85423 11.1928 6.60121C10.8637 6.1584 10.4464 5.78852 9.96716 5.51487C9.48796 5.24122 8.95727 5.06972 8.40851 5.0112ZM20.1261 13.3448L12.699 20.6992C12.3093 21.0851 11.6815 21.0851 11.2918 20.6992L3.79867 13.2795C3.20684 12.7028 2.74057 12.0101 2.42915 11.2447C2.11715 10.4778 1.96734 9.65474 1.98914 8.82718C2.01094 7.99963 2.20389 7.18555 2.55583 6.43622C2.90777 5.6869 3.41107 5.01856 4.03403 4.47329C4.65699 3.92801 5.38611 3.51762 6.17547 3.26793C6.96484 3.01824 7.79736 2.93467 8.62061 3.02248C9.44387 3.11028 10.24 3.36756 10.959 3.77811C11.3327 3.99156 11.6814 4.24404 11.9995 4.53064C12.3172 4.24751 12.6651 3.99826 13.0375 3.78769C13.756 3.38148 14.5505 3.12792 15.3715 3.04286C16.1924 2.95781 17.0221 3.04308 17.8085 3.29335C18.595 3.54362 19.3214 3.9535 19.9421 4.49735C20.5629 5.04121 21.0647 5.70732 21.4162 6.45402C21.7676 7.20072 21.9612 8.01192 21.9846 8.83685C22.0081 9.66177 21.861 10.4827 21.5526 11.2481C21.2442 12.0136 20.781 12.7072 20.1922 13.2854C20.1708 13.3064 20.1488 13.3262 20.1261 13.3448Z" fill="var(--svg-base)"/>
</svg>
