<svg width="24" height="24" viewBox="0 0 24 24" fill="none" xmlns="http://www.w3.org/2000/svg">
<path fill-rule="evenodd" clip-rule="evenodd" d="M12.5867 3.08942C12.944 2.92726 13.3631 2.98902 13.6584 3.24734L21.6584 10.2451C21.8755 10.435 22 10.7094 22 10.9978C22 11.2862 21.8755 11.5606 21.6584 11.7505L13.6584 18.7483C13.3631 19.0066 12.944 19.0684 12.5867 18.9062C12.2294 18.7441 12 18.388 12 17.9956V15.1135C11.3392 15.2541 10.6438 15.5165 9.93323 15.8729C8.85762 16.4124 7.80691 17.137 6.87442 17.8725C5.9448 18.6058 5.15157 19.3349 4.58868 19.8729C4.39265 20.0603 4.23013 20.219 4.09461 20.3514C4.03291 20.4116 3.9768 20.4665 3.92567 20.516C3.85164 20.5878 3.77463 20.6616 3.71298 20.7154L3.71067 20.7174C3.69029 20.7353 3.61866 20.798 3.52955 20.8518C3.50173 20.8686 3.44809 20.8995 3.37666 20.928C3.32625 20.9481 3.15542 21.0142 2.92773 20.9972C2.62074 20.9743 2.26081 20.7951 2.08719 20.4068C1.96278 20.1285 2.00403 19.8833 2.01574 19.8181L2.01718 19.8101L2.01721 19.8101C2.97139 14.7371 5.38636 8.65188 12 7.17098V4.00002C12 3.60767 12.2294 3.25157 12.5867 3.08942ZM14 6.20333V7.99875C14 8.49142 13.6412 8.91068 13.1544 8.98676C8.49135 9.7156 6.07062 13.082 4.78443 17.0002C5.05259 16.7722 5.33728 16.5377 5.63578 16.3022C6.63093 15.5173 7.79865 14.7061 9.03657 14.0852C10.2669 13.4681 11.6272 13.0081 12.9917 12.9969C13.2584 12.9947 13.5149 13.0991 13.7042 13.2869C13.8935 13.4746 14 13.7302 14 13.9969V15.7923L19.4811 10.9978L14 6.20333ZM2.39797 19.2085C2.38934 19.216 2.39091 19.2141 2.40043 19.2063C2.39955 19.2071 2.39873 19.2078 2.39797 19.2085Z" fill="var(--svg-base)"/>
</svg>
