<svg width="24" height="24" viewBox="0 0 24 24" fill="none" xmlns="http://www.w3.org/2000/svg">
<path fill-rule="evenodd" clip-rule="evenodd" d="M15.1716 3.17157C15.9217 2.42143 16.9391 2 18 2C19.0609 2 20.0783 2.42143 20.8284 3.17157C21.5786 3.92172 22 4.93913 22 6C22 7.06087 21.5786 8.07828 20.8284 8.82843C20.0783 9.57857 19.0609 10 18 10C16.9391 10 15.9217 9.57857 15.1716 8.82843C15.0979 8.75478 15.0274 8.67855 14.9602 8.59995L9.91861 11.1971C9.97235 11.4594 10 11.7283 10 12C10 12.2717 9.97235 12.5406 9.91862 12.8029L14.9602 15.4C15.0274 15.3215 15.0979 15.2452 15.1716 15.1716C15.9217 14.4214 16.9391 14 18 14C19.0609 14 20.0783 14.4214 20.8284 15.1716C21.5786 15.9217 22 16.9391 22 18C22 19.0609 21.5786 20.0783 20.8284 20.8284C20.0783 21.5786 19.0609 22 18 22C16.9391 22 15.9217 21.5786 15.1716 20.8284C14.4214 20.0783 14 19.0609 14 18C14 17.7283 14.0276 17.4594 14.0814 17.1971L9.03981 14.5999C8.97258 14.6785 8.90209 14.7548 8.82843 14.8284C8.07828 15.5786 7.06087 16 6 16C4.93913 16 3.92172 15.5786 3.17157 14.8284C2.42143 14.0783 2 13.0609 2 12C2 10.9391 2.42143 9.92172 3.17157 9.17157C3.92172 8.42143 4.93913 8 6 8C7.06087 8 8.07828 8.42143 8.82843 9.17157C8.90209 9.24523 8.97258 9.32147 9.03981 9.40007L14.0814 6.8029C14.0276 6.54062 14 6.27174 14 6C14 4.93913 14.4214 3.92172 15.1716 3.17157ZM7.82984 12.8073C7.82338 12.8187 7.81712 12.8303 7.81106 12.842C7.79656 12.8702 7.78352 12.8987 7.77192 12.9275C7.67886 13.1053 7.55874 13.2697 7.41421 13.4142C7.03914 13.7893 6.53043 14 6 14C5.46957 14 4.96086 13.7893 4.58579 13.4142C4.21071 13.0391 4 12.5304 4 12C4 11.4696 4.21071 10.9609 4.58579 10.5858C4.96086 10.2107 5.46957 10 6 10C6.53043 10 7.03914 10.2107 7.41421 10.5858C7.55874 10.7303 7.67886 10.8947 7.77193 11.0725C7.78353 11.1013 7.79656 11.1298 7.81106 11.158C7.81712 11.1697 7.82338 11.1813 7.82983 11.1927C7.94099 11.4447 8 11.7193 8 12C8 12.2807 7.94099 12.5553 7.82984 12.8073ZM16.1699 17.1934C16.0589 17.4451 16 17.7195 16 18C16 18.5304 16.2107 19.0391 16.5858 19.4142C16.9609 19.7893 17.4696 20 18 20C18.5304 20 19.0391 19.7893 19.4142 19.4142C19.7893 19.0391 20 18.5304 20 18C20 17.4696 19.7893 16.9609 19.4142 16.5858C19.0391 16.2107 18.5304 16 18 16C17.4696 16 16.9609 16.2107 16.5858 16.5858C16.4414 16.7301 16.3214 16.8943 16.2284 17.0718C16.2167 17.1009 16.2036 17.1296 16.189 17.158C16.1828 17.1699 16.1765 17.1817 16.1699 17.1934ZM16.5858 7.41421C16.4414 7.26986 16.3214 7.10572 16.2284 6.92816C16.2167 6.89914 16.2036 6.8704 16.189 6.84204C16.1828 6.83006 16.1765 6.81826 16.1699 6.80663C16.0589 6.55486 16 6.28047 16 6C16 5.46957 16.2107 4.96086 16.5858 4.58579C16.9609 4.21071 17.4696 4 18 4C18.5304 4 19.0391 4.21071 19.4142 4.58579C19.7893 4.96086 20 5.46957 20 6C20 6.53043 19.7893 7.03914 19.4142 7.41421C19.0391 7.78929 18.5304 8 18 8C17.4696 8 16.9609 7.78929 16.5858 7.41421Z" fill="var(--svg-base)"/>
</svg>
