<svg width="24" height="24" viewBox="0 0 24 24" fill="none" xmlns="http://www.w3.org/2000/svg">
<path d="M21.239 8.16913C20.734 6.95013 20.005 5.85812 19.071 4.92512C18.137 3.99212 17.046 3.26213 15.827 2.75713C13.391 1.74813 10.613 1.74713 8.173 2.75713C6.953 3.26213 5.861 3.99112 4.93 4.92512C3.996 5.85912 3.267 6.95013 2.762 8.16913C2.256 9.39013 2 10.6771 2 11.9961C2 13.3151 2.256 14.6011 2.762 15.8221C3.266 17.0401 3.995 18.1321 4.93 19.0661C5.862 20.0001 6.953 20.7291 8.174 21.2341C9.395 21.7401 10.682 21.9961 12 21.9961C13.318 21.9961 14.606 21.7401 15.827 21.2341C17.046 20.7291 18.138 20.0001 19.071 19.0661C20.004 18.1321 20.735 17.0401 21.239 15.8221C21.744 14.6031 22 13.3161 22 11.9961C22 10.6761 21.744 9.38812 21.239 8.16913ZM15.062 19.3871C13.109 20.1961 10.894 20.1961 8.939 19.3871C8.452 19.1851 7.991 18.9391 7.559 18.6501C8.762 17.5221 10.347 16.8861 12.001 16.8861C13.655 16.8861 15.24 17.5221 16.443 18.6501C16.01 18.9391 15.549 19.1851 15.062 19.3871ZM19.392 15.0571C19.045 15.8951 18.558 16.6521 17.955 17.3251C16.367 15.7641 14.23 14.8861 12.001 14.8861C9.772 14.8861 7.635 15.7641 6.047 17.3251C5.444 16.6521 4.957 15.8951 4.61 15.0571C4.206 14.0801 4.001 13.0511 4.001 11.9961C4.001 10.9411 4.206 9.91113 4.61 8.93412C5.014 7.95813 5.597 7.08512 6.345 6.33812C7.09 5.59112 7.963 5.00813 8.939 4.60413C9.915 4.20113 10.945 3.99613 12.001 3.99613C13.057 3.99613 14.088 4.20113 15.063 4.60413C16.039 5.00813 16.912 5.59112 17.659 6.33812C18.406 7.08512 18.989 7.95813 19.393 8.93412C19.796 9.90912 20.001 10.9391 20.001 11.9961C20.001 13.0531 19.795 14.0821 19.392 15.0571ZM12 6.24612C9.933 6.24612 8.25 7.92912 8.25 9.99612C8.25 12.0631 9.933 13.7461 12 13.7461C14.067 13.7461 15.75 12.0631 15.75 9.99612C15.75 7.92912 14.067 6.24612 12 6.24612ZM12 11.7461C11.035 11.7461 10.25 10.9611 10.25 9.99612C10.25 9.03112 11.035 8.24612 12 8.24612C12.965 8.24612 13.75 9.03112 13.75 9.99612C13.75 10.9611 12.965 11.7461 12 11.7461Z" fill="var(--svg-base)"/>
</svg>
