<svg width="24" height="24" viewBox="0 0 24 24" fill="none" xmlns="http://www.w3.org/2000/svg">
<path fill-rule="evenodd" clip-rule="evenodd" d="M22.8659 19.918C22.8359 20.313 22.5439 20.635 22.1399 20.706C22.1279 20.709 22.1159 20.712 22.1029 20.715C22.0639 20.72 22.0319 20.742 21.9919 20.742H17.1669C17.0249 20.742 16.9229 20.607 16.9619 20.471C17.0459 20.174 17.0539 19.857 16.9819 19.545C16.6239 18.052 15.8819 16.683 14.8319 15.567C14.6449 15.38 14.7279 15.274 14.9219 15.212C15.3959 15.081 15.8899 15.015 16.3899 14.996C16.4159 14.993 16.4399 14.984 16.4669 14.983L16.6219 14.98C16.6279 14.98 16.6329 14.98 16.6379 14.98C16.6419 14.98 16.6459 14.98 16.6499 14.98H16.6819C18.4029 14.98 20.0199 15.645 21.2399 16.853C21.2489 16.861 21.2569 16.869 21.2649 16.877C21.9789 17.586 22.5229 18.469 22.8379 19.429C22.8909 19.589 22.8959 19.756 22.8659 19.918ZM14.4229 12.535C13.7889 11.901 13.4339 11.059 13.4209 10.164C13.4179 10.102 13.4209 10.038 13.4299 9.975C13.4419 9.498 13.5629 9.028 13.7859 8.589C13.9449 8.262 14.1599 7.961 14.4229 7.698C14.4329 7.688 14.4419 7.679 14.4509 7.671C15.0909 7.042 15.9369 6.696 16.8409 6.696C17.7449 6.696 18.6289 7.06 19.2619 7.696L19.2639 7.698C19.9099 8.344 20.2669 9.204 20.2669 10.117C20.2669 11.03 19.9109 11.888 19.2639 12.535C18.6269 13.172 17.7439 13.537 16.8409 13.537C15.9279 13.537 15.0699 13.182 14.4229 12.535ZM15.4219 10.165C15.4339 10.526 15.5809 10.864 15.8369 11.121C16.3729 11.657 17.3189 11.651 17.8499 11.121C18.1189 10.852 18.2669 10.495 18.2669 10.117C18.2669 9.739 18.1189 9.381 17.8499 9.112C17.8499 9.112 17.8459 9.109 17.8459 9.108C17.3239 8.584 16.3699 8.578 15.8419 9.108C15.8349 9.116 15.8259 9.123 15.8189 9.13C15.7229 9.231 15.6439 9.342 15.5859 9.463C15.5699 9.495 15.5499 9.534 15.5299 9.565C15.4769 9.676 15.4279 9.872 15.4259 10.077C15.4259 10.095 15.4239 10.13 15.4229 10.165H15.4219ZM5.77291 10.962C5.00191 10.191 4.57891 9.168 4.57891 8.078C4.57891 6.988 5.00291 5.965 5.77291 5.194C6.54291 4.423 7.56691 4 8.65691 4C9.74691 4 10.7699 4.424 11.5409 5.194C12.3119 5.964 12.7349 6.988 12.7349 8.078C12.7349 9.168 12.3109 10.191 11.5409 10.962C10.7709 11.733 9.74691 12.156 8.65691 12.156C7.56691 12.156 6.54391 11.732 5.77291 10.962ZM6.57891 8.078C6.57891 8.625 6.80091 9.161 7.18691 9.548C7.95991 10.321 9.35291 10.321 10.1259 9.548C10.5129 9.161 10.7339 8.625 10.7339 8.078C10.7339 7.531 10.5119 6.995 10.1259 6.608C9.73991 6.221 9.20291 6 8.65591 6C8.10891 6 7.57291 6.222 7.18591 6.608C6.79891 6.994 6.57891 7.531 6.57891 8.078ZM15.8849 19.442C15.9019 19.494 15.9129 19.547 15.9209 19.602C15.9379 19.72 15.9329 19.837 15.9089 19.949C15.8789 20.095 15.8159 20.227 15.7309 20.342C15.6429 20.458 15.5299 20.557 15.3959 20.627C15.2959 20.68 15.1859 20.716 15.0699 20.732C15.0229 20.739 14.9759 20.742 14.9289 20.742H1.99991C1.68591 20.742 1.39091 20.595 1.20091 20.344C1.01291 20.093 0.951907 19.769 1.03891 19.467C1.39791 18.213 2.07591 17.063 2.99991 16.137C4.45891 14.678 6.39891 13.874 8.46391 13.874C10.5289 13.874 12.4699 14.678 13.9289 16.137C14.8479 17.057 15.5229 18.199 15.8839 19.443L15.8849 19.442ZM13.4279 18.742C13.1779 18.308 12.8709 17.907 12.5149 17.551C11.4349 16.47 9.99591 15.874 8.46491 15.874C6.93391 15.874 5.49691 16.47 4.41491 17.551C4.05991 17.907 3.75291 18.309 3.50291 18.742H13.4279Z" fill="var(--svg-base)"/>
</svg>
