<svg width="24" height="24" viewBox="0 0 24 24" fill="none"
    xmlns="http://www.w3.org/2000/svg">
    <g clip-path="url(#clip0_9_5592)">
        <path fill-rule="evenodd" clip-rule="evenodd" d="M14.2599 8.903C14.7979 8.365 15.1009 7.635 15.1009 6.872C15.1009 6.109 14.7979 5.38 14.2599 4.841C13.7219 4.303 12.9909 4 12.2299 4C11.4689 4 10.7379 4.303 10.1999 4.841C9.66193 5.379 9.35893 6.11 9.35893 6.872C9.35893 7.634 9.66193 8.364 10.1999 8.903C10.7379 9.441 11.4689 9.744 12.2299 9.744C12.9909 9.744 13.7219 9.441 14.2599 8.903ZM15.6739 10.317C16.5879 9.404 17.1009 8.164 17.1009 6.872C17.1009 5.58 16.5869 4.341 15.6739 3.427C14.7609 2.514 13.5219 2 12.2299 2C10.9379 2 9.69893 2.513 8.78593 3.427C7.87293 4.34 7.35893 5.58 7.35893 6.872C7.35893 8.164 7.87193 9.403 8.78593 10.317C9.69893 11.23 10.9379 11.744 12.2299 11.744C13.5219 11.744 14.7609 11.23 15.6739 10.317ZM18.5659 20H5.43393C5.78793 19.231 6.27793 18.523 6.88793 17.913C8.24393 16.557 10.0829 15.795 11.9999 15.795C13.9169 15.795 15.7559 16.557 17.1119 17.913C17.7219 18.523 18.2119 19.231 18.5659 20ZM20.9749 20.871C21.1179 21.466 20.6379 22 20.0259 22H3.97393C3.36193 22 2.88193 21.466 3.02493 20.871C3.41893 19.229 4.25993 17.712 5.47293 16.498C7.20393 14.767 9.55193 13.794 11.9989 13.794C14.4459 13.794 16.7949 14.766 18.5249 16.498C19.7379 17.712 20.5789 19.228 20.9729 20.871H20.9749Z" fill="#001838"/>
    </g>
    <defs>
        <clipPath id="clip0_9_5592">
            <rect width="18" height="20" fill="white" transform="translate(3 2)"/>
        </clipPath>
    </defs>
</svg>
