<svg width="24" height="24" viewBox="0 0 24 24" fill="none"
    xmlns="http://www.w3.org/2000/svg">
    <path fill-rule="evenodd" clip-rule="evenodd" d="M23.443 18.791C23.792 18.791 24.066 18.487 23.986 18.145C23.758 17.211 23.28 16.345 22.589 15.65C22.108 15.169 21.544 14.791 20.93 14.53C20.434 14.319 19.907 14.184 19.365 14.132C19.242 14.12 19.118 14.113 18.993 14.11C18.99 14.11 18.987 14.11 18.984 14.11C18.944 14.11 18.904 14.109 18.864 14.109C18.732 14.109 18.6 14.114 18.469 14.124C18.339 14.134 18.21 14.148 18.082 14.168C17.88 14.198 17.68 14.241 17.483 14.294C17.38 14.322 17.276 14.353 17.175 14.387C17.107 14.41 17.065 14.466 17.054 14.528C17.043 14.591 17.063 14.661 17.118 14.709C17.198 14.779 17.277 14.851 17.355 14.925C17.407 14.974 17.459 15.025 17.51 15.076C17.51 15.076 17.51 15.076 17.511 15.077C17.805 15.372 18.074 15.691 18.317 16.029C18.344 16.066 18.37 16.104 18.396 16.142C18.92 16.902 19.311 17.754 19.545 18.649C19.557 18.694 19.584 18.732 19.62 18.757C19.65 18.778 19.687 18.79 19.726 18.79H23.442L23.443 18.791ZM7.31399 8.61C7.30399 8.59 7.28399 8.57 7.27399 8.55C7.18399 8.42 7.08399 8.3 6.97399 8.19C6.85399 8.08 6.73399 7.98 6.60399 7.89C6.14399 7.56 5.58399 7.38 5.00399 7.38C4.26399 7.38 3.56399 7.67 3.04399 8.19C2.52399 8.71 2.22399 9.42 2.22399 10.16C2.22399 10.9 2.52399 11.6 3.04399 12.12C3.12399 12.2 3.20399 12.28 3.29399 12.35C3.77399 12.73 4.38399 12.94 5.00399 12.94H5.13399C5.74399 12.91 6.31399 12.68 6.78399 12.3C6.84399 12.24 6.91399 12.18 6.97399 12.12C7.14399 11.96 7.28399 11.77 7.40399 11.57C7.57399 11.28 7.68399 10.97 7.74399 10.64C7.77399 10.48 7.78399 10.32 7.78399 10.16C7.78399 9.6 7.62399 9.07 7.31399 8.61ZM5.77399 10.26V10.3C5.74399 10.46 5.67399 10.59 5.56399 10.7L5.55399 10.71C5.40399 10.86 5.21399 10.94 5.00399 10.94C4.79399 10.94 4.60399 10.86 4.46399 10.71H4.45399C4.31399 10.56 4.22399 10.37 4.22399 10.16C4.22399 9.95 4.31399 9.75 4.45399 9.61C4.59399 9.46 4.79399 9.38 5.00399 9.38C5.21399 9.38 5.41399 9.46 5.55399 9.61C5.58399 9.64 5.61399 9.67 5.63399 9.69V9.7L5.64399 9.71C5.73399 9.84 5.78399 10 5.78399 10.16C5.78399 10.2 5.78399 10.23 5.77399 10.26ZM15.694 7.83V7.81C15.624 7.53 15.534 7.26 15.404 7C15.234 6.66 15.004 6.34 14.724 6.06C14.044 5.38 13.124 5 12.174 5C11.214 5 10.294 5.38 9.61399 6.06C9.26399 6.41 8.99399 6.82 8.81399 7.27C8.78399 7.35 8.75399 7.43 8.73399 7.5C8.73399 7.52 8.72399 7.53 8.72399 7.54C8.61399 7.88 8.55399 8.24 8.55399 8.61C8.55399 9.15 8.68399 9.68 8.90399 10.16C9.03399 10.43 9.19399 10.69 9.39399 10.92C9.40399 10.94 9.41399 10.95 9.43399 10.97C9.49399 11.04 9.55399 11.1 9.61399 11.17C9.63399 11.18 9.65399 11.2 9.66399 11.21C9.94399 11.48 10.254 11.69 10.584 11.86C11.024 12.07 11.504 12.2 12.004 12.22H12.174C12.694 12.22 13.194 12.11 13.664 11.9C13.924 11.78 14.164 11.63 14.394 11.46C14.514 11.37 14.624 11.27 14.724 11.17C14.814 11.08 14.894 10.99 14.974 10.89C14.984 10.88 14.994 10.86 15.004 10.85C15.174 10.64 15.314 10.4 15.434 10.16C15.664 9.68 15.784 9.15 15.784 8.61C15.784 8.35 15.754 8.08 15.694 7.83ZM13.314 9.75C13.004 10.05 12.594 10.22 12.174 10.22C11.744 10.22 11.334 10.05 11.034 9.75C10.724 9.45 10.554 9.04 10.554 8.61C10.554 8.19 10.724 7.78 11.034 7.47C11.334 7.17 11.744 7 12.174 7C12.594 7 13.004 7.17 13.314 7.47C13.614 7.78 13.784 8.19 13.784 8.61C13.784 9.04 13.614 9.45 13.314 9.75ZM20.964 8.19C20.444 7.67 19.734 7.38 18.994 7.38C18.534 7.38 18.094 7.49 17.704 7.7C17.454 7.82 17.234 7.99 17.034 8.19C16.924 8.3 16.814 8.42 16.734 8.55C16.714 8.57 16.704 8.59 16.684 8.61C16.384 9.07 16.214 9.6 16.214 10.16C16.214 10.32 16.224 10.48 16.254 10.64C16.334 11.07 16.504 11.48 16.774 11.83C16.844 11.93 16.934 12.03 17.034 12.12C17.094 12.18 17.154 12.24 17.224 12.3C17.684 12.68 18.264 12.91 18.864 12.94H18.994C19.624 12.94 20.224 12.73 20.704 12.35C20.794 12.28 20.884 12.2 20.964 12.12C21.484 11.6 21.774 10.9 21.774 10.16C21.774 9.42 21.484 8.71 20.964 8.19ZM19.544 10.71C19.394 10.86 19.204 10.94 18.994 10.94C18.784 10.94 18.594 10.86 18.444 10.71L18.434 10.7C18.324 10.59 18.254 10.46 18.234 10.3L18.224 10.28V10.26C18.214 10.23 18.214 10.2 18.214 10.16C18.214 10 18.264 9.84 18.354 9.71L18.374 9.69C18.384 9.67 18.414 9.64 18.444 9.61C18.594 9.46 18.784 9.38 18.994 9.38C19.204 9.38 19.404 9.46 19.544 9.61C19.684 9.75 19.774 9.95 19.774 10.16C19.774 10.37 19.694 10.56 19.544 10.71ZM5.91899 14.168C5.79199 14.149 5.66399 14.134 5.53499 14.125C5.53399 14.125 5.53199 14.125 5.53099 14.125C5.39999 14.115 5.26899 14.11 5.13599 14.11C5.09599 14.11 5.05599 14.11 5.01499 14.111C5.01199 14.111 5.00999 14.111 5.00699 14.111C4.88299 14.114 4.75899 14.121 4.63499 14.133C4.09299 14.185 3.56499 14.32 3.06999 14.531C2.45599 14.792 1.89099 15.171 1.41099 15.651C0.719991 16.346 0.241991 17.211 0.0139914 18.145C-0.0660086 18.487 0.207991 18.791 0.556991 18.791H4.27299C4.31199 18.791 4.34899 18.779 4.37899 18.758C4.41499 18.733 4.44199 18.695 4.45399 18.65C4.68799 17.755 5.07799 16.903 5.60299 16.143C5.62899 16.105 5.65599 16.067 5.68299 16.03C5.92499 15.692 6.19399 15.373 6.48799 15.078C6.48799 15.078 6.48799 15.078 6.48899 15.077C6.53899 15.027 6.58999 14.977 6.64199 14.928C6.64199 14.928 6.64299 14.927 6.64399 14.927C6.72199 14.853 6.80199 14.781 6.88199 14.71C6.93699 14.662 6.95699 14.593 6.94599 14.53C6.93499 14.468 6.89399 14.412 6.82499 14.388C6.72399 14.354 6.62199 14.323 6.51799 14.295C6.32099 14.242 6.12099 14.199 5.91799 14.169L5.91899 14.168ZM18.654 18.99C18.644 18.96 18.634 18.92 18.624 18.89C18.324 17.71 17.714 16.62 16.834 15.75C16.724 15.64 16.614 15.53 16.494 15.42C16.054 15.04 15.574 14.72 15.054 14.47C14.654 14.26 14.234 14.1 13.794 13.98C13.264 13.84 12.724 13.76 12.174 13.75C12.114 13.74 12.054 13.74 12.004 13.74C11.454 13.74 10.914 13.81 10.394 13.94C9.89399 14.06 9.40399 14.23 8.94399 14.47C8.42399 14.72 7.94399 15.04 7.50399 15.42C7.39399 15.53 7.27399 15.64 7.16399 15.75C6.28399 16.62 5.67399 17.71 5.37399 18.89C5.36399 18.92 5.35399 18.96 5.34399 18.99C5.24399 19.43 5.59399 19.83 6.05399 19.83H17.954C18.404 19.83 18.764 19.43 18.654 18.99ZM8.02399 17.83C8.02399 17.83 9.17399 15.74 12.004 15.74C14.814 15.74 15.974 17.83 15.974 17.83H8.02399Z" fill="#001838"/>
</svg>
