<svg width="24" height="24" viewBox="0 0 24 24" fill="none" xmlns="http://www.w3.org/2000/svg">
<g clip-path="url(#clip0_238_1564)">
<mask id="mask0_238_1564" style="mask-type:luminance" maskUnits="userSpaceOnUse" x="0" y="0" width="24" height="24">
<path d="M24 0H0V24H24V0Z" fill="white"/>
</mask>
<g mask="url(#mask0_238_1564)">
<path d="M12 0C9.62663 0 7.30655 0.703788 5.33316 2.02236C3.35977 3.34094 1.8217 5.21509 0.913451 7.4078C0.00519937 9.60051 -0.232441 12.0133 0.230582 14.3411C0.693605 16.6689 1.83649 18.8071 3.51472 20.4853C5.19295 22.1635 7.33115 23.3064 9.65892 23.7694C11.9867 24.2324 14.3995 23.9948 16.5922 23.0866C18.7849 22.1783 20.6591 20.6402 21.9776 18.6668C23.2962 16.6935 24 14.3734 24 12C24 8.8174 22.7357 5.76516 20.4853 3.51472C18.2349 1.26428 15.1826 0 12 0ZM12 4.35825C12.3533 4.3584 12.6986 4.46323 12.9923 4.65951C13.286 4.85579 13.515 5.1347 13.6502 5.46103C13.7855 5.78736 13.8211 6.14646 13.7524 6.49298C13.6837 6.8395 13.5139 7.1579 13.2644 7.40795C13.0148 7.65801 12.6968 7.82851 12.3504 7.89791C12.004 7.96732 11.6449 7.93253 11.3182 7.79792C10.9916 7.66332 10.7122 7.43494 10.5153 7.14164C10.3185 6.84833 10.2129 6.50326 10.212 6.15C10.2115 5.91488 10.2574 5.68197 10.347 5.46461C10.4367 5.24725 10.5683 5.0497 10.7344 4.88327C10.9005 4.71684 11.0977 4.5848 11.3149 4.49471C11.5321 4.40462 11.7649 4.35825 12 4.35825ZM18.5168 10.4183C18.4229 10.5354 18.306 10.6321 18.1732 10.7023C18.0405 10.7725 17.8947 10.8147 17.745 10.8263L14.3633 11.1112C14.264 11.119 14.1704 11.1609 14.0985 11.2297C14.0149 11.308 13.9647 11.4154 13.9583 11.5297L13.935 12.0915C13.9172 12.494 13.9836 12.8959 14.13 13.2712L15.9098 17.838C16.0153 18.1069 16.0116 18.4063 15.8995 18.6725C15.7874 18.9387 15.5758 19.1506 15.3098 19.263C15.1727 19.321 15.0254 19.3513 14.8766 19.352C14.7277 19.3527 14.5802 19.3239 14.4425 19.2672C14.3049 19.2105 14.1799 19.127 14.0747 19.0216C13.9696 18.9162 13.8864 18.791 13.83 18.6532C13.3635 17.4967 12.48 15.333 12.15 14.5148C12.1391 14.4839 12.1187 14.4573 12.0918 14.4387C12.0649 14.4201 12.0327 14.4105 12 14.4113C11.9678 14.4093 11.9357 14.4178 11.9087 14.4355C11.8817 14.4532 11.8611 14.4792 11.85 14.5095C11.5133 15.3345 10.6335 17.496 10.167 18.6525C10.0841 18.8595 9.94103 19.0368 9.75624 19.1616C9.57145 19.2863 9.35347 19.3528 9.13051 19.3522C8.97819 19.3526 8.82739 19.3219 8.68726 19.2623C8.42134 19.1497 8.20985 18.9378 8.0978 18.6716C7.98574 18.4055 7.98196 18.1061 8.08726 17.8372L9.86851 13.275C10.0154 12.8997 10.0823 12.4979 10.065 12.0953L10.0403 11.535C10.0343 11.4213 9.98556 11.3141 9.90376 11.235C9.8308 11.1652 9.73593 11.1228 9.63526 11.115L6.25351 10.83C6.10384 10.8182 5.95816 10.776 5.82543 10.7058C5.69271 10.6356 5.57575 10.5391 5.48176 10.422C5.38625 10.3046 5.31571 10.169 5.27444 10.0234C5.23317 9.87778 5.22205 9.72529 5.24176 9.57525V9.5685C5.27335 9.28568 5.41463 9.02654 5.63522 8.84676C5.85581 8.66697 6.13813 8.58089 6.42151 8.607L10.563 8.97225C10.6515 8.9805 10.74 8.98425 10.8278 8.98425H13.1663C13.2548 8.98425 13.3448 8.98425 13.431 8.97225L17.574 8.607C17.8551 8.58069 18.1354 8.66498 18.3554 8.84198C18.5754 9.01898 18.7178 9.27476 18.7523 9.555V9.588C18.7703 9.736 18.7582 9.88612 18.7167 10.0293C18.6752 10.1725 18.6052 10.3058 18.5108 10.4213" fill="var(--svg-base)"/>
<path d="M12 2.58301C13.8625 2.58301 15.6832 3.13531 17.2318 4.17006C18.7805 5.20481 19.9875 6.67555 20.7002 8.39628C21.413 10.117 21.5994 12.0105 21.2361 13.8372C20.8727 15.6639 19.9758 17.3418 18.6589 18.6588C17.3419 19.9758 15.6639 20.8727 13.8372 21.2361C12.0105 21.5994 10.117 21.4129 8.3963 20.7002C6.67557 19.9874 5.20483 18.7804 4.17008 17.2318C3.13533 15.6832 2.58303 13.8625 2.58303 12C2.58581 9.50332 3.57885 7.10968 5.34427 5.34425C7.1097 3.57882 9.50334 2.58579 12 2.58301ZM12 1.83301C9.98915 1.83286 8.0234 2.42902 6.35134 3.54609C4.67929 4.66317 3.37604 6.25098 2.60641 8.10875C1.83678 9.96651 1.63533 12.0108 2.02754 13.983C2.41976 15.9553 3.38801 17.7669 4.80986 19.1889C6.23171 20.6109 8.0433 21.5792 10.0155 21.9716C11.9877 22.364 14.032 22.1627 15.8898 21.3932C17.7477 20.6237 19.3356 19.3205 20.4528 17.6486C21.57 15.9766 22.1663 14.0109 22.1663 12C22.1663 9.30368 21.0952 6.71778 19.1887 4.81112C17.2822 2.90446 14.6964 1.83321 12 1.83301Z" fill="var(--svg-contrast)"/>
</g>
</g>
<defs>
<clipPath id="clip0_238_1564">
<rect width="24" height="24" fill="white"/>
</clipPath>
</defs>
</svg>
