<svg width="25" height="24" viewBox="0 0 25 24" fill="none" xmlns="http://www.w3.org/2000/svg">
<g clip-path="url(#clip0_238_1565)">
<mask id="mask0_238_1565" style="mask-type:luminance" maskUnits="userSpaceOnUse" x="0" y="0" width="25" height="24">
<path d="M24.5 0H0.5V24H24.5V0Z" fill="white"/>
</mask>
<g mask="url(#mask0_238_1565)">
<path d="M12.5 0C10.1266 0 7.80655 0.703788 5.83316 2.02236C3.85977 3.34094 2.3217 5.21509 1.41345 7.4078C0.505199 9.60051 0.267559 12.0133 0.730582 14.3411C1.1936 16.6689 2.33649 18.8071 4.01472 20.4853C5.69295 22.1635 7.83115 23.3064 10.1589 23.7694C12.4867 24.2324 14.8995 23.9948 17.0922 23.0866C19.2849 22.1783 21.1591 20.6402 22.4776 18.6668C23.7962 16.6935 24.5 14.3734 24.5 12C24.5 8.8174 23.2357 5.76516 20.9853 3.51472C18.7349 1.26428 15.6826 0 12.5 0ZM12.5 5.25C13.0376 5.25 13.5631 5.40941 14.01 5.70807C14.457 6.00672 14.8054 6.43122 15.0111 6.92787C15.2168 7.42452 15.2707 7.97101 15.1658 8.49825C15.0609 9.0255 14.802 9.5098 14.4219 9.88992C14.0418 10.27 13.5575 10.5289 13.0303 10.6338C12.503 10.7386 11.9565 10.6848 11.4599 10.4791C10.9632 10.2734 10.5387 9.92501 10.2401 9.47804C9.94141 9.03107 9.78201 8.50557 9.78201 7.968C9.78201 7.24714 10.0684 6.55581 10.5781 6.04608C11.0878 5.53636 11.7791 5.25 12.5 5.25ZM17.432 17.7502H7.56801V16.4002C7.55996 15.7475 7.68157 15.0997 7.9258 14.4943C8.17002 13.8889 8.532 13.338 8.99074 12.8736C9.44949 12.4091 9.99586 12.0404 10.5982 11.7887C11.2005 11.537 11.8468 11.4074 12.4996 11.4074C13.1524 11.4074 13.7987 11.537 14.4011 11.7887C15.0034 12.0404 15.5498 12.4091 16.0085 12.8736C16.4673 13.338 16.8292 13.8889 17.0735 14.4943C17.3177 15.0997 17.4393 15.7475 17.4313 16.4002L17.432 17.7502Z" fill="var(--svg-base)"/>
<path d="M12.5 2.83276C14.3129 2.83291 16.0851 3.37062 17.5924 4.3779C19.0997 5.38519 20.2745 6.81681 20.9682 8.49174C21.6619 10.1667 21.8433 12.0097 21.4896 13.7877C21.1359 15.5658 20.2629 17.199 18.981 18.481C17.6991 19.7629 16.0658 20.6359 14.2878 20.9896C12.5097 21.3433 10.6667 21.1618 8.99176 20.4681C7.31683 19.7744 5.88521 18.5997 4.87793 17.0924C3.87064 15.5851 3.33293 13.8129 3.33278 12C3.33536 9.56949 4.30202 7.23927 6.02066 5.52063C7.73929 3.802 10.0695 2.83534 12.5 2.83276ZM12.5 1.83301C10.4892 1.83286 8.5234 2.42902 6.85134 3.54609C5.17929 4.66317 3.87604 6.25098 3.10641 8.10875C2.33678 9.96651 2.13533 12.0108 2.52754 13.983C2.91976 15.9553 3.88801 17.7669 5.30986 19.1889C6.73171 20.6109 8.5433 21.5792 10.5155 21.9716C12.4877 22.364 14.532 22.1627 16.3898 21.3932C18.2477 20.6237 19.8356 19.3205 20.9528 17.6486C22.07 15.9766 22.6663 14.0109 22.6663 12C22.6661 9.30381 21.5949 6.7181 19.6884 4.8116C17.7819 2.90511 15.1962 1.83396 12.5 1.83376" fill="var(--svg-contrast)"/>
</g>
</g>
<defs>
<clipPath id="clip0_238_1565">
<rect width="24" height="24" fill="white" transform="translate(0.5)"/>
</clipPath>
</defs>
</svg>
