<svg width="33" height="24" viewBox="0 0 33 24" fill="none" xmlns="http://www.w3.org/2000/svg">
<g clip-path="url(#clip0_263_867)">
<path d="M12.3492 3.51667C13.3203 3.51667 14.1075 2.72943 14.1075 1.75833C14.1075 0.787233 13.3203 0 12.3492 0C11.3781 0 10.5909 0.787233 10.5909 1.75833C10.5909 2.72943 11.3781 3.51667 12.3492 3.51667Z" fill="var(--svg-base)"/>
<path d="M15.8004 11.6794C15.521 11.7166 15.263 11.5211 15.226 11.2418L14.8294 8.32094L14.8274 8.31511L14.4365 6.99044V11.7326C14.4365 11.8599 14.4434 11.9871 14.4572 12.1138L14.884 16.0404L14.886 16.0599L15.5934 21.3078C15.5972 21.3293 15.5972 21.3528 15.5972 21.3761C15.5972 21.4211 15.5934 21.4659 15.5835 21.5089C15.5307 21.7688 15.3295 21.9876 15.054 22.0463L12.9557 22.4859C12.5864 22.5621 12.223 22.3258 12.1449 21.9564C12.135 21.9096 12.1312 21.8646 12.1312 21.8178C12.1312 21.5033 12.354 21.2159 12.6744 21.1476L13.7802 20.9171L13.0925 16.1461L12.4654 12.2483L12.3227 11.3593L12.1704 12.2483L11.5179 16.0834V16.0854L11.809 20.7803C11.811 20.8018 11.8129 20.8233 11.8129 20.8448V20.8506C11.8129 21.1671 11.59 21.4524 11.2697 21.5208L9.17136 21.9604C8.8022 22.0366 8.4387 21.8003 8.36053 21.4309C8.3507 21.3841 8.34686 21.3391 8.34686 21.2923C8.34686 20.9778 8.56953 20.6904 8.89003 20.6221L10.0369 20.3818L9.71836 15.9623L9.66553 15.2433V15.2413L9.69486 15.0713L10.2257 11.9593C10.2535 11.7964 10.2674 11.6316 10.2674 11.4664V8.11978L10.0872 9.03761C10.0719 9.11594 10.0505 9.19294 10.0235 9.26811L9.98603 9.37228L9.3647 11.1073C9.26903 11.3709 8.97786 11.5098 8.7122 11.4139C8.44653 11.3183 8.3097 11.0271 8.40353 10.7614L9.03536 9.00361C9.0622 8.92911 9.0832 8.85261 9.09836 8.77478L9.98603 4.23378L9.98803 4.22211C10.0459 3.92694 10.3045 3.71411 10.6054 3.71411H14.0047C14.3189 3.71411 14.5957 3.92078 14.6849 4.22211L15.2515 6.14261L15.8299 8.10611L15.8319 8.10994L15.906 8.65894L16.2382 11.1049C16.2754 11.3844 16.0799 11.6403 15.8004 11.6794Z" fill="var(--svg-base)"/>
<path d="M4.69012 4.59384C5.39295 3.88884 5.38665 2.74304 4.67605 2.03461C3.96545 1.32618 2.81962 1.3234 2.11679 2.02841C1.41395 2.73341 1.42025 3.87921 2.13085 4.58764C2.84145 5.29607 3.98729 5.29884 4.69012 4.59384Z" fill="var(--svg-base)"/>
<path d="M7.12903 22.5172H6.1527L5.44337 15.4079H6.71687C6.78087 15.4079 6.8247 15.3422 6.8012 15.2844L4.91203 10.4454V8.70154L5.05587 9.37654V9.37804L5.9777 11.7374C6.04637 11.9139 6.2137 12.0202 6.3917 12.0202C6.44637 12.0202 6.50103 12.0109 6.5542 11.9905C6.78237 11.8999 6.89487 11.642 6.80737 11.4124L5.91353 9.12638L5.17453 5.67171C5.14637 5.54204 5.03553 5.45771 4.91203 5.44671H1.90737C1.9027 5.44671 1.90587 5.44521 1.8917 5.44671C1.7807 5.46238 1.68387 5.51854 1.6417 5.62638L0.307363 9.04854L0.089363 9.60488C0.055363 9.69154 0.0635297 9.78904 0.111196 9.86888L0.183863 9.99055L1.3307 11.889L0.00569628 15.2844C-0.0161371 15.3422 0.0275297 15.4079 0.0900297 15.4079H1.1182C1.11353 15.4375 1.11203 15.4657 1.11036 15.4954L1.03536 16.7736C1.0072 17.2486 1.3057 17.6689 1.73387 17.8189L1.30886 22.5377L1.28536 22.5331C1.25253 22.5269 1.2182 22.5252 1.18686 22.5252C0.91653 22.5252 0.675863 22.7206 0.62903 22.9956C0.575863 23.3066 0.785363 23.6002 1.09303 23.6534L3.0697 23.9924C3.10253 23.9987 3.1337 24.0002 3.16503 24.0002C3.43687 24.0002 3.67903 23.8034 3.72603 23.5267C3.7792 23.2189 3.5697 22.9236 3.26203 22.8706L1.7667 22.6159L2.1932 17.8706C2.68687 17.8127 3.08537 17.4066 3.11503 16.8941L3.1932 15.408H3.6682L4.8932 23.2127L4.90887 23.3142C4.91203 23.3174 4.91353 23.3236 4.91353 23.3282C4.93537 23.3922 4.96987 23.4532 5.0167 23.5017C5.10103 23.5954 5.22287 23.6532 5.35887 23.6532H7.15737C7.3137 23.6532 7.45737 23.5892 7.55887 23.4892C7.66953 23.3769 7.7352 23.2229 7.72503 23.0509C7.70687 22.7459 7.43437 22.5174 7.12887 22.5174L7.12903 22.5172ZM1.89487 10.4469L1.7402 10.8454L1.13203 9.83905C1.11053 9.80354 1.10686 9.76021 1.12186 9.72154L1.89487 7.74055V10.4469Z" fill="var(--svg-base)"/>
<path d="M23.5572 7.47724C24.6793 7.47724 25.589 6.56756 25.589 5.44541C25.589 4.32326 24.6793 3.41357 23.5572 3.41357C22.435 3.41357 21.5253 4.32326 21.5253 5.44541C21.5253 6.56756 22.435 7.47724 23.5572 7.47724Z" fill="var(--svg-base)"/>
<path d="M32.7248 20.3633C32.6365 19.9399 32.2148 19.6633 31.7898 19.7549L30.4782 20.0299L28.7998 15.7849C28.5615 15.1916 27.8832 14.9116 27.2948 15.1666C26.9882 14.6249 26.5982 14.1383 26.1415 13.7199C25.6865 13.3016 25.1615 12.9566 24.5932 12.6999L24.9098 9.99327C25.0215 9.02827 24.3332 8.15494 23.3698 8.04494L22.7198 7.96827L22.6198 7.95661H22.6182L22.6165 7.95327L22.4732 7.93827C22.1432 7.89994 21.8165 8.02327 21.5948 8.27327L20.2098 9.82161L20.1048 9.93661L19.2248 10.9233L19.1682 10.9866C19.0232 11.1466 18.9682 11.3699 19.0165 11.5799L19.3332 12.9483L19.7332 14.6683L19.8998 15.3933V15.3949L19.9132 15.4566C20.0032 15.8416 20.3882 16.0816 20.7715 15.9933C21.1582 15.9033 21.3965 15.5199 21.3065 15.1349L21.2065 14.7049V14.7016L21.0565 14.0416C21.0732 14.0366 21.0915 14.0316 21.1098 14.0266C21.0915 14.0299 21.0748 14.0349 21.0565 14.0399L21.0015 13.8033L20.9915 13.7583L20.5415 11.8149C20.5165 11.7066 20.5432 11.5933 20.6182 11.5116L20.7782 11.3316L20.8865 11.2099L21.3048 10.7449L21.1282 12.2549L21.3848 13.3633C21.6365 13.3199 21.8948 13.2999 22.1582 13.2999C22.9882 13.2999 23.7715 13.5149 24.4532 13.8899C25.1965 14.2983 25.8215 14.8983 26.2548 15.6233C26.4815 15.9933 26.6548 16.3949 26.7698 16.8199C26.8832 17.2233 26.9415 17.6483 26.9415 18.0866C26.9415 20.8133 24.6498 23.0149 21.893 22.8649C19.458 22.7316 17.4745 20.7233 17.3762 18.2849C17.3095 16.6983 18.0228 15.2716 19.1628 14.3616L18.8862 13.1616C17.1812 14.2933 16.0995 16.2866 16.2579 18.5133C16.4612 21.3916 18.7728 23.7366 21.6497 23.9783C24.6632 24.2333 27.2665 22.2066 27.9115 19.4366L28.7365 21.3216L28.7715 21.4049C28.9298 21.7133 29.2815 21.8949 29.6365 21.8199L29.9932 21.7449L32.1148 21.3016C32.4865 21.2216 32.7432 20.8916 32.7432 20.5266C32.7432 20.4716 32.7365 20.4183 32.7248 20.3633Z" fill="var(--svg-base)"/>
<path d="M22.1562 13.895C21.7762 13.895 21.4062 13.9467 21.0562 14.0417L21.2062 14.7034C21.5078 14.6167 21.8262 14.5717 22.1562 14.5717C24.0962 14.5717 25.673 16.15 25.673 18.09C25.673 20.03 24.0963 21.6067 22.1562 21.6067C20.216 21.6067 18.6395 20.0283 18.6395 18.09C18.6395 17.0083 19.1295 16.0384 19.8995 15.395V15.3934L19.7328 14.6684C18.6612 15.4284 17.9612 16.6783 17.9612 18.09C17.9612 20.4017 19.8428 22.285 22.1563 22.285C24.4698 22.285 26.3515 20.4017 26.3515 18.09C26.3515 15.7784 24.4698 13.895 22.1563 13.895H22.1562Z" fill="var(--svg-contrast)"/>
</g>
<defs>
<clipPath id="clip0_263_867">
<rect width="32.8333" height="24" fill="white"/>
</clipPath>
</defs>
</svg>
