<svg width="24" height="24" viewBox="0 0 24 24" fill="none" xmlns="http://www.w3.org/2000/svg">
<g clip-path="url(#clip0_263_868)">
<path d="M11.405 20.7806V23.9999H7.06448C6.78148 23.9999 6.55231 23.7708 6.55231 23.4878V21.9288L4.24015 20.3396C3.55481 19.8673 2.98781 19.2433 2.58315 18.5159L2.12365 17.6874C1.74281 16.9999 1.45447 16.2649 1.26831 15.5011L0.0331413 10.4406C-0.107859 9.86059 0.211808 9.26892 0.772308 9.06759C0.902475 9.02126 1.03481 8.99976 1.16497 8.99976C1.64047 8.99976 2.08598 9.29242 2.25815 9.76476L3.89248 14.2439C3.84831 14.2934 3.80648 14.3473 3.76981 14.4043C3.39315 14.9864 3.55781 15.7653 4.13448 16.1473L6.05515 17.6633C6.10465 17.7019 6.16281 17.7214 6.22081 17.7214C6.30048 17.7214 6.37898 17.6859 6.43281 17.6193C6.52531 17.5019 6.50481 17.3331 6.38865 17.2416L4.45831 15.7169L4.43781 15.7029C4.10098 15.4844 4.00415 15.0336 4.22148 14.6958C4.32581 14.5344 4.48931 14.4224 4.67981 14.3806C4.87031 14.3398 5.06498 14.3753 5.22748 14.4806L10.2673 17.7364L10.447 17.8526C10.5588 17.9246 10.6515 18.0226 10.7191 18.1366L10.7945 18.2658L10.8041 18.2819C10.9956 18.6219 11.1323 18.9909 11.2108 19.3741L11.3141 19.8788C11.3745 20.1758 11.4045 20.4781 11.4045 20.7804L11.405 20.7806Z" fill="var(--svg-base)"/>
<path d="M12.595 20.7807V24H16.9355C17.2185 24 17.4477 23.7708 17.4477 23.4878V21.9288L19.7598 20.3397C20.4452 19.8673 21.0122 19.2433 21.4168 18.516L21.8763 17.6875C22.2572 17 22.5455 16.265 22.7317 15.5012L23.9668 10.4408C24.1078 9.86083 23.7882 9.26917 23.2277 9.06783C23.0975 9.0215 22.9652 9 22.835 9C22.3595 9 21.914 9.29267 21.7418 9.765L20.1075 14.2442C20.1517 14.2937 20.1935 14.3475 20.2302 14.4045C20.6068 14.9867 20.4422 15.7655 19.8655 16.1475L17.9448 17.6635C17.8953 17.7022 17.8372 17.7217 17.7792 17.7217C17.6995 17.7217 17.621 17.6862 17.5672 17.6195C17.4747 17.5022 17.4952 17.3333 17.6113 17.2418L19.5417 15.7172L19.5622 15.7032C19.899 15.4847 19.9958 15.0338 19.7785 14.696C19.6742 14.5347 19.5107 14.4227 19.3202 14.3808C19.1297 14.34 18.935 14.3755 18.7725 14.4808L13.7327 17.7367L13.553 17.8528C13.4411 17.9248 13.3485 18.0228 13.2808 18.1368L13.2055 18.266L13.1958 18.2822C13.0043 18.6222 12.8676 18.9912 12.7891 19.3743L12.6858 19.879C12.6255 20.176 12.5955 20.4783 12.5955 20.7807H12.595Z" fill="var(--svg-base)"/>
<path d="M5.8847 3.91467C6.9657 3.91467 7.84203 3.03833 7.84203 1.95733C7.84203 0.876328 6.9657 0 5.8847 0C4.80368 0 3.92737 0.876328 3.92737 1.95733C3.92737 3.03833 4.80368 3.91467 5.8847 3.91467Z" fill="var(--svg-base)"/>
<path d="M5.88465 4.47656C7.84465 4.47656 9.43598 6.0679 9.43598 8.0279V8.9999H2.33331V8.0279C2.33331 6.0679 3.92465 4.47656 5.88465 4.47656Z" fill="var(--svg-base)"/>
<path d="M18.1154 3.91467C19.1964 3.91467 20.0727 3.03833 20.0727 1.95733C20.0727 0.876328 19.1964 0 18.1154 0C17.0344 0 16.158 0.876328 16.158 1.95733C16.158 3.03833 17.0344 3.91467 18.1154 3.91467Z" fill="var(--svg-base)"/>
<path d="M18.1154 4.47656C20.0754 4.47656 21.6667 6.0679 21.6667 8.0279V8.9999H14.564V8.0279C14.564 6.0679 16.1554 4.47656 18.1154 4.47656Z" fill="var(--svg-base)"/>
<path d="M12 8.41442C13.081 8.41442 13.9573 7.53811 13.9573 6.45709C13.9573 5.37609 13.081 4.49976 12 4.49976C10.919 4.49976 10.0427 5.37609 10.0427 6.45709C10.0427 7.53811 10.919 8.41442 12 8.41442Z" fill="var(--svg-base)"/>
<path d="M12 8.97656C13.96 8.97656 15.5513 10.5679 15.5513 12.5279V13.4999H8.44867V12.5279C8.44867 10.5679 10.04 8.97656 12 8.97656Z" fill="var(--svg-base)"/>
</g>
<defs>
<clipPath id="clip0_263_868">
<rect width="24" height="24" fill="white"/>
</clipPath>
</defs>
</svg>
