<svg width="24" height="24" viewBox="0 0 24 24" fill="none" xmlns="http://www.w3.org/2000/svg">
<g clip-path="url(#clip0_263_869)">
<path d="M24 6.00033C24 9.31383 21.315 12.0007 18 12.0007C17.845 12.0007 17.6933 11.9957 17.5417 11.984L12.0167 6.45883C12.005 6.30717 12 6.1555 12 6.0005C12 2.68683 14.6867 0 18 0C21.3133 0 24 2.68683 24 6.00033Z" fill="var(--svg-base)"/>
<path d="M22.4813 9.44516L14.5811 1.54463C14.2882 1.25173 13.8134 1.25172 13.5205 1.54461C13.2276 1.83749 13.2275 2.31238 13.5204 2.60528L21.4207 10.5058C21.7135 10.7987 22.1885 10.7987 22.4813 10.5058C22.7742 10.2129 22.7742 9.73806 22.4813 9.44516Z" fill="var(--svg-contrast)"/>
<path d="M22.4806 9.44516L14.5803 1.54463C14.2874 1.25173 13.8126 1.25172 13.5197 1.54461C13.2268 1.83751 13.2268 2.31237 13.5196 2.60527L21.42 10.5058C21.7128 10.7987 22.1876 10.7987 22.4805 10.5058C22.7735 10.2129 22.7735 9.73806 22.4806 9.44516Z" fill="var(--svg-contrast)"/>
<path d="M16.26 12.8662L3.27301 23.8714C3.05751 24.0539 2.73818 24.0407 2.53851 23.841L0.15884 21.46C-0.0401599 21.261 -0.0538266 20.9429 0.127173 20.7274L11.081 7.68701L16.26 12.8662Z" fill="var(--svg-base)"/>
<path d="M9.93257 15.1155L12.0516 12.9964C12.3445 12.7035 12.3445 12.2286 12.0516 11.9357C11.7587 11.6428 11.2838 11.6428 10.9909 11.9357L8.87188 14.0549C8.579 14.3478 8.579 14.8226 8.8719 15.1155C9.1648 15.4084 9.63968 15.4084 9.93257 15.1155Z" fill="var(--svg-contrast)"/>
<path d="M18.8167 17.0922C18.6818 17.0922 18.5725 17.2015 18.5725 17.3363V18.079V18.5723V21.8475C18.3103 21.6518 17.965 21.5328 17.5857 21.5328C16.7682 21.5328 16.1053 22.0848 16.1053 22.7663C16.1053 23.4478 16.7682 23.9998 17.5855 23.9998C17.9648 23.9998 18.3103 23.8808 18.5723 23.6852C18.8755 23.4598 19.0658 23.1315 19.0658 22.7663V18.7193C19.0658 18.6382 19.1318 18.5722 19.213 18.5722L23.3595 18.0677C23.4407 18.0677 23.5067 18.1335 23.5067 18.2148V21.2553C23.2445 21.0597 22.8992 20.9407 22.5198 20.9407C21.7023 20.9407 21.0395 21.4927 21.0395 22.1742C21.0395 22.8557 21.7023 23.4077 22.5197 23.4077C22.899 23.4077 23.2445 23.2887 23.5065 23.093C23.8097 22.8677 24 22.5393 24 22.1742V17.9802V17.4868V16.7442C24 16.6093 23.8907 16.5 23.7558 16.5L18.8167 17.0922Z" fill="var(--svg-base)"/>
<path d="M6.62583 2.92927L6.3055 3.24961C6.2495 3.30561 6.15867 3.30561 6.10267 3.24961L4.442 1.5896V7.05644C4.442 7.63211 4.15567 8.14911 3.70167 8.50511C3.30867 8.81294 2.78983 8.99994 2.221 8.99994C0.9945 8.99994 0 8.13011 0 7.05661C0 5.98311 0.9945 5.11327 2.221 5.11327C2.78983 5.11327 3.30867 5.30027 3.70167 5.60811V0.140604C3.70167 0.0156035 3.85283 -0.0470631 3.94117 0.0414369L4.442 0.542271L6.62583 2.72661C6.68183 2.78261 6.68183 2.87327 6.62583 2.92927Z" fill="var(--svg-base)"/>
</g>
<defs>
<clipPath id="clip0_263_869">
<rect width="24" height="24" fill="white"/>
</clipPath>
</defs>
</svg>
