<svg width="24" height="24" viewBox="0 0 24 24" fill="none" xmlns="http://www.w3.org/2000/svg">
<g clip-path="url(#clip0_263_870)">
<mask id="mask0_263_870" style="mask-type:luminance" maskUnits="userSpaceOnUse" x="0" y="0" width="24" height="24">
<path d="M24 0H0V24H24V0Z" fill="white"/>
</mask>
<g mask="url(#mask0_263_870)">
<path d="M2.40556 16.0393L4.50736 17.2524L4.5007 19.6013L0.283447 17.1626L0.295707 7.40283L2.42215 8.63043L2.40556 16.0393ZM5.11961 19.9547L7.2385 21.1781L7.26046 11.4241L5.1423 10.2007L5.11961 19.9547ZM23.6862 17.3258L23.6828 15.3755L19.6871 17.6784L19.6826 15.7467L23.5243 13.5287L23.5208 11.5784L19.6781 13.7931L19.6735 11.8371L23.6768 9.52587L23.6733 7.57545L19.6689 9.88347V9.87855L17.3076 11.2419L17.3208 17.1097L17.3295 20.9959L19.6917 19.6326L23.6862 17.3258ZM12.1262 20.9562L10.6254 13.3668L7.92052 11.8052L10.1585 22.864L12.1262 24L14.0939 22.864L16.3319 11.8052L13.627 13.3668L12.1262 20.9562Z" fill="var(--svg-base)"/>
<path d="M14.7003 0.890172C14.1586 0.577424 13.5344 0.321447 12.8446 0.129113C12.1258 -0.0581037 11.3181 -0.0409656 10.6303 0.175615C10.0787 0.353278 9.57506 0.573775 9.13202 0.831222C8.68904 1.08866 8.30918 1.3816 8.00468 1.70144C7.63262 2.10082 7.6061 2.56848 7.93166 2.98425C8.2664 3.38339 8.71076 3.74434 9.2516 4.0566C9.79202 4.36861 10.417 4.62508 11.1085 4.8184C11.8248 5.00462 12.6325 4.98798 13.3228 4.77189C13.4165 4.74203 13.5101 4.70973 13.6016 4.67669L12.7329 3.30677C12.6157 3.35572 12.4934 3.40025 12.3648 3.43916C11.9957 3.55002 11.5499 3.53509 11.2032 3.40025C11.0422 3.33761 10.8898 3.26518 10.7512 3.18515C10.6126 3.10513 10.487 3.01703 10.3783 2.92404C10.1436 2.72312 10.1167 2.4652 10.3078 2.25107C10.448 2.09396 10.6302 1.95031 10.8491 1.82306C11.0685 1.69556 11.3163 1.58935 11.5867 1.50785C11.9553 1.39675 12.4007 1.41143 12.7487 1.54652C12.9084 1.60843 13.0605 1.6811 13.2003 1.76186C13.3406 1.84286 13.4661 1.93047 13.5735 2.02273C13.8075 2.22364 13.8343 2.48158 13.6441 2.6957C13.5051 2.85012 13.3264 2.9923 13.1125 3.1176L14.8299 4.10919C15.2717 3.8515 15.6477 3.56126 15.948 3.24631C16.3188 2.8457 16.3453 2.37756 16.0211 1.96349C15.6859 1.56363 15.2411 1.20243 14.7003 0.890172ZM14.9575 7.79094C14.4154 7.47798 13.7913 7.22202 13.1023 7.03014C12.3835 6.84294 11.5767 6.85962 10.888 7.07616C10.3368 7.25406 9.83318 7.47456 9.38972 7.73226L5.54336 9.96756L7.26044 10.9589L11.1068 8.72358C11.3262 8.59608 11.574 8.49036 11.8448 8.40864C12.213 8.29782 12.6588 8.3127 13.0064 8.44758C13.1661 8.5095 13.3181 8.58168 13.4584 8.66268C13.5987 8.74368 13.7238 8.83152 13.8313 8.9238C14.0652 9.12468 14.0924 9.38238 13.9018 9.59676C13.7607 9.75384 13.5786 9.89748 13.36 10.0245C13.1415 10.1515 12.8937 10.2577 12.6229 10.34C12.2534 10.451 11.8084 10.4362 11.4609 10.3013C11.2999 10.2386 11.1483 10.1662 11.0092 10.0859C10.8702 10.0057 10.7447 9.91806 10.636 9.82506C10.5906 9.78618 10.5532 9.7446 10.5234 9.70248L9.5165 10.9618C10.0565 11.2721 10.6781 11.5271 11.3662 11.719C12.0825 11.9057 12.8893 11.8885 13.581 11.6727C14.1271 11.4967 14.6307 11.2757 15.078 11.0159C15.5243 10.7564 15.9037 10.4642 16.2061 10.1471C16.5769 9.74604 16.6035 9.27834 16.2792 8.86428C15.9436 8.46468 15.4992 8.10372 14.9575 7.79094ZM8.87174 4.27733C8.32964 3.96434 7.70546 3.70837 7.01618 3.51628C6.29732 3.32907 5.49002 3.34596 4.80176 3.56278C4.25057 3.7402 3.74694 3.9607 3.30394 4.21814C2.86052 4.47583 2.48108 4.76852 2.17658 5.08837C1.80452 5.48774 1.77757 5.95565 2.10311 6.3714C2.43743 6.77034 2.88179 7.13124 3.42307 7.44378C3.96349 7.75578 4.58852 8.01222 5.27952 8.2053C5.99626 8.39178 6.80396 8.37468 7.49474 8.1588C8.04092 7.98288 8.54534 7.7619 8.99216 7.50222C9.43808 7.24308 9.81752 6.9504 10.1195 6.63348C10.4903 6.23238 10.5172 5.76448 10.193 5.35042C9.85742 4.9508 9.41258 4.58959 8.87174 4.27733ZM4.92305 6.5721C4.78445 6.49206 4.65848 6.40422 4.54979 6.31122C4.31545 6.11004 4.28824 5.85236 4.47925 5.63824C4.61906 5.48137 4.80203 5.33723 5.02101 5.20997C5.23956 5.08297 5.4878 4.97651 5.75858 4.89478C6.12722 4.78367 6.57218 4.7986 6.92018 4.93368C7.07984 4.99559 7.2323 5.06803 7.37222 5.14879C7.5125 5.22979 7.6376 5.31764 7.74506 5.40989C7.97894 5.61081 8.00618 5.86849 7.81598 6.08262C7.6745 6.24 7.49282 6.38388 7.27424 6.5109C7.05572 6.63792 6.80786 6.74364 6.53666 6.82608C6.16724 6.9372 5.72182 6.92202 5.37463 6.78744C5.21374 6.7248 5.06165 6.65208 4.92305 6.5721ZM16.8373 6.699C16.6983 6.61878 16.5732 6.53094 16.4646 6.43794C16.2302 6.23724 16.203 5.97907 16.394 5.76494C16.5342 5.60783 16.7159 5.46394 16.9349 5.33669C17.1543 5.20919 17.4025 5.10322 17.6729 5.02172C18.0415 4.91063 18.4873 4.92555 18.8349 5.06039C18.9946 5.1223 19.1462 5.19473 19.2865 5.27573C19.4268 5.35674 19.5523 5.44435 19.6597 5.53661C19.8937 5.73752 19.9205 5.99545 19.7303 6.20958C19.5892 6.36666 19.4067 6.5106 19.1881 6.63762C18.97 6.76434 18.7222 6.87054 18.451 6.95304C18.0819 7.06392 17.6365 7.04922 17.2894 6.91416C17.1285 6.85146 16.9759 6.77904 16.8373 6.699ZM20.7861 4.4038C20.2444 4.09106 19.6198 3.83483 18.9309 3.64298C18.2121 3.45577 17.4043 3.47291 16.7161 3.68924C16.1653 3.86691 15.6613 4.08765 15.2182 4.34509C14.7748 4.60279 14.3954 4.89547 14.0905 5.21507C13.7184 5.61446 13.6923 6.08238 14.0174 6.49788C14.3521 6.897 14.7961 7.25772 15.3374 7.5702C15.8782 7.8825 16.5028 8.1387 17.1943 8.33202C17.9106 8.51874 18.7183 8.50158 19.4091 8.28576C19.9556 8.10954 20.4597 7.88832 20.9061 7.62894C21.3524 7.36956 21.7318 7.07736 22.0342 6.7602C22.4046 6.35934 22.4316 5.89144 22.1073 5.47737C21.7722 5.0775 21.3277 4.71655 20.7861 4.4038Z" fill="var(--svg-contrast)"/>
</g>
</g>
<defs>
<clipPath id="clip0_263_870">
<rect width="24" height="24" fill="white"/>
</clipPath>
</defs>
</svg>
