<svg width="24" height="24" viewBox="0 0 24 24" fill="none" xmlns="http://www.w3.org/2000/svg">
<g clip-path="url(#clip0_238_1568)">
<mask id="mask0_238_1568" style="mask-type:luminance" maskUnits="userSpaceOnUse" x="0" y="0" width="24" height="24">
<path d="M24 0H0V24H24V0Z" fill="white"/>
</mask>
<g mask="url(#mask0_238_1568)">
<path d="M24 3.83325C23.9998 3.61232 23.9119 3.40049 23.7557 3.24427C23.5995 3.08805 23.3877 3.0002 23.1667 3H20.3333V5.16675C20.3331 5.38768 20.2452 5.59951 20.089 5.75573C19.9328 5.91195 19.7209 5.9998 19.5 6H17.3333C17.1123 5.9998 16.9005 5.91195 16.7443 5.75573C16.5881 5.59951 16.5002 5.38768 16.5 5.16675V3H7.5V5.16675C7.4998 5.38768 7.41195 5.59951 7.25573 5.75573C7.09951 5.91195 6.88768 5.9998 6.66675 6H4.5C4.27907 5.9998 4.06724 5.91195 3.91102 5.75573C3.7548 5.59951 3.66695 5.38768 3.66675 5.16675V3H0.83325C0.612319 3.0002 0.400494 3.08805 0.244273 3.24427C0.0880509 3.40049 0.00019859 3.61232 0 3.83325L0 8.16675H24V3.83325Z" fill="var(--svg-base)"/>
<path d="M0 9.69971V23.1682C9.8447e-05 23.2775 0.0217292 23.3858 0.0636572 23.4867C0.105585 23.5877 0.166989 23.6794 0.244364 23.7567C0.321738 23.8339 0.413568 23.8951 0.514609 23.9369C0.61565 23.9786 0.723925 24.0001 0.83325 24H23.1667C23.2761 24.0001 23.3843 23.9786 23.4854 23.9369C23.5864 23.8951 23.6783 23.8339 23.7556 23.7567C23.833 23.6794 23.8944 23.5877 23.9363 23.4867C23.9783 23.3858 23.9999 23.2775 24 23.1682V9.69971H0ZM16.725 15.4612L14.2147 17.2747C14.1691 17.3082 14.1353 17.3552 14.1179 17.4091C14.1005 17.4629 14.1006 17.5209 14.118 17.5747L15.0765 20.5147C15.094 20.5686 15.0939 20.6267 15.0764 20.6806C15.0588 20.7345 15.0247 20.7815 14.9788 20.8148C14.9329 20.8481 14.8777 20.866 14.821 20.866C14.7643 20.866 14.7091 20.848 14.6632 20.8147L12.1567 18.9997C12.1113 18.9663 12.0564 18.9483 12 18.9483C11.9436 18.9483 11.8887 18.9663 11.8433 18.9997L9.33675 20.817C9.29089 20.8503 9.23566 20.8682 9.17898 20.8682C9.12229 20.8683 9.06705 20.8503 9.02118 20.817C8.97531 20.7837 8.94115 20.7368 8.92361 20.6829C8.90606 20.629 8.90602 20.5709 8.9235 20.517L9.882 17.577C9.89944 17.5231 9.89948 17.4652 9.88211 17.4113C9.86475 17.3575 9.83085 17.3105 9.78525 17.277L7.275 15.4612C7.22908 15.4282 7.19484 15.3814 7.17721 15.3277C7.15958 15.2739 7.15947 15.216 7.17691 15.1622C7.19435 15.1083 7.22842 15.0615 7.27422 15.0283C7.32003 14.9951 7.37519 14.9773 7.43175 14.9775H10.53C10.5865 14.9775 10.6416 14.9596 10.6874 14.9265C10.7332 14.8934 10.7673 14.8466 10.785 14.793L11.742 11.853C11.7597 11.7993 11.7939 11.7526 11.8396 11.7195C11.8854 11.6863 11.9405 11.6685 11.997 11.6685C12.0535 11.6685 12.1086 11.6863 12.1544 11.7195C12.2001 11.7526 12.2343 11.7993 12.252 11.853L13.209 14.793C13.2267 14.8466 13.2608 14.8934 13.3066 14.9265C13.3524 14.9596 13.4075 14.9775 13.464 14.9775H16.5623C16.6188 14.9773 16.674 14.9951 16.7198 15.0283C16.7656 15.0615 16.7997 15.1083 16.8171 15.1622C16.8345 15.216 16.8344 15.2739 16.8168 15.3277C16.7992 15.3814 16.7649 15.4282 16.719 15.4612" fill="var(--svg-base)"/>
<path d="M6.084 5.33325H5.08275C4.97236 5.33325 4.86648 5.2894 4.78842 5.21133C4.71036 5.13327 4.6665 5.0274 4.6665 4.917V0.417C4.66641 0.362274 4.6771 0.308066 4.69797 0.257478C4.71885 0.206889 4.74949 0.160914 4.78816 0.122182C4.82682 0.08345 4.87274 0.0527221 4.92329 0.0317567C4.97384 0.0107913 5.02803 -8.8833e-08 5.08275 0L6.084 0C6.1944 0 6.30028 0.0438548 6.37834 0.121917C6.4564 0.199979 6.50025 0.305854 6.50025 0.41625V4.91625C6.50025 5.02665 6.4564 5.13252 6.37834 5.21058C6.30028 5.28865 6.1944 5.33325 6.084 5.33325Z" fill="var(--svg-base)"/>
<path d="M18.9375 5.33325H17.9363C17.8259 5.33325 17.72 5.2894 17.6419 5.21133C17.5639 5.13327 17.52 5.0274 17.52 4.917V0.417C17.5199 0.362274 17.5306 0.308066 17.5515 0.257478C17.5724 0.206889 17.603 0.160914 17.6417 0.122182C17.6803 0.08345 17.7263 0.0527221 17.7768 0.0317567C17.8274 0.0107913 17.8815 -8.8833e-08 17.9363 0L18.9375 0C19.0479 0 19.1538 0.0438548 19.2319 0.121917C19.3099 0.199979 19.3538 0.305854 19.3538 0.41625V4.91625C19.3538 5.02665 19.3099 5.13252 19.2319 5.21058C19.1538 5.28865 19.0479 5.33325 18.9375 5.33325Z" fill="var(--svg-base)"/>
<path d="M14.2162 17.2771C14.1708 17.3108 14.137 17.3578 14.1197 17.4116C14.1023 17.4654 14.1023 17.5233 14.1195 17.5771L15.078 20.5171C15.0954 20.571 15.0954 20.6291 15.0779 20.683C15.0603 20.7369 15.0262 20.7839 14.9803 20.8172C14.9344 20.8505 14.8792 20.8684 14.8225 20.8684C14.7658 20.8684 14.7106 20.8504 14.6647 20.8171L12.1582 19.0006C12.1128 18.9672 12.0579 18.9492 12.0015 18.9492C11.9451 18.9492 11.8902 18.9672 11.8447 19.0006L9.33822 20.8171C9.29236 20.8504 9.23713 20.8684 9.18044 20.8684C9.12376 20.8684 9.06852 20.8505 9.02265 20.8172C8.97678 20.7839 8.94262 20.7369 8.92507 20.683C8.90753 20.6291 8.90749 20.571 8.92497 20.5171L9.88347 17.5771C9.90068 17.5233 9.9006 17.4654 9.88325 17.4116C9.8659 17.3578 9.83214 17.3108 9.78672 17.2771L7.28022 15.4621C7.23462 15.429 7.20067 15.3823 7.18325 15.3287C7.16582 15.2751 7.16581 15.2173 7.18321 15.1637C7.20061 15.1101 7.23453 15.0633 7.28011 15.0302C7.32569 14.997 7.3806 14.9792 7.43697 14.9791H10.5352C10.5918 14.9791 10.647 14.9611 10.6928 14.9278C10.7386 14.8946 10.7727 14.8477 10.7902 14.7939L11.7472 11.8539C11.7649 11.8002 11.7991 11.7535 11.8449 11.7204C11.8906 11.6873 11.9457 11.6694 12.0022 11.6694C12.0587 11.6694 12.1138 11.6873 12.1596 11.7204C12.2054 11.7535 12.2395 11.8002 12.2572 11.8539L13.2142 14.7939C13.2318 14.8477 13.2659 14.8946 13.3117 14.9278C13.3575 14.9611 13.4126 14.9791 13.4692 14.9791H16.5675C16.6238 14.9792 16.6787 14.997 16.7243 15.0302C16.7699 15.0633 16.8038 15.1101 16.8212 15.1637C16.8386 15.2173 16.8386 15.2751 16.8212 15.3287C16.8038 15.3823 16.7698 15.429 16.7242 15.4621L14.2162 17.2771Z" fill="var(--svg-contrast)"/>
</g>
</g>
<defs>
<clipPath id="clip0_238_1568">
<rect width="24" height="24" fill="white"/>
</clipPath>
</defs>
</svg>
