<svg width="24" height="24" viewBox="0 0 24 24" fill="none" xmlns="http://www.w3.org/2000/svg">
<g clip-path="url(#clip0_238_1569)">
<mask id="mask0_238_1569" style="mask-type:luminance" maskUnits="userSpaceOnUse" x="0" y="0" width="24" height="24">
<path d="M24 0H0V24H24V0Z" fill="white"/>
</mask>
<g mask="url(#mask0_238_1569)">
<path d="M23.0017 6.25348C23.0014 6.38045 22.983 6.50672 22.947 6.62848L21.6202 11.0835C21.2189 12.4325 20.3708 13.605 19.215 14.4082L18.072 15.2032C17.7892 15.3991 17.5546 15.6566 17.3857 15.9563C17.2168 16.256 17.1181 16.5901 17.097 16.9335L16.6635 24H7.3335L6.9 16.9335C6.87889 16.5901 6.78018 16.256 6.6113 15.9563C6.44242 15.6566 6.20777 15.3991 5.925 15.2032L4.782 14.4082C3.62624 13.605 2.77805 12.4325 2.37675 11.0835L1.05 6.62848C1.01401 6.50672 0.995571 6.38045 0.995247 6.25348C0.994191 5.94089 1.10467 5.63817 1.30684 5.39974C1.509 5.16132 1.78958 5.00282 2.09814 4.95275C2.4067 4.90268 2.723 4.96432 2.99018 5.12658C3.25736 5.28884 3.4579 5.54109 3.55575 5.83798L4.78725 9.53323C5.06343 10.3596 5.57303 11.0884 6.25447 11.6314C6.93591 12.1744 7.76003 12.5085 8.62725 12.5932L10.0417 12.7305C11.3434 12.8566 12.6543 12.8566 13.956 12.7305L15.3705 12.5932C16.2379 12.5091 17.0623 12.1753 17.7439 11.6322C18.4255 11.0891 18.9349 10.36 19.2105 9.53323L20.442 5.83798C20.5411 5.54282 20.7418 5.29246 21.0083 5.13156C21.2748 4.97065 21.5898 4.90967 21.8972 4.9595C22.2045 5.00932 22.4841 5.16671 22.6862 5.40358C22.8882 5.64045 22.9995 5.9414 23.0002 6.25273" fill="var(--svg-base)"/>
<path d="M15 8.59208C15.0502 7.74326 14.7632 6.90895 14.2014 6.2707C13.6395 5.63246 12.8484 5.24192 12 5.18408C11.1517 5.24192 10.3605 5.63246 9.79868 6.2707C9.23684 6.90895 8.9498 7.74326 9.00002 8.59208C8.9498 9.44091 9.23684 10.2752 9.79868 10.9135C10.3605 11.5517 11.1517 11.9422 12 12.0001C12.8484 11.9422 13.6395 11.5517 14.2014 10.9135C14.7632 10.2752 15.0502 9.44091 15 8.59208Z" fill="var(--svg-base)"/>
<path d="M3.4995 0H5.66625V3.50025H3.1665V0.333L3.4995 0Z" fill="var(--svg-contrast)"/>
<path d="M10.6665 0H8.16675V3.50025H10.6665V0Z" fill="var(--svg-contrast)"/>
<path d="M8.16674 0H5.66699V3.50025H8.16674V0Z" fill="var(--svg-base)"/>
<path d="M15.6667 0H13.167V3.50025H15.6667V0Z" fill="var(--svg-contrast)"/>
<path d="M13.1663 0H10.6665V3.50025H13.1663V0Z" fill="var(--svg-base)"/>
<path d="M20.6663 0.1665V3.50025H18.1665V0H20.4998L20.6663 0.1665Z" fill="var(--svg-contrast)"/>
<path d="M18.1665 0H15.6667V3.50025H18.1665V0Z" fill="var(--svg-base)"/>
<path d="M3.50025 5.11133H0V7.66658H3.50025V5.11133Z" fill="var(--svg-base)"/>
<path d="M3.50025 2.55518V5.11193H0V3.50018L0.945 2.55518H3.50025Z" fill="var(--svg-contrast)"/>
<path d="M3.16651 0.333L0.945007 2.55525H3.50026V0L3.16651 0.333Z" fill="var(--svg-base)"/>
<path d="M24 5.11133H20.4998V7.66658H24V5.11133Z" fill="var(--svg-base)"/>
<path d="M24 3.50018V5.11193H20.4998V2.55518H23.055L24 3.50018Z" fill="var(--svg-contrast)"/>
<path d="M23.055 2.55525H20.4998V0L20.6663 0.1665L23.055 2.55525Z" fill="var(--svg-base)"/>
<path d="M21.1995 9.81675V7.6665H20.4998V9.81675C20.4976 9.86406 20.505 9.91133 20.5216 9.95568C20.5382 10 20.5636 10.0406 20.5963 10.0748C20.629 10.1091 20.6683 10.1363 20.7119 10.155C20.7554 10.1736 20.8023 10.1832 20.8496 10.1832C20.897 10.1832 20.9439 10.1736 20.9874 10.155C21.031 10.1363 21.0703 10.1091 21.103 10.0748C21.1357 10.0406 21.1611 10 21.1777 9.95568C21.1943 9.91133 21.2017 9.86406 21.1995 9.81675Z" fill="var(--svg-contrast)"/>
<path d="M22.5998 9.81675V7.6665H21.9V9.81675C21.8978 9.86406 21.9053 9.91133 21.9219 9.95568C21.9385 10 21.9639 10.0406 21.9966 10.0748C22.0293 10.1091 22.0686 10.1363 22.1121 10.155C22.1557 10.1736 22.2026 10.1832 22.2499 10.1832C22.2973 10.1832 22.3441 10.1736 22.3877 10.155C22.4312 10.1363 22.4705 10.1091 22.5032 10.0748C22.5359 10.0406 22.5614 10 22.578 9.95568C22.5946 9.91133 22.602 9.86406 22.5998 9.81675Z" fill="var(--svg-contrast)"/>
<path d="M24 9.81675V7.6665H23.3002V9.81675C23.298 9.86406 23.3055 9.91133 23.3221 9.95568C23.3387 10 23.3641 10.0406 23.3968 10.0748C23.4295 10.1091 23.4688 10.1363 23.5123 10.155C23.5559 10.1736 23.6028 10.1832 23.6501 10.1832C23.6975 10.1832 23.7443 10.1736 23.7879 10.155C23.8314 10.1363 23.8707 10.1091 23.9034 10.0748C23.9361 10.0406 23.9616 10 23.9782 9.95568C23.9947 9.91133 24.0022 9.86406 24 9.81675Z" fill="var(--svg-contrast)"/>
<path d="M0.699759 9.81675V7.6665H8.80723e-06V9.81675C-0.00218215 9.86406 0.00524412 9.91133 0.0218386 9.95568C0.0384331 10 0.0638511 10.0406 0.0965557 10.0748C0.12926 10.1091 0.168572 10.1363 0.212114 10.155C0.255656 10.1736 0.302524 10.1832 0.349884 10.1832C0.397244 10.1832 0.444111 10.1736 0.487653 10.155C0.531196 10.1363 0.570507 10.1091 0.603212 10.0748C0.635917 10.0406 0.661335 10 0.677929 9.95568C0.694524 9.91133 0.70195 9.86406 0.699759 9.81675Z" fill="var(--svg-contrast)"/>
<path d="M2.10003 9.81675V7.6665H1.40028V9.81675C1.39809 9.86406 1.40551 9.91133 1.42211 9.95568C1.4387 10 1.46412 10.0406 1.49682 10.0748C1.52953 10.1091 1.56884 10.1363 1.61238 10.155C1.65592 10.1736 1.70279 10.1832 1.75015 10.1832C1.79751 10.1832 1.84438 10.1736 1.88792 10.155C1.93146 10.1363 1.97078 10.1091 2.00348 10.0748C2.03619 10.0406 2.0616 10 2.0782 9.95568C2.09479 9.91133 2.10222 9.86406 2.10003 9.81675Z" fill="var(--svg-contrast)"/>
<path d="M3.4995 9.81675V7.6665H2.79975V9.81675C2.79756 9.86406 2.80499 9.91133 2.82158 9.95568C2.83818 10 2.8636 10.0406 2.8963 10.0748C2.92901 10.1091 2.96832 10.1363 3.01186 10.155C3.0554 10.1736 3.10227 10.1832 3.14963 10.1832C3.19699 10.1832 3.24386 10.1736 3.2874 10.155C3.33094 10.1363 3.37025 10.1091 3.40296 10.0748C3.43566 10.0406 3.46108 10 3.47767 9.95568C3.49427 9.91133 3.50169 9.86406 3.4995 9.81675Z" fill="var(--svg-contrast)"/>
</g>
</g>
<defs>
<clipPath id="clip0_238_1569">
<rect width="24" height="24" fill="white"/>
</clipPath>
</defs>
</svg>
