<svg width="25" height="24" viewBox="0 0 25 24" fill="none" xmlns="http://www.w3.org/2000/svg">
<g clip-path="url(#clip0_238_1570)">
<path d="M14.6457 11.533C10.9804 6.358 2.50228 7.82132 0.823031 13.9833L0.820834 13.9844L0.819369 13.9862L0.818271 13.9884L0.818637 13.991C0.275529 15.9183 0.487047 17.9801 1.41007 19.757C2.33309 21.5339 3.89829 22.8925 5.78739 23.5564H5.79251C12.9948 26.0284 19.1502 17.6568 14.6457 11.533ZM12.1855 9.72575H12.191C13.0378 10.2315 13.7768 10.8986 14.3659 11.6897L14.4131 13.6812L12.08 13.7013L9.67105 11.3495L9.78348 9.49394L12.1855 9.72575ZM9.51724 21.9506L6.314 21.5133L5.05387 18.7052L7.16654 16.4128L10.498 16.8896L11.5578 19.6893L9.51724 21.9506ZM14.092 19.4794L11.8489 19.5618L10.7818 16.7585L12.1115 14.0097L14.4596 13.9976L15.3393 16.7464L14.092 19.4794ZM4.13578 9.93559C4.94349 9.39033 5.85006 9.00817 6.80435 8.81059L9.46524 9.43535L9.35575 11.303L6.35575 12.6723L3.93253 12.0823L4.13578 9.93559ZM2.02164 17.8106L1.71109 19.6856C0.831086 18.0407 0.596811 16.1267 1.05411 14.318L1.55142 14.7454L2.02603 17.8003L2.02164 17.8106ZM2.32157 17.6868L1.86563 14.7011L3.81205 12.3859L6.23526 12.9762L6.9318 16.1938L4.81546 18.4932L2.32157 17.6868ZM10.2823 23.4056C9.2817 23.6716 8.23708 23.7292 7.21341 23.5744C6.18974 23.4196 5.20883 23.0558 4.3317 22.5058C4.3317 22.5058 6.21399 21.8232 6.21549 21.8224C6.21699 21.8217 9.4885 22.2725 9.496 22.2725L10.5463 23.329C10.4563 23.3598 10.37 23.383 10.2837 23.4063L10.2823 23.4056ZM15.7937 16.9903C15.6242 18.5251 14.9837 19.9695 13.9601 21.1255C13.9744 21.0873 14.3284 19.7105 14.3494 19.6775L15.6447 16.8453L15.8238 16.6863C15.8211 16.7883 15.8115 16.8903 15.7952 16.991L15.7937 16.9903Z" fill="var(--svg-base)"/>
<path d="M24.4999 19.9175V19.9757C24.5122 20.2166 24.4286 20.4526 24.2674 20.632C24.1062 20.8113 23.8805 20.9196 23.6397 20.933H14.4896C14.9621 20.3342 15.3439 19.6688 15.6223 18.9587H23.6375C23.8788 18.9719 24.105 19.0801 24.2667 19.2598C24.4283 19.4394 24.5122 19.6761 24.4999 19.9175Z" fill="var(--svg-base)"/>
<path d="M15.8127 18.4278C16.3241 16.7778 16.2732 15.0045 15.6681 13.3866C15.063 11.7686 13.9378 10.3974 12.4692 9.48788V9.47653L14.7888 1.15987C15.2208 -0.386625 16.91 -0.386625 17.3435 1.15987L19.6631 9.47653L20.7306 13.3053L22.1599 18.4278H15.8127Z" fill="var(--svg-base)"/>
<path d="M20.7343 13.3053H15.6381C15.0231 11.7232 13.911 10.3837 12.4692 9.48792V9.47583H19.6616L20.7343 13.3053Z" fill="var(--svg-contrast)"/>
</g>
<defs>
<clipPath id="clip0_238_1570">
<rect width="24" height="24" fill="white" transform="translate(0.5)"/>
</clipPath>
</defs>
</svg>
