<svg width="25" height="24" viewBox="0 0 25 24" fill="none" xmlns="http://www.w3.org/2000/svg">
<g clip-path="url(#clip0_238_1571)">
<mask id="mask0_238_1571" style="mask-type:luminance" maskUnits="userSpaceOnUse" x="0" y="0" width="25" height="24">
<path d="M24.5 0H0.5V24H24.5V0Z" fill="white"/>
</mask>
<g mask="url(#mask0_238_1571)">
<path d="M6.36352 18.9667C7.21702 18.9667 8.98852 16.3207 7.55227 14.7172C6.08527 13.0814 7.55977 12.5976 8.80777 13.3919C9.98452 14.1419 9.88102 17.3009 11.1995 17.3009C12.518 17.3009 17.0495 12.3427 18.8113 13.4482C19.8208 14.0827 16.5238 15.3097 15.5863 16.5292C15.3388 16.8517 12.8863 19.9619 11.4613 20.7344C10.4608 21.2774 7.13602 22.2344 6.36127 22.7069L6.36352 18.9667Z" fill="var(--svg-base)"/>
<path d="M6.50001 18.1665H4.03326V23.3003H6.50001V18.1665Z" fill="var(--svg-contrast)"/>
<path d="M0.5 24H4.16675V17.4668H0.5V24ZM2.68025 23.007C2.58962 23.007 2.50102 22.9802 2.42566 22.9298C2.3503 22.8795 2.29157 22.8079 2.25688 22.7242C2.2222 22.6404 2.21312 22.5483 2.23081 22.4594C2.24849 22.3705 2.29213 22.2889 2.35622 22.2248C2.42031 22.1607 2.50196 22.117 2.59085 22.0993C2.67974 22.0817 2.77188 22.0907 2.85561 22.1254C2.93935 22.1601 3.01092 22.2188 3.06127 22.2942C3.11162 22.3696 3.1385 22.4582 3.1385 22.5488C3.1385 22.6703 3.09022 22.7869 3.00428 22.8728C2.91834 22.9588 2.80179 23.007 2.68025 23.007Z" fill="var(--svg-base)"/>
<path d="M22.49 10.833H2.52502C2.63186 8.42357 3.6068 6.13415 5.26984 4.38742C6.93289 2.6407 9.17174 1.55464 11.573 1.32975L11.1298 0.56025C11.0975 0.503414 11.0806 0.439122 11.0808 0.373752C11.081 0.308382 11.0983 0.244203 11.131 0.187581C11.1637 0.130959 11.2106 0.0838609 11.2671 0.0509571C11.3235 0.0180532 11.3877 0.000486815 11.453 5.43225e-08H13.5613C13.6269 -3.52629e-05 13.6914 0.0171509 13.7483 0.0498414C13.8052 0.082532 13.8525 0.129582 13.8855 0.186291C13.9186 0.243 13.9361 0.307382 13.9365 0.373005C13.9368 0.438628 13.9199 0.503193 13.8875 0.56025L13.4443 1.3305C15.845 1.55588 18.0832 2.64206 19.7458 4.38858C21.4084 6.1351 22.3831 8.42406 22.49 10.833Z" fill="var(--svg-base)"/>
<path d="M24.4602 12.3114L23.4995 13.5414C23.4819 13.5646 23.4593 13.5834 23.4333 13.5964C23.4072 13.6094 23.3786 13.6162 23.3495 13.6164H1.66474C1.63565 13.6162 1.60698 13.6094 1.58096 13.5964C1.55494 13.5834 1.53228 13.5646 1.51474 13.5414L0.555485 12.3114C0.533657 12.2834 0.520147 12.2498 0.516502 12.2145C0.512858 12.1792 0.519226 12.1436 0.534877 12.1117C0.550528 12.0799 0.574831 12.0531 0.605003 12.0344C0.635175 12.0157 0.669997 12.0059 0.705485 12.0061H24.311C24.3465 12.0059 24.3813 12.0157 24.4115 12.0344C24.4416 12.0531 24.4659 12.0799 24.4816 12.1117C24.4972 12.1436 24.5036 12.1792 24.5 12.2145C24.4963 12.2498 24.4821 12.2834 24.4602 12.3114Z" fill="var(--svg-base)"/>
</g>
</g>
<defs>
<clipPath id="clip0_238_1571">
<rect width="24" height="24" fill="white" transform="translate(0.5)"/>
</clipPath>
</defs>
</svg>
