<svg width="25" height="24" viewBox="0 0 25 24" fill="none" xmlns="http://www.w3.org/2000/svg">
<g clip-path="url(#clip0_238_1572)">
<path d="M23.987 3H1.63701C1.18701 3 0.812012 3.375 0.812012 3.825V20.175C0.812012 20.625 1.18701 21 1.63701 21H23.987C24.437 21 24.812 20.625 24.812 20.175V3.825C24.812 3.375 24.437 3 23.987 3ZM14.387 8.475C14.387 8.325 14.462 8.25 14.612 8.25H20.087C20.237 8.25 20.312 8.325 20.312 8.475V9.45C20.312 9.6 20.237 9.675 20.087 9.675H14.612C14.462 9.675 14.387 9.6 14.387 9.45V8.475ZM23.312 15.45C23.312 15.6 23.237 15.675 23.087 15.675H14.612C14.462 15.675 14.387 15.6 14.387 15.45V14.475C14.387 14.325 14.462 14.25 14.612 14.25H23.087C23.237 14.25 23.312 14.325 23.312 14.475V15.45ZM23.312 12.45C23.312 12.6 23.237 12.675 23.087 12.675H14.612C14.462 12.675 14.387 12.6 14.387 12.45V11.475C14.387 11.325 14.462 11.25 14.612 11.25H23.087C23.237 11.25 23.312 11.325 23.312 11.475V12.45Z" fill="var(--svg-base)"/>
<path d="M8.16201 6.75003C4.78701 6.45003 2.01201 9.22503 2.31201 12.6C2.61201 15 4.56201 16.95 6.96201 17.25C10.337 17.625 13.112 14.775 12.737 11.475C12.512 9.00003 10.562 7.05003 8.16201 6.75003ZM10.112 15.15H5.01201V14.55C5.01201 13.275 5.91201 12.15 7.18701 12C8.01201 11.925 8.76201 12.225 9.28701 12.75C9.73701 13.2 10.037 13.8 10.037 14.55L10.112 15.15ZM7.26201 8.62503C8.23701 8.47503 9.06201 9.30003 8.91201 10.275C8.83701 10.8 8.38701 11.25 7.78701 11.4C6.81201 11.55 5.98701 10.725 6.13701 9.75003C6.28701 9.15003 6.73701 8.70003 7.26201 8.62503Z" fill="var(--svg-contrast)"/>
</g>
<defs>
<clipPath id="clip0_238_1572">
<rect width="24" height="24" fill="white" transform="translate(0.812012)"/>
</clipPath>
</defs>
</svg>
