<svg width="25" height="24" viewBox="0 0 25 24" fill="none" xmlns="http://www.w3.org/2000/svg">
<g clip-path="url(#clip0_238_1573)">
<mask id="mask0_238_1573" style="mask-type:luminance" maskUnits="userSpaceOnUse" x="0" y="0" width="25" height="24">
<path d="M24.812 0H0.812012V24H24.812V0Z" fill="white"/>
</mask>
<g mask="url(#mask0_238_1573)">
<path d="M11.6623 22.8337H2.65026C2.47316 22.8339 2.30322 22.7638 2.17778 22.6388C2.05234 22.5138 1.98166 22.3441 1.98126 22.167V1.83449C1.98136 1.74674 1.99874 1.65986 2.03242 1.57882C2.06609 1.49778 2.1154 1.42417 2.17752 1.36219C2.23964 1.3002 2.31336 1.25106 2.39448 1.21757C2.47559 1.18408 2.56251 1.16689 2.65026 1.16699H11.6623C11.75 1.16689 11.8369 1.18408 11.918 1.21757C11.9992 1.25106 12.0729 1.3002 12.135 1.36219C12.1971 1.42417 12.2464 1.49778 12.2801 1.57882C12.3138 1.65986 12.3312 1.74674 12.3313 1.83449V22.167C12.3312 22.2547 12.3138 22.3416 12.2801 22.4227C12.2464 22.5037 12.1971 22.5773 12.135 22.6393C12.0729 22.7013 11.9992 22.7504 11.918 22.7839C11.8369 22.8174 11.75 22.8338 11.6623 22.8337Z" fill="var(--svg-contrast)"/>
<path d="M11.6615 1.167C11.7493 1.1669 11.8362 1.18409 11.9173 1.21758C11.9984 1.25107 12.0721 1.30021 12.1343 1.3622C12.1964 1.42418 12.2457 1.49779 12.2794 1.57883C12.313 1.65987 12.3304 1.74674 12.3305 1.8345V22.1663C12.3304 22.254 12.313 22.3409 12.2794 22.4219C12.2457 22.503 12.1964 22.5766 12.1343 22.6386C12.0721 22.7005 11.9984 22.7497 11.9173 22.7832C11.8362 22.8167 11.7493 22.8338 11.6615 22.8337H2.64951C2.56176 22.8338 2.47484 22.8167 2.39373 22.7832C2.31261 22.7497 2.23889 22.7005 2.17677 22.6386C2.11465 22.5766 2.06534 22.503 2.03167 22.4219C1.99799 22.3409 1.98061 22.254 1.98051 22.1663V1.83375C1.98061 1.74599 1.99799 1.65912 2.03167 1.57808C2.06534 1.49704 2.11465 1.42343 2.17677 1.36145C2.23889 1.29946 2.31261 1.25032 2.39373 1.21683C2.47484 1.18334 2.56176 1.16615 2.64951 1.16625L11.6615 1.167ZM11.6615 0H2.64951C2.16289 0.000197084 1.69619 0.193339 1.35175 0.537084C1.0073 0.880828 0.813203 1.34713 0.812012 1.83375L0.812012 22.1663C0.813203 22.6529 1.0073 23.1192 1.35175 23.4629C1.69619 23.8067 2.16289 23.9998 2.64951 24H11.6615C12.1483 24 12.6152 23.8069 12.9598 23.4632C13.3044 23.1194 13.4986 22.653 13.4998 22.1663V1.83375C13.4986 1.347 13.3044 0.880585 12.9598 0.536819C12.6152 0.193053 12.1483 -1.45846e-06 11.6615 0Z" fill="var(--svg-base)"/>
<path d="M8.96902 3.81972H5.34277C5.28794 3.81982 5.23364 3.8091 5.18296 3.78819C5.13228 3.76728 5.08622 3.73658 5.04742 3.69785C5.00862 3.65912 4.97783 3.61311 4.95683 3.56247C4.93583 3.51183 4.92502 3.45754 4.92502 3.40272V2.75172C4.92502 2.69689 4.93583 2.64261 4.95683 2.59197C4.97783 2.54132 5.00862 2.49532 5.04742 2.45659C5.08622 2.41786 5.13228 2.38716 5.18296 2.36624C5.23364 2.34533 5.28794 2.33462 5.34277 2.33472H8.96902C9.02384 2.33462 9.07815 2.34533 9.12883 2.36624C9.17951 2.38716 9.22556 2.41786 9.26437 2.45659C9.30317 2.49532 9.33395 2.54132 9.35495 2.59197C9.37596 2.64261 9.38677 2.69689 9.38677 2.75172V3.40272C9.38677 3.45754 9.37596 3.51183 9.35495 3.56247C9.33395 3.61311 9.30317 3.65912 9.26437 3.69785C9.22556 3.73658 9.17951 3.76728 9.12883 3.78819C9.07815 3.8091 9.02384 3.81982 8.96902 3.81972Z" fill="var(--svg-base)"/>
<path d="M8.048 20.4405C8.04844 20.6172 7.99648 20.7899 7.89868 20.937C7.80088 21.0841 7.66165 21.1988 7.4986 21.2667C7.33556 21.3346 7.15604 21.3526 6.98276 21.3184C6.80949 21.2842 6.65025 21.1994 6.5252 21.0747C6.40016 20.95 6.31494 20.7909 6.28032 20.6177C6.24569 20.4446 6.26324 20.265 6.33072 20.1018C6.39821 19.9386 6.5126 19.799 6.65942 19.7009C6.80624 19.6027 6.97888 19.5503 7.1555 19.5503C7.27257 19.5501 7.38853 19.573 7.49676 19.6176C7.60498 19.6623 7.70335 19.7278 7.78623 19.8105C7.86912 19.8931 7.9349 19.9913 7.97982 20.0995C8.02473 20.2076 8.0479 20.3235 8.048 20.4405Z" fill="var(--svg-base)"/>
<path d="M12.9965 22.3335L11.2715 20.6085C11.7619 19.8724 11.9821 18.9891 11.8945 18.1089C11.8069 17.2287 11.4169 16.4061 10.791 15.7811C10.1652 15.1561 9.34201 14.7674 8.46172 14.681C7.58143 14.5946 6.69842 14.816 5.96301 15.3075L4.33176 13.686L16.1473 1.896L17.738 3.483C17.1284 4.21611 16.8149 5.15068 16.8592 6.10312C16.9035 7.05556 17.3023 7.95703 17.9773 8.63043C18.6523 9.30384 19.5547 9.70051 20.5072 9.74252C21.4598 9.78454 22.3936 9.46886 23.1253 8.8575L24.812 10.5405L12.9965 22.3335Z" fill="var(--svg-base)"/>
<path d="M9.77301 9.25415L11.7039 7.32322L13.6349 9.25415L11.7039 11.1851L9.77301 9.25415Z" fill="var(--svg-contrast)"/>
<path d="M11.7058 8.14878L12.812 9.25278L11.7058 10.3568L10.5995 9.25428L11.7058 8.14878ZM11.7058 6.49878L10.8808 7.32378L9.77453 8.42778L8.94952 9.25278L9.77453 10.0778L10.8808 11.1818L11.7058 12.0068L12.5308 11.1818L13.637 10.0778L14.462 9.25278L13.637 8.42778L12.533 7.32378L11.7058 6.49878Z" fill="var(--svg-base)"/>
<path d="M11.684 11.1606L13.615 9.22978L15.5459 11.1608L13.6149 13.0916L11.684 11.1606Z" fill="var(--svg-contrast)"/>
<path d="M13.6168 10.0575L14.7223 11.1615L13.616 12.2655L12.5098 11.1615L13.6168 10.0575ZM13.6168 8.40747L12.7918 9.23247L11.6855 10.3365L10.8605 11.1615L11.6855 11.9865L12.7918 13.0905L13.6168 13.9155L14.4418 13.0905L15.5473 11.9865L16.3723 11.1615L15.5473 10.3365L14.441 9.23247L13.6168 8.40747Z" fill="var(--svg-base)"/>
<path d="M13.5943 13.0681L15.5251 11.1371L17.4561 13.068L15.5253 14.999L13.5943 13.0681Z" fill="var(--svg-contrast)"/>
<path d="M15.527 11.964L16.6332 13.068L15.527 14.172L14.4207 13.068L15.527 11.964ZM15.527 10.314L14.702 11.139L13.5958 12.243L12.7708 13.068L13.5958 13.893L14.702 14.997L15.527 15.822L16.352 14.997L17.4583 13.893L18.2833 13.068L17.4583 12.243L16.352 11.139L15.527 10.314Z" fill="var(--svg-base)"/>
<path d="M15.5052 14.9746L17.4362 13.0437L19.3671 14.9746L17.4362 16.9055L15.5052 14.9746Z" fill="var(--svg-contrast)"/>
<path d="M17.438 13.8705L18.5443 14.9767L17.438 16.0807L16.3318 14.9767L17.438 13.8705ZM17.438 12.2205L16.613 13.0455L15.5053 14.1517L14.6803 14.9767L15.5053 15.8017L16.6115 16.9057L17.4365 17.7307L18.2615 16.9057L19.3708 15.8017L20.1958 14.9767L19.3708 14.1517L18.2653 13.0455L17.438 12.2205Z" fill="var(--svg-base)"/>
</g>
</g>
<defs>
<clipPath id="clip0_238_1573">
<rect width="24" height="24" fill="white" transform="translate(0.812012)"/>
</clipPath>
</defs>
</svg>
