<svg width="24" height="24" viewBox="0 0 24 24" fill="none" xmlns="http://www.w3.org/2000/svg">
<g clip-path="url(#clip0_238_1574)">
<mask id="mask0_238_1574" style="mask-type:luminance" maskUnits="userSpaceOnUse" x="0" y="0" width="24" height="24">
<path d="M24 0H0V24H24V0Z" fill="white"/>
</mask>
<g mask="url(#mask0_238_1574)">
<path d="M16.7498 6H13.5V4.28475C13.5 3.14836 13.0486 2.05852 12.245 1.25497C11.4415 0.451428 10.3516 6.57578e-08 9.21525 6.57578e-08H8.817C7.68035 -0.000198893 6.59016 0.451093 5.78621 1.25462C4.98226 2.05814 4.5304 3.1481 4.53 4.28475V6H1.25025C0.918663 6 0.600657 6.13172 0.36619 6.36619C0.131722 6.60066 0 6.91866 0 7.25025L0 22.7498C0 23.0813 0.131722 23.3993 0.36619 23.6338C0.600657 23.8683 0.918663 24 1.25025 24H16.7498C17.0813 24 17.3993 23.8683 17.6338 23.6338C17.8683 23.3993 18 23.0813 18 22.7498V7.25025C18 6.91866 17.8683 6.60066 17.6338 6.36619C17.3993 6.13172 17.0813 6 16.7498 6ZM5.7 4.28475C5.70139 3.45784 6.0306 2.66522 6.61545 2.08064C7.20031 1.49607 7.99309 1.16724 8.82 1.16625H9.21825C10.045 1.16744 10.8375 1.49638 11.422 2.08095C12.0066 2.66553 12.3356 3.45804 12.3368 4.28475V6H5.7V4.28475Z" fill="var(--svg-base)"/>
<path d="M22.9995 12H13.0005C12.8691 11.9999 12.7389 12.0257 12.6175 12.076C12.4961 12.1262 12.3857 12.1999 12.2928 12.2928C12.1999 12.3857 12.1262 12.4961 12.076 12.6175C12.0257 12.7389 11.9999 12.8691 12 13.0005V22.9995C11.9999 23.1309 12.0257 23.2611 12.076 23.3825C12.1262 23.5039 12.1999 23.6143 12.2928 23.7072C12.3857 23.8001 12.4961 23.8738 12.6175 23.924C12.7389 23.9743 12.8691 24.0001 13.0005 24H22.9995C23.2648 24 23.5193 23.8946 23.707 23.707C23.8946 23.5193 24 23.2648 24 22.9995V13.0005C24 12.7352 23.8946 12.4807 23.707 12.293C23.5193 12.1054 23.2648 12 22.9995 12Z" fill="var(--svg-contrast)"/>
<path d="M20.1667 14.5836V15.4169C20.1667 15.6905 20.1129 15.9614 20.0082 16.2142C19.9034 16.467 19.75 16.6967 19.5565 16.8902C19.363 17.0836 19.1334 17.2371 18.8806 17.3418C18.6278 17.4465 18.3569 17.5004 18.0833 17.5004H17.9167C17.3642 17.5004 16.8342 17.2809 16.4435 16.8902C16.0528 16.4994 15.8333 15.9695 15.8333 15.4169V14.5836C15.8287 14.4762 15.7828 14.3747 15.7052 14.3003C15.6275 14.2259 15.5242 14.1843 15.4166 14.1843C15.3091 14.1843 15.2057 14.2259 15.1281 14.3003C15.0504 14.3747 15.0046 14.4762 15 14.5836V15.4169C15 16.1905 15.3073 16.9324 15.8543 17.4793C16.4013 18.0263 17.1432 18.3336 17.9167 18.3336H18.0833C18.4663 18.3336 18.8456 18.2582 19.1994 18.1116C19.5533 17.965 19.8749 17.7502 20.1457 17.4793C20.4165 17.2085 20.6314 16.887 20.778 16.5331C20.9246 16.1792 21 15.7999 21 15.4169V14.5836C20.9954 14.4762 20.9496 14.3747 20.8719 14.3003C20.7943 14.2259 20.6909 14.1843 20.5834 14.1843C20.4758 14.1843 20.3725 14.2259 20.2948 14.3003C20.2172 14.3747 20.1713 14.4762 20.1667 14.5836Z" fill="var(--svg-base)"/>
</g>
</g>
<defs>
<clipPath id="clip0_238_1574">
<rect width="24" height="24" fill="white"/>
</clipPath>
</defs>
</svg>
