<svg width="25" height="24" viewBox="0 0 25 24" fill="none" xmlns="http://www.w3.org/2000/svg">
<g clip-path="url(#clip0_238_1575)">
<mask id="mask0_238_1575" style="mask-type:luminance" maskUnits="userSpaceOnUse" x="0" y="0" width="25" height="24">
<path d="M24.5 0H0.5V24H24.5V0Z" fill="white"/>
</mask>
<g mask="url(#mask0_238_1575)">
<path d="M10.6542 24L8.62925 21.975C9.19887 21.1119 9.45316 20.0786 9.34917 19.0497C9.24518 18.0208 8.78928 17.0593 8.05847 16.3276C7.32765 15.5959 6.36671 15.1388 5.33793 15.0336C4.30914 14.9284 3.27557 15.1814 2.41175 15.75L0.5 13.8458L14.3465 0L16.211 1.86375C15.4954 2.72312 15.1269 3.81897 15.1778 4.93613C15.2288 6.05329 15.6956 7.11103 16.4865 7.90167C17.2774 8.6923 18.3353 9.15869 19.4525 9.20926C20.5697 9.25984 21.6654 8.89093 22.5245 8.175L24.5 10.1535L10.655 24H10.6542Z" fill="var(--svg-base)"/>
<path d="M14.9338 12.4576C14.8907 12.4895 14.8588 12.534 14.8424 12.585C14.826 12.636 14.8259 12.6908 14.8423 12.7418L15.7505 15.5296C15.7669 15.5807 15.7666 15.6357 15.7499 15.6867C15.7331 15.7376 15.7006 15.782 15.657 15.8134C15.6135 15.8448 15.5611 15.8616 15.5075 15.8614C15.4538 15.8612 15.4016 15.844 15.3583 15.8123L12.9808 14.0873C12.9374 14.0552 12.8848 14.0378 12.8308 14.0378C12.7767 14.0378 12.7242 14.0552 12.6808 14.0873L10.3033 15.8123C10.2599 15.844 10.2077 15.8612 10.154 15.8614C10.1004 15.8616 10.048 15.8448 10.0045 15.8134C9.96093 15.782 9.92844 15.7376 9.91165 15.6867C9.89486 15.6357 9.89463 15.5807 9.911 15.5296L10.8245 12.7418C10.8408 12.6908 10.8408 12.636 10.8244 12.585C10.808 12.534 10.776 12.4895 10.733 12.4576L8.3555 10.7363C8.31178 10.705 8.27918 10.6606 8.26244 10.6095C8.2457 10.5584 8.24569 10.5033 8.26242 10.4522C8.27915 10.4011 8.31174 10.3566 8.35545 10.3253C8.39917 10.294 8.45173 10.2775 8.5055 10.2781H11.444C11.4976 10.278 11.5498 10.261 11.5932 10.2295C11.6366 10.198 11.6689 10.1536 11.6855 10.1026L12.593 7.31408C12.6096 7.26296 12.6419 7.21841 12.6853 7.18681C12.7288 7.15521 12.7811 7.13818 12.8349 7.13818C12.8886 7.13818 12.941 7.15521 12.9844 7.18681C13.0279 7.21841 13.0602 7.26296 13.0768 7.31408L13.9843 10.1026C14.001 10.1535 14.0333 10.1979 14.0766 10.2294C14.12 10.2609 14.1722 10.2779 14.2258 10.2781H17.1643C17.218 10.2775 17.2706 10.294 17.3143 10.3253C17.358 10.3566 17.3906 10.4011 17.4073 10.4522C17.4241 10.5033 17.4241 10.5584 17.4073 10.6095C17.3906 10.6606 17.358 10.705 17.3143 10.7363L14.9338 12.4576Z" fill="var(--svg-contrast)"/>
</g>
</g>
<defs>
<clipPath id="clip0_238_1575">
<rect width="24" height="24" fill="white" transform="translate(0.5)"/>
</clipPath>
</defs>
</svg>
