<svg width="31" height="24" viewBox="0 0 31 24" fill="none" xmlns="http://www.w3.org/2000/svg">
<g clip-path="url(#clip0_238_1576)">
<mask id="mask0_238_1576" style="mask-type:luminance" maskUnits="userSpaceOnUse" x="0" y="0" width="31" height="24">
<path d="M30.812 0H0.5V24H30.812V0Z" fill="white"/>
</mask>
<g mask="url(#mask0_238_1576)">
<path d="M30.812 14.3843V13.1632C29.927 12.8355 28.982 12.5497 28.0152 12.2977L29.8887 0.075L29.63 0L19.3692 10.896C16.8976 10.7142 14.4159 10.7142 11.9442 10.896L1.68275 0L1.42325 0.075L3.29825 12.3C2.3315 12.552 1.38725 12.8378 0.501495 13.1655V14.3857C1.47764 14.0318 2.47147 13.7286 3.479 13.4775L3.61025 14.331C2.42825 14.637 1.295 14.9708 0.502245 15.2415V24H13.3197V20.838H17.993V24H30.812V15.2603C30.0192 14.9895 28.8852 14.6498 27.7032 14.3378L27.8352 13.476C28.8425 13.7272 29.8361 14.0303 30.812 14.3843ZM27.1017 12.075C26.5017 11.9333 25.8942 11.8005 25.2897 11.6827L29.564 0.726L27.1017 12.075ZM25.0805 11.64L25.061 11.6363C24.5817 11.5455 24.1017 11.4645 23.6202 11.3872L29.0202 1.539L25.0805 11.64ZM23.3997 11.3535C22.8852 11.274 22.3697 11.2022 21.8532 11.1383L28.7952 1.51575L23.3997 11.3535ZM28.6797 1.3125L21.6155 11.1105C20.9577 11.0355 20.2977 10.9703 19.6377 10.9178L28.6797 1.3125ZM11.675 10.9185C11.015 10.9703 10.355 11.0332 9.69724 11.1112L2.633 1.31625L11.675 10.9185ZM9.4595 11.1435C8.943 11.207 8.4275 11.2788 7.913 11.3588L2.5175 1.51575L9.4595 11.1435ZM7.69175 11.3925C7.211 11.4675 6.73025 11.5507 6.251 11.6415L6.23225 11.6453L2.2925 1.542L7.69175 11.3925ZM1.748 0.726L6.023 11.6858C5.4185 11.8035 4.814 11.9362 4.21025 12.078L1.748 0.726ZM26.6682 14.076C26.0562 13.926 25.454 13.794 24.9012 13.6898C18.7907 12.5334 12.5175 12.5334 6.407 13.6898C5.85575 13.794 5.25425 13.926 4.643 14.0715L4.46225 13.239C5.0585 13.1025 5.65625 12.9735 6.251 12.8602C12.4662 11.6877 18.8458 11.6877 25.061 12.8602C25.6557 12.9742 26.2535 13.1025 26.8497 13.239L26.6682 14.076Z" fill="var(--svg-base)"/>
<path d="M22.1315 24H30.812V23.1825L22.1315 22.6658V24Z" fill="var(--svg-contrast)"/>
<path d="M22.1158 20.8396V21.6826L30.809 22.2143V21.3706L22.1158 20.8396Z" fill="var(--svg-contrast)"/>
<path d="M22.1158 19.0125V19.8555L30.809 20.3872V19.5435L22.1158 19.0125Z" fill="var(--svg-contrast)"/>
<path d="M22.1158 17.1863V18.0293L30.809 18.561V17.7173L22.1158 17.1863Z" fill="var(--svg-contrast)"/>
<path d="M22.1188 16.2L30.812 16.7318V15.888L29.4748 15.8063V14.916L27.968 12.6195L26.993 12.5723L24.6005 14.655V15.5115L22.1158 15.3615L22.1188 16.2Z" fill="var(--svg-contrast)"/>
<path d="M9.17975 24H0.5V23.1825L9.1805 22.6658L9.17975 24Z" fill="var(--svg-contrast)"/>
<path d="M9.19625 20.8396V21.6826L0.5 22.2136V21.3699L9.19625 20.8396Z" fill="var(--svg-contrast)"/>
<path d="M9.19625 19.0125V19.8555L0.5 20.3872V19.5435L9.19625 19.0125Z" fill="var(--svg-contrast)"/>
<path d="M9.19625 17.1863V18.0293L0.5 18.561V17.7173L9.19625 17.1863Z" fill="var(--svg-contrast)"/>
<path d="M9.19325 16.2L0.5 16.7348V15.891L1.83725 15.8093V14.916L3.344 12.6195L4.319 12.5723L6.7115 14.655V15.5115L9.19625 15.3615L9.19325 16.2Z" fill="var(--svg-contrast)"/>
</g>
</g>
<defs>
<clipPath id="clip0_238_1576">
<rect width="30.312" height="24" fill="white" transform="translate(0.5)"/>
</clipPath>
</defs>
</svg>
