<svg width="25" height="24" viewBox="0 0 25 24" fill="none" xmlns="http://www.w3.org/2000/svg">
<g clip-path="url(#clip0_238_1577)">
<mask id="mask0_238_1577" style="mask-type:luminance" maskUnits="userSpaceOnUse" x="0" y="0" width="25" height="24">
<path d="M24.812 0H0.812012V24H24.812V0Z" fill="white"/>
</mask>
<g mask="url(#mask0_238_1577)">
<path d="M10.9663 24L8.94126 21.975C9.51089 21.1119 9.76518 20.0786 9.66118 19.0497C9.55719 18.0208 9.10129 17.0593 8.37048 16.3276C7.63966 15.5959 6.67872 15.1388 5.64994 15.0336C4.62116 14.9284 3.58758 15.1814 2.72376 15.75L0.812012 13.8458L14.6585 0L16.523 1.86375C15.8074 2.72312 15.4389 3.81897 15.4898 4.93613C15.5408 6.05329 16.0076 7.11103 16.7985 7.90167C17.5894 8.6923 18.6473 9.15869 19.7645 9.20926C20.8817 9.25984 21.9774 8.89093 22.8365 8.175L24.812 10.1535L10.967 24H10.9663Z" fill="var(--svg-base)"/>
<path d="M9.4529 7.34547L8.15677 8.6416L9.4529 9.93773L10.749 8.6416L9.4529 7.34547Z" fill="var(--svg-contrast)"/>
<path d="M11.6924 9.58424L10.3963 10.8804L11.6924 12.1765L12.9885 10.8804L11.6924 9.58424Z" fill="var(--svg-contrast)"/>
<path d="M13.9311 11.8235L12.635 13.1196L13.9311 14.4158L15.2273 13.1196L13.9311 11.8235Z" fill="var(--svg-contrast)"/>
<path d="M16.1706 14.0623L14.8745 15.3584L16.1706 16.6545L17.4668 15.3584L16.1706 14.0623Z" fill="var(--svg-contrast)"/>
</g>
</g>
<defs>
<clipPath id="clip0_238_1577">
<rect width="24" height="24" fill="white" transform="translate(0.812012)"/>
</clipPath>
</defs>
</svg>
