<svg width="43" height="24" viewBox="0 0 43 24" fill="none" xmlns="http://www.w3.org/2000/svg">
<g clip-path="url(#clip0_263_863)">
<path fill-rule="evenodd" clip-rule="evenodd" d="M38.6632 11.721C39.202 11.2592 40.0488 11.0667 40.8572 11.2977C41.781 11.567 42.3585 12.3368 42.3585 13.3377C42.3585 14.2195 41.5947 14.9486 40.7518 15.7532L40.7418 15.7627C39.895 16.571 39.0482 17.3793 38.9327 18.3032C38.9712 18.5342 38.9712 18.7265 38.9712 18.996C38.9712 20.1893 37.9318 20.8437 35.8918 20.9207C35.9896 21.3118 36.3855 21.544 36.7513 21.7585C37.1055 21.9662 37.4315 22.1574 37.4315 22.4603H32.0427C32.0427 22.168 32.3549 21.9797 32.6995 21.772C33.0807 21.5422 33.5014 21.2885 33.5823 20.8437C32.3122 20.7282 30.503 20.3432 30.503 18.9575C30.503 18.6882 30.5415 18.4572 30.58 18.3032C30.426 17.3793 29.5792 16.571 28.7708 15.8012C28.7106 15.741 28.6504 15.6812 28.5905 15.6217C27.8465 14.883 27.1542 14.1956 27.1542 13.3762C27.1542 12.3755 27.693 11.6057 28.6553 11.3362C29.4252 11.1052 30.272 11.2977 30.8493 11.7595C30.8493 11.7403 30.859 11.7306 30.8686 11.721C30.8782 11.7114 30.8878 11.7018 30.8878 11.6825C31.2727 11.105 32.2735 10.7972 33.1588 10.6432C32.9278 10.5662 32.8123 10.4507 32.8123 10.3352C32.8123 10.0273 33.4667 9.79634 34.352 9.75784V9.71934C34.0057 9.68084 33.7747 9.52684 33.7747 9.37284C33.7747 9.21884 34.0055 9.10334 34.352 9.02634V8.21801L34.737 7.83301L35.122 8.21801V9.02634C35.4683 9.06484 35.7378 9.18034 35.7378 9.33434C35.7378 9.48834 35.507 9.60384 35.1605 9.68084V9.71934C36.0458 9.79634 36.7002 10.0272 36.7002 10.2967C36.7002 10.4122 36.6232 10.5277 36.4307 10.6047C37.5468 10.7587 38.2782 11.1052 38.6247 11.644C38.6247 11.6633 38.6343 11.6729 38.6439 11.6825C38.6535 11.6921 38.6632 11.7018 38.6632 11.721ZM29.1555 15.3393C29.7713 15.9168 30.4642 16.5712 30.8492 17.341L30.8493 17.3408C30.9228 17.2103 31.0014 17.0902 31.0797 16.9705C31.3708 16.5256 31.6577 16.0873 31.6577 15.1468C31.6577 14.2329 31.3121 13.6646 31.034 13.2073C30.8669 12.9326 30.7242 12.6979 30.6953 12.4523C30.2718 11.8365 29.425 11.6825 28.8092 11.875C28.4627 11.952 27.6928 12.2983 27.6928 13.3377C27.6928 13.9537 28.4242 14.6465 29.1555 15.3393ZM38.6245 17.341C39.0095 16.6095 39.6638 15.9552 40.3182 15.3393L40.3183 15.3395C41.0882 14.6465 41.781 13.9537 41.781 13.3378C41.781 12.2985 41.0112 11.9522 40.6647 11.8752C40.0102 11.6827 39.1635 11.8367 38.7785 12.4525C38.7356 12.7101 38.5915 12.9518 38.4274 13.227C38.1503 13.6919 37.8162 14.2524 37.8162 15.147C37.8162 16.0873 38.103 16.5257 38.3942 16.9707C38.4725 17.0904 38.5511 17.2105 38.6245 17.341ZM31.6575 24H37.8163L37.4314 22.8452H32.0425L31.6575 24Z" fill="var(--svg-base)"/>
<path d="M27.8165 13.7612V16.3017V17.0716V19.7659L28.7787 18.6112L29.741 19.7659V16.9946V16.3017V15.8782L27.8165 13.7612Z" fill="var(--svg-contrast)"/>
<path d="M39.749 15.9168V16.6866V17.0716V19.766L40.7114 18.6113L41.6735 19.766V17.0716V16.6866V13.7998L39.749 15.9168Z" fill="var(--svg-contrast)"/>
<path fill-rule="evenodd" clip-rule="evenodd" d="M7.63633 4.43183L6.2045 3L4.77267 4.43183L2.86367 3.9545L3.7705 6.81817H6.2045H8.63867L9.5455 3.9545L7.63633 4.43183ZM7.73183 21.1842C7.49317 20.9933 7.20683 20.85 6.9205 20.7547C8.591 19.8002 12.4092 16.507 12.4092 6.81832H0C0 16.507 3.81817 19.8002 5.44083 20.7547C5.1545 20.8502 4.86817 20.9933 4.6295 21.1842C4.15217 21.566 3.81817 22.0433 3.5795 22.5683H8.734C8.59083 22.0433 8.20917 21.566 7.73183 21.1842ZM10.9773 14.0728C10.5 15.6955 9.78417 17.1273 8.97283 18.2728C8.20917 19.2752 7.4455 19.8955 6.96833 20.2297C6.92059 20.2535 6.87288 20.2893 6.82517 20.3251L6.82517 20.3251C6.77746 20.3609 6.72975 20.3967 6.682 20.4205V20.3728C7.68433 19.5615 9.9275 16.9842 10.4047 9.72965H11.7888C11.6457 11.3047 11.4068 12.7365 10.9773 14.0728ZM11.9318 7.29548C11.9318 7.96365 11.8842 8.58415 11.8363 9.20465H10.4045L10.405 9.19818L10.405 9.19815C10.4525 8.57982 10.5 7.96149 10.5 7.29548H11.9318ZM1.90917 7.29548C1.90917 7.96365 1.90917 8.58415 1.95683 9.20465H0.525C0.525 8.90016 0.513522 8.59571 0.50183 8.28561C0.489697 7.96378 0.477333 7.63585 0.477333 7.29548H1.90917ZM5.441 20.1818C4.96367 19.8477 4.20017 19.2273 3.4365 18.225C2.57733 17.1273 1.90917 15.6955 1.432 14.0727C1.0025 12.7363 0.763833 11.3045 0.620667 9.68182H2.00483C2.48217 16.9363 4.72533 19.5613 5.7275 20.325V20.3727C5.632 20.325 5.5365 20.2772 5.441 20.1818ZM3.34084 24H9.06817C9.06817 23.666 9.0205 23.3797 8.925 23.0455H3.43634C3.43106 23.0823 3.42579 23.1185 3.42059 23.1543C3.37857 23.4432 3.34084 23.7027 3.34084 24Z" fill="var(--svg-base)"/>
<path d="M4.77264 6.81812V9.20445V13.0226L6.20448 11.5908L7.63631 13.0226V9.20445V6.81812H4.77264Z" fill="var(--svg-contrast)"/>
<path d="M22.4364 21.7143C22.2187 21.4422 22.3819 20.8437 22.5997 20.517C22.9807 19.9183 23.3072 19.3197 23.5794 18.6667C26.4637 13.0068 27.9875 8.54417 27.9875 5.44217C27.9875 0.9795 25.7562 0 24.8855 0C23.9059 0 22.8175 0.598667 22.8175 2.17683C22.8175 3.0475 23.4705 3.483 24.1237 3.91833C24.7224 4.35367 25.2665 4.73467 25.2665 5.4965C25.321 6.09517 24.8855 6.585 24.2869 6.69383V6.5305C24.7767 6.04067 24.9944 5.4965 24.2869 5.4965H16.6679C15.9604 5.4965 16.1781 6.04067 16.6679 6.5305V6.69383C16.0692 6.585 15.6882 6.09517 15.7427 5.4965C15.7427 4.789 16.2869 4.408 16.8855 3.97267C17.4842 3.53733 18.1917 3.102 18.1917 2.23117C18.1917 1.2515 17.8107 0.0543333 15.906 0.0543333C14.8175 0.0543333 13.076 0.761833 13.076 5.4965C13.076 8.54417 14.4911 12.8978 17.3209 18.4488C17.6474 19.2107 18.0284 19.9727 18.4637 20.6257C18.627 20.9522 18.8447 21.5508 18.5725 21.823C17.9739 22.476 16.7222 22.8027 16.7222 23.4557V23.9998H24.3412V23.4557C24.2867 22.6938 23.035 22.4218 22.4364 21.7143ZM26.0827 5.44217C26.0827 4.29933 25.2664 3.70067 24.5589 3.26533C23.9602 2.88433 23.6337 2.61233 23.6337 2.17683C23.6337 1.25167 24.069 0.816333 24.831 0.816333C25.4297 0.816333 27.1167 1.687 27.1167 5.44217C27.1167 7.2925 26.518 9.7415 25.4297 12.6258C25.7562 10.9388 25.9195 9.52383 25.9195 8.7075C25.9195 8 25.2665 7.78233 24.7767 7.40133C25.593 7.12917 26.137 6.31283 26.0827 5.44217ZM13.8379 5.44217C13.8379 2.50333 14.5997 0.816333 15.9059 0.816333C16.9944 0.816333 17.4297 1.19733 17.4297 2.17683C17.4297 2.55783 17.1032 2.82983 16.5045 3.26533C15.8515 3.75517 14.9807 4.29933 14.9807 5.44217C14.9262 6.31283 15.4705 7.12917 16.2869 7.40133C15.6882 7.78233 15.0352 8 15.0352 8.7075C15.0352 9.52383 15.1985 10.9388 15.525 12.5715C14.3822 9.68717 13.8379 7.29267 13.8379 5.44217Z" fill="var(--svg-base)"/>
<path d="M18.8445 5.44214V8.16331V12.517L20.4772 11.0476L22.1099 12.517V8.16331V5.44214H18.8445Z" fill="var(--svg-contrast)"/>
</g>
<defs>
<clipPath id="clip0_263_863">
<rect width="42.5" height="24" fill="white"/>
</clipPath>
</defs>
</svg>
