<svg width="25" height="24" viewBox="0 0 25 24" fill="none" xmlns="http://www.w3.org/2000/svg">
<g clip-path="url(#clip0_238_1580)">
<mask id="mask0_238_1580" style="mask-type:luminance" maskUnits="userSpaceOnUse" x="0" y="0" width="25" height="24">
<path d="M24.5 0H0.5V24H24.5V0Z" fill="white"/>
</mask>
<g mask="url(#mask0_238_1580)">
<path d="M19.265 24H5.73352C5.55814 23.9998 5.38997 23.9301 5.26596 23.8061C5.14195 23.6821 5.07216 23.5139 5.07196 23.3385C5.07275 22.7187 5.31945 22.1245 5.75787 21.6864C6.1963 21.2482 6.79066 21.0019 7.41049 21.0015H9.46851H15.53H17.5888C18.2086 21.0019 18.803 21.2482 19.2414 21.6864C19.6798 22.1245 19.9264 22.7187 19.9272 23.3385C19.927 23.514 19.8572 23.6823 19.733 23.8063C19.6089 23.9304 19.4405 24 19.265 24ZM7.40976 22.002C7.11387 22.0018 6.82628 22.0996 6.59192 22.2803C6.35756 22.4609 6.1896 22.7141 6.11447 23.0003H18.8825C18.8074 22.7142 18.6396 22.4611 18.4054 22.2805C18.1712 22.0999 17.8838 22.002 17.588 22.002H7.40976ZM15.5292 20.1668H9.46777V17.4915H2.16653C1.72467 17.4911 1.30097 17.3154 0.988525 17.003C0.676082 16.6905 0.500397 16.2669 0.5 15.825V1.66578C0.500397 1.22385 0.676104 0.800127 0.988525 0.487564C1.30095 0.175002 1.7246 -0.00086916 2.16653 -0.00146484H22.8313C23.2734 -0.001068 23.6973 0.174693 24.01 0.487255C24.3227 0.799818 24.4987 1.22365 24.4993 1.66578V15.825C24.4983 16.2668 24.3221 16.6902 24.0095 17.0023C23.6968 17.3144 23.2731 17.4898 22.8313 17.49H15.5292V20.1645V20.1668ZM1.49902 13.6598V15.8265C1.49922 16.0033 1.56949 16.1728 1.69449 16.2978C1.81949 16.4228 1.98894 16.4931 2.16571 16.4933H22.8305C23.0075 16.4933 23.1772 16.4231 23.3025 16.2981C23.4278 16.1731 23.4984 16.0035 23.4988 15.8265V13.6598H1.49902ZM1.49902 1.30354V12.5033H23.4995V1.30354H1.49902Z" fill="var(--svg-base)"/>
<path d="M6.11447 23.7631V21.6556H19.0895V23.7631H6.11447ZM23.4988 16.9156H1.22601V13.2781H23.501V16.9156H23.4988ZM11.9158 15.0766C11.916 15.2313 11.9775 15.3796 12.0869 15.4889C12.1963 15.5983 12.3446 15.6599 12.4993 15.6601C12.654 15.6601 12.8025 15.5986 12.9119 15.4892C13.0213 15.3798 13.0827 15.2313 13.0827 15.0766C13.0827 14.9217 13.0213 14.7733 12.9119 14.6637C12.8025 14.5542 12.6541 14.4925 12.4993 14.4923C12.4225 14.4924 12.3465 14.5077 12.2756 14.5372C12.2047 14.5667 12.1403 14.6098 12.0861 14.6642C12.0319 14.7186 11.989 14.7832 11.9597 14.8542C11.9305 14.9252 11.9156 15.0013 11.9158 15.0781V15.0766Z" fill="var(--svg-base)"/>
<path d="M22.832 22.9995H18.3673C18.1902 22.9995 18.0205 22.9292 17.8953 22.804C17.7701 22.6788 17.6998 22.509 17.6998 22.332V11.5005C17.6998 11.4129 17.717 11.326 17.7506 11.2451C17.7841 11.1641 17.8333 11.0905 17.8953 11.0285C17.9573 10.9665 18.0308 10.9174 18.1118 10.8838C18.1928 10.8503 18.2796 10.833 18.3673 10.833H22.832C22.9197 10.833 23.0065 10.8503 23.0875 10.8838C23.1684 10.9174 23.242 10.9665 23.304 11.0285C23.366 11.0905 23.4152 11.1641 23.4487 11.2451C23.4823 11.326 23.4995 11.4129 23.4995 11.5005V22.332C23.4995 22.509 23.4292 22.6788 23.304 22.804C23.1788 22.9292 23.0091 22.9995 22.832 22.9995Z" fill="var(--svg-contrast)"/>
<path d="M22.832 10.833C23.009 10.833 23.1788 10.9033 23.304 11.0285C23.4292 11.1537 23.4995 11.3235 23.4995 11.5005V22.3328C23.4995 22.5098 23.4292 22.6796 23.304 22.8047C23.1788 22.9299 23.009 23.0003 22.832 23.0003H18.3672C18.1902 23.0003 18.0204 22.9299 17.8952 22.8047C17.7701 22.6796 17.6997 22.5098 17.6997 22.3328V11.5005C17.6997 11.3235 17.7701 11.1537 17.8952 11.0285C18.0204 10.9033 18.1902 10.833 18.3672 10.833H22.832ZM22.832 9.83325H18.3672C17.9255 9.83424 17.5022 10.0103 17.1899 10.3228C16.8777 10.6353 16.7021 11.0588 16.7015 11.5005V22.3328C16.7021 22.7748 16.8779 23.1985 17.1905 23.511C17.503 23.8236 17.9267 23.9994 18.3687 24H22.8335C23.2755 23.9994 23.6992 23.8236 24.0117 23.511C24.3243 23.1985 24.5001 22.7748 24.5007 22.3328V11.5005C24.5001 11.0582 24.3241 10.6343 24.0112 10.3217C23.6983 10.0091 23.2742 9.83345 22.832 9.83325Z" fill="var(--svg-base)"/>
<path d="M21.4325 12.3225H19.766C19.6586 12.3179 19.5571 12.2721 19.4827 12.1944C19.4082 12.1168 19.3667 12.0134 19.3667 11.9059C19.3667 11.7984 19.4082 11.695 19.4827 11.6173C19.5571 11.5397 19.6586 11.4938 19.766 11.4893H21.4325C21.54 11.4938 21.6415 11.5397 21.7159 11.6173C21.7903 11.695 21.8318 11.7984 21.8318 11.9059C21.8318 12.0134 21.7903 12.1168 21.7159 12.1944C21.6415 12.2721 21.54 12.3179 21.4325 12.3225Z" fill="var(--svg-base)"/>
<path d="M21.0988 21.6533C21.0988 21.7523 21.0694 21.849 21.0145 21.9313C20.9595 22.0135 20.8814 22.0776 20.79 22.1155C20.6985 22.1534 20.598 22.1633 20.5009 22.144C20.4039 22.1247 20.3147 22.077 20.2448 22.0071C20.1748 21.9371 20.1272 21.848 20.1079 21.7509C20.0886 21.6539 20.0985 21.5533 20.1363 21.4619C20.1742 21.3705 20.2383 21.2924 20.3206 21.2374C20.4029 21.1824 20.4996 21.1531 20.5985 21.1531C20.7312 21.1531 20.8584 21.2058 20.9522 21.2996C21.0461 21.3934 21.0988 21.5207 21.0988 21.6533Z" fill="var(--svg-base)"/>
</g>
</g>
<defs>
<clipPath id="clip0_238_1580">
<rect width="24" height="24" fill="white" transform="translate(0.5)"/>
</clipPath>
</defs>
</svg>
